<svg width="57" height="56" viewBox="0 0 57 56" fill="none" xmlns="http://www.w3.org/2000/svg">
<g clip-path="url(#clip0_50_11)">
<path d="M28.1037 56C43.5943 56 56.152 43.464 56.152 28C56.152 12.536 43.5943 0 28.1037 0C12.613 0 0.0552979 12.536 0.0552979 28C0.0552979 43.464 12.613 56 28.1037 56Z" fill="#3CB868"/>
<path d="M40.1503 36.82H28.2172V20H39.0843C42.5917 20 44.4959 22.1821 44.4959 24.7645C44.4959 25.9233 43.9109 27.1078 43.0134 28.0039C44.3361 28.7011 45.4701 30.2721 45.4701 31.9102C45.4701 34.7916 43.2167 36.82 40.1503 36.82ZM32.3819 33.4364H39.5836C40.5925 33.4364 41.2568 32.6916 41.2568 31.7757V31.7489C41.2568 30.8334 40.5925 30.0883 39.5836 30.0883H32.3819V33.4364ZM32.3819 26.7046H38.5429C39.6333 26.7046 40.2827 25.9598 40.2827 25.044C40.2827 24.1284 39.6737 23.3833 38.5429 23.3833H32.3819V26.7046Z" fill="white"/>
<path d="M20.8939 36.82H12.076V20H19.8277C23.3353 20 25.2393 22.1821 25.2393 24.7645C25.2393 25.9233 24.6544 27.1078 23.7569 28.0039C25.0796 28.7011 26.2135 30.2721 26.2135 31.9102C26.2135 34.7916 23.9601 36.82 20.8939 36.82ZM16.2405 33.4364H20.327C21.336 33.4364 22.0004 32.6916 22.0004 31.7757V31.7489C22.0004 30.8334 21.336 30.0883 20.327 30.0883H16.2405V33.4364ZM16.2405 26.7046H19.2863C20.3768 26.7046 21.0262 25.9598 21.0262 25.044C21.0262 24.1284 20.4172 23.3833 19.2863 23.3833H16.2405V26.7046Z" fill="white"/>
</g>
<defs>
<clipPath id="clip0_50_11">
<rect width="56.0967" height="56" fill="white" transform="translate(0.0552979)"/>
</clipPath>
</defs>
</svg>
