<svg width="57" height="56" viewBox="0 0 57 56" fill="none" xmlns="http://www.w3.org/2000/svg">
<g clip-path="url(#clip0_50_15)">
<path d="M28.1796 56C43.6703 56 56.228 43.464 56.228 28C56.228 12.536 43.6703 0 28.1796 0C12.689 0 0.131287 12.536 0.131287 28C0.131287 43.464 12.689 56 28.1796 56Z" fill="#FF3A3A"/>
<path d="M15.1572 22.1744C15.1617 20.0074 16.0123 17.9305 17.5229 16.3984C19.0335 14.8663 21.0811 14.0039 23.2171 14H41.8244V18.1552H23.2219C22.1724 18.1597 21.167 18.5846 20.4246 19.3373C19.6823 20.0899 19.2628 21.1096 19.2577 22.1744L19.2334 29.15C19.1484 30.0437 18.7742 30.8837 18.169 31.5389C17.5637 32.194 16.7617 32.6273 15.8881 32.7712L15.1572 32.8849V22.1744Z" fill="white"/>
<path d="M15.1582 41V36.8447H33.7656C34.8155 36.8396 35.8207 36.4142 36.5631 35.6611C37.3053 34.908 37.7247 33.8881 37.7298 32.8232V26.2035C37.7349 25.2431 38.0764 24.3159 38.6933 23.5873C39.31 22.8588 40.162 22.3764 41.0969 22.2263L41.828 22.1151V32.8232C41.8234 34.9904 40.9728 37.0676 39.4622 38.6C37.9517 40.1325 35.9043 40.9953 33.7681 41H15.1582Z" fill="white"/>
<path d="M30.9218 32.8997V27.5284L28.495 30.4675L26.0707 27.5284V32.8997H22.857V22.3301H25.9001L28.495 25.7289L31.0899 22.3301H34.133V32.8997H30.9218Z" fill="white"/>
</g>
<defs>
<clipPath id="clip0_50_15">
<rect width="56.0967" height="56" fill="white" transform="translate(0.131287)"/>
</clipPath>
</defs>
</svg>
