<svg width="57" height="56" viewBox="0 0 57 56" fill="none" xmlns="http://www.w3.org/2000/svg">
<g clip-path="url(#clip0_50_62)">
<path d="M28.9361 56C44.4268 56 56.9845 43.464 56.9845 28C56.9845 12.536 44.4268 0 28.9361 0C13.4454 0 0.887741 12.536 0.887741 28C0.887741 43.464 13.4454 56 28.9361 56Z" fill="#FF7B76"/>
<path d="M44.9637 12H12.9085V44H44.9637V12Z" fill="#FF7B76"/>
<mask id="mask0_50_62" style="mask-type:alpha" maskUnits="userSpaceOnUse" x="14" y="17" width="30" height="25">
<path opacity="0.4" fill-rule="evenodd" clip-rule="evenodd" d="M27.7875 38.3824L29.3799 37.4812C32.4868 35.7228 34.5083 32.5309 34.7671 28.9749L35.4203 20H43.6282L42.812 30.3519C42.5336 33.8837 40.5169 37.047 37.4296 38.7942L32.9431 41.3333L28.4566 38.7942C28.2276 38.6646 28.0045 38.5272 27.7875 38.3824Z" fill="black"/>
<path fill-rule="evenodd" clip-rule="evenodd" d="M14.2441 17.3333H35.6142L34.7669 28.9749C34.5082 32.5309 32.4867 35.7227 29.3797 37.4812L24.9291 40L20.4785 37.4812C17.3715 35.7227 15.3501 32.5309 15.0912 28.9749L14.2441 17.3333ZM21.5517 32.5236C21.1529 32.1918 20.9223 31.7003 20.9223 31.182C20.9223 30.9122 21.1649 30.707 21.4315 30.7514L22.4094 30.9141C24.0777 31.1917 25.7806 31.1917 27.4488 30.9141L28.4268 30.7514C28.6934 30.707 28.9361 30.9122 28.9361 31.182C28.9361 31.7003 28.7055 32.1918 28.3066 32.5236L27.2196 33.4279C25.8927 34.5317 23.9655 34.5317 22.6387 33.4279L21.5517 32.5236ZM18.251 25.5326C18.251 24.6862 18.9384 24 19.7862 24H19.946C20.5443 24 21.0913 24.3374 21.3588 24.8717C21.4753 25.1042 21.3384 25.3836 21.0831 25.4345L18.7101 25.9083C18.4726 25.9557 18.251 25.7744 18.251 25.5326ZM30.072 24C30.9199 24 31.6072 24.6862 31.6071 25.5327C31.607 25.7745 31.3855 25.9557 31.148 25.9083L28.7752 25.4345C28.5199 25.3836 28.383 25.1042 28.4994 24.8717C28.767 24.3374 29.314 24 29.9123 24H30.072Z" fill="black"/>
</mask>
<g mask="url(#mask0_50_62)">
<path d="M12.9085 12H44.9637V44H12.9085V12Z" fill="white"/>
</g>
</g>
<defs>
<clipPath id="clip0_50_62">
<rect width="56.0967" height="56" fill="white" transform="translate(0.887741)"/>
</clipPath>
</defs>
</svg>
