<svg width="29" height="29" viewBox="0 0 29 29" fill="none" xmlns="http://www.w3.org/2000/svg">
<rect x="-13" y="-13" width="56" height="56" rx="28" fill="white"/>
<path d="M10.875 17.2188L18.125 9.96876M23.5625 5.74805V26.2813L19.0313 24.4688L14.5 26.2813L9.96875 24.4688L5.4375 26.2813V5.74805C5.4375 4.40922 6.41142 3.26251 7.74179 3.10784C12.2322 2.58661 16.7678 2.58661 21.2582 3.10784C22.5874 3.26251 23.5625 4.40922 23.5625 5.74805ZM11.7813 10.875H11.7909V10.8847H11.7813V10.875ZM12.2344 10.875C12.2344 10.9952 12.1866 11.1104 12.1017 11.1954C12.0167 11.2804 11.9014 11.3281 11.7813 11.3281C11.6611 11.3281 11.5458 11.2804 11.4608 11.1954C11.3759 11.1104 11.3281 10.9952 11.3281 10.875C11.3281 10.7548 11.3759 10.6396 11.4608 10.5546C11.5458 10.4696 11.6611 10.4219 11.7813 10.4219C11.9014 10.4219 12.0167 10.4696 12.1017 10.5546C12.1866 10.6396 12.2344 10.7548 12.2344 10.875ZM17.2188 16.3125H17.2284V16.3222H17.2188V16.3125ZM17.6719 16.3125C17.6719 16.4327 17.6241 16.5479 17.5392 16.6329C17.4542 16.7179 17.3389 16.7656 17.2188 16.7656C17.0986 16.7656 16.9833 16.7179 16.8983 16.6329C16.8134 16.5479 16.7656 16.4327 16.7656 16.3125C16.7656 16.1923 16.8134 16.0771 16.8983 15.9921C16.9833 15.9071 17.0986 15.8594 17.2188 15.8594C17.3389 15.8594 17.4542 15.9071 17.5392 15.9921C17.6241 16.0771 17.6719 16.1923 17.6719 16.3125Z" stroke="#1373E5" stroke-width="1.5" stroke-linecap="round" stroke-linejoin="round"/>
</svg>
