<svg width="564" height="374" viewBox="0 0 564 374" fill="none" xmlns="http://www.w3.org/2000/svg">
<g clip-path="url(#clip0_27_112)">
<path d="M285.718 105.117C280.689 96.8107 274.73 87.9423 265.397 85.2301C254.59 82.0893 243.488 88.3287 234.071 94.4857C205.908 112.899 178.788 132.855 152.832 154.26L152.861 154.582C173.068 153.191 193.275 151.799 213.482 150.407C228.082 149.402 243.183 148.258 256.085 141.361C260.981 138.743 265.753 135.247 271.301 135.004C278.194 134.701 284.204 139.508 288.927 144.531C316.865 174.241 324.95 219.674 356.294 245.777C336.529 197.1 312.93 150.066 285.718 105.117Z" fill="#F2F2F2"/>
<path d="M457.45 357.11C454.36 353.214 453.098 352.302 450.05 348.37C425.236 316.32 401.913 283.188 380.081 248.973C365.251 225.736 351.157 202.052 337.798 177.922C331.438 166.45 325.253 154.889 319.242 143.237C314.577 134.203 310.017 125.114 305.561 115.972C304.286 113.36 303.048 110.737 301.816 108.108C298.912 101.925 296.063 95.7116 293.003 89.6126C289.517 82.6612 285.273 75.3736 278.871 70.7033C275.958 68.4906 272.474 67.1518 268.826 66.8434C263.615 66.5072 258.806 68.6563 254.285 71.0034C221.212 88.2259 190.249 109.819 162.243 134.389C134.166 159.014 109.069 186.835 87.4644 217.283C86.8035 218.226 85.2405 217.325 85.9076 216.377C88.5346 212.667 91.2136 208.997 93.9446 205.368C127.903 160.265 169.542 121.479 216.956 90.7832C224.933 85.6206 233.06 80.7002 241.337 76.0219C245.509 73.6627 249.699 71.3336 253.961 69.1485C258.139 67.0055 262.575 65.0785 267.348 65.0065C283.59 64.7544 291.999 83.1234 297.776 95.4835C299.591 99.3734 301.429 103.251 303.288 107.117C310.315 121.794 317.613 136.338 325.181 150.747C329.851 159.643 334.624 168.487 339.499 177.28C354.671 204.659 370.797 231.484 387.877 257.755C410.503 292.554 432.949 323.296 458.724 355.838C459.434 356.738 458.165 358.023 457.45 357.11Z" fill="#E4E4E4"/>
<path d="M160.638 125.318C159.694 124.268 158.757 123.217 157.807 122.167C150.317 113.895 142.28 105.719 131.995 100.976C127.091 98.6436 121.737 97.4044 116.306 97.3444C110.692 97.3624 105.203 98.8331 100.016 100.892C97.5633 101.871 95.1647 102.981 92.8026 104.164C90.1034 105.52 87.4524 106.967 84.8137 108.426C79.8604 111.163 74.9714 114.021 70.1466 116.998C60.5467 122.923 51.2475 129.3 42.2488 136.129C37.5841 139.671 33.0155 143.329 28.5433 147.103C24.3836 150.609 20.3081 154.208 16.3167 157.902C15.4632 158.689 14.1888 157.416 15.0423 156.63C16.0942 155.651 17.1582 154.679 18.2222 153.718C21.2278 151.005 24.2815 148.344 27.3833 145.734C33.0396 140.968 38.8423 136.386 44.7915 131.987C54.0428 125.144 63.6125 118.765 73.5006 112.85C78.4419 109.897 83.4512 107.067 88.5284 104.362C90.0614 103.545 91.6124 102.747 93.1812 101.991C96.741 100.198 100.44 98.6939 104.242 97.4945C109.627 95.7547 115.325 95.1957 120.947 95.8557C126.374 96.6441 131.604 98.4508 136.359 101.18C146.458 106.817 154.29 115.533 161.912 124.04C162.682 124.904 161.413 126.183 160.638 125.318Z" fill="#E4E4E4"/>
<path d="M367.556 211.039L391.754 202.2L403.769 197.812C407.682 196.382 411.586 194.755 415.631 193.732C419.146 192.729 422.879 192.777 426.367 193.869C429.478 195.019 432.326 196.781 434.741 199.053C437.209 201.322 439.505 203.77 441.61 206.378C444.226 209.517 446.803 212.689 449.392 215.851C460.076 228.9 470.691 242.005 481.235 255.167C491.78 268.329 502.254 281.547 512.657 294.821C523.086 308.127 533.443 321.489 543.728 334.906C544.988 336.55 546.247 338.194 547.505 339.84C548.2 340.749 549.767 339.852 549.062 338.931C538.701 325.378 528.267 311.881 517.762 298.44C507.23 284.967 496.626 271.55 485.949 258.191C475.272 244.832 464.523 231.531 453.702 218.288C451.006 214.988 448.306 211.693 445.601 208.401C443.319 205.624 441.063 202.817 438.561 200.232C433.967 195.488 428.228 191.295 421.359 191.182C417.32 191.115 413.411 192.395 409.658 193.75C405.612 195.212 401.577 196.701 397.536 198.177L373.168 207.077L367.076 209.302C365.995 209.697 366.462 211.438 367.556 211.039Z" fill="#E4E4E4"/>
<path d="M128.811 111.385C116.513 105.073 100.765 106.31 89.4644 114.195C111.019 117.909 132.338 122.878 153.312 129.076C144.602 123.979 137.789 115.993 128.811 111.385Z" fill="#F2F2F2"/>
<path d="M89.3432 114.173L86.9758 116.095C87.7766 115.422 88.6091 114.792 89.4643 114.195C89.4239 114.188 89.3836 114.18 89.3432 114.173Z" fill="#F2F2F2"/>
<path d="M433.83 211.127C431.448 208.232 428.872 205.2 425.309 204.023L421.983 204.154C447.305 248.839 481.505 287.884 522.482 318.893C492.932 282.971 463.381 247.049 433.83 211.127Z" fill="#F2F2F2"/>
<path d="M226.975 187.24C228.514 192.825 231.982 197.686 236.766 200.964C238.615 202.221 240.803 203.427 241.435 205.57C241.768 206.936 241.563 208.378 240.862 209.597C240.163 210.801 239.312 211.911 238.331 212.899L238.241 213.234C233.652 210.518 229.286 207.083 226.751 202.396C224.216 197.709 223.863 191.566 226.975 187.24Z" fill="#F2F2F2"/>
<path d="M379.756 320.169C381.296 325.754 384.764 330.616 389.547 333.893C391.396 335.15 393.584 336.357 394.217 338.5C394.549 339.866 394.344 341.307 393.644 342.527C392.944 343.731 392.093 344.84 391.112 345.828L391.022 346.163C386.433 343.447 382.067 340.012 379.533 335.325C376.998 330.638 376.644 324.495 379.756 320.169Z" fill="#F2F2F2"/>
<path d="M74.8495 311.001C76.3889 316.587 79.8569 321.448 84.64 324.726C86.4893 325.983 88.6771 327.189 89.3097 329.332C89.6425 330.698 89.4375 332.14 88.7369 333.359C88.0376 334.563 87.1867 335.672 86.205 336.66L86.1154 336.996C81.5265 334.28 77.1607 330.845 74.6258 326.158C72.0909 321.471 71.737 315.328 74.8495 311.001Z" fill="#F2F2F2"/>
<path d="M425.721 66.7918C444.19 66.7918 459.163 51.8399 459.163 33.3959C459.163 14.9519 444.19 0 425.721 0C407.252 0 392.28 14.9519 392.28 33.3959C392.28 51.8399 407.252 66.7918 425.721 66.7918Z" fill="#1373E5"/>
<path d="M486.07 7.77317C469.863 5.58545 451.36 14.3336 447.159 30.118C446.101 27.3115 444.176 24.9138 441.664 23.2712C439.151 21.6286 436.181 20.8262 433.182 20.9799C430.183 21.1336 427.31 22.2354 424.979 24.1262C422.648 26.017 420.979 28.5989 420.214 31.4988L422.069 32.8259C456.801 40.3264 492.753 40.1641 527.416 32.3503C516.142 20.5184 502.278 9.96085 486.07 7.77317Z" fill="#F0F0F0"/>
<path d="M416.564 52.301C400.357 50.1133 381.854 58.8615 377.654 74.6458C376.595 71.8394 374.67 69.4416 372.158 67.799C369.645 66.1564 366.675 65.354 363.676 65.5077C360.677 65.6614 357.804 66.7632 355.473 68.654C353.142 70.5448 351.473 73.1267 350.708 76.0267L352.563 77.3538C387.295 84.8543 423.248 84.6919 457.91 76.8781C446.636 65.0462 432.772 54.4887 416.564 52.301Z" fill="#F0F0F0"/>
<path d="M558.02 60.7204C557.953 60.7205 557.886 60.7102 557.822 60.6897C384.447 5.93475 231.641 13.0949 133.982 28.7435C120.691 30.8723 107.365 33.3311 94.374 36.052C91.0574 36.7459 87.6165 37.4896 84.1471 38.264C80.0037 39.1855 75.9155 40.1345 71.9953 41.0834C70.3022 41.4838 68.6422 41.8873 67.0153 42.294C64.5509 42.9015 62.0504 43.5345 59.3699 44.2303C56.3747 45.0015 53.3314 45.8104 50.3228 46.6347C50.3117 46.6386 50.3005 46.6418 50.2891 46.6443L50.2895 46.6449C46.8911 47.5715 43.5108 48.525 40.2418 49.4772C38.4725 49.9875 36.7641 50.4907 35.1277 50.9876C34.9449 51.0381 34.7829 51.0867 34.6186 51.1366L34.267 51.2434C34.0634 51.3054 33.8624 51.3662 33.6613 51.4237L33.6485 51.4276L33.6488 51.4282L33.1167 51.5932C32.4821 51.7851 31.8629 51.9724 31.2539 52.1592C15.1595 57.1138 6.3118 60.6386 6.2244 60.6731C6.14447 60.7051 6.05902 60.7211 5.97291 60.7201C5.8868 60.7191 5.80174 60.7012 5.72256 60.6674C5.64339 60.6336 5.57166 60.5845 5.51147 60.523C5.45128 60.4615 5.40381 60.3888 5.37178 60.3089C5.33974 60.2291 5.32376 60.1438 5.32475 60.0578C5.32574 59.9718 5.34368 59.8869 5.37754 59.8078C5.4114 59.7287 5.46052 59.6571 5.52211 59.597C5.58369 59.5369 5.65652 59.4895 5.73645 59.4575C5.8245 59.423 14.7154 55.8803 30.8684 50.9071C31.4796 50.7197 32.1004 50.5324 32.7369 50.3399L33.2313 50.1864C33.2483 50.18 33.2652 50.1749 33.2825 50.1698C33.4826 50.1129 33.6824 50.0521 33.8854 49.9907L34.2376 49.8839C34.413 49.8308 34.5859 49.7784 34.763 49.7298C36.3882 49.2361 38.1024 48.7316 39.8762 48.2194C43.1464 47.2666 46.53 46.3131 49.9309 45.3852C49.9414 45.3814 49.9523 45.3788 49.9629 45.3756C52.9821 44.5488 56.0366 43.736 59.0414 42.9622C61.726 42.2659 64.2314 41.6315 66.6999 41.0227C68.3338 40.6167 69.997 40.2123 71.6895 39.8096C75.6142 38.8594 79.7108 37.9091 83.8615 36.9857C87.3363 36.2107 90.783 35.465 94.1051 34.7706C107.117 32.0451 120.463 29.5825 133.774 27.4505C231.573 11.7796 384.598 4.60782 558.217 59.4414C558.366 59.4885 558.494 59.5874 558.576 59.7201C558.659 59.8529 558.691 60.0109 558.668 60.1654C558.644 60.3199 558.565 60.4608 558.447 60.5626C558.328 60.6644 558.176 60.7204 558.02 60.7204Z" fill="#CCCCCC"/>
<path d="M172.445 274.92C172.218 274.257 171.836 273.658 171.331 273.172C171.144 272.999 170.942 272.843 170.727 272.707C169.016 271.567 166.459 271.312 164.832 272.707C164.669 272.849 164.517 273.004 164.38 273.172C163.895 273.768 163.396 274.35 162.885 274.92C162.046 275.876 161.187 276.8 160.288 277.697C160.033 277.945 159.777 278.201 159.515 278.45C159.364 278.6 159.213 278.744 159.062 278.888C158.485 279.438 157.895 279.969 157.298 280.493C156.984 280.774 156.669 281.049 156.348 281.318C155.869 281.717 155.39 282.117 154.905 282.503C154.859 282.536 154.813 282.568 154.767 282.608C154.754 282.614 154.748 282.627 154.734 282.634C154.728 282.634 154.721 282.634 154.715 282.647C154.697 282.654 154.681 282.665 154.669 282.68C154.525 282.778 154.426 282.844 154.354 282.902C154.38 282.889 154.407 282.87 154.433 282.857C154.315 282.948 154.19 283.04 154.072 283.132C152.925 283.976 151.751 284.788 150.551 285.548C147.582 287.445 144.464 289.099 141.227 290.492C141.01 290.577 140.787 290.669 140.565 290.754C132.089 294.221 122.895 295.574 113.779 294.696C112.847 294.624 111.916 294.526 110.985 294.401C109.91 294.244 108.841 294.054 107.779 293.838C103.735 293.032 99.7778 291.839 95.9629 290.276C91.1907 288.093 86.6519 285.434 82.4158 282.339C81.7601 281.874 81.0978 281.409 80.4356 280.958C81.1896 279.111 81.9306 277.264 82.6519 275.405C83.0125 274.508 83.3601 273.611 83.701 272.707C86.3829 265.746 88.9008 258.72 91.3139 251.667C93.7531 244.523 96.0547 237.338 98.2185 230.111C98.4415 229.377 98.6579 228.644 98.8677 227.911C100.002 224.093 101.091 220.267 102.133 216.432C102.231 216.058 102.336 215.692 102.428 215.318C102.73 214.218 103.025 213.118 103.313 212.018C103.969 209.536 102.487 206.57 99.8775 205.974C98.621 205.652 97.2884 205.83 96.1607 206.47C95.0329 207.11 94.198 208.163 93.8318 209.405C93.5498 210.466 93.2679 211.52 92.9794 212.581C91.5958 217.708 90.1401 222.818 88.6123 227.911C88.3894 228.644 88.1664 229.377 87.9435 230.111C84.5731 241.203 80.8727 252.185 76.8422 263.055C76.357 264.371 75.8652 265.683 75.3669 266.99C75.1243 267.632 74.8817 268.274 74.6325 268.915C74.1538 270.179 73.662 271.443 73.1703 272.707C72.8883 273.447 72.5998 274.187 72.3113 274.92C72.1211 275.385 71.9375 275.85 71.7539 276.308C69.8844 275.638 67.9474 275.173 65.9771 274.92L65.6623 274.881C64.1348 274.697 62.59 274.711 61.0658 274.92C58.7846 275.186 56.5897 275.949 54.6363 277.155C52.6829 278.361 51.0187 279.981 49.7613 281.901C46.6335 286.818 46.6729 293.851 51.0596 298.029C55.5775 302.331 62.4166 302.298 67.7344 299.607C70.5525 298.084 72.9287 295.86 74.6325 293.15C75.2852 292.168 75.885 291.152 76.4292 290.105C76.5669 290.197 76.7045 290.289 76.8422 290.387C77.3668 290.754 77.8914 291.127 78.4094 291.494C81.4277 293.677 84.6084 295.628 87.9238 297.328C95.0527 300.867 102.727 303.185 110.625 304.184C110.802 304.204 110.972 304.23 111.149 304.25C112.021 304.361 112.9 304.446 113.779 304.518C126.383 305.467 139.003 302.891 150.223 297.079C151.174 296.588 152.116 296.073 153.049 295.534C154.498 294.696 155.915 293.805 157.298 292.862C158.052 292.352 158.787 291.834 159.515 291.291C162.695 288.951 165.66 286.332 168.373 283.466C169.403 282.385 170.389 281.27 171.331 280.119C172.221 279.178 172.735 277.943 172.773 276.649C172.768 276.058 172.657 275.472 172.445 274.92ZM63.8657 290.518C64.0034 290.42 64.1411 290.315 64.2722 290.21C64.2329 290.309 64.0427 290.42 63.8657 290.518ZM65.9705 288.403C65.8197 288.573 65.682 288.743 65.5312 288.914C65.0724 289.426 64.5795 289.908 64.0558 290.354C63.9837 290.42 63.905 290.485 63.8263 290.544C63.8255 290.544 63.8246 290.544 63.8238 290.545C63.823 290.545 63.8223 290.545 63.8217 290.546C63.821 290.547 63.8206 290.547 63.8202 290.548C63.8199 290.549 63.8198 290.55 63.8198 290.551C63.7251 290.593 63.6331 290.641 63.5443 290.695C63.2624 290.865 62.9739 291.022 62.6788 291.166C62.1011 291.379 61.5068 291.543 60.9019 291.657C60.4371 291.691 59.9706 291.696 59.5052 291.671H59.4921C59.1709 291.599 58.8536 291.512 58.5413 291.409C58.3839 291.33 58.2331 291.238 58.0823 291.147C58.0233 291.094 57.9708 291.042 57.938 291.009C57.874 290.951 57.8148 290.887 57.761 290.819C57.761 290.818 57.7609 290.818 57.7605 290.817C57.7602 290.816 57.7598 290.815 57.7591 290.815C57.7585 290.814 57.7578 290.813 57.757 290.813C57.7562 290.813 57.7553 290.813 57.7545 290.813C57.6823 290.682 57.6036 290.551 57.5315 290.42C57.5278 290.416 57.5254 290.412 57.525 290.407C57.4725 290.243 57.4266 290.073 57.3873 289.902C57.373 289.604 57.3752 289.304 57.3938 289.005C57.4818 288.587 57.6001 288.176 57.7479 287.774C57.8807 287.49 58.0318 287.214 58.2003 286.949C58.2135 286.923 58.279 286.818 58.3512 286.7C58.3577 286.694 58.3577 286.694 58.3577 286.687C58.4561 286.576 58.5544 286.458 58.6594 286.353C58.8364 286.157 59.0266 285.987 59.2167 285.81C59.5865 285.568 59.9696 285.347 60.3642 285.148C60.9902 284.926 61.6325 284.753 62.2855 284.631C63.2482 284.555 64.2159 284.564 65.1772 284.657C66.0876 284.815 66.9859 285.036 67.8656 285.319C67.3324 286.352 66.7254 287.346 66.0492 288.292C66.023 288.331 65.9968 288.37 65.9705 288.403ZM58.679 286.249C58.6212 286.341 58.553 286.427 58.4757 286.504C58.5277 286.407 58.5966 286.321 58.679 286.249Z" fill="#3F3D56"/>
<path d="M152.735 208.043C152.676 210.1 152.617 212.156 152.558 214.212C152.433 218.776 152.304 223.342 152.171 227.911C152.033 233.051 151.889 238.189 151.738 243.325C151.666 245.977 151.592 248.629 151.515 251.281C151.312 258.425 151.111 265.567 150.912 272.707C150.892 273.447 150.866 274.18 150.846 274.92C150.748 278.463 150.649 282.006 150.551 285.548C150.44 289.392 150.33 293.236 150.223 297.08C150.145 299.961 150.064 302.844 149.981 305.73C149.391 326.638 148.8 347.547 148.21 368.455C148.185 369.75 147.659 370.985 146.742 371.9C145.825 372.816 144.589 373.341 143.292 373.366C141.991 373.356 140.747 372.835 139.826 371.916C138.906 370.998 138.385 369.754 138.375 368.455C138.702 356.695 139.035 344.934 139.371 333.173C139.666 322.539 139.966 311.905 140.27 301.27C140.368 297.767 140.466 294.262 140.565 290.754C140.715 285.476 140.864 280.198 141.01 274.92C141.03 274.18 141.056 273.447 141.076 272.707C141.089 272.059 141.109 271.417 141.128 270.769C141.417 260.521 141.706 250.271 141.994 240.018C142.112 235.985 142.226 231.949 142.335 227.911C142.466 223.307 142.597 218.706 142.728 214.107C142.787 212.084 142.84 210.067 142.899 208.043C142.924 206.749 143.45 205.514 144.367 204.598C145.284 203.683 146.52 203.157 147.817 203.132C149.118 203.143 150.363 203.664 151.283 204.582C152.203 205.501 152.724 206.744 152.735 208.043Z" fill="#3F3D56"/>
<path d="M422.513 209.406C417.357 228.907 411.193 248.128 404.048 266.992C402.076 272.196 400.059 277.389 397.903 282.519L398.399 281.346C397.436 283.79 396.207 286.12 394.733 288.295C394.633 288.435 394.531 288.574 394.427 288.712C394.937 288.061 395.034 287.932 394.718 288.326C394.551 288.523 394.387 288.72 394.214 288.912C393.755 289.425 393.263 289.907 392.74 290.355C392.608 290.467 392.474 290.577 392.338 290.685L392.953 290.208C392.882 290.376 392.381 290.599 392.225 290.694C391.72 290.999 391.193 291.265 390.648 291.492L391.823 290.997C390.931 291.356 390 291.611 389.049 291.757L390.356 291.582C389.422 291.711 388.475 291.721 387.538 291.612L388.845 291.787C388.079 291.682 387.328 291.48 386.612 291.187L387.787 291.682C387.405 291.516 387.037 291.319 386.686 291.095C386.508 290.979 385.962 290.566 386.677 291.111C387.42 291.678 386.772 291.16 386.619 291.009C386.492 290.884 386.377 290.747 386.252 290.619C385.674 290.027 386.905 291.639 386.512 290.946C386.302 290.599 386.11 290.241 385.937 289.874L386.432 291.047C386.207 290.489 386.046 289.906 385.955 289.311L386.131 290.617C386.037 289.877 386.036 289.128 386.129 288.387L385.953 289.693C386.073 288.866 386.292 288.057 386.605 287.283L386.109 288.456C386.328 287.935 386.586 287.432 386.882 286.951C387.018 286.702 387.178 286.467 387.36 286.249C387.392 286.26 386.528 287.24 386.986 286.745C387.106 286.616 387.218 286.479 387.34 286.351C387.534 286.145 387.742 285.957 387.947 285.763C388.631 285.112 386.988 286.395 387.778 285.88C388.351 285.504 388.954 285.176 389.581 284.898L388.406 285.394C389.456 284.963 390.557 284.668 391.682 284.516L390.374 284.692C391.783 284.53 393.206 284.547 394.611 284.742L393.303 284.566C395.082 284.836 396.82 285.324 398.478 286.02L397.303 285.525C400.837 287.04 403.967 289.29 407.092 291.495C410.11 293.678 413.289 295.627 416.604 297.328C423.733 300.868 431.407 303.186 439.306 304.186C450.634 305.572 462.129 304.094 472.736 299.89C483.343 295.685 492.723 288.887 500.016 280.12C500.905 279.178 501.418 277.942 501.456 276.647C501.447 275.347 500.93 274.101 500.016 273.175C498.211 271.521 494.803 271.054 493.061 273.175C491.409 275.188 489.634 277.097 487.745 278.889C486.863 279.725 485.958 280.535 485.029 281.319C484.498 281.766 483.961 282.205 483.415 282.636C483.157 282.839 482.354 283.381 483.588 282.506C483.305 282.707 483.034 282.926 482.755 283.131C478.625 286.172 474.15 288.714 469.423 290.704L470.597 290.209C465.525 292.334 460.197 293.792 454.748 294.546L456.055 294.37C450.45 295.107 444.772 295.098 439.168 294.345L440.476 294.521C434.874 293.753 429.395 292.262 424.177 290.088L425.351 290.583C420.316 288.358 415.537 285.593 411.099 282.338C408.789 280.63 406.353 279.099 403.812 277.758C400.851 276.248 397.646 275.275 394.344 274.884C388.155 274.157 381.848 276.564 378.446 281.904C375.314 286.818 375.355 293.85 379.74 298.029C384.256 302.333 391.096 302.296 396.419 299.604C401.545 297.012 404.623 291.625 406.789 286.546C411.661 275.116 415.975 263.422 419.995 251.668C423.971 240.04 427.577 228.294 430.813 216.43C431.214 214.961 431.609 213.49 431.998 212.017C432.654 209.537 431.171 206.569 428.563 205.976C427.306 205.653 425.973 205.83 424.844 206.47C423.715 207.11 422.88 208.163 422.513 209.406Z" fill="#3F3D56"/>
<path d="M471.582 208.043L469.812 270.77L468.051 333.171L467.056 368.455C467.067 369.754 467.588 370.997 468.508 371.916C469.428 372.834 470.673 373.355 471.974 373.366C473.27 373.341 474.506 372.816 475.423 371.9C476.34 370.985 476.866 369.75 476.891 368.455L478.662 305.728L480.422 243.327L481.418 208.043C481.407 206.744 480.885 205.501 479.965 204.583C479.046 203.664 477.801 203.143 476.5 203.132C475.204 203.157 473.967 203.682 473.051 204.598C472.134 205.514 471.607 206.748 471.582 208.043Z" fill="#3F3D56"/>
<path opacity="0.2" d="M301.36 350.942H302.887V281.503H338.511V279.982H302.887V250.683H330.398C329.995 250.17 329.58 249.665 329.153 249.166H302.887V229.814C302.382 229.599 301.873 229.391 301.36 229.196V249.166H271.426V224.371C270.913 224.394 270.408 224.429 269.898 224.472V249.166H246.017V230.666C245.504 230.893 244.999 231.131 244.498 231.382V249.166H224.423V250.683H244.498V279.982H224.423V281.503H244.498V350.942H246.017V281.503C249.154 281.503 252.259 282.119 255.157 283.317C258.055 284.516 260.688 286.272 262.905 288.487C265.123 290.702 266.882 293.331 268.082 296.225C269.282 299.119 269.899 302.22 269.898 305.352V350.942H271.426V281.503H301.36V350.942ZM246.017 279.982V250.683H269.898V279.982H246.017ZM271.426 279.982V250.683H272.025C275.877 250.683 279.692 251.441 283.252 252.914C286.811 254.386 290.045 256.544 292.769 259.265C295.493 261.986 297.654 265.216 299.128 268.77C300.602 272.325 301.361 276.135 301.36 279.982H271.426Z" fill="black"/>
<path d="M292.035 330.122C290.112 338.686 285.507 346.416 278.887 352.189C278.402 352.608 277.917 353.014 277.412 353.414C276.186 353.525 274.968 353.638 273.76 353.754C272.757 353.846 271.766 353.944 270.783 354.036L270.606 354.055L270.481 352.981L269.983 348.633C268.05 345.482 266.851 341.936 266.477 338.258C266.102 334.581 266.561 330.867 267.819 327.391C269.55 322.729 272.684 318.61 275.766 314.524C280.022 308.879 284.159 303.3 284.31 296.418C286.404 299.094 288.145 302.028 289.49 305.147C288.221 305.744 287.081 306.582 286.133 307.615C285.864 307.91 285.595 308.323 285.779 308.676C285.936 308.977 286.33 309.049 286.671 309.089C287.49 309.174 288.317 309.259 289.136 309.344C289.792 309.416 290.448 309.482 291.103 309.554C291.897 312.154 292.435 314.825 292.71 317.529C293.152 321.736 292.924 325.986 292.035 330.122Z" fill="#3F3D56"/>
<path d="M313.804 312.959C309.935 315.768 307.673 319.808 305.916 324.261C304.115 324.836 302.495 325.87 301.214 327.26C300.946 327.555 300.677 327.967 300.86 328.321C301.018 328.622 301.411 328.694 301.752 328.733C302.572 328.818 303.398 328.904 304.218 328.989C302.46 334.253 300.847 339.702 297.739 344.148C295.672 347.083 292.978 349.523 289.851 351.292C288.998 351.777 288.118 352.212 287.215 352.595C283.884 352.85 280.616 353.123 277.412 353.413C276.186 353.525 274.968 353.638 273.76 353.754C272.756 353.846 271.766 353.944 270.783 354.036C270.776 353.675 270.776 353.315 270.783 352.955C270.99 343.361 274.524 334.136 280.782 326.854C281.077 326.513 281.379 326.179 281.687 325.846C284.858 322.464 288.586 319.651 292.71 317.529C299.208 314.155 306.49 312.577 313.804 312.959Z" fill="#1373E5"/>
<path d="M274.894 350.395L274.14 352.622L273.76 353.754C272.757 353.846 271.767 353.944 270.783 354.036L270.606 354.056C269.517 354.167 268.435 354.278 267.354 354.39C267.072 354.062 266.79 353.728 266.514 353.388C259.67 345.111 256.385 334.465 257.376 323.777C258.368 313.088 263.555 303.226 271.806 296.346C270.94 300.871 271.95 305.206 273.609 309.508C273.432 309.58 273.262 309.652 273.098 309.731C271.828 310.328 270.688 311.166 269.74 312.199C269.472 312.494 269.203 312.907 269.386 313.26C269.544 313.561 269.937 313.633 270.278 313.673C271.098 313.758 271.924 313.843 272.744 313.928C273.399 314 274.055 314.066 274.711 314.138C275.019 314.17 275.327 314.203 275.635 314.236C275.681 314.334 275.72 314.426 275.766 314.524C277.635 318.571 279.648 322.637 280.783 326.854C281.067 327.912 281.29 328.986 281.451 330.069C281.956 333.732 281.629 337.46 280.494 340.979C279.359 344.498 277.445 347.716 274.894 350.395Z" fill="#1373E5"/>
<path d="M340.897 255.42C335.252 244.424 326.507 235.172 316.221 228.373C305.902 221.584 294.062 217.449 281.755 216.338C280.142 216.191 278.524 216.106 276.903 216.081C274.988 216.052 246.173 224.352 236.52 231.13C226.872 237.825 218.936 246.691 213.351 257.013C207.777 267.391 205.035 279.052 205.401 290.824C205.878 302.666 209.184 314.223 215.041 324.531C220.819 334.806 229.022 343.515 238.938 349.903C248.996 356.311 259.098 373.303 270.973 373.903C282.937 374.507 296.581 358.479 307.493 353.612C318.405 348.705 327.838 341.027 334.853 331.345C341.669 321.856 346.079 310.857 347.704 299.293C349.392 287.451 348.605 275.239 344.556 263.922C343.517 261.014 342.295 258.174 340.897 255.42C339.73 253.125 336.31 252.279 334.168 253.658C333.065 254.336 332.266 255.413 331.938 256.665C331.609 257.916 331.776 259.246 332.404 260.377C333.089 261.725 333.727 263.096 334.316 264.488L333.82 263.315C336.049 268.668 337.565 274.291 338.329 280.038L338.153 278.732C338.966 284.968 338.951 291.283 338.11 297.514L338.286 296.209C337.436 302.44 335.77 308.532 333.332 314.33L333.828 313.157C332.573 316.115 331.112 318.982 329.453 321.734C328.612 323.125 327.72 324.483 326.777 325.808C326.363 326.39 325.936 326.961 325.506 327.531C324.944 328.275 326.271 326.56 325.691 327.289C325.592 327.414 325.494 327.538 325.395 327.662C325.097 328.034 324.795 328.402 324.489 328.767C322.444 331.203 320.213 333.476 317.816 335.567C317.219 336.087 316.611 336.596 315.994 337.093C315.687 337.341 315.383 337.599 315.063 337.83C315.075 337.821 316.098 337.044 315.493 337.495C315.302 337.637 315.113 337.781 314.922 337.922C313.65 338.863 312.344 339.756 311.005 340.601C307.921 342.542 304.685 344.231 301.329 345.652L302.504 345.157C296.716 347.591 290.632 349.253 284.409 350.102L285.716 349.926C279.496 350.766 273.192 350.777 266.97 349.96L268.277 350.135C262.622 349.377 257.09 347.883 251.822 345.692L252.997 346.187C249.945 344.901 247.003 343.37 244.2 341.61C242.812 340.737 241.46 339.809 240.145 338.828C239.957 338.688 239.771 338.546 239.584 338.406C238.984 337.953 240.015 338.739 240.024 338.745C239.675 338.495 239.339 338.227 239.017 337.943C238.382 337.426 237.756 336.897 237.141 336.357C234.678 334.191 232.379 331.847 230.26 329.344C229.73 328.718 229.211 328.083 228.704 327.438C228.484 327.159 228.083 326.593 228.969 327.785C228.852 327.628 228.731 327.474 228.614 327.318C228.331 326.944 228.052 326.567 227.777 326.187C226.814 324.856 225.899 323.493 225.031 322.097C223.07 318.937 221.359 315.629 219.913 312.204L220.409 313.377C218.042 307.754 216.424 301.846 215.596 295.803L215.771 297.109C215.024 291.539 215.013 285.895 215.739 280.322L215.564 281.628C216.309 276.231 217.763 270.956 219.888 265.939L219.392 267.112C220.729 263.971 222.307 260.937 224.11 258.038C225.013 256.588 225.97 255.172 226.981 253.792C227.21 253.479 227.443 253.167 227.677 252.857C227.89 252.577 228.474 251.879 227.477 253.111C227.575 252.991 227.669 252.866 227.765 252.744C228.32 252.043 228.888 251.352 229.47 250.672C231.672 248.098 234.057 245.686 236.606 243.455C237.25 242.891 237.905 242.339 238.57 241.799C238.872 241.554 239.176 241.311 239.482 241.071C239.604 240.974 239.728 240.88 239.85 240.783C238.54 241.824 239.486 241.067 239.783 240.844C241.153 239.819 242.56 238.845 244.003 237.923C247.211 235.874 250.586 234.098 254.092 232.614L252.918 233.109C258.006 230.975 280.55 225.939 284.65 226.489L283.343 226.313C289.369 227.153 295.26 228.779 300.863 231.147L299.689 230.652C302.528 231.856 305.288 233.241 307.951 234.797C309.281 235.576 310.586 236.397 311.864 237.26C312.468 237.669 313.067 238.087 313.659 238.514C313.955 238.728 314.249 238.944 314.542 239.162C314.704 239.283 314.866 239.406 315.028 239.527C315.709 240.037 314.089 238.789 314.804 239.353C317.194 241.229 319.465 243.252 321.602 245.412C322.652 246.479 323.665 247.581 324.642 248.716C325.144 249.298 325.635 249.889 326.115 250.489C326.354 250.787 327.168 251.864 326.171 250.544C326.415 250.867 326.661 251.187 326.902 251.512C328.974 254.313 330.814 257.278 332.404 260.377C333.58 262.668 336.985 263.522 339.133 262.139C340.236 261.461 341.035 260.384 341.364 259.133C341.693 257.881 341.525 256.551 340.897 255.42Z" fill="#3F3D56"/>
<path d="M283.594 335.567C283.086 335.59 282.584 335.457 282.154 335.186C281.725 334.914 281.39 334.518 281.194 334.049C280.998 333.581 280.95 333.064 281.058 332.568C281.167 332.072 281.425 331.622 281.798 331.277C281.86 331.029 281.905 330.851 281.968 330.603C281.945 330.549 281.923 330.495 281.9 330.441C279.618 325.008 265.058 340.154 264.429 345.261C264.151 347.518 264.268 349.806 264.774 352.024C260.058 341.75 257.609 330.583 257.593 319.281C257.592 316.445 257.75 313.611 258.066 310.792C258.327 308.481 258.689 306.187 259.152 303.909C261.68 291.551 267.107 279.967 274.989 270.11C279.496 270.361 283.446 269.675 283.827 260.952C283.895 259.4 285.048 258.057 285.302 256.528C284.871 256.584 284.434 256.62 284.004 256.648C283.87 256.655 283.729 256.662 283.595 256.669L283.544 256.671C283.071 256.692 282.602 256.577 282.194 256.338C281.785 256.099 281.454 255.747 281.241 255.325C281.028 254.903 280.942 254.428 280.993 253.958C281.043 253.488 281.229 253.043 281.527 252.676C281.713 252.448 281.899 252.219 282.085 251.991C282.367 251.639 282.657 251.294 282.939 250.942C282.971 250.908 283.002 250.873 283.03 250.836C283.355 250.434 283.679 250.04 284.004 249.638C283.412 248.72 282.615 247.951 281.676 247.391C278.424 245.489 273.938 246.807 271.589 249.744C269.232 252.682 268.788 256.803 269.606 260.473C270.411 263.596 271.742 266.559 273.543 269.236C273.366 269.462 273.183 269.68 273.006 269.906C269.783 274.045 266.973 278.491 264.617 283.178C265.284 277.979 257.135 259.206 253.983 255.229C250.198 250.453 242.435 252.538 241.769 258.592C241.762 258.651 241.756 258.71 241.75 258.768C242.218 259.032 242.676 259.312 243.124 259.608C243.687 259.984 244.124 260.521 244.376 261.148C244.629 261.776 244.685 262.465 244.539 263.126C244.392 263.786 244.05 264.387 243.555 264.849C243.061 265.312 242.438 265.615 241.769 265.718L241.7 265.728C235.434 274.662 255.521 297.916 260.549 292.695C258.182 299.392 256.698 306.368 256.133 313.448C255.813 317.625 255.832 321.82 256.189 325.994L256.168 325.846C255.051 316.756 235.886 303.24 230.29 304.366C227.066 305.014 223.89 304.867 224.38 308.115C224.388 308.166 224.396 308.218 224.404 308.27C225.272 308.623 226.118 309.03 226.936 309.489C227.404 309.753 227.862 310.032 228.311 310.328C228.874 310.704 229.31 311.241 229.563 311.869C229.815 312.497 229.872 313.186 229.725 313.846C229.579 314.507 229.236 315.108 228.742 315.57C228.247 316.033 227.625 316.335 226.955 316.438L226.887 316.449C226.837 316.456 226.795 316.463 226.746 316.47C223.893 326.27 245.045 342.087 257.904 337.054H257.911C259.185 342.584 261.031 347.967 263.42 353.115H283.101C283.171 352.897 283.235 352.672 283.298 352.453C281.477 352.568 279.648 352.459 277.853 352.129C279.313 350.34 280.773 348.537 282.233 346.747C282.266 346.714 282.296 346.678 282.325 346.642C283.066 345.726 283.813 344.817 284.554 343.901L284.554 343.9C284.594 341.093 284.271 338.292 283.595 335.568L283.594 335.567ZM261.057 291.293L261.067 291.279L261.057 291.307V291.293ZM256.697 330.538L256.528 330.157C256.535 329.883 256.535 329.608 256.528 329.326C256.528 329.249 256.514 329.171 256.514 329.094C256.577 329.58 256.634 330.066 256.704 330.552L256.697 330.538Z" fill="#3F3D56"/>
<path d="M62.456 294.67C66.4396 294.67 69.6689 291.445 69.6689 287.467C69.6689 283.489 66.4396 280.264 62.456 280.264C58.4725 280.264 55.2432 283.489 55.2432 287.467C55.2432 291.445 58.4725 294.67 62.456 294.67Z" fill="#3F3D56"/>
<path d="M149.01 373.248C152.994 373.248 156.223 370.023 156.223 366.045C156.223 362.067 152.994 358.842 149.01 358.842C145.027 358.842 141.797 362.067 141.797 366.045C141.797 370.023 145.027 373.248 149.01 373.248Z" fill="#3F3D56"/>
<path d="M477.523 373.248C481.506 373.248 484.736 370.023 484.736 366.045C484.736 362.067 481.506 358.842 477.523 358.842C473.539 358.842 470.31 362.067 470.31 366.045C470.31 370.023 473.539 373.248 477.523 373.248Z" fill="#3F3D56"/>
<path d="M495.227 281.573C499.211 281.573 502.44 278.348 502.44 274.37C502.44 270.392 499.211 267.167 495.227 267.167C491.243 267.167 488.014 270.392 488.014 274.37C488.014 278.348 491.243 281.573 495.227 281.573Z" fill="#3F3D56"/>
<path d="M474.244 214.782C478.228 214.782 481.457 211.557 481.457 207.579C481.457 203.6 478.228 200.375 474.244 200.375C470.261 200.375 467.031 203.6 467.031 207.579C467.031 211.557 470.261 214.782 474.244 214.782Z" fill="#3F3D56"/>
<path d="M173.272 274.37C173.267 276.21 172.555 277.978 171.282 279.308C170.008 280.638 168.272 281.428 166.432 281.515C164.591 281.602 162.788 280.979 161.395 279.775C160.001 278.571 159.125 276.878 158.947 275.047C158.768 273.216 159.302 271.386 160.437 269.937C161.572 268.487 163.221 267.529 165.044 267.26C166.867 266.992 168.723 267.433 170.229 268.493C171.735 269.553 172.775 271.151 173.134 272.956C173.226 273.421 173.273 273.895 173.272 274.37Z" fill="#3F3D56"/>
<path d="M317.529 235.736C321.512 235.736 324.742 232.511 324.742 228.533C324.742 224.554 321.512 221.33 317.529 221.33C313.545 221.33 310.316 224.554 310.316 228.533C310.316 232.511 313.545 235.736 317.529 235.736Z" fill="#3F3D56"/>
<path d="M246.056 228.533C246.051 230.373 245.339 232.14 244.066 233.47C242.792 234.8 241.056 235.591 239.216 235.677C237.375 235.764 235.572 235.142 234.179 233.938C232.785 232.734 231.909 231.041 231.73 229.21C231.552 227.378 232.086 225.549 233.221 224.099C234.356 222.65 236.005 221.692 237.828 221.423C239.651 221.154 241.507 221.596 243.013 222.656C244.519 223.716 245.559 225.314 245.918 227.118C246.01 227.584 246.057 228.058 246.056 228.533Z" fill="#3F3D56"/>
<path d="M152.945 207.579C152.94 209.419 152.228 211.186 150.954 212.516C149.681 213.846 147.945 214.636 146.104 214.723C144.264 214.81 142.461 214.187 141.067 212.983C139.674 211.78 138.798 210.087 138.619 208.256C138.441 206.424 138.975 204.595 140.11 203.145C141.245 201.696 142.894 200.738 144.717 200.469C146.539 200.2 148.396 200.642 149.902 201.702C151.408 202.762 152.448 204.36 152.807 206.164C152.899 206.63 152.945 207.104 152.945 207.579Z" fill="#3F3D56"/>
<path d="M392.936 297.289C396.919 297.289 400.148 294.064 400.148 290.086C400.148 286.108 396.919 282.883 392.936 282.883C388.952 282.883 385.723 286.108 385.723 290.086C385.723 294.064 388.952 297.289 392.936 297.289Z" fill="#3F3D56"/>
<path d="M279.497 231.807C285.292 231.807 289.989 227.116 289.989 221.33C289.989 215.543 285.292 210.853 279.497 210.853C273.703 210.853 269.006 215.543 269.006 221.33C269.006 227.116 273.703 231.807 279.497 231.807Z" fill="#3F3D56"/>
<path d="M563.219 373.799L0.780741 374C0.678212 374 0.576685 373.98 0.48196 373.94C0.387236 373.901 0.301172 373.844 0.228673 373.771C0.156174 373.699 0.0986582 373.613 0.0594221 373.519C0.0201859 373.424 0 373.323 0 373.22C0 373.118 0.0201859 373.016 0.0594221 372.922C0.0986582 372.827 0.156174 372.741 0.228673 372.669C0.301172 372.596 0.387236 372.539 0.48196 372.5C0.576685 372.461 0.678212 372.44 0.780741 372.44L563.219 372.239C563.426 372.24 563.624 372.322 563.77 372.468C563.916 372.615 563.998 372.813 563.998 373.019C563.998 373.225 563.916 373.423 563.77 373.569C563.624 373.716 563.426 373.798 563.219 373.799Z" fill="#CACACA"/>
<g clip-path="url(#clip1_27_112)">
<path d="M325.01 201.442V198.969L333.21 189.217L333.688 190.613H325.189V187.481H337.191V189.954L328.991 199.707L328.513 198.311H337.49V201.442H325.01ZM345.644 201.722C343.588 201.722 341.982 201.156 340.828 200.026C339.673 198.896 339.096 197.294 339.096 195.22V187.481H343.037V195.1C343.037 196.297 343.269 197.154 343.733 197.673C344.211 198.191 344.861 198.451 345.684 198.451C346.507 198.451 347.15 198.191 347.615 197.673C348.079 197.154 348.311 196.297 348.311 195.1V187.481H352.192V195.22C352.192 197.294 351.615 198.896 350.461 200.026C349.306 201.156 347.701 201.722 345.644 201.722ZM354.862 201.442V187.481H361.987C363.819 187.481 365.185 187.82 366.088 188.499C366.99 189.163 367.441 190.041 367.441 191.131C367.441 191.849 367.249 192.481 366.864 193.026C366.492 193.558 365.962 193.983 365.272 194.302C364.595 194.608 363.785 194.761 362.843 194.761L363.241 193.804C364.223 193.804 365.079 193.957 365.809 194.262C366.539 194.555 367.103 194.987 367.501 195.559C367.912 196.117 368.118 196.802 368.118 197.613C368.118 198.823 367.627 199.767 366.645 200.445C365.676 201.11 364.256 201.442 362.386 201.442H354.862ZM358.763 198.59H362.067C362.744 198.59 363.255 198.477 363.6 198.251C363.958 198.012 364.137 197.653 364.137 197.174C364.137 196.696 363.958 196.343 363.6 196.117C363.255 195.878 362.744 195.758 362.067 195.758H358.485V193.026H361.47C362.133 193.026 362.631 192.913 362.963 192.687C363.294 192.461 363.46 192.122 363.46 191.67C363.46 191.218 363.294 190.885 362.963 190.672C362.631 190.446 362.133 190.333 361.47 190.333H358.763V198.59ZM373.682 198.351L373.463 193.923L379.454 187.481H383.793L377.822 193.963L375.632 196.257L373.682 198.351ZM370.159 201.442V187.481H374.06V201.442H370.159ZM379.513 201.442L374.975 195.678L377.543 192.926L384.091 201.442H379.513ZM391.646 201.722C390.531 201.722 389.503 201.542 388.561 201.183C387.619 200.824 386.796 200.319 386.093 199.667C385.403 199.002 384.865 198.231 384.481 197.354C384.096 196.476 383.903 195.512 383.903 194.462C383.903 193.411 384.096 192.447 384.481 191.57C384.865 190.692 385.403 189.928 386.093 189.276C386.796 188.612 387.619 188.1 388.561 187.741C389.503 187.382 390.531 187.202 391.646 187.202C392.774 187.202 393.802 187.382 394.731 187.741C395.673 188.1 396.489 188.612 397.179 189.276C397.869 189.928 398.406 190.692 398.791 191.57C399.189 192.447 399.388 193.411 399.388 194.462C399.388 195.512 399.189 196.483 398.791 197.374C398.406 198.251 397.869 199.016 397.179 199.667C396.489 200.319 395.673 200.824 394.731 201.183C393.802 201.542 392.774 201.722 391.646 201.722ZM391.646 198.451C392.176 198.451 392.667 198.358 393.119 198.171C393.583 197.985 393.981 197.719 394.313 197.374C394.658 197.015 394.923 196.589 395.109 196.097C395.308 195.605 395.408 195.06 395.408 194.462C395.408 193.85 395.308 193.305 395.109 192.826C394.923 192.334 394.658 191.916 394.313 191.57C393.981 191.211 393.583 190.938 393.119 190.752C392.667 190.566 392.176 190.473 391.646 190.473C391.115 190.473 390.617 190.566 390.153 190.752C389.702 190.938 389.304 191.211 388.959 191.57C388.627 191.916 388.362 192.334 388.163 192.826C387.977 193.305 387.884 193.85 387.884 194.462C387.884 195.06 387.977 195.605 388.163 196.097C388.362 196.589 388.627 197.015 388.959 197.374C389.304 197.719 389.702 197.985 390.153 198.171C390.617 198.358 391.115 198.451 391.646 198.451ZM405.114 193.604H411.543V196.656H405.114V193.604ZM405.393 201.442H401.452V187.481H412.379V190.533H405.393V201.442ZM417.885 193.604H424.313V196.656H417.885V193.604ZM418.163 201.442H414.222V187.481H425.149V190.533H418.163V201.442Z" fill="white"/>
</g>
</g>
<defs>
<clipPath id="clip0_27_112">
<rect width="564" height="374" fill="white"/>
</clipPath>
<clipPath id="clip1_27_112">
<rect width="100.203" height="15.1301" fill="white" transform="translate(325 187)"/>
</clipPath>
</defs>
</svg>
