<svg width="132" height="44" viewBox="0 0 132 44" fill="none" xmlns="http://www.w3.org/2000/svg">
<g clip-path="url(#clip0_50_2612)">
<path d="M121.488 0H10.518C10.113 0 9.713 0 9.31 0.002C8.972 0.005 8.637 0.011 8.296 0.016C7.556 0.025 6.816 0.09 6.086 0.211C5.35637 0.334052 4.64943 0.566326 3.989 0.9C2.66313 1.57776 1.58391 2.65523 0.904 3.98C0.568645 4.63841 0.335955 5.34424 0.214 6.073C0.0914208 6.80079 0.0255561 7.53701 0.017 8.275C0.007 8.612 0.005 8.951 0 9.288V34.713C0.005 35.055 0.006 35.386 0.017 35.728C0.025 36.466 0.092 37.202 0.214 37.93C0.336 38.659 0.568 39.365 0.904 40.024C1.23847 40.6824 1.6775 41.2822 2.204 41.8C2.72581 42.325 3.32847 42.7629 3.989 43.097C4.6494 43.4318 5.35625 43.6657 6.086 43.791C6.816 43.911 7.556 43.975 8.296 43.985C8.637 43.993 8.972 43.997 9.31 43.997C9.713 43.999 10.113 43.999 10.518 43.999H121.488C121.885 43.999 122.288 43.999 122.684 43.997C123.02 43.997 123.365 43.992 123.701 43.985C124.44 43.975 125.178 43.911 125.907 43.791C126.639 43.6649 127.348 43.431 128.012 43.097C128.672 42.7627 129.274 42.3249 129.796 41.8C130.321 41.2801 130.761 40.6808 131.099 40.024C131.433 39.364 131.663 38.659 131.782 37.93C131.905 37.2021 131.974 36.4661 131.987 35.728C131.991 35.386 131.991 35.055 131.991 34.714C132 34.314 132 33.916 132 33.51V10.49C132 10.087 132 9.687 131.991 9.289C131.991 8.952 131.991 8.613 131.987 8.276C131.974 7.53791 131.905 6.80185 131.782 6.074C131.662 5.34533 131.432 4.63921 131.099 3.98C130.418 2.65557 129.338 1.57831 128.012 0.9C127.348 0.566772 126.639 0.334221 125.907 0.21C125.178 0.0889055 124.44 0.0240478 123.701 0.016C123.365 0.011 123.02 0.004 122.684 0.002C122.288 0 121.885 0 121.488 0Z" fill="#F5F5F6"/>
<path d="M9.31501 43.0379C8.97901 43.0379 8.65101 43.0329 8.31801 43.0259C7.62701 43.0159 6.93801 42.9559 6.25601 42.8459C5.62019 42.737 5.00411 42.5341 4.42801 42.2439C3.85806 41.9558 3.3381 41.578 2.88801 41.1249C2.43134 40.6778 2.05097 40.1589 1.76201 39.5889C1.46981 39.0155 1.26745 38.4007 1.16201 37.7659C1.04878 37.0842 0.987599 36.3949 0.979013 35.7039C0.971995 35.3689 0.966662 35.0339 0.963013 34.6989V9.28989C0.963013 9.28989 0.973013 8.52989 0.979013 8.30589C0.988013 7.61589 1.04901 6.92689 1.16201 6.24589C1.26753 5.6095 1.46988 4.99303 1.76201 4.41789C2.34997 3.27291 3.28293 2.3417 4.42901 1.75589C5.00339 1.4666 5.61788 1.26502 6.25201 1.15789C6.93588 1.04618 7.62714 0.985679 8.32001 0.976891L9.31601 0.962891H122.679L123.686 0.976891C124.373 0.98475 125.058 1.04425 125.736 1.15489C126.377 1.26351 126.998 1.46673 127.579 1.75789C128.723 2.34553 129.655 3.27633 130.243 4.41989C130.53 4.99134 130.729 5.60293 130.833 6.23389C130.948 6.91989 131.012 7.61389 131.025 8.30989C131.028 8.62089 131.028 8.95589 131.028 9.28889C131.037 9.70089 131.037 10.0939 131.037 10.4889V33.5109C131.037 33.9109 131.037 34.3009 131.028 34.6939C131.028 35.0519 131.028 35.3789 131.024 35.7169C131.011 36.3999 130.948 37.0811 130.835 37.7549C130.732 38.3942 130.532 39.0138 130.24 39.5919C129.949 40.1561 129.571 40.6708 129.119 41.1169C128.669 41.5719 128.148 41.9519 127.576 42.2419C126.996 42.5341 126.376 42.7377 125.736 42.8459C125.054 42.9569 124.365 43.0169 123.674 43.0259C123.351 43.0329 123.012 43.0369 122.684 43.0369L121.488 43.0399L9.31501 43.0379Z" fill="black"/>
<path d="M25.537 8.59204C25.6435 9.98347 25.2021 11.3614 24.307 12.432C23.8779 12.9643 23.3338 13.3923 22.7154 13.6838C22.097 13.9753 21.4206 14.1228 20.737 14.115C20.6935 13.446 20.7827 12.7749 20.9994 12.1405C21.2162 11.506 21.5562 10.9206 22 10.418C22.9083 9.38678 24.1702 8.73495 25.537 8.59204ZM28.034 18.715C27.5797 19.5129 27.3351 20.413 27.323 21.331C27.3243 22.3642 27.6304 23.374 28.203 24.234C28.7762 25.0949 29.59 25.7682 30.543 26.17C30.1678 27.3854 29.6024 28.5336 28.868 29.572C27.881 31.044 26.847 32.482 25.205 32.508C24.425 32.526 23.897 32.302 23.348 32.069C22.775 31.826 22.178 31.572 21.244 31.572C20.254 31.572 19.63 31.834 19.028 32.086C18.508 32.304 18.005 32.516 17.296 32.545C15.732 32.603 14.537 30.975 13.515 29.516C11.471 26.539 9.87999 21.126 12.013 17.443C12.5075 16.5605 13.2216 15.8206 14.086 15.295C14.9504 14.7694 15.9359 14.476 16.947 14.443C17.834 14.423 18.685 14.765 19.431 15.063C20.001 15.292 20.511 15.496 20.928 15.496C21.294 15.496 21.789 15.3 22.366 15.072C23.275 14.712 24.386 14.272 25.52 14.391C26.3874 14.4184 27.2366 14.6471 28.0006 15.0589C28.7645 15.4707 29.4223 16.0544 29.922 16.764C29.1383 17.2444 28.4888 17.9162 28.034 18.715ZM46.661 24.853H41.441L40.186 28.545H37.975L42.92 14.885H45.218L50.163 28.545H47.914L46.661 24.853ZM41.981 23.15H46.12L44.08 17.158H44.022L41.981 23.15ZM56.677 28.65C59.184 28.65 60.845 26.662 60.845 23.568C60.845 20.481 59.175 18.483 56.639 18.483C55.9995 18.4628 55.3663 18.6158 54.8066 18.9258C54.2468 19.2358 53.7812 19.6912 53.459 20.244H53.422V18.587H51.438V31.841H53.488V26.908H53.535C53.8421 27.4644 54.2997 27.923 54.8554 28.2313C55.4111 28.5396 56.0424 28.6841 56.677 28.65ZM56.099 20.226C57.693 20.226 58.738 21.551 58.738 23.568C58.738 25.602 57.693 26.918 56.098 26.918C54.532 26.918 53.478 25.574 53.478 23.568C53.478 21.579 54.533 20.226 56.099 20.226ZM71.837 23.568C71.837 26.662 70.177 28.651 67.669 28.651C67.0346 28.6837 66.4038 28.5377 65.8483 28.2296C65.2929 27.9214 64.8351 27.4636 64.527 26.908H64.48V31.841H62.43V18.587H64.414V20.244H64.452C64.7733 19.6905 65.2387 19.2344 65.7987 18.9245C66.3587 18.6145 66.9923 18.4623 67.632 18.484C70.166 18.484 71.837 20.481 71.837 23.568ZM69.73 23.568C69.73 21.551 68.685 20.226 67.09 20.226C65.525 20.226 64.471 21.579 64.471 23.568C64.471 25.574 65.525 26.918 67.091 26.918C68.685 26.918 69.73 25.602 69.73 23.568ZM82.377 26.984C80.574 26.984 79.254 26.094 79.102 24.74H77.004C77.136 27.21 79.187 28.774 82.225 28.774C85.472 28.774 87.513 27.174 87.513 24.618C87.513 22.62 86.346 21.494 83.535 20.831L82.026 20.461C80.26 20.027 79.539 19.458 79.539 18.493C79.539 17.281 80.669 16.448 82.32 16.448C83.972 16.448 85.102 17.271 85.225 18.634H87.295C87.228 16.278 85.244 14.659 82.349 14.659C79.424 14.659 77.365 16.278 77.365 18.634C77.365 20.538 78.533 21.711 81.048 22.317L82.823 22.743C84.598 23.178 85.348 23.813 85.348 24.873C85.348 26.095 84.104 26.984 82.377 26.984ZM91.937 16.23V18.587H93.837V20.207H91.937V25.697C91.937 26.549 92.317 26.947 93.153 26.947C93.378 26.943 93.603 26.927 93.827 26.9V28.509C93.452 28.579 93.07 28.61 92.688 28.603C90.666 28.603 89.878 27.846 89.878 25.914V20.206H88.426V18.587H89.878V16.23H91.938H91.937ZM99.677 18.464C96.79 18.464 94.939 20.434 94.939 23.567C94.939 26.709 96.772 28.669 99.676 28.669C102.581 28.669 104.414 26.709 104.414 23.567C104.414 20.433 102.573 18.464 99.677 18.464ZM99.676 20.149C101.337 20.149 102.325 21.417 102.325 23.567C102.325 25.725 101.337 26.984 99.676 26.984C98.015 26.984 97.028 25.725 97.028 23.567C97.028 21.427 98.015 20.149 99.676 20.149ZM106.102 18.587H108.057V20.282H108.104C108.238 19.7524 108.549 19.2846 108.986 18.957C109.424 18.6294 109.96 18.4617 110.506 18.482C110.743 18.482 110.978 18.508 111.209 18.56V20.472C110.911 20.3811 110.6 20.3392 110.288 20.348C109.99 20.3365 109.694 20.3891 109.418 20.5022C109.143 20.6154 108.895 20.7866 108.691 21.004C108.488 21.2214 108.335 21.4801 108.242 21.7624C108.149 22.0447 108.118 22.3438 108.152 22.639V28.547H106.102V18.587ZM116.357 28.669C118.616 28.669 120.382 27.429 120.657 25.621H118.711C118.528 26.0717 118.205 26.4513 117.79 26.7036C117.374 26.9558 116.888 27.0672 116.404 27.021C115.849 27.0414 115.302 26.8839 114.843 26.5714C114.384 26.2589 114.037 25.8078 113.853 25.284C113.731 24.9369 113.685 24.5675 113.718 24.201V24.077H120.772V23.377C120.772 20.357 119.034 18.464 116.271 18.464C113.461 18.464 111.648 20.49 111.648 23.614C111.648 26.728 113.452 28.669 116.357 28.669ZM118.72 22.649H113.728C113.726 22.3158 113.791 21.9855 113.919 21.6777C114.046 21.3698 114.234 21.0905 114.471 20.856C114.707 20.6205 114.988 20.4343 115.297 20.3081C115.606 20.1819 115.937 20.1184 116.271 20.121C116.602 20.1142 116.93 20.1754 117.236 20.301C117.542 20.4266 117.819 20.6138 118.049 20.851C118.279 21.0879 118.457 21.3699 118.573 21.6792C118.688 21.9885 118.738 22.3194 118.72 22.649Z" fill="white"/>
</g>
<defs>
<clipPath id="clip0_50_2612">
<rect width="132" height="44" fill="white"/>
</clipPath>
</defs>
</svg>
