<svg width="320" height="312" viewBox="0 0 320 312" fill="none" xmlns="http://www.w3.org/2000/svg">
<g clip-path="url(#clip0_341_533)">
<path d="M203.149 70.1679H116.923C114.958 70.1703 113.074 70.951 111.685 72.3388C110.296 73.7266 109.514 75.6082 109.511 77.5709V268.988L108.523 269.29L87.3707 275.76C86.3682 276.065 85.2854 275.961 84.36 275.469C83.4345 274.978 82.7421 274.14 82.4347 273.139L19.5153 67.8532C19.2091 66.8519 19.3134 65.7701 19.8054 64.8455C20.2974 63.921 21.1367 63.2294 22.139 62.9228L54.7352 52.9534L149.233 24.0618L181.829 14.0924C182.325 13.9399 182.846 13.8866 183.363 13.9356C183.879 13.9846 184.381 14.1348 184.84 14.3778C185.298 14.6207 185.704 14.9516 186.035 15.3515C186.365 15.7514 186.613 16.2124 186.765 16.7081L202.848 69.1808L203.149 70.1679Z" fill="#F2F2F2"/>
<path d="M221.965 69.1806L202.581 5.93901C202.259 4.88528 201.731 3.90536 201.03 3.05523C200.328 2.20511 199.465 1.50144 198.491 0.984444C197.517 0.467446 196.45 0.147242 195.352 0.0421444C194.254 -0.0629533 193.146 0.049114 192.091 0.371931L146.263 14.3834L51.7706 43.2799L5.94238 57.2963C3.81344 57.9492 2.03086 59.4193 0.985893 61.3837C-0.0590688 63.3481 -0.281033 65.6463 0.36873 67.774L66.6183 283.908C67.1461 285.625 68.2112 287.129 69.6572 288.197C71.1031 289.266 72.8539 289.843 74.6526 289.845C75.4851 289.846 76.3128 289.721 77.1081 289.475L108.523 279.871L109.512 279.565V278.533L108.523 278.834L76.8167 288.532C74.9375 289.104 72.9079 288.909 71.1729 287.988C69.438 287.068 68.1394 285.497 67.5621 283.622L1.31761 67.4829C1.03157 66.5535 0.931878 65.5769 1.02424 64.609C1.1166 63.6411 1.39919 62.7009 1.85585 61.8422C2.31252 60.9835 2.93427 60.2233 3.68551 59.605C4.43674 58.9867 5.3027 58.5225 6.23381 58.2389L52.062 44.2225L146.555 15.331L192.383 1.31459C193.089 1.09931 193.823 0.989545 194.562 0.988857C196.146 0.992411 197.688 1.50271 198.962 2.445C200.235 3.38729 201.173 4.71206 201.637 6.22527L220.932 69.1806L221.239 70.1677H222.266L221.965 69.1806Z" fill="#3F3D56"/>
<path d="M60.6173 63.0838C59.665 63.0831 58.7379 62.7777 57.9721 62.2121C57.2064 61.6466 56.6422 60.8509 56.3624 59.9416L49.9982 39.1777C49.8271 38.62 49.7678 38.034 49.8235 37.4534C49.8792 36.8727 50.0489 36.3087 50.3229 35.7936C50.5969 35.2784 50.9698 34.8222 51.4203 34.451C51.8708 34.0799 52.3901 33.801 52.9485 33.6303L139.881 7.04662C141.009 6.70289 142.227 6.82012 143.268 7.37258C144.309 7.92504 145.089 8.8676 145.435 9.99337L151.799 30.7575C152.143 31.8839 152.026 33.1006 151.473 34.1407C150.919 35.1807 149.976 35.9591 148.849 36.3052L61.9165 62.8889C61.4955 63.0179 61.0577 63.0836 60.6173 63.0838Z" fill="#1373E5"/>
<path d="M93.9558 22.1867C99.4135 22.1867 103.838 17.7675 103.838 12.316C103.838 6.86458 99.4135 2.44531 93.9558 2.44531C88.4981 2.44531 84.0737 6.86458 84.0737 12.316C84.0737 17.7675 88.4981 22.1867 93.9558 22.1867Z" fill="#1373E5"/>
<path d="M93.9559 18.5663C97.4119 18.5663 100.214 15.7679 100.214 12.3159C100.214 8.86385 97.4119 6.06543 93.9559 6.06543C90.4999 6.06543 87.6982 8.86385 87.6982 12.3159C87.6982 15.7679 90.4999 18.5663 93.9559 18.5663Z" fill="white"/>
<path d="M297.765 287.323H130.758C129.645 287.322 128.577 286.879 127.79 286.093C127.002 285.307 126.559 284.24 126.558 283.128V83.2463C126.559 82.1341 127.002 81.0678 127.79 80.2813C128.577 79.4949 129.644 79.0525 130.758 79.0513H297.765C298.879 79.0526 299.946 79.4949 300.734 80.2814C301.521 81.0678 301.964 82.1341 301.965 83.2463V283.128C301.964 284.24 301.521 285.307 300.734 286.093C299.946 286.879 298.879 287.322 297.765 287.323Z" fill="#E6E6E6"/>
<path d="M220.932 69.1807H116.923C114.696 69.1838 112.562 70.0688 110.987 71.6415C109.413 73.2143 108.527 75.3465 108.523 77.5708V278.834L109.512 278.533V77.5708C109.514 75.6081 110.296 73.7265 111.685 72.3387C113.075 70.9508 114.958 70.1701 116.923 70.1677H221.239L220.932 69.1807ZM311.6 69.1807H116.923C114.696 69.1838 112.562 70.0688 110.987 71.6415C109.413 73.2143 108.527 75.3465 108.523 77.5708V303.61C108.527 305.834 109.413 307.966 110.987 309.539C112.562 311.112 114.696 311.997 116.923 312H311.6C313.827 311.997 315.962 311.112 317.536 309.539C319.111 307.966 319.997 305.834 320 303.61V77.5708C319.997 75.3465 319.111 73.2143 317.536 71.6415C315.962 70.0688 313.827 69.1838 311.6 69.1807ZM319.012 303.61C319.01 305.573 318.228 307.454 316.839 308.842C315.449 310.23 313.565 311.01 311.6 311.013H116.923C114.958 311.01 113.075 310.23 111.685 308.842C110.296 307.454 109.514 305.573 109.512 303.61V77.5708C109.514 75.6081 110.296 73.7265 111.685 72.3387C113.075 70.9508 114.958 70.1701 116.923 70.1677H311.6C313.565 70.1701 315.449 70.9508 316.839 72.3387C318.228 73.7265 319.01 75.6081 319.012 77.5708V303.61Z" fill="#3F3D56"/>
<path d="M259.72 90.8961H168.804C167.625 90.8947 166.495 90.4263 165.661 89.5936C164.828 88.7609 164.359 87.6319 164.357 86.4542V64.7387C164.359 63.5611 164.828 62.432 165.661 61.5993C166.495 60.7666 167.625 60.2982 168.804 60.2969H259.72C260.899 60.2982 262.029 60.7666 262.863 61.5993C263.696 62.432 264.165 63.5611 264.167 64.7387V86.4542C264.165 87.6319 263.696 88.7609 262.863 89.5936C262.029 90.4263 260.899 90.8947 259.72 90.8961Z" fill="#1373E5"/>
<path d="M214.261 61.7775C219.719 61.7775 224.144 57.3583 224.144 51.9068C224.144 46.4554 219.719 42.0361 214.261 42.0361C208.804 42.0361 204.379 46.4554 204.379 51.9068C204.379 57.3583 208.804 61.7775 214.261 61.7775Z" fill="#1373E5"/>
<path d="M214.262 57.9194C217.586 57.9194 220.281 55.2276 220.281 51.9072C220.281 48.5868 217.586 45.895 214.262 45.895C210.938 45.895 208.243 48.5868 208.243 51.9072C208.243 55.2276 210.938 57.9194 214.262 57.9194Z" fill="white"/>
</g>
<defs>
<clipPath id="clip0_341_533">
<rect width="320" height="312" fill="white"/>
</clipPath>
</defs>
</svg>
