<svg width="291" height="185" viewBox="0 0 291 185" fill="none" xmlns="http://www.w3.org/2000/svg">
<g clip-path="url(#clip0_635_5)">
<path d="M278.722 0H12.2785C5.49727 0 0 5.50857 0 12.3037V172.696C0 179.491 5.49727 185 12.2785 185H278.722C285.503 185 291 179.491 291 172.696V12.3037C291 5.50857 285.503 0 278.722 0Z" fill="#C9C9C9"/>
<path d="M0 12.3037C0 5.50856 5.49726 0 12.2785 0H207.386L178.038 185H12.2785C5.49726 185 0 179.491 0 172.696V12.3037Z" fill="#050705"/>
<mask id="mask0_635_5" style="mask-type:alpha" maskUnits="userSpaceOnUse" x="0" y="0" width="291" height="185">
<path d="M278.722 0H12.2785C5.49727 0 0 5.50857 0 12.3037V172.696C0 179.491 5.49727 185 12.2785 185H278.722C285.503 185 291 179.491 291 172.696V12.3037C291 5.50857 285.503 0 278.722 0Z" fill="#EDEEEE"/>
</mask>
<g mask="url(#mask0_635_5)">
<path fill-rule="evenodd" clip-rule="evenodd" d="M185.8 166.367L183.182 170.844C182.248 167.895 180.555 164.834 179.464 162.671C177.369 167.027 174.05 167.115 170.855 167.138C171.562 156.699 158.556 146.202 164.272 134.295C165.412 131.911 164.674 128.998 162.209 127.749C153.482 123.282 157.523 141.814 148.801 142.371C150.471 140.269 151.102 135.869 151.352 135.488C149.496 135.974 145.051 138.818 143.055 135.174C148.153 132.377 149.619 128.171 150.419 123.947C151.434 118.603 151.899 116.129 152.932 113.93C154.006 111.582 155.728 109.547 159.411 104.735C158.538 104.87 148.72 106.951 146.521 105.913C163.49 95.4125 159.664 82.0575 185.55 70.1528C178.765 65.0756 171.821 61.0273 176.799 51.3214C183.889 59.9046 197.361 56.9351 204.64 52.9454C197.448 51.4944 188.186 45.1156 185.981 38.0099C188.694 37.5878 192.203 40.5485 194.225 41.9292C195.197 39.3086 195.584 36.257 198.737 35.5945C194.534 44.673 202.845 49.3926 210.773 49.4307C211.997 49.4307 217.126 48.9177 217.126 48.9177C216.311 47.2175 212.995 42.58 215.407 40.7009C217.344 42.536 219.654 43.9988 221.763 45.6257C237.176 57.6445 214.435 68.7897 205.132 73.8466C190.53 81.7961 194.437 91.2504 200.538 93.6684C200.511 94.7441 199.857 95.2165 198.845 95.5473C194.58 96.984 190.574 93.9174 187.173 91.9505C187.379 97.8836 186.979 103.586 193.483 106.851L188.997 108.504C192.855 111.453 194.027 113.018 198.673 113.628C196.503 114.687 193.812 114.669 191.508 114.886C192.09 116.531 192.569 118.752 193.789 120.227C184.281 121.361 180.479 115.895 177.541 116.12C171.271 116.589 171.661 128.481 187.092 128.499L185.492 131.158C185.492 131.158 188.418 132.879 191.092 133.21C190.068 134.046 189.076 135.174 188.215 136.036L190.678 138.173C184.384 139.313 182.597 132.562 178.513 135.819C172.284 140.794 186.021 151.297 199.194 149.728C198.085 151.156 194.996 153.255 193.655 154.348C204.393 164.567 199.095 174.185 203.511 181.233C194.26 180.614 187.403 173.769 185.8 166.367ZM197.867 154.875C200.846 152.489 203.307 151.298 203.191 145.544C198.719 147.842 186.029 147.722 180.729 140.368C179.231 138.28 180.83 137.228 182.282 138.872C185.907 143.017 192.628 141.138 195.08 139.939C194.693 138.52 193.602 136.662 192.685 135.868C193.602 134.953 196.194 133.604 196.733 131.271C195.339 130.512 189.956 129.97 189.956 129.97C190.824 129.137 191.9 127.962 191.257 124.857C185.759 126.561 178.966 124.251 177.421 122.196C175.903 120.182 177.456 118.291 178.724 119.619C181.465 122.524 194.972 125.845 199.999 120.8C198.131 120.284 196.075 118.601 195.7 117.564C200.348 117.095 204.06 114.328 204.363 110.88C201.791 110.88 196.933 110.693 195.284 109.438C197.515 108.609 198.917 107.794 199.621 105.281C191.118 104.762 190.446 98.3987 190.402 97.343C195.935 100.562 205.684 99.1373 203.165 91.2077C198.568 90.9615 193.919 83.448 206.589 76.5391C218.1 70.2656 231.2 63.4943 230.048 52.3432C229.292 45.2169 217.632 40.345 216.154 36.7335C211.289 39.0669 210.303 41.7755 212.5 46.3133C212.5 46.3133 201.666 47.4008 200.811 40.6791C200.436 37.6628 202.434 34.8398 204.579 32.6882C203.365 32.6882 195.196 30.4867 192.735 37.1908C188.15 34.0425 184.24 34.1568 181.154 37.4781C186.076 40.427 189.125 50.5198 197.262 53.5011C191.473 56.667 182.114 55.3362 176.65 45.6244C171.483 53.4718 168.51 61.24 179.588 69.5332C159.419 78.7873 159.565 96.4606 142.022 104.885C143.806 109.699 147.558 109.699 152.335 108.948C144.749 118.883 151.212 129.272 139.209 133.523C140.329 137.571 142.584 140.798 147.017 139.617C145.755 141.599 144.926 141.555 142.965 143.733C149.528 147.898 157.313 144.879 159.076 131.521C159.393 129.137 162.654 130.626 161.522 132.965C154.04 148.558 172.961 160.284 166.267 171.722C172.176 171.472 176.664 171.012 179.135 168.999C180.336 171.399 181.055 173.776 180.799 176.119C184.057 175.454 185.247 173.501 185.471 171.285C187.609 177.555 195.246 184.265 207.473 184.265C200.988 174.964 207.025 165.516 197.867 154.875Z" fill="black"/>
<path fill-rule="evenodd" clip-rule="evenodd" d="M168.868 129.082C171.094 131.424 173.799 131.664 178.925 131.336C173.293 130.653 170.134 129.272 168.173 125.505C167.879 123.565 167.69 121.487 167.605 119.262C167.434 113.293 169.383 106.182 173.479 98.3987C173.45 103.282 177.296 110.959 185.863 112.238C178.154 108.843 173.63 101.198 176.094 93.8053C177.7 91.2167 179.513 88.549 181.535 85.8407C182.553 84.5299 183.539 83.2699 184.508 82.0939C183.469 85.8696 188.002 89.7683 191.033 90.4196C189.386 88.8041 185.863 83.554 194.003 74.7806C191.728 75.8589 189.217 77.3919 187.315 78.896C202.111 62.785 214.265 62.3365 219.854 54.2342C211.761 59.8067 190.341 62.8144 180.717 60.1819C186.029 63.7612 198.833 63.4329 201.96 62.7675C191.519 72.9952 168.725 83.554 164.781 92.9553C170.337 86.8166 173.924 85.6908 178.73 84.1083C174.945 89.8007 171.536 94.8108 169.185 100.618C163.122 113.888 155.012 114.055 154.479 125.004C157.246 116.52 162.858 114.372 166.75 108.799C166.061 112.358 165.744 116.298 165.866 120.856C166.003 125.807 166.986 130.157 168.548 134.047C168.152 139.462 168.633 148.701 174.788 154.802C170.605 149.463 169.706 140.793 170.078 137.41C174.896 146.781 188.642 159.72 195.283 168.421C188.642 157.235 172.356 144.164 168.868 129.082Z" fill="black"/>
<path fill-rule="evenodd" clip-rule="evenodd" d="M320.961 84.1083C325.75 85.697 329.357 86.8166 334.905 92.9553C330.966 83.554 308.155 72.9925 297.714 62.7645C300.856 63.43 313.653 63.7612 318.966 60.1819C309.351 62.8144 287.922 59.8067 279.826 54.2342C285.42 62.3365 297.569 62.788 312.368 78.896C310.471 77.3919 307.955 75.8589 305.677 74.7806C313.811 83.554 310.297 88.7952 308.647 90.4196C311.681 89.7683 316.208 85.8758 315.175 82.0939C316.147 83.2699 317.142 84.5299 318.148 85.8407C320.184 88.549 321.983 91.2167 323.586 93.8053C326.053 101.198 321.515 108.843 313.828 112.238C322.396 110.963 326.242 103.282 326.198 98.3987C330.294 106.182 332.258 113.293 332.072 119.262C331.999 121.487 331.798 123.565 331.513 125.505C329.544 129.272 326.384 130.656 320.773 131.336C325.886 131.664 328.575 131.424 330.827 129.082C327.327 144.164 311.044 157.229 304.4 168.421C311.044 159.72 324.773 146.781 329.605 137.41C329.98 140.793 329.078 149.463 324.906 154.802C331.05 148.701 331.531 139.462 331.137 134.045C332.694 130.151 333.666 125.807 333.814 120.856C333.96 116.298 333.619 112.358 332.933 108.799C336.825 114.372 342.437 116.52 345.206 125.004C344.68 114.055 336.569 113.888 330.495 100.618C328.153 94.8108 324.752 89.8007 320.961 84.1083Z" fill="black"/>
<path fill-rule="evenodd" clip-rule="evenodd" d="M348.358 135.485C348.591 135.866 349.207 140.266 350.88 142.37C342.152 141.81 346.205 123.278 337.474 127.746C335.01 128.995 334.275 131.908 335.421 134.291C341.132 146.199 328.119 156.696 328.849 167.135C325.635 167.111 322.294 167.023 320.211 162.667C319.135 164.831 317.428 167.891 316.502 170.84L313.89 166.364C312.273 173.766 305.418 180.614 296.176 181.229C300.566 174.182 295.294 164.564 306.029 154.345C304.685 153.26 301.604 151.153 300.491 149.726C313.672 151.294 327.409 140.79 321.166 135.816C317.09 132.559 315.292 139.31 309.011 138.17L311.472 136.033C310.614 135.165 309.608 134.045 308.593 133.207C311.275 132.875 314.192 131.155 314.192 131.155L312.592 128.496C328.028 128.479 328.395 116.586 322.152 116.117C319.217 115.891 315.397 121.364 305.899 120.227C307.1 118.749 307.592 116.521 308.182 114.883C305.895 114.666 303.175 114.683 301.017 113.625C305.663 113.012 306.829 111.45 310.687 108.501L306.216 106.847C312.709 103.582 312.31 97.8774 312.505 91.9477C309.119 93.9202 305.096 96.9806 300.848 95.5446C299.836 95.2131 299.176 94.7413 299.149 93.665C305.249 91.2469 309.136 81.7934 294.556 73.8432C285.258 68.7863 262.505 57.6413 277.924 45.6196C280.03 43.9956 282.328 42.5329 284.269 40.6978C286.687 42.5768 283.381 47.2143 282.552 48.9145C282.552 48.9145 287.678 49.4334 288.894 49.4334C296.842 49.3894 305.168 44.664 300.956 35.5913C304.109 36.2538 304.481 39.3054 305.444 41.9261C307.472 40.5454 310.986 37.5846 313.707 38.0068C311.498 45.1125 302.247 51.4912 295.05 52.9422C302.317 56.9319 315.795 59.9014 322.882 51.3182C327.86 61.0241 320.927 65.0724 314.131 70.1556C340.014 82.054 336.198 95.4036 353.172 105.91C350.979 106.947 341.137 104.861 340.261 104.731C343.965 109.545 345.69 111.579 346.764 113.927C347.79 116.126 348.244 118.594 349.26 123.944C350.071 128.168 351.538 132.375 356.625 135.165C354.633 138.815 350.19 135.972 348.358 135.485ZM347.348 108.948C352.122 109.695 355.877 109.695 357.661 104.878C340.116 96.4599 340.261 78.7866 320.089 69.5318C331.176 61.239 328.188 53.4708 323.042 45.6205C317.584 55.3351 308.193 56.666 302.433 53.5001C310.555 50.5189 313.616 40.4261 318.533 37.4771C315.458 34.1558 311.522 34.0414 306.954 37.1898C304.47 30.4798 296.324 32.6872 295.099 32.6872C297.232 34.8358 299.254 37.6617 298.872 40.6781C298.029 47.3999 287.189 46.3153 287.189 46.3153C289.371 41.7745 288.402 39.0659 283.538 36.7325C282.046 40.3469 270.4 45.216 269.653 52.3392C268.486 63.4932 281.589 70.2649 293.101 76.5377C305.77 83.4474 301.119 90.9602 296.53 91.207C293.985 99.1359 303.742 100.561 309.282 97.3423C309.255 98.3973 308.557 104.762 300.053 105.28C300.769 107.792 302.169 108.607 304.403 109.443C302.735 110.692 297.892 110.88 295.317 110.88C295.629 114.327 299.337 117.088 303.989 117.554C303.617 118.595 301.554 120.283 299.69 120.799C304.714 125.844 318.213 122.523 320.961 119.618C322.219 118.29 323.763 120.181 322.268 122.191C320.712 124.249 313.925 126.559 308.426 124.856C307.795 127.961 308.86 129.136 309.717 129.968C309.717 129.968 304.339 130.511 302.948 131.27C303.469 133.604 306.084 134.952 306.995 135.866C306.084 136.661 304.996 138.52 304.606 139.938C307.07 141.137 313.793 143.013 317.392 138.871C318.861 137.227 320.456 138.276 318.966 140.366C313.654 147.721 300.973 147.838 296.493 145.543C296.368 151.298 298.834 152.487 301.816 154.877C292.655 165.514 298.703 174.963 292.219 184.264C304.429 184.264 312.074 177.554 314.218 171.284C314.454 173.5 315.626 175.452 318.885 176.118C318.634 173.776 319.359 171.398 320.54 168.997C323.018 171.012 327.525 171.472 333.41 171.721C326.728 160.282 345.652 148.556 338.152 132.965C337.038 130.62 340.296 129.136 340.61 131.519C342.364 144.878 350.158 147.897 356.727 143.731C354.746 141.554 353.934 141.597 352.674 139.616C357.093 140.797 359.348 137.57 360.486 133.521C348.477 129.271 354.938 118.879 347.348 108.948Z" fill="black"/>
<path fill-rule="evenodd" clip-rule="evenodd" d="M240.852 59.3098C242.824 60.6817 246.31 62.1474 246.31 62.1474V59.8081L238.635 56.8474C238.635 56.8474 238.635 57.7942 240.852 59.3098Z" fill="black"/>
<path fill-rule="evenodd" clip-rule="evenodd" d="M246.31 56.4879V54.1721L237.599 51.0326C237.599 51.0326 238.635 52.1465 240.852 53.6767C242.824 55.0427 246.31 56.4879 246.31 56.4879Z" fill="black"/>
<path fill-rule="evenodd" clip-rule="evenodd" d="M246.31 51.2063V48.8611L236.774 45.3258C236.774 45.3258 238.636 46.8502 240.853 48.3686C242.825 49.7405 246.31 51.2063 246.31 51.2063Z" fill="black"/>
<path fill-rule="evenodd" clip-rule="evenodd" d="M273.098 83.0437H282.855C282.445 81.6221 280.927 80.1827 278.084 80.1827C275.388 80.1827 273.776 81.748 273.098 83.0437Z" fill="black"/>
<path fill-rule="evenodd" clip-rule="evenodd" d="M262.895 45.3258L253.376 48.8611V51.2063C253.376 51.2063 256.867 49.7435 258.825 48.3686C261.044 46.8502 262.895 45.3258 262.895 45.3258Z" fill="black"/>
<path fill-rule="evenodd" clip-rule="evenodd" d="M261.044 56.8474L253.376 59.8081V62.1474C253.376 62.1474 256.858 60.6817 258.827 59.3098C261.044 57.7942 261.044 56.8474 261.044 56.8474Z" fill="black"/>
<path fill-rule="evenodd" clip-rule="evenodd" d="M262.077 51.0326L253.376 54.1721V56.4879C253.376 56.4879 256.867 55.0427 258.827 53.6767C261.044 52.1465 262.077 51.0326 262.077 51.0326Z" fill="black"/>
<path fill-rule="evenodd" clip-rule="evenodd" d="M221.574 80.1827C218.734 80.1827 217.213 81.6221 216.817 83.0437H226.572C225.882 81.748 224.282 80.1827 221.574 80.1827Z" fill="black"/>
<path fill-rule="evenodd" clip-rule="evenodd" d="M249.841 44.1673L234.178 37.9321C235.505 34.7574 241.649 32.0518 249.841 32.0518C258.033 32.0518 264.169 34.7574 265.496 37.9321L249.841 44.1673ZM261.505 63.6537L250.939 69.2471V46.6457L265.286 41.7327L261.505 63.6537ZM273.848 73.0757C269.885 73.771 266.49 78.6546 263.698 83.043L263.383 83.5526H260.41L260.407 84.0718C260.09 87.463 256.899 92.0743 249.835 92.0743C246.575 92.0743 244.119 91.0688 242.432 89.6968C240.962 88.4981 240.049 87.0146 239.601 85.6048C239.432 85.08 239.328 84.5732 239.281 84.0718L239.258 83.5526H236.302L235.982 83.043C233.178 78.6546 229.78 73.771 225.837 73.0757L236.611 66.7793L249.841 74.0254L263.061 66.7793L273.848 73.0757ZM288.376 89.6968C287.248 92.6664 286.334 95.8768 286.334 99.0892V133.621H282.349C280.542 131.856 279.012 125.962 279.012 125.962C278.022 128.092 279.154 132.375 280.219 133.621H275.084C273.816 131.892 272.714 125.756 272.714 125.756C271.18 127.521 272.152 132.296 273.104 133.621H269.697C269.476 131.171 270.171 128.497 270.171 128.497C268.396 128.166 266.494 127.216 266.503 125.214C267.402 126.07 267.765 126.058 269.019 126.035L270.471 124.883C265.656 125.035 265.441 119.723 269.243 117.232C265.441 117.355 262.59 115.077 263.983 110.994C261.266 109.581 260.312 104.961 262.316 102.932C260.864 101.344 260.623 98.2391 261.551 96.1106C259.634 96.1106 257.473 95.3341 256.268 94.0151C256.175 94.0591 256.067 94.0914 255.965 94.1237C258.366 93.1355 260.393 91.6053 261.772 89.6968H288.376ZM286.343 158.293C286.343 165.499 283.041 170.963 277.551 174.002L275.093 175.131C272.48 176.131 269.507 176.676 266.223 176.676C256.198 176.676 253.548 177.09 249.85 180.812C246.126 177.09 243.482 176.676 233.477 176.676C230.211 176.676 227.255 176.136 224.639 175.158H224.715L223.115 174.504C222.588 174.252 222.079 173.982 221.576 173.686L220.159 172.739C215.865 169.55 213.34 164.581 213.34 158.293V135.651H286.343V158.293ZM236.648 116.942L239.728 117.323C239.958 119.027 239.516 121.908 238.417 123.511L235.438 122.641C236.229 120.732 236.433 118.971 236.648 116.942ZM232.221 114.668C232.221 114.668 235.042 114.53 235.84 114.835C236.433 115.081 236.032 116.075 235.276 115.969C234.473 115.87 232.221 114.668 232.221 114.668ZM232.029 103.363L229.497 112.694L230.362 97.6532L234.295 94.264L236.293 98.6875L231.24 113.292L232.57 103.46C232.701 102.771 232.143 102.698 232.029 103.363ZM230.082 118.91C228.749 119.456 227.394 118.723 227.813 117.853C228.427 118.424 230.149 118.146 230.149 118.146L230.082 118.91ZM227.586 120.155C228.197 120.756 230.056 120.531 230.056 120.531L230.129 120.9C229.317 121.987 227.069 121.501 227.586 120.155ZM224.672 114.157C223.962 113.679 224.282 112.638 225.07 112.638C225.929 112.659 227.078 113.644 228.218 114.136C228.218 114.136 225.242 114.534 224.672 114.157ZM227.493 122.414C227.493 122.414 228.349 122.784 229.425 122.865C229.3 123.458 228.849 124.038 228.116 123.871C227.511 123.736 227.237 122.974 227.493 122.414ZM229.495 116.785C228.063 117.251 227.432 116.216 227.502 115.331C230.297 114.294 231.543 114.961 232.366 115.492C233.122 115.97 233.742 117.324 234.76 118.18C234.589 119.333 234.234 121.009 233.823 122.132C230.961 121.388 230.812 118.848 231.886 117.295C231.281 116.589 230.646 116.41 229.495 116.785ZM241.908 117.611L244.974 117.978C245.274 119.684 244.704 123.281 243.546 125.004L240.422 124.096C241.669 122.442 242.129 119.505 241.908 117.611ZM247.18 118.262L249.711 118.585C250.109 120.696 249.85 124.357 248.509 126.447L245.562 125.579C246.857 123.817 247.456 120.183 247.18 118.262ZM251.712 118.826H251.767C252.425 118.926 253.117 118.817 253.748 118.551C255.112 120.53 256.18 125.003 254.543 127.805C253.614 127.812 252.701 127.653 251.852 127.413L251.171 127.208C252.556 125.035 252.346 121.222 251.712 118.826ZM255.575 117.325L257.364 115.558C259.2 117.161 261.594 120.758 260.844 124.167L258.888 125.964C258.493 126.36 258.068 126.656 257.649 126.916C258.862 123.865 257.309 119.186 255.575 117.325ZM266.1 118.337C265.708 118.862 265.385 119.484 265.181 120.149L263.002 122.172C263.439 118.956 261.3 115.157 259.342 113.609L261.667 111.32L262.12 111.785C261.347 113.838 262.86 117.85 266.1 118.337ZM260.312 102.798C259.166 105.003 259.282 107.544 260.626 109.848L259.733 110.734C255.826 110.25 254.284 104.375 254.284 104.375C254.211 104.888 254.159 105.425 254.167 105.938C251.889 105.088 250.441 103.05 250.56 100.251C251.424 100.74 252.396 101.08 253.429 101.265L253.69 99.5417C250.961 99.0637 249.367 97.343 248.754 95.3142C248.631 95.297 248.509 95.2764 248.39 95.253C248.87 95.297 249.353 95.3348 249.85 95.3348C251.465 95.3348 253.004 95.0831 254.447 94.6574C255.578 96.2846 257.595 97.4482 259.617 97.6772C259.296 99.0169 259.451 100.708 260.312 102.798ZM237.904 89.6968C239.79 92.2971 242.85 94.22 246.469 94.9793C246.78 96.3513 247.511 97.8464 248.953 99.063C248.357 103.099 250.08 106.869 254.391 107.875C254.839 109.926 256.11 111.483 258.231 112.225L255.235 115.713C254.094 117.053 252.599 117.484 251.357 117.322L237.965 115.789C238.542 114.289 237.002 112.55 232.767 113.295L238.03 98.4736L234.815 91.5881L228.732 96.8203L228.284 112.378L225.703 111.094C222.294 109.622 221.305 115.807 224.537 115.833L225.817 115.848C225.739 116.493 225.927 117.185 226.425 117.401C225.817 117.663 225.64 118.817 226.402 119.222C225.622 119.591 225.529 120.764 226.149 121.277C225.471 122.414 225.369 124.9 227.716 125.521C229.628 126.035 230.835 123.944 231.239 122.737L252.066 129.236C255.022 130.089 257.116 129.617 259.566 127.448L265.004 122.658C264.326 125.788 265.44 128.614 267.805 129.547C267.805 129.547 267.462 132.349 267.575 133.621H213.339V99.0892C213.339 95.8768 212.42 92.6664 211.318 89.6968H237.904ZM234.388 41.7327L248.721 46.6457V69.2471L238.167 63.6537L234.388 41.7327ZM269.214 39.0437C269.214 33.5122 259.998 28.561 249.836 28.561C239.665 28.561 230.449 33.5122 230.449 39.0437L230.664 40.3863L234.708 63.8639L215.496 75.1499C213.448 76.3603 210.888 79.6965 210.562 83.0444H214.068C214.647 79.6992 217.276 75.982 222.187 76.2049C226.624 76.4483 229.242 79.169 231.854 83.0444L232.526 84.0732L233.495 85.6062H205.235C207.304 89.8006 209.288 94.2565 209.288 99.0905V158.293C209.288 173.524 220.904 180.774 233.477 180.774C243.183 180.774 244.492 180.334 249.85 185.728C255.192 180.334 256.492 180.774 266.223 180.774C278.794 180.774 290.407 173.524 290.407 158.293V99.0905C290.407 94.2565 292.371 89.8006 294.445 85.6062H266.171L267.151 84.0732L267.826 83.0444C270.418 79.169 273.051 76.4483 277.488 76.2049C282.375 75.982 285.019 79.6992 285.595 83.0444H289.098C288.784 79.6965 286.21 76.3603 284.173 75.1499L264.96 63.8639L269.013 40.3863L269.214 39.0437Z" fill="black"/>
<path fill-rule="evenodd" clip-rule="evenodd" d="M284.682 112.017L284.706 110.285C279.44 110.162 278.224 103.889 278.224 103.889C276.688 108.503 280.711 111.938 284.682 112.017Z" fill="black"/>
<path fill-rule="evenodd" clip-rule="evenodd" d="M278.023 122.625L277.488 120.983C272.999 122.141 270.684 114.965 270.684 114.965C269.235 120.183 274.256 123.874 278.023 122.625Z" fill="black"/>
<path fill-rule="evenodd" clip-rule="evenodd" d="M281.145 115.97C275.777 116.828 273.569 110.532 273.569 110.532C272.975 113.959 275.18 117.432 278.727 117.804C277.93 122.275 282.055 124.57 285.625 122.975L285.109 121.422C282.009 122.456 279.099 119.37 281.145 115.97Z" fill="black"/>
<path fill-rule="evenodd" clip-rule="evenodd" d="M277.93 98.0005L277.974 96.2743C270.887 94.7936 271.486 89.8804 271.486 89.8804C269.953 94.5096 273.97 97.9276 277.93 98.0005Z" fill="black"/>
<path fill-rule="evenodd" clip-rule="evenodd" d="M256.315 12.3415C257.24 12.4206 258.051 11.723 258.13 10.7966C258.22 9.87913 256.876 7.39917 256.876 7.39917C256.876 7.39917 254.863 9.58306 254.799 10.5182C254.714 11.4357 255.404 12.2506 256.315 12.3415Z" fill="black"/>
<path fill-rule="evenodd" clip-rule="evenodd" d="M266.697 16.1402C267.524 16.5828 268.522 16.2486 268.964 15.4249C269.403 14.6188 269.118 11.8163 269.118 11.8163C269.118 11.8163 266.436 13.027 265.999 13.8537C265.58 14.6715 265.885 15.6917 266.697 16.1402Z" fill="black"/>
<path fill-rule="evenodd" clip-rule="evenodd" d="M243.36 12.3415C244.294 12.2506 244.975 11.4357 244.89 10.5182C244.809 9.58306 242.816 7.39917 242.816 7.39917C242.816 7.39917 241.475 9.87913 241.562 10.7966C241.632 11.723 242.455 12.4206 243.36 12.3415Z" fill="black"/>
<path fill-rule="evenodd" clip-rule="evenodd" d="M232.986 16.1402C233.806 15.6917 234.117 14.6715 233.675 13.8537C233.245 13.027 230.565 11.8163 230.565 11.8163C230.565 11.8163 230.289 14.6188 230.734 15.4249C231.162 16.2486 232.168 16.5828 232.986 16.1402Z" fill="black"/>
<path fill-rule="evenodd" clip-rule="evenodd" d="M269.475 200.675L266.1 189.606C273.286 188.114 278.296 186.572 282.115 185.083V191.989L288.044 194.396C283.035 196.697 276.821 198.981 269.475 200.675ZM249.85 207.142C243.136 207.142 236.596 206.131 230.993 204.747L234.556 193.154C236.922 193.702 242.824 194.432 249.85 194.432C256.875 194.432 262.758 193.702 265.138 193.154L268.708 204.747C263.087 206.131 256.535 207.142 249.85 207.142ZM211.627 194.396L217.571 191.989V185.083C221.387 186.572 226.4 188.114 233.585 189.606L230.219 200.675C222.885 198.981 216.66 196.697 211.627 194.396ZM283.952 190.547V182.087C277.458 185.083 269.199 187.516 258.575 188.483L258.089 191.505C258.997 191.631 260.134 191.745 261.667 191.839C257.72 192.39 252.64 192.654 249.85 192.654C247.055 192.654 241.978 192.39 238.03 191.839C239.552 191.745 240.689 191.631 241.597 191.505L241.117 188.483C230.487 187.516 222.213 185.083 215.735 182.087V190.547L206.928 194.193C213.448 197.614 220.96 200.402 229.629 202.656L228.607 206.2C233.582 207.663 241.518 209.158 249.85 209.158C258.173 209.158 266.115 207.663 271.078 206.2L270.051 202.656C278.724 200.402 286.241 197.614 292.763 194.193L283.952 190.547Z" fill="black"/>
<path fill-rule="evenodd" clip-rule="evenodd" d="M140.625 80.0066C142.234 77.5356 144.474 75.317 147.604 72.705C145.559 72.4382 143.957 71.7724 141.958 70.2656C146.231 69.1253 155.227 65.8541 162.88 67.314C165.394 67.6482 166.817 68.6946 165.894 69.278C161.778 72.0276 156.695 78.3974 152.998 85.8345C149.769 81.7776 151.124 76.4483 151.808 74.9154C145.341 78.843 143.651 80.7632 140.625 80.0066ZM147.582 80.9805C147.582 80.9805 151.043 87.4204 153.063 88.8571C159.195 82.6654 163.701 73.6926 173.647 68.551C168.941 60.7418 162.619 62.0491 162.163 55.1047C165.173 55.9577 168.109 53.9497 168.17 50.3089C165.002 48.5647 163.878 52.0355 163.023 51.1473C162.314 50.4144 166.648 50.2796 166.232 45.7682C162.055 45.6392 162.828 48.6908 161.842 48.2979C161.06 48.0165 163.023 45.5072 159.233 43.2882C157.103 47.2573 160.015 48.4914 159.41 49.1568C158.77 49.8486 157.673 46.8615 154.054 48.1191C155.032 53.0233 159.716 51.1326 159.082 52.569C158.639 53.6096 155.439 50.5551 154.183 54.3337C155.977 57.6286 159.216 56.8488 161.115 55.4711C161.513 61.8264 165.642 62.3511 170.256 66.7745C157.967 61.6212 143.005 67.9413 137.364 68.7708C138.223 70.7264 139.933 72.8604 142.141 73.6341C138.665 76.8761 138.581 78.6553 136.291 80.9977C136.291 80.9977 140.948 86.157 147.582 80.9805Z" fill="black"/>
<path fill-rule="evenodd" clip-rule="evenodd" d="M244.454 76.2661V79.9915C245.737 78.4469 248.196 78.746 248.196 78.746V84.1104C248.196 84.1104 248.114 86.7574 247.183 87.9032H252.515C251.587 86.7574 251.5 84.1104 251.5 84.1104V78.746C251.5 78.746 253.959 78.4469 255.236 79.9915V76.2661H244.454Z" fill="black"/>
<path fill-rule="evenodd" clip-rule="evenodd" d="M185.817 166.38L183.207 170.853C182.268 167.904 180.574 164.852 179.489 162.68C177.395 167.036 174.081 167.124 170.881 167.147C171.591 156.715 158.575 146.22 164.3 134.315C165.441 131.935 164.699 129.016 162.241 127.767C153.516 123.308 157.551 141.826 148.836 142.392C150.503 140.281 151.125 135.887 151.378 135.506C149.522 135.993 145.085 138.845 143.09 135.195C148.184 132.402 149.644 128.195 150.447 123.971C151.462 118.627 151.931 116.15 152.958 113.957C154.034 111.615 155.754 109.58 159.439 104.764C158.566 104.89 148.754 106.98 146.546 105.94C163.518 95.4366 159.698 82.0925 185.569 70.2003C178.785 65.1201 171.85 61.0659 176.824 51.3659C183.914 59.9491 197.384 56.9825 204.657 52.9957C197.471 51.5447 188.205 45.1572 186.006 38.0544C188.711 37.6381 192.223 40.5988 194.242 41.9795C195.213 39.353 195.6 36.3043 198.754 35.6477C194.544 44.7174 202.859 49.4458 210.783 49.481C212.013 49.481 217.142 48.9592 217.142 48.9592C216.319 47.259 213.009 42.6215 215.415 40.7513C217.361 42.5805 219.668 44.0461 221.771 45.6761C237.181 57.6889 214.443 68.831 205.139 73.8851C190.553 81.8319 194.454 91.2889 200.552 93.7042C200.529 94.7709 199.876 95.2433 198.861 95.5858C194.597 97.0108 190.593 93.9504 187.195 91.9807C187.396 97.9166 186.995 103.615 193.503 106.88L189.017 108.526C192.871 111.483 194.047 113.045 198.684 113.653C196.52 114.714 193.829 114.693 191.527 114.91C192.106 116.554 192.586 118.776 193.803 120.254C184.307 121.388 180.504 115.924 177.557 116.141C171.291 116.616 171.687 128.503 187.108 128.521L185.508 131.182C185.508 131.182 188.429 132.9 191.109 133.228C190.085 134.064 189.101 135.195 188.234 136.054L190.698 138.197C184.4 139.331 182.62 132.578 178.538 135.831C172.304 140.812 186.041 151.306 199.207 149.747C198.102 151.175 195.01 153.273 193.677 154.364C204.401 164.576 199.111 174.194 203.525 181.242C194.271 180.617 187.423 173.778 185.817 166.38ZM197.88 154.888C200.862 152.507 203.329 151.317 203.204 145.557C198.73 147.861 186.048 147.738 180.751 140.389C179.25 138.296 180.856 137.247 182.299 138.891C185.924 143.036 192.647 141.16 195.096 139.964C194.709 138.533 193.619 136.681 192.702 135.886C193.619 134.978 196.216 133.624 196.743 131.293C195.355 130.536 189.976 129.991 189.976 129.991C190.84 129.15 191.917 127.984 191.273 124.879C185.775 126.582 178.988 124.269 177.441 122.22C175.925 120.203 177.472 118.315 178.749 119.652C181.484 122.546 194.989 125.869 200.01 120.828C198.148 120.309 196.085 118.626 195.719 117.586C200.364 117.117 204.071 114.352 204.379 110.908C201.808 110.908 196.949 110.72 195.297 109.466C197.525 108.636 198.933 107.824 199.638 105.309C191.14 104.79 190.465 98.4289 190.418 97.3767C195.951 100.593 205.7 99.1586 203.181 91.2414C198.576 90.9918 193.936 83.4845 206.599 76.59C218.116 70.3048 231.205 63.5335 230.047 52.3912C229.294 45.2562 217.639 40.3931 216.162 36.7845C211.298 39.1179 210.32 41.8265 212.516 46.3613C212.516 46.3613 201.677 47.446 200.822 40.7272C200.452 37.7137 202.447 34.8937 204.595 32.7421C203.376 32.7421 195.213 30.5406 192.752 37.2418C188.175 34.0934 184.263 34.2107 181.179 37.5319C186.095 40.4721 189.141 50.5679 197.275 53.5462C191.489 56.7063 182.133 55.3842 176.675 45.6754C171.509 53.5169 168.536 61.2851 179.614 69.5751C159.447 78.8237 159.596 96.4943 142.056 104.916C143.837 109.726 147.586 109.726 152.367 108.973C144.782 118.902 151.247 129.294 139.237 133.541C140.366 137.59 142.621 140.826 147.046 139.641C145.789 141.617 144.96 141.579 142.999 143.751C149.562 147.917 157.344 144.9 159.107 131.539C159.418 129.15 162.679 130.645 161.554 132.987C154.071 148.571 172.989 160.296 166.296 171.732C172.198 171.483 176.693 171.016 179.151 169.014C180.358 171.409 181.08 173.787 180.821 176.129C184.082 175.463 185.266 173.52 185.49 171.286C187.631 177.568 195.265 184.275 207.48 184.275C200.999 174.971 207.036 165.523 197.88 154.888Z" fill="black"/>
<path fill-rule="evenodd" clip-rule="evenodd" d="M168.895 129.1C171.126 131.445 173.826 131.685 178.943 131.362C173.319 130.674 170.16 129.293 168.191 125.532C167.906 123.583 167.716 121.504 167.638 119.288C167.46 113.32 169.409 106.214 173.503 98.4282C173.477 103.309 177.314 110.986 185.881 112.261C178.181 108.87 173.651 101.228 176.121 93.8287C177.724 91.249 179.533 88.5847 181.555 85.8703C182.57 84.5656 183.56 83.305 184.526 82.1359C183.496 85.9026 188.02 89.7986 191.045 90.4519C189.407 88.8364 185.881 83.5897 194.021 74.8156C191.749 75.9002 189.239 77.4338 187.333 78.9255C202.12 62.8294 214.28 62.375 219.866 54.2784C211.779 59.8511 190.361 62.8587 180.735 60.2263C186.044 63.7997 198.844 63.4742 201.972 62.8059C191.536 73.031 168.752 83.5897 164.807 92.9848C170.355 86.8496 173.951 85.7265 178.751 84.1468C174.969 89.8364 171.562 94.8403 169.212 100.648C163.152 113.915 155.047 114.085 154.509 125.028C157.275 116.547 162.884 114.395 166.777 108.829C166.09 112.382 165.77 116.327 165.892 120.877C166.029 125.825 167.016 130.175 168.575 134.069C168.179 139.473 168.656 148.719 174.812 154.814C170.628 149.481 169.733 140.81 170.105 137.427C174.919 146.794 188.659 159.735 195.298 168.43C188.659 157.244 172.383 144.182 168.895 129.1Z" fill="black"/>
<path fill-rule="evenodd" clip-rule="evenodd" d="M320.95 84.1468C325.727 85.7265 329.332 86.8496 334.88 92.9848C330.949 83.5897 308.139 73.031 297.706 62.8059C300.84 63.4684 313.642 63.7997 318.949 60.2263C309.334 62.8587 287.914 59.8511 279.818 54.2784C285.412 62.375 297.561 62.8294 312.354 78.9255C310.457 77.4338 307.944 75.9002 305.663 74.8156C313.794 83.5897 310.28 88.8364 308.63 90.4547C311.665 89.7986 316.188 85.9026 315.159 82.1359C316.13 83.305 317.122 84.5656 318.132 85.8703C320.168 88.5847 321.966 91.249 323.563 93.8287C326.03 101.228 321.495 108.87 313.811 112.261C322.379 110.99 326.222 103.309 326.178 98.4282C330.275 106.214 332.236 113.32 332.049 119.288C331.973 121.504 331.781 123.583 331.494 125.532C329.518 129.293 326.359 130.674 320.747 131.362C325.87 131.685 328.555 131.445 330.801 129.1C327.31 144.182 311.033 157.244 304.386 168.43C311.033 159.735 324.753 146.794 329.588 137.427C329.96 140.81 329.056 149.481 324.881 154.814C331.034 148.719 331.511 139.473 331.112 134.062C332.669 130.175 333.646 125.825 333.792 120.877C333.94 116.327 333.594 112.382 332.91 108.829C336.802 114.399 342.412 116.547 345.184 125.028C344.652 114.085 336.544 113.915 330.47 100.648C328.127 94.8403 324.729 89.8364 320.95 84.1468Z" fill="black"/>
<path fill-rule="evenodd" clip-rule="evenodd" d="M348.326 135.502C348.562 135.883 349.184 140.277 350.854 142.387C342.13 141.821 346.176 123.304 337.449 127.763C334.99 129.012 334.255 131.931 335.395 134.311C341.1 146.216 328.096 156.71 328.826 167.143C325.611 167.12 322.278 167.032 320.197 162.676C319.127 164.848 317.416 167.9 316.482 170.842L313.873 166.375C312.253 173.774 305.398 180.618 296.165 181.237C300.555 174.19 295.277 164.572 306.021 154.359C304.668 153.269 301.587 151.167 300.476 149.742C313.652 151.302 327.383 140.808 321.149 135.827C317.07 132.573 315.275 139.327 308.994 138.192L311.455 136.05C310.597 135.191 309.594 134.065 308.575 133.224C311.257 132.895 314.176 131.178 314.176 131.178L312.575 128.516C328.003 128.499 328.372 116.612 322.129 116.137C319.2 115.92 315.386 121.384 305.882 120.249C307.08 118.772 307.577 116.55 308.165 114.906C305.879 114.688 303.162 114.709 301.002 113.648C305.646 113.041 306.807 111.479 310.667 108.53L306.199 106.876C312.697 103.611 312.29 97.9125 312.488 91.976C309.096 93.9491 305.079 97.0067 300.834 95.5817C299.819 95.2386 299.158 94.7668 299.138 93.7001C305.238 91.2841 309.122 81.8278 294.548 73.8803C285.253 68.8269 262.497 57.6846 277.915 45.6717C280.025 44.0418 282.314 42.5761 284.255 40.7469C286.675 42.6171 283.37 47.2546 282.547 48.9549C282.547 48.9549 287.673 49.4766 288.886 49.4766C296.834 49.4414 305.157 44.7131 300.945 35.6346C304.098 36.2971 304.473 39.3516 305.436 41.9693C307.458 40.5945 310.97 37.6337 313.69 38.05C311.482 45.1528 302.23 51.5403 295.036 52.9914C302.3 56.9781 315.781 59.9447 322.868 51.3615C327.837 61.0616 320.91 65.1157 314.115 70.1955C339.988 82.0829 336.169 95.4325 353.144 105.936C350.947 106.976 341.114 104.886 340.236 104.76C343.942 109.576 345.668 111.611 346.732 113.953C347.761 116.146 348.219 118.619 349.237 123.967C350.048 128.191 351.512 132.397 356.597 135.191C354.599 138.84 350.17 135.988 348.326 135.502ZM347.319 108.968C352.094 109.722 355.849 109.722 357.629 104.914C340.084 96.4916 340.235 78.8217 320.072 69.5731C331.156 61.2828 328.166 53.5146 323.019 45.6731C317.567 55.3819 308.182 56.7039 302.422 53.5439C310.536 50.5656 313.599 40.4699 318.516 37.5267C315.441 34.2025 311.513 34.0912 306.932 37.2336C304.456 30.5383 296.307 32.7398 295.082 32.7398C297.224 34.8914 299.245 37.7085 298.861 40.7249C298.018 47.4437 287.175 46.3591 287.175 46.3591C289.363 41.8242 288.391 39.1155 283.524 36.7822C282.037 40.3907 270.401 45.2539 269.644 52.386C268.478 63.5312 281.581 70.3028 293.086 76.5879C305.748 83.4825 301.104 90.9897 296.519 91.2387C293.974 99.1621 303.722 100.59 309.271 97.374C309.244 98.4269 308.54 104.788 300.04 105.31C300.758 107.822 302.16 108.634 304.386 109.464C302.724 110.718 297.875 110.906 295.309 110.906C295.612 114.35 299.327 117.114 303.976 117.583C303.606 118.621 301.541 120.306 299.682 120.826C304.703 125.867 318.202 122.543 320.95 119.65C322.208 118.313 323.74 120.201 322.245 122.212C320.692 124.267 313.911 126.58 308.409 124.876C307.778 127.978 308.837 129.153 309.707 129.989C309.707 129.989 304.328 130.528 302.934 131.291C303.458 133.621 306.067 134.975 306.984 135.884C306.067 136.679 304.979 138.531 304.586 139.962C307.054 141.158 313.771 143.03 317.381 138.889C318.841 137.244 320.436 138.293 318.944 140.384C313.643 147.736 300.956 147.856 296.479 145.554C296.353 151.315 298.826 152.499 301.803 154.886C292.633 165.521 298.692 174.968 292.211 184.272C304.418 184.272 312.052 177.557 314.196 171.284C314.437 173.518 315.609 175.461 318.862 176.126C318.611 173.778 319.339 171.407 320.523 169.012C322.993 171.014 327.499 171.48 333.39 171.73C326.711 160.294 345.624 148.568 338.121 132.985C337.012 130.643 340.27 129.153 340.585 131.537C342.339 144.898 350.129 147.915 356.699 143.749C354.724 141.577 353.905 141.615 352.643 139.639C357.065 140.824 359.317 137.587 360.452 133.539C348.451 129.292 354.915 118.899 347.319 108.968Z" fill="black"/>
<path fill-rule="evenodd" clip-rule="evenodd" d="M240.867 59.3561C242.828 60.7222 246.31 62.1879 246.31 62.1879V59.8545L238.641 56.8938C238.641 56.8938 238.641 57.8435 240.867 59.3561Z" fill="black"/>
<path fill-rule="evenodd" clip-rule="evenodd" d="M246.31 56.5401V54.2096L237.609 51.0789C237.609 51.0789 238.642 52.1899 240.867 53.7172C242.828 55.0773 246.31 56.5401 246.31 56.5401Z" fill="black"/>
<path fill-rule="evenodd" clip-rule="evenodd" d="M246.31 51.2467V48.9074L236.779 45.3722C236.779 45.3722 238.641 46.8907 240.867 48.415C242.827 49.7869 246.31 51.2467 246.31 51.2467Z" fill="black"/>
<path fill-rule="evenodd" clip-rule="evenodd" d="M273.095 83.0856H282.84C282.439 81.6579 280.923 80.2192 278.075 80.2192C275.387 80.2192 273.767 81.79 273.095 83.0856Z" fill="black"/>
<path fill-rule="evenodd" clip-rule="evenodd" d="M262.895 45.3722L253.376 48.9074V51.2467C253.376 51.2467 256.864 49.7869 258.827 48.415C261.044 46.8907 262.895 45.3722 262.895 45.3722Z" fill="black"/>
<path fill-rule="evenodd" clip-rule="evenodd" d="M261.041 56.8938L253.376 59.8545V62.1879C253.376 62.1879 256.864 60.7222 258.827 59.3561C261.041 57.8435 261.041 56.8938 261.041 56.8938Z" fill="black"/>
<path fill-rule="evenodd" clip-rule="evenodd" d="M262.077 51.0789L253.376 54.2096V56.5401C253.376 56.5401 256.867 55.0832 258.827 53.7172C261.041 52.1899 262.077 51.0789 262.077 51.0789Z" fill="black"/>
<path fill-rule="evenodd" clip-rule="evenodd" d="M221.585 80.2192C218.743 80.2192 217.229 81.6579 216.823 83.0856H226.58C225.885 81.7872 224.29 80.2192 221.585 80.2192Z" fill="black"/>
<path fill-rule="evenodd" clip-rule="evenodd" d="M284.67 112.039L284.699 110.309C279.427 110.184 278.223 103.922 278.223 103.922C276.679 108.533 280.702 111.969 284.67 112.039Z" fill="black"/>
<path fill-rule="evenodd" clip-rule="evenodd" d="M278.014 122.645L277.488 121.009C272.993 122.167 270.669 114.991 270.669 114.991C269.231 120.203 274.247 123.896 278.014 122.645Z" fill="black"/>
<path fill-rule="evenodd" clip-rule="evenodd" d="M281.138 115.994C275.768 116.849 273.563 110.556 273.563 110.556C272.97 113.983 275.171 117.459 278.727 117.826C277.924 122.302 282.046 124.591 285.616 123L285.1 121.44C282 122.489 279.09 119.397 281.138 115.994Z" fill="black"/>
<path fill-rule="evenodd" clip-rule="evenodd" d="M277.924 98.0328L277.973 96.3004C270.887 94.8287 271.477 89.9128 271.477 89.9128C269.947 94.5419 273.97 97.9599 277.924 98.0328Z" fill="black"/>
<path fill-rule="evenodd" clip-rule="evenodd" d="M235.055 22.2897L238.074 15.8407L243.671 18.8366L249.851 12.6894L256.03 18.8366L261.621 15.8407L264.606 22.2897L268.327 21.7152C267.373 23.518 266.654 25.0834 265.994 27.2936C261.927 24.9016 255.887 23.0607 249.851 23.0607C243.794 23.0607 237.769 24.9016 233.699 27.2936C233.021 25.0834 232.314 23.518 231.351 21.7152L235.055 22.2897ZM249.851 25.1147C257.715 25.1147 264.01 27.7384 267.489 30.5613C267.489 30.5613 268.531 24.2705 272.054 18.7477L265.715 19.463L262.404 12.3573L256.03 15.6962L249.851 9.51675L243.672 15.6962L237.287 12.3573L233.97 19.463L227.637 18.7477C231.165 24.2705 232.195 30.5613 232.195 30.5613C235.666 27.7384 241.979 25.1147 249.851 25.1147Z" fill="black"/>
<path fill-rule="evenodd" clip-rule="evenodd" d="M256.314 12.401C257.234 12.4772 258.051 11.7766 258.129 10.862C258.22 9.93868 256.876 7.46161 256.876 7.46161C256.876 7.46161 254.862 9.64255 254.799 10.5748C254.712 11.4894 255.404 12.3072 256.314 12.401Z" fill="black"/>
<path fill-rule="evenodd" clip-rule="evenodd" d="M266.697 16.1919C267.515 16.6375 268.513 16.3091 268.955 15.4825C269.399 14.6705 269.109 11.868 269.109 11.868C269.109 11.868 266.435 13.0846 265.993 13.9112C265.574 14.7262 265.879 15.7434 266.697 16.1919Z" fill="black"/>
<path fill-rule="evenodd" clip-rule="evenodd" d="M243.36 12.401C244.297 12.3072 244.975 11.4894 244.893 10.5748C244.809 9.64255 242.816 7.46161 242.816 7.46161C242.816 7.46161 241.475 9.93868 241.562 10.862C241.635 11.7766 242.455 12.4772 243.36 12.401Z" fill="black"/>
<path fill-rule="evenodd" clip-rule="evenodd" d="M232.994 16.1919C233.809 15.7434 234.121 14.7262 233.684 13.9112C233.253 13.0846 230.574 11.868 230.574 11.868C230.574 11.868 230.289 14.6705 230.737 15.4825C231.165 16.3091 232.177 16.6375 232.994 16.1919Z" fill="black"/>
<path fill-rule="evenodd" clip-rule="evenodd" d="M269.467 200.673L266.092 189.616C273.283 188.118 278.287 186.579 282.107 185.093V191.991L288.036 194.397C283.026 196.698 276.812 198.982 269.467 200.673ZM249.851 207.143C243.145 207.143 236.597 206.131 231.003 204.748L234.563 193.148C236.923 193.702 242.828 194.432 249.851 194.432C256.876 194.432 262.759 193.702 265.13 193.148L268.702 204.748C263.082 206.131 256.536 207.143 249.851 207.143ZM211.644 194.397L217.579 191.991V185.093C221.399 186.579 226.403 188.118 233.594 189.616L230.222 200.673C222.894 198.982 216.663 196.698 211.644 194.397ZM283.943 190.557V182.094C277.453 185.093 269.191 187.523 258.569 188.484L258.086 191.509C258.988 191.639 260.134 191.75 261.658 191.85C257.722 192.392 252.637 192.656 249.85 192.656C247.058 192.656 241.978 192.392 238.037 191.85C239.558 191.75 240.695 191.639 241.597 191.509L241.117 188.484C230.493 187.523 222.222 185.093 215.749 182.094V190.557L206.943 194.198C213.463 197.616 220.969 200.403 229.644 202.655L228.616 206.199C233.585 207.664 241.525 209.168 249.85 209.168C258.173 209.168 266.107 207.664 271.075 206.199L270.051 202.655C278.715 200.403 286.238 197.616 292.758 194.198L283.943 190.557Z" fill="black"/>
<path fill-rule="evenodd" clip-rule="evenodd" d="M140.655 80.0445C142.264 77.5707 144.516 75.3514 147.64 72.7394C145.595 72.476 143.992 71.8013 141.988 70.3034C146.264 69.1577 155.256 65.8949 162.911 67.3576C165.424 67.6918 166.844 68.7266 165.922 69.3096C161.808 72.0626 156.726 78.4324 153.031 85.8661C149.799 81.8064 151.166 76.4834 151.836 74.9497C145.371 78.8808 143.687 80.792 140.655 80.0445ZM147.617 81.0197C147.617 81.0197 151.079 87.4486 153.089 88.8908C159.225 82.6936 163.731 73.7297 173.674 68.5879C168.967 60.7816 162.651 62.0919 162.183 55.1415C165.206 56.0033 168.13 53.9924 168.191 50.3516C165.028 48.6015 163.899 52.0811 163.047 51.19C162.34 50.4571 166.669 50.3311 166.259 45.8167C162.084 45.6848 162.849 48.7335 161.869 48.3495C161.086 48.0622 163.047 45.5559 159.259 43.3339C157.133 47.3 160.042 48.5371 159.439 49.1996C158.797 49.8914 157.703 46.9072 154.081 48.1619C155.064 53.0603 159.748 51.1724 159.111 52.6176C158.666 53.6524 155.468 50.6008 154.212 54.3706C156.013 57.6713 159.244 56.8915 161.139 55.5138C161.546 61.8662 165.668 62.3968 170.282 66.8114C157.994 61.661 143.04 67.9811 137.394 68.8104C138.264 70.769 139.968 72.8941 142.182 73.6678C138.694 76.907 138.613 78.6896 136.332 81.0403C136.332 81.0403 140.981 86.1907 147.617 81.0197Z" fill="black"/>
<path fill-rule="evenodd" clip-rule="evenodd" d="M244.463 76.2984V80.0273C245.737 78.4826 248.198 78.7873 248.198 78.7873V84.1489C248.198 84.1489 248.114 86.7987 247.183 87.9335H252.515C251.587 86.7987 251.5 84.1489 251.5 84.1489V78.7873C251.5 78.7873 253.959 78.4826 255.236 80.0273V76.2984H244.463Z" fill="black"/>
</g>
<path fill-rule="evenodd" clip-rule="evenodd" d="M28.3192 94.1533C27.8055 93.6726 27.8047 92.861 28.2682 92.3322C30.5446 89.7332 31.9247 86.3262 31.9247 82.5966C31.9247 78.8671 30.5446 75.46 28.2682 72.8611C27.8047 72.3322 27.8055 71.5207 28.3192 71.04C28.796 70.5943 29.5419 70.5991 29.978 71.0847C32.715 74.1355 34.3804 78.1711 34.3804 82.5966C34.3804 87.0222 32.715 91.0578 29.978 94.1086C29.5419 94.5948 28.796 94.5989 28.3192 94.1533ZM26.3686 90.771C25.9431 91.2504 25.2115 91.2469 24.7435 90.8088C24.2221 90.3212 24.235 89.4946 24.6955 88.9485C26.1419 87.2347 27.0139 85.0181 27.0139 82.5973C27.0139 80.1765 26.1417 77.9593 24.6951 76.2454C24.2345 75.6994 24.2216 74.8727 24.743 74.3851C25.211 73.947 25.9426 73.9436 26.3681 74.4229C28.2975 76.5962 29.4696 79.4592 29.4696 82.5973C29.4696 85.7348 28.2977 88.5978 26.3686 90.771ZM21.1921 87.4878C21.6353 87.9018 22.3272 87.9238 22.7274 87.4672C23.867 86.1673 24.558 84.4631 24.558 82.5966C24.558 80.7308 23.867 79.0259 22.7272 77.7261C22.3271 77.2701 21.6352 77.2915 21.192 77.7062C20.6513 78.2117 20.7089 79.0837 21.1475 79.6807C21.7477 80.497 22.1024 81.5052 22.1024 82.5966C22.1024 83.6881 21.7477 84.697 21.1477 85.5133C20.7091 86.1096 20.6515 86.9816 21.1921 87.4878Z" fill="white"/>
<path d="M238.372 176.707C249.316 176.707 258.188 167.796 258.188 156.803C258.188 145.81 249.316 136.899 238.372 136.899C227.429 136.899 218.557 145.81 218.557 156.803C218.557 167.796 227.429 176.707 238.372 176.707Z" fill="#FF0819"/>
<path d="M262.589 176.708C273.533 176.708 282.404 167.796 282.404 156.804C282.404 145.811 273.533 136.9 262.589 136.9C251.645 136.9 242.774 145.811 242.774 156.804C242.774 167.796 251.645 176.708 262.589 176.708Z" fill="#FFC600"/>
<path fill-rule="evenodd" clip-rule="evenodd" d="M250.48 172.556C255.168 168.916 258.186 163.212 258.186 156.8C258.186 150.388 255.168 144.685 250.48 141.045C245.793 144.685 242.775 150.388 242.775 156.8C242.775 163.212 245.793 168.916 250.48 172.556Z" fill="#FF700F"/>
<path d="M79.0888 99.0479H50.9866C47.2433 99.0479 44.2026 95.9937 44.2026 92.2338V75.0213C44.2026 71.2614 47.2433 68.2071 50.9866 68.2071H79.0888C82.832 68.2071 85.8724 71.2614 85.8724 75.0213V92.2338C85.8724 96.0047 82.832 99.0479 79.0888 99.0479Z" fill="#EBEFF2"/>
<path d="M79.2645 98.6731H51.1629C47.4196 98.6731 44.3789 95.6189 44.3789 91.859V74.6465C44.3789 70.8866 47.4196 67.8323 51.1629 67.8323H79.2645C83.0084 67.8323 86.0488 70.8866 86.0488 74.6465V91.859C86.0488 95.6189 83.0084 98.6731 79.2645 98.6731Z" stroke="#B0B0B1" stroke-width="1.78903" stroke-miterlimit="10"/>
<path d="M64.0817 67.8531C64.0817 67.8531 58.0441 67.9634 56.2219 78.3279C58.0112 83.0698 57.0671 87.6563 56.8037 88.7257L56.7927 88.7594C56.7598 88.8915 56.7378 88.9685 56.7378 88.9685C59.559 99.1015 65.5746 98.6277 65.5746 98.6277" stroke="#B0B0B1" stroke-width="1.78903" stroke-miterlimit="10"/>
<path d="M56.2233 78.3602H44.269" stroke="#B0B0B1" stroke-width="1.78903" stroke-miterlimit="10"/>
<path d="M56.7936 88.8241H44.2026" stroke="#B0B0B1" stroke-width="1.78903" stroke-miterlimit="10"/>
<path d="M65.915 67.8531C65.915 67.8531 69.8779 67.9303 72.3589 73.4766" stroke="#B0B0B1" stroke-width="1.78903" stroke-miterlimit="10"/>
<path d="M85.7298 78.3609L73.7755 78.3389C71.9862 83.0801 72.9306 87.6673 73.2051 88.7697C73.2381 88.9025 73.26 88.9795 73.26 88.9795C70.4386 99.1125 64.4231 98.6387 64.4231 98.6387" stroke="#B0B0B1" stroke-width="1.78903" stroke-miterlimit="10"/>
<path d="M73.1941 88.8241H85.7963" stroke="#B0B0B1" stroke-width="1.78903" stroke-miterlimit="10"/>
<path d="M65.2131 70.963C65.7526 70.963 66.19 70.5235 66.19 69.9816C66.19 69.4396 65.7526 69.0002 65.2131 69.0002C64.6735 69.0002 64.2361 69.4396 64.2361 69.9816C64.2361 70.5235 64.6735 70.963 65.2131 70.963Z" fill="#B0B0B1"/>
<g clip-path="url(#clip1_635_5)">
<path d="M20.5999 28.8847V26.4117L28.8 16.6589L29.2777 18.055H20.779V14.9238H32.7807V17.3969L24.5805 27.1496L24.1028 25.7535H33.0792V28.8847H20.5999ZM41.2338 29.164C39.1772 29.164 37.5716 28.5989 36.4172 27.4687C35.2628 26.3386 34.6856 24.7363 34.6856 22.6621V14.9238H38.6265V22.5425C38.6265 23.7391 38.8587 24.5967 39.3231 25.1153C39.8008 25.6338 40.451 25.8931 41.2736 25.8931C42.0963 25.8931 42.7399 25.6338 43.2042 25.1153C43.6687 24.5967 43.9009 23.7391 43.9009 22.5425V14.9238H47.782V22.6621C47.782 24.7363 47.2048 26.3386 46.0504 27.4687C44.896 28.5989 43.2905 29.164 41.2338 29.164ZM50.4517 28.8847V14.9238H57.5771C59.4082 14.9238 60.7749 15.2628 61.6772 15.9409C62.5794 16.6057 63.0306 17.4833 63.0306 18.5736C63.0306 19.2916 62.8382 19.9231 62.4534 20.4683C62.0818 21.0001 61.5511 21.4256 60.8611 21.7447C60.1844 22.0505 59.375 22.2034 58.4329 22.2034L58.831 21.2461C59.8129 21.2461 60.6687 21.399 61.3985 21.7048C62.1283 21.9973 62.6922 22.4295 63.0903 23.0012C63.5016 23.5596 63.7073 24.2444 63.7073 25.0555C63.7073 26.2654 63.2163 27.2094 62.2345 27.8875C61.2658 28.5524 59.8461 28.8847 57.9752 28.8847H50.4517ZM54.3528 26.0327H57.6567C58.3334 26.0327 58.8443 25.9197 59.1893 25.6937C59.5475 25.4543 59.7267 25.0953 59.7267 24.6167C59.7267 24.138 59.5475 23.7857 59.1893 23.5596C58.8443 23.3203 58.3334 23.2006 57.6567 23.2006H54.0741V20.4683H57.0596C57.723 20.4683 58.2206 20.3553 58.5524 20.1292C58.8841 19.9032 59.0499 19.5641 59.0499 19.1121C59.0499 18.66 58.8841 18.3276 58.5524 18.1149C58.2206 17.8888 57.723 17.7758 57.0596 17.7758H54.3528V26.0327ZM69.2714 25.7934L69.0525 21.3658L75.0433 14.9238H79.3823L73.4113 21.4057L71.2219 23.6992L69.2714 25.7934ZM65.7485 28.8847V14.9238H69.6495V28.8847H65.7485ZM75.1031 28.8847L70.5651 23.1209L73.1326 20.3686L79.6808 28.8847H75.1031ZM87.2354 29.164C86.1208 29.164 85.0924 28.9845 84.1503 28.6255C83.2082 28.2665 82.3855 27.7612 81.6823 27.1097C80.9923 26.4449 80.4549 25.6737 80.0702 24.7962C79.6853 23.9186 79.493 22.9546 79.493 21.9043C79.493 20.8539 79.6853 19.8899 80.0702 19.0124C80.4549 18.1348 80.9923 17.3703 81.6823 16.7188C82.3855 16.054 83.2082 15.5421 84.1503 15.1831C85.0924 14.8241 86.1208 14.6446 87.2354 14.6446C88.3632 14.6446 89.3918 14.8241 90.3204 15.1831C91.2627 15.5421 92.0788 16.054 92.7685 16.7188C93.4583 17.3703 93.9957 18.1348 94.3807 19.0124C94.7788 19.8899 94.9778 20.8539 94.9778 21.9043C94.9778 22.9546 94.7788 23.9253 94.3807 24.8161C93.9957 25.6937 93.4583 26.4582 92.7685 27.1097C92.0788 27.7612 91.2627 28.2665 90.3204 28.6255C89.3918 28.9845 88.3632 29.164 87.2354 29.164ZM87.2354 25.8931C87.7661 25.8931 88.257 25.8001 88.7082 25.6139C89.1726 25.4277 89.571 25.1618 89.9025 24.8161C90.2477 24.4571 90.5126 24.0316 90.6986 23.5397C90.8976 23.0478 90.9971 22.5026 90.9971 21.9043C90.9971 21.2926 90.8976 20.7475 90.6986 20.2688C90.5126 19.7769 90.2477 19.3581 89.9025 19.0124C89.571 18.6534 89.1726 18.3808 88.7082 18.1946C88.257 18.0085 87.7661 17.9154 87.2354 17.9154C86.7046 17.9154 86.207 18.0085 85.7426 18.1946C85.2914 18.3808 84.8934 18.6534 84.5484 19.0124C84.2166 19.3581 83.9513 19.7769 83.7523 20.2688C83.5665 20.7475 83.4736 21.2926 83.4736 21.9043C83.4736 22.5026 83.5665 23.0478 83.7523 23.5397C83.9513 24.0316 84.2166 24.4571 84.5484 24.8161C84.8934 25.1618 85.2914 25.4277 85.7426 25.6139C86.207 25.8001 86.7046 25.8931 87.2354 25.8931ZM100.704 21.0467H107.133V24.0981H100.704V21.0467ZM100.982 28.8847H97.0416V14.9238H107.968V17.9753H100.982V28.8847ZM113.474 21.0467H119.903V24.0981H113.474V21.0467ZM113.753 28.8847H109.812V14.9238H120.739V17.9753H113.753V28.8847Z" fill="white"/>
</g>
<g clip-path="url(#clip2_635_5)">
<path d="M21.2219 160V150.9H22.9119V160H21.2219ZM28.0008 160L24.0228 150.9H25.8558L29.4048 159.129H28.3518L31.9398 150.9H33.6298L29.6648 160H28.0008ZM33.0111 160L37.1061 150.9H38.7701L42.8781 160H41.1101L37.5871 151.797H38.2631L34.7531 160H33.0111ZM34.8961 157.894L35.3511 156.568H40.2651L40.7201 157.894H34.8961ZM44.0354 160V150.9H45.4264L51.1334 157.907H50.4444V150.9H52.1214V160H50.7304L45.0234 152.993H45.7124V160H44.0354ZM57.4636 160V158.869L63.3396 151.693L63.5346 152.33H57.5546V150.9H65.0556V152.031L59.1796 159.207L58.9716 158.57H65.2246V160H57.4636ZM70.6857 160.13C69.4377 160.13 68.4583 159.779 67.7477 159.077C67.0457 158.375 66.6947 157.361 66.6947 156.035V150.9H68.3847V155.97C68.3847 156.906 68.584 157.586 68.9827 158.011C69.39 158.436 69.962 158.648 70.6987 158.648C71.4353 158.648 72.003 158.436 72.4017 158.011C72.8003 157.586 72.9997 156.906 72.9997 155.97V150.9H74.6637V156.035C74.6637 157.361 74.3083 158.375 73.5977 159.077C72.8957 159.779 71.925 160.13 70.6857 160.13ZM77.0305 160V150.9H81.2945C82.3865 150.9 83.2185 151.117 83.7905 151.55C84.3625 151.975 84.6485 152.547 84.6485 153.266C84.6485 153.751 84.5358 154.167 84.3105 154.514C84.0852 154.852 83.7818 155.116 83.4005 155.307C83.0278 155.489 82.6205 155.58 82.1785 155.58L82.4125 155.112C82.9238 155.112 83.3832 155.207 83.7905 155.398C84.1978 155.58 84.5185 155.849 84.7525 156.204C84.9952 156.559 85.1165 157.001 85.1165 157.53C85.1165 158.31 84.8175 158.917 84.2195 159.35C83.6215 159.783 82.7332 160 81.5545 160H77.0305ZM78.7205 158.674H81.4505C82.0832 158.674 82.5685 158.57 82.9065 158.362C83.2445 158.154 83.4135 157.82 83.4135 157.361C83.4135 156.91 83.2445 156.581 82.9065 156.373C82.5685 156.156 82.0832 156.048 81.4505 156.048H78.5905V154.735H81.1125C81.7018 154.735 82.1525 154.631 82.4645 154.423C82.7852 154.215 82.9455 153.903 82.9455 153.487C82.9455 153.062 82.7852 152.746 82.4645 152.538C82.1525 152.33 81.7018 152.226 81.1125 152.226H78.7205V158.674ZM88.4281 157.855L88.3371 155.853L93.1081 150.9H95.0061L91.0411 155.112L90.1051 156.139L88.4281 157.855ZM86.9201 160V150.9H88.6101V160H86.9201ZM93.2641 160L89.7801 155.853L90.8981 154.618L95.2401 160H93.2641ZM100.325 160.13C99.6141 160.13 98.9598 160.013 98.3618 159.779C97.7638 159.545 97.2438 159.22 96.8018 158.804C96.3598 158.379 96.0174 157.885 95.7748 157.322C95.5321 156.75 95.4108 156.126 95.4108 155.45C95.4108 154.774 95.5321 154.154 95.7748 153.591C96.0174 153.019 96.3598 152.525 96.8018 152.109C97.2438 151.684 97.7638 151.355 98.3618 151.121C98.9598 150.887 99.6098 150.77 100.312 150.77C101.022 150.77 101.672 150.887 102.262 151.121C102.86 151.355 103.38 151.684 103.822 152.109C104.264 152.525 104.606 153.019 104.849 153.591C105.091 154.154 105.213 154.774 105.213 155.45C105.213 156.126 105.091 156.75 104.849 157.322C104.606 157.894 104.264 158.388 103.822 158.804C103.38 159.22 102.86 159.545 102.262 159.779C101.672 160.013 101.027 160.13 100.325 160.13ZM100.312 158.648C100.771 158.648 101.196 158.57 101.586 158.414C101.976 158.258 102.314 158.037 102.6 157.751C102.886 157.456 103.107 157.118 103.263 156.737C103.427 156.347 103.51 155.918 103.51 155.45C103.51 154.982 103.427 154.557 103.263 154.176C103.107 153.786 102.886 153.448 102.6 153.162C102.314 152.867 101.976 152.642 101.586 152.486C101.196 152.33 100.771 152.252 100.312 152.252C99.8524 152.252 99.4278 152.33 99.0378 152.486C98.6564 152.642 98.3184 152.867 98.0238 153.162C97.7378 153.448 97.5124 153.786 97.3478 154.176C97.1918 154.557 97.1138 154.982 97.1138 155.45C97.1138 155.909 97.1918 156.334 97.3478 156.724C97.5124 157.114 97.7378 157.456 98.0238 157.751C98.3098 158.037 98.6478 158.258 99.0378 158.414C99.4278 158.57 99.8524 158.648 100.312 158.648ZM109.416 160L105.438 150.9H107.271L110.82 159.129H109.767L113.355 150.9H115.045L111.08 160H109.416Z" fill="white"/>
</g>
<g clip-path="url(#clip3_635_5)">
<path d="M21.6919 53V40.4H27.5959C29.1079 40.4 30.2599 40.7 31.0519 41.3C31.8439 41.888 32.2399 42.68 32.2399 43.676C32.2399 44.348 32.0839 44.924 31.7719 45.404C31.4599 45.872 31.0399 46.238 30.5119 46.502C29.9959 46.754 29.4319 46.88 28.8199 46.88L29.1439 46.232C29.8519 46.232 30.4879 46.364 31.0519 46.628C31.6159 46.88 32.0599 47.252 32.3839 47.744C32.7199 48.236 32.8879 48.848 32.8879 49.58C32.8879 50.66 32.4739 51.5 31.6459 52.1C30.8179 52.7 29.5879 53 27.9559 53H21.6919ZM24.0319 51.164H27.8119C28.6879 51.164 29.3599 51.02 29.8279 50.732C30.2959 50.444 30.5299 49.982 30.5299 49.346C30.5299 48.722 30.2959 48.266 29.8279 47.978C29.3599 47.678 28.6879 47.528 27.8119 47.528H23.8519V45.71H27.3439C28.1599 45.71 28.7839 45.566 29.2159 45.278C29.6599 44.99 29.8819 44.558 29.8819 43.982C29.8819 43.394 29.6599 42.956 29.2159 42.668C28.7839 42.38 28.1599 42.236 27.3439 42.236H24.0319V51.164ZM35.1693 53V39.644H37.4193V53H35.1693ZM46.2944 53V51.056L46.1684 50.642V47.24C46.1684 46.58 45.9704 46.07 45.5744 45.71C45.1784 45.338 44.5784 45.152 43.7744 45.152C43.2344 45.152 42.7004 45.236 42.1724 45.404C41.6564 45.572 41.2184 45.806 40.8584 46.106L39.9764 44.468C40.4924 44.072 41.1044 43.778 41.8124 43.586C42.5324 43.382 43.2764 43.28 44.0444 43.28C45.4364 43.28 46.5104 43.616 47.2664 44.288C48.0344 44.948 48.4184 45.974 48.4184 47.366V53H46.2944ZM43.2704 53.126C42.5504 53.126 41.9204 53.006 41.3804 52.766C40.8404 52.514 40.4204 52.172 40.1204 51.74C39.8324 51.296 39.6884 50.798 39.6884 50.246C39.6884 49.706 39.8144 49.22 40.0664 48.788C40.3304 48.356 40.7564 48.014 41.3444 47.762C41.9324 47.51 42.7124 47.384 43.6844 47.384H46.4744V48.878H43.8464C43.0784 48.878 42.5624 49.004 42.2984 49.256C42.0344 49.496 41.9024 49.796 41.9024 50.156C41.9024 50.564 42.0644 50.888 42.3884 51.128C42.7124 51.368 43.1624 51.488 43.7384 51.488C44.2904 51.488 44.7824 51.362 45.2144 51.11C45.6584 50.858 45.9764 50.486 46.1684 49.994L46.5464 51.344C46.3304 51.908 45.9404 52.346 45.3764 52.658C44.8244 52.97 44.1224 53.126 43.2704 53.126ZM55.7336 53.126C54.7256 53.126 53.8256 52.916 53.0336 52.496C52.2536 52.064 51.6416 51.476 51.1976 50.732C50.7536 49.988 50.5316 49.142 50.5316 48.194C50.5316 47.234 50.7536 46.388 51.1976 45.656C51.6416 44.912 52.2536 44.33 53.0336 43.91C53.8256 43.49 54.7256 43.28 55.7336 43.28C56.6696 43.28 57.4916 43.472 58.1996 43.856C58.9196 44.228 59.4656 44.78 59.8376 45.512L58.1096 46.52C57.8216 46.064 57.4676 45.728 57.0476 45.512C56.6396 45.296 56.1956 45.188 55.7156 45.188C55.1636 45.188 54.6656 45.308 54.2216 45.548C53.7776 45.788 53.4296 46.136 53.1776 46.592C52.9256 47.036 52.7996 47.57 52.7996 48.194C52.7996 48.818 52.9256 49.358 53.1776 49.814C53.4296 50.258 53.7776 50.6 54.2216 50.84C54.6656 51.08 55.1636 51.2 55.7156 51.2C56.1956 51.2 56.6396 51.092 57.0476 50.876C57.4676 50.66 57.8216 50.324 58.1096 49.868L59.8376 50.876C59.4656 51.596 58.9196 52.154 58.1996 52.55C57.4916 52.934 56.6696 53.126 55.7336 53.126ZM63.5307 50.858L63.5847 48.032L68.6067 43.388H71.3067L67.0407 47.672L65.8527 48.662L63.5307 50.858ZM61.6947 53V39.644H63.9447V53H61.6947ZM68.9487 53L65.4387 48.662L66.8607 46.862L71.6847 53H68.9487Z" fill="white"/>
</g>
</g>
<defs>
<clipPath id="clip0_635_5">
<rect width="291" height="185" fill="white"/>
</clipPath>
<clipPath id="clip1_635_5">
<rect width="100.203" height="15.1301" fill="white" transform="translate(20.5896 14.4424)"/>
</clipPath>
<clipPath id="clip2_635_5">
<rect width="95" height="11" fill="white" transform="translate(21 150)"/>
</clipPath>
<clipPath id="clip3_635_5">
<rect width="51" height="15" fill="white" transform="translate(21 39)"/>
</clipPath>
</defs>
</svg>
