<svg width="292" height="185" viewBox="0 0 292 185" fill="none" xmlns="http://www.w3.org/2000/svg">
<g clip-path="url(#clip0_51_97)">
<path d="M279.679 0H12.3207C5.51616 0 0 5.50857 0 12.3037V172.696C0 179.491 5.51616 185 12.3207 185H279.679C286.484 185 292 179.491 292 172.696V12.3037C292 5.50857 286.484 0 279.679 0Z" fill="#C9C9C9"/>
<path d="M0 12.3037C0 5.50856 5.51616 0 12.3207 0H208.099L178.65 185H12.3207C5.51615 185 0 179.491 0 172.696V12.3037Z" fill="#050705"/>
<mask id="mask0_51_97" style="mask-type:alpha" maskUnits="userSpaceOnUse" x="0" y="0" width="292" height="185">
<path d="M279.679 0H12.3207C5.51616 0 0 5.50857 0 12.3037V172.696C0 179.491 5.51616 185 12.3207 185H279.679C286.484 185 292 179.491 292 172.696V12.3037C292 5.50857 286.484 0 279.679 0Z" fill="#EDEEEE"/>
</mask>
<g mask="url(#mask0_51_97)">
<path fill-rule="evenodd" clip-rule="evenodd" d="M186.438 166.367L183.811 170.844C182.874 167.895 181.175 164.834 180.081 162.671C177.979 167.027 174.648 167.115 171.443 167.138C172.152 156.699 159.101 146.202 164.837 134.295C165.981 131.911 165.24 128.998 162.767 127.749C154.009 123.282 158.064 141.814 149.312 142.371C150.988 140.269 151.622 135.869 151.872 135.488C150.01 135.974 145.55 138.818 143.547 135.174C148.662 132.377 150.133 128.171 150.936 123.947C151.954 118.603 152.421 116.129 153.458 113.93C154.535 111.582 156.263 109.547 159.959 104.735C159.083 104.87 149.231 106.951 147.024 105.913C164.052 95.4125 160.213 82.0575 186.187 70.1528C179.38 65.0756 172.411 61.0273 177.406 51.3214C184.521 59.9046 198.039 56.9351 205.343 52.9454C198.127 51.4944 188.832 45.1156 186.62 38.0099C189.343 37.5878 192.863 40.5485 194.892 41.9292C195.867 39.3086 196.256 36.257 199.42 35.5945C195.202 44.673 203.542 49.3926 211.497 49.4307C212.725 49.4307 217.872 48.9177 217.872 48.9177C217.054 47.2175 213.727 42.58 216.147 40.7009C218.091 42.536 220.409 43.9988 222.525 45.6257C237.991 57.6445 215.172 68.7897 205.837 73.8466C191.185 81.7961 195.106 91.2504 201.227 93.6684C201.2 94.7441 200.544 95.2165 199.528 95.5473C195.248 96.984 191.229 93.9174 187.817 91.9505C188.023 97.8836 187.621 103.586 194.148 106.851L189.646 108.504C193.517 111.453 194.694 113.018 199.355 113.628C197.178 114.687 194.477 114.669 192.166 114.886C192.75 116.531 193.231 118.752 194.455 120.227C184.914 121.361 181.099 115.895 178.151 116.12C171.86 116.589 172.251 128.481 187.735 128.499L186.129 131.158C186.129 131.158 189.066 132.879 191.748 133.21C190.721 134.046 189.726 135.174 188.861 136.036L191.334 138.173C185.017 139.313 183.224 132.562 179.126 135.819C172.876 140.794 186.66 151.297 199.878 149.728C198.766 151.156 195.666 153.255 194.32 154.348C205.095 164.567 199.779 174.185 204.211 181.233C194.927 180.614 188.047 173.769 186.438 166.367ZM198.547 154.875C201.536 152.489 204.005 151.298 203.889 145.544C199.402 147.842 186.669 147.722 181.35 140.368C179.846 138.28 181.452 137.228 182.908 138.872C186.546 143.017 193.289 141.138 195.75 139.939C195.362 138.52 194.267 136.662 193.347 135.868C194.267 134.953 196.868 133.604 197.408 131.271C196.01 130.512 190.609 129.97 190.609 129.97C191.48 129.137 192.559 127.962 191.914 124.857C186.397 126.561 179.581 124.251 178.03 122.196C176.507 120.182 178.066 118.291 179.338 119.619C182.088 122.524 195.642 125.845 200.687 120.8C198.812 120.284 196.749 118.601 196.372 117.564C201.036 117.095 204.761 114.328 205.065 110.88C202.485 110.88 197.61 110.693 195.955 109.438C198.194 108.609 199.601 107.794 200.307 105.281C191.774 104.762 191.1 98.3987 191.056 97.343C196.608 100.562 206.39 99.1373 203.863 91.2077C199.25 90.9615 194.586 83.448 207.299 76.5391C218.849 70.2656 231.995 63.4943 230.838 52.3432C230.079 45.2169 218.379 40.345 216.897 36.7335C212.015 39.0669 211.026 41.7755 213.23 46.3133C213.23 46.3133 202.359 47.4008 201.501 40.6791C201.125 37.6628 203.13 34.8398 205.281 32.6882C204.064 32.6882 195.867 30.4867 193.397 37.1908C188.797 34.0425 184.873 34.1568 181.776 37.4781C186.715 40.427 189.774 50.5198 197.939 53.5011C192.13 56.667 182.74 55.3362 177.257 45.6244C172.073 53.4718 169.089 61.24 180.205 69.5332C159.967 78.7873 160.113 96.4606 142.51 104.885C144.3 109.699 148.065 109.699 152.858 108.948C145.246 118.883 151.732 129.272 139.688 133.523C140.811 137.571 143.074 140.798 147.523 139.617C146.255 141.599 145.424 141.555 143.456 143.733C150.042 147.898 157.853 144.879 159.623 131.521C159.941 129.137 163.213 130.626 162.077 132.965C154.569 148.558 173.555 160.284 166.839 171.722C172.768 171.472 177.271 171.012 179.75 168.999C180.956 171.399 181.677 173.776 181.42 176.119C184.689 175.454 185.883 173.501 186.108 171.285C188.254 177.555 195.917 184.265 208.186 184.265C201.679 174.964 207.736 165.516 198.547 154.875Z" fill="black"/>
<path fill-rule="evenodd" clip-rule="evenodd" d="M169.448 129.082C171.682 131.424 174.396 131.664 179.54 131.336C173.888 130.653 170.718 129.272 168.751 125.505C168.456 123.565 168.266 121.487 168.181 119.262C168.009 113.293 169.965 106.182 174.075 98.3987C174.046 103.282 177.905 110.959 186.502 112.238C178.766 108.843 174.227 101.198 176.699 93.8053C178.311 91.2167 180.13 88.549 182.158 85.8407C183.18 84.5299 184.169 83.2699 185.142 82.0939C184.1 85.8696 188.648 89.7683 191.689 90.4196C190.037 88.8041 186.502 83.554 194.67 74.7806C192.387 75.8589 189.868 77.3919 187.958 78.896C202.806 62.785 215.002 62.3365 220.609 54.2342C212.489 59.8067 190.995 62.8144 181.338 60.1819C186.669 63.7612 199.516 63.4329 202.654 62.7675C192.177 72.9952 169.305 83.554 165.347 92.9553C170.923 86.8166 174.522 85.6908 179.344 84.1083C175.546 89.8007 172.125 94.8108 169.766 100.618C163.683 113.888 155.544 114.055 155.01 125.004C157.786 116.52 163.417 114.372 167.323 108.799C166.631 112.358 166.313 116.298 166.436 120.856C166.573 125.807 167.56 130.157 169.127 134.047C168.73 139.462 169.212 148.701 175.389 154.802C171.191 149.463 170.289 140.793 170.662 137.41C175.497 146.781 189.29 159.72 195.954 168.421C189.29 157.235 172.948 144.164 169.448 129.082Z" fill="black"/>
<path fill-rule="evenodd" clip-rule="evenodd" d="M322.064 84.1083C326.869 85.697 330.489 86.8166 336.056 92.9553C332.103 83.554 309.214 72.9925 298.737 62.7645C301.89 63.43 314.731 63.7612 320.062 60.1819C310.414 62.8144 288.911 59.8067 280.788 54.2342C286.401 62.3365 298.591 62.788 313.441 78.896C311.538 77.3919 309.013 75.8589 306.727 74.7806C314.889 83.554 311.363 88.7952 309.707 90.4196C312.752 89.7683 317.294 85.8758 316.258 82.0939C317.233 83.2699 318.232 84.5299 319.241 85.8407C321.285 88.549 323.089 91.2167 324.698 93.8053C327.173 101.198 322.619 108.843 314.907 112.238C323.504 110.963 327.363 103.282 327.319 98.3987C331.429 106.182 333.399 113.293 333.213 119.262C333.14 121.487 332.939 123.565 332.652 125.505C330.676 129.272 327.506 130.656 321.875 131.336C327.006 131.664 329.704 131.424 331.963 129.082C328.452 144.164 312.113 157.229 305.446 168.421C312.113 159.72 325.889 146.781 330.737 137.41C331.114 140.793 330.209 149.463 326.023 154.802C332.188 148.701 332.67 139.462 332.275 134.045C333.837 130.151 334.812 125.807 334.961 120.856C335.107 116.298 334.766 112.358 334.077 108.799C337.982 114.372 343.614 116.52 346.393 125.004C345.864 114.055 337.726 113.888 331.631 100.618C329.28 94.8108 325.868 89.8007 322.064 84.1083Z" fill="black"/>
<path fill-rule="evenodd" clip-rule="evenodd" d="M349.555 135.485C349.788 135.866 350.407 140.266 352.086 142.37C343.328 141.81 347.395 123.278 338.634 127.746C336.161 128.994 335.423 131.908 336.573 134.291C342.304 146.199 329.246 156.696 329.979 167.135C326.753 167.111 323.402 167.023 321.312 162.667C320.232 164.831 318.518 167.891 317.59 170.84L314.969 166.364C313.346 173.766 306.468 180.614 297.194 181.229C301.599 174.182 296.309 164.564 307.081 154.345C305.732 153.26 302.641 151.153 301.523 149.726C314.75 151.294 328.534 140.79 322.269 135.816C318.179 132.559 316.376 139.31 310.073 138.17L312.543 136.033C311.682 135.165 310.671 134.045 309.653 133.207C312.344 132.875 315.272 131.155 315.272 131.155L313.666 128.496C329.156 128.479 329.523 116.586 323.259 116.117C320.314 115.891 316.48 121.364 306.95 120.227C308.155 118.749 308.649 116.521 309.241 114.883C306.946 114.666 304.217 114.683 302.051 113.625C306.713 113.012 307.884 111.45 311.755 108.501L307.268 106.847C313.784 103.582 313.383 97.8774 313.579 91.9477C310.181 93.9202 306.144 96.9806 301.882 95.5446C300.866 95.2131 300.203 94.7413 300.177 93.665C306.298 91.2469 310.198 81.7934 295.568 73.8432C286.238 68.7863 263.407 57.6413 278.879 45.6196C280.992 43.9956 283.298 42.5329 285.245 40.6978C287.672 42.5768 284.355 47.2143 283.523 48.9145C283.523 48.9145 288.667 49.4334 289.887 49.4334C297.862 49.3894 306.217 44.664 301.99 35.5913C305.154 36.2538 305.528 39.3054 306.494 41.9261C308.529 40.5454 312.055 37.5846 314.785 38.0068C312.569 45.1125 303.286 51.4912 296.064 52.9422C303.356 56.9319 316.881 59.9014 323.992 51.3182C328.986 61.0241 322.03 65.0724 315.211 70.1556C341.183 82.054 337.353 95.4036 354.386 105.91C352.185 106.947 342.309 104.861 341.431 104.731C345.147 109.545 346.878 111.579 347.955 113.927C348.985 116.126 349.441 118.594 350.46 123.944C351.274 128.168 352.746 132.375 357.851 135.165C355.852 138.815 351.394 135.972 349.555 135.485ZM348.541 108.948C353.332 109.695 357.1 109.695 358.89 104.878C341.285 96.4599 341.43 78.7866 321.189 69.5318C332.314 61.239 329.316 53.4708 324.152 45.6205C318.675 55.3351 309.252 56.666 303.473 53.5001C311.622 50.5189 314.693 40.4261 319.627 37.4771C316.542 34.1558 312.592 34.0414 308.009 37.1898C305.516 30.4798 297.342 32.6872 296.113 32.6872C298.253 34.8358 300.282 37.6617 299.899 40.6781C299.053 47.3999 288.176 46.3153 288.176 46.3153C290.365 41.7745 289.393 39.0659 284.513 36.7325C283.015 40.3469 271.329 45.216 270.579 52.3392C269.409 63.4932 282.557 70.2649 294.108 76.5377C306.82 83.4474 302.153 90.9602 297.549 91.2071C294.995 99.1359 304.786 100.561 310.344 97.3423C310.317 98.3973 309.617 104.762 301.084 105.28C301.803 107.792 303.207 108.607 305.448 109.443C303.776 110.692 298.916 110.88 296.332 110.88C296.644 114.327 300.366 117.088 305.034 117.554C304.661 118.595 302.59 120.283 300.719 120.799C305.761 125.844 319.306 122.523 322.064 119.618C323.326 118.29 324.875 120.181 323.375 122.191C321.814 124.249 315.003 126.559 309.486 124.856C308.853 127.961 309.921 129.136 310.782 129.968C310.782 129.968 305.384 130.511 303.989 131.27C304.512 133.604 307.136 134.952 308.05 135.866C307.136 136.661 306.044 138.52 305.653 139.938C308.125 141.137 314.872 143.013 318.482 138.871C319.957 137.227 321.557 138.276 320.062 140.366C314.732 147.721 302.007 147.838 297.511 145.543C297.386 151.298 299.861 152.487 302.854 154.877C293.661 165.514 299.73 174.963 293.223 184.264C305.475 184.264 313.147 177.554 315.298 171.284C315.534 173.5 316.71 175.452 319.98 176.118C319.729 173.775 320.456 171.398 321.641 168.997C324.128 171.012 328.65 171.472 334.556 171.721C327.851 160.282 346.839 148.556 339.314 132.965C338.196 130.62 341.465 129.136 341.78 131.519C343.541 144.878 351.361 147.897 357.953 143.731C355.964 141.554 355.15 141.597 353.886 139.616C358.32 140.797 360.583 137.57 361.725 133.521C349.674 129.271 356.157 118.879 348.541 108.948Z" fill="black"/>
<path fill-rule="evenodd" clip-rule="evenodd" d="M241.68 59.3098C243.659 60.6817 247.156 62.1474 247.156 62.1474V59.8081L239.455 56.8474C239.455 56.8474 239.455 57.7942 241.68 59.3098Z" fill="black"/>
<path fill-rule="evenodd" clip-rule="evenodd" d="M247.156 56.4879V54.1721L238.416 51.0326C238.416 51.0326 239.455 52.1465 241.68 53.6767C243.659 55.0427 247.156 56.4879 247.156 56.4879Z" fill="black"/>
<path fill-rule="evenodd" clip-rule="evenodd" d="M247.157 51.2063V48.8611L237.587 45.3258C237.587 45.3258 239.456 46.8502 241.68 48.3686C243.66 49.7405 247.157 51.2063 247.157 51.2063Z" fill="black"/>
<path fill-rule="evenodd" clip-rule="evenodd" d="M274.036 83.0437H283.827C283.416 81.6221 281.892 80.1827 279.04 80.1827C276.334 80.1827 274.717 81.748 274.036 83.0437Z" fill="black"/>
<path fill-rule="evenodd" clip-rule="evenodd" d="M263.798 45.3258L254.247 48.8611V51.2063C254.247 51.2063 257.749 49.7435 259.714 48.3686C261.941 46.8502 263.798 45.3258 263.798 45.3258Z" fill="black"/>
<path fill-rule="evenodd" clip-rule="evenodd" d="M261.941 56.8474L254.247 59.8081V62.1474C254.247 62.1474 257.741 60.6817 259.717 59.3098C261.941 57.7942 261.941 56.8474 261.941 56.8474Z" fill="black"/>
<path fill-rule="evenodd" clip-rule="evenodd" d="M262.978 51.0326L254.247 54.1721V56.4879C254.247 56.4879 257.749 55.0427 259.717 53.6767C261.941 52.1465 262.978 51.0326 262.978 51.0326Z" fill="black"/>
<path fill-rule="evenodd" clip-rule="evenodd" d="M222.335 80.1827C219.485 80.1827 217.959 81.6221 217.562 83.0437H227.35C226.658 81.748 225.053 80.1827 222.335 80.1827Z" fill="black"/>
<path fill-rule="evenodd" clip-rule="evenodd" d="M250.7 44.1673L234.983 37.9321C236.314 34.7574 242.479 32.0518 250.7 32.0518C258.92 32.0518 265.077 34.7574 266.408 37.9321L250.7 44.1673ZM262.403 63.6537L251.801 69.2471V46.6457L266.198 41.7327L262.403 63.6537ZM274.789 73.0757C270.813 73.771 267.406 78.6546 264.604 83.043L264.288 83.5526H261.305L261.302 84.0718C260.984 87.463 257.782 92.0743 250.694 92.0743C247.422 92.0743 244.958 91.0688 243.265 89.6968C241.79 88.4981 240.874 87.0146 240.424 85.6048C240.255 85.08 240.15 84.5732 240.103 84.0718L240.08 83.5526H237.114L236.793 83.043C233.979 78.6546 230.569 73.771 226.613 73.0757L237.424 66.7793L250.7 74.0254L263.965 66.7793L274.789 73.0757ZM289.367 89.6968C288.235 92.6664 287.318 95.8768 287.318 99.0892V133.621H283.319C281.506 131.856 279.971 125.962 279.971 125.962C278.978 128.092 280.113 132.375 281.182 133.621H276.03C274.757 131.892 273.651 125.756 273.651 125.756C272.112 127.521 273.087 132.296 274.042 133.621H270.623C270.402 131.171 271.099 128.497 271.099 128.497C269.318 128.166 267.409 127.216 267.418 125.214C268.32 126.07 268.685 126.058 269.943 126.035L271.4 124.883C266.568 125.035 266.353 119.723 270.168 117.232C266.353 117.355 263.492 115.077 264.89 110.994C262.164 109.581 261.206 104.961 263.217 102.932C261.761 101.344 261.518 98.2391 262.449 96.1106C260.526 96.1106 258.357 95.3341 257.149 94.0151C257.055 94.0591 256.947 94.0914 256.845 94.1237C259.253 93.1355 261.288 91.6053 262.672 89.6968H289.367ZM287.327 158.293C287.327 165.499 284.013 170.963 278.505 174.002L276.038 175.131C273.417 176.131 270.433 176.676 267.138 176.676C257.078 176.676 254.419 177.09 250.709 180.812C246.972 177.09 244.319 176.676 234.28 176.676C231.002 176.676 228.035 176.136 225.411 175.158H225.487L223.881 174.504C223.353 174.252 222.842 173.982 222.337 173.686L220.916 172.739C216.607 169.55 214.073 164.581 214.073 158.293V135.651H287.327V158.293ZM237.461 116.942L240.552 117.323C240.783 119.027 240.339 121.908 239.236 123.511L236.247 122.641C237.041 120.732 237.245 118.971 237.461 116.942ZM233.019 114.668C233.019 114.668 235.85 114.53 236.65 114.835C237.246 115.081 236.843 116.075 236.084 115.969C235.278 115.87 233.019 114.668 233.019 114.668ZM232.826 103.363L230.286 112.694L231.153 97.6532L235.1 94.264L237.105 98.6875L232.035 113.292L233.369 103.46C233.5 102.771 232.94 102.698 232.826 103.363ZM230.873 118.91C229.535 119.456 228.175 118.723 228.595 117.853C229.212 118.424 230.94 118.146 230.94 118.146L230.873 118.91ZM228.368 120.155C228.981 120.756 230.847 120.531 230.847 120.531L230.92 120.9C230.105 121.987 227.849 121.501 228.368 120.155ZM225.444 114.157C224.731 113.679 225.053 112.638 225.843 112.638C226.705 112.659 227.858 113.644 229.002 114.136C229.002 114.136 226.016 114.534 225.444 114.157ZM228.275 122.414C228.275 122.414 229.133 122.784 230.213 122.865C230.088 123.458 229.635 124.038 228.9 123.871C228.292 123.736 228.018 122.974 228.275 122.414ZM230.283 116.785C228.847 117.251 228.213 116.216 228.283 115.331C231.088 114.294 232.338 114.961 233.164 115.492C233.923 115.97 234.545 117.324 235.567 118.18C235.395 119.333 235.039 121.009 234.627 122.132C231.754 121.388 231.606 118.848 232.683 117.295C232.075 116.589 231.439 116.41 230.283 116.785ZM242.739 117.611L245.816 117.978C246.117 119.684 245.544 123.281 244.383 125.004L241.248 124.096C242.5 122.442 242.961 119.505 242.739 117.611ZM248.029 118.262L250.569 118.585C250.968 120.696 250.709 124.357 249.363 126.447L246.406 125.579C247.706 123.817 248.307 120.183 248.029 118.262ZM252.577 118.826H252.632C253.292 118.926 253.987 118.817 254.62 118.551C255.989 120.53 257.061 125.003 255.417 127.805C254.486 127.812 253.569 127.653 252.717 127.413L252.034 127.208C253.424 125.035 253.213 121.222 252.577 118.826ZM256.453 117.325L258.249 115.558C260.091 117.161 262.493 120.758 261.74 124.167L259.778 125.964C259.381 126.36 258.955 126.656 258.534 126.916C259.752 123.865 258.193 119.186 256.453 117.325ZM267.015 118.337C266.621 118.862 266.296 119.484 266.093 120.149L263.906 122.172C264.344 118.956 262.198 115.157 260.233 113.609L262.566 111.32L263.021 111.785C262.245 113.838 263.763 117.85 267.015 118.337ZM261.206 102.798C260.056 105.003 260.173 107.544 261.522 109.848L260.625 110.734C256.705 110.25 255.158 104.375 255.158 104.375C255.085 104.888 255.032 105.425 255.041 105.938C252.755 105.088 251.302 103.05 251.421 100.251C252.288 100.74 253.263 101.08 254.3 101.265L254.562 99.5417C251.824 99.0637 250.224 97.343 249.608 95.3142C249.486 95.297 249.363 95.2764 249.243 95.253C249.725 95.297 250.21 95.3348 250.709 95.3348C252.329 95.3348 253.873 95.0831 255.321 94.6574C256.457 96.2846 258.48 97.4482 260.509 97.6772C260.187 99.0169 260.342 100.708 261.206 102.798ZM238.722 89.6968C240.613 92.2971 243.684 94.22 247.316 94.9793C247.628 96.3513 248.361 97.8464 249.809 99.063C249.21 103.099 250.939 106.869 255.265 107.875C255.714 109.926 256.99 111.483 259.118 112.225L256.112 115.713C254.967 117.053 253.467 117.484 252.22 117.322L238.783 115.789C239.361 114.289 237.817 112.55 233.567 113.295L238.848 98.4736L235.622 91.5881L229.518 96.8203L229.068 112.378L226.479 111.094C223.058 109.622 222.065 115.807 225.308 115.833L226.593 115.848C226.514 116.493 226.704 117.185 227.203 117.401C226.593 117.663 226.415 118.817 227.179 119.222C226.397 119.591 226.304 120.764 226.926 121.277C226.246 122.414 226.144 124.9 228.499 125.521C230.417 126.035 231.628 123.944 232.034 122.737L252.933 129.236C255.899 130.089 258 129.617 260.458 127.448L265.914 122.658C265.234 125.788 266.352 128.614 268.725 129.547C268.725 129.547 268.381 132.349 268.495 133.621H214.072V99.0892C214.072 95.8768 213.15 92.6664 212.044 89.6968H238.722ZM235.193 41.7327L249.576 46.6457V69.2471L238.985 63.6537L235.193 41.7327ZM270.139 39.0437C270.139 33.5122 260.891 28.561 250.694 28.561C240.489 28.561 231.241 33.5122 231.241 39.0437L231.457 40.3863L235.515 63.8639L216.236 75.1499C214.181 76.3603 211.613 79.6965 211.285 83.0444H214.803C215.384 79.6992 218.023 75.982 222.951 76.2049C227.403 76.4483 230.03 79.169 232.651 83.0444L233.325 84.0732L234.298 85.6062H205.941C208.016 89.8006 210.007 94.2565 210.007 99.0905V158.293C210.007 173.524 221.663 180.774 234.28 180.774C244.018 180.774 245.332 180.334 250.709 185.728C256.069 180.334 257.373 180.774 267.138 180.774C279.752 180.774 291.405 173.524 291.405 158.293V99.0905C291.405 94.2565 293.375 89.8006 295.457 85.6062H267.086L268.069 84.0732L268.747 83.0444C271.347 79.169 273.989 76.4483 278.441 76.2049C283.345 75.982 285.999 79.6992 286.577 83.0444H290.092C289.776 79.6965 287.193 76.3603 285.149 75.1499L265.871 63.8639L269.937 40.3863L270.139 39.0437Z" fill="black"/>
<path fill-rule="evenodd" clip-rule="evenodd" d="M285.661 112.017L285.684 110.285C280.4 110.162 279.18 103.889 279.18 103.889C277.638 108.503 281.676 111.938 285.661 112.017Z" fill="black"/>
<path fill-rule="evenodd" clip-rule="evenodd" d="M278.978 122.625L278.441 120.983C273.937 122.141 271.614 114.965 271.614 114.965C270.16 120.183 275.198 123.874 278.978 122.625Z" fill="black"/>
<path fill-rule="evenodd" clip-rule="evenodd" d="M282.111 115.97C276.724 116.828 274.509 110.532 274.509 110.532C273.913 113.959 276.126 117.432 279.684 117.804C278.885 122.275 283.024 124.57 286.606 122.975L286.089 121.422C282.978 122.456 280.058 119.37 282.111 115.97Z" fill="black"/>
<path fill-rule="evenodd" clip-rule="evenodd" d="M278.885 98.0005L278.929 96.2743C271.818 94.7936 272.419 89.8804 272.419 89.8804C270.88 94.5096 274.912 97.9276 278.885 98.0005Z" fill="black"/>
<path fill-rule="evenodd" clip-rule="evenodd" d="M257.196 12.3415C258.124 12.4206 258.938 11.723 259.017 10.7966C259.107 9.87913 257.759 7.39917 257.759 7.39917C257.759 7.39917 255.739 9.58306 255.674 10.5182C255.59 11.4357 256.282 12.2506 257.196 12.3415Z" fill="black"/>
<path fill-rule="evenodd" clip-rule="evenodd" d="M267.614 16.1402C268.443 16.5828 269.444 16.2486 269.888 15.4249C270.329 14.6188 270.043 11.8163 270.043 11.8163C270.043 11.8163 267.351 13.027 266.913 13.8537C266.493 14.6715 266.799 15.6917 267.614 16.1402Z" fill="black"/>
<path fill-rule="evenodd" clip-rule="evenodd" d="M244.196 12.3415C245.133 12.2506 245.817 11.4357 245.732 10.5182C245.65 9.58306 243.651 7.39917 243.651 7.39917C243.651 7.39917 242.305 9.87913 242.392 10.7966C242.463 11.723 243.288 12.4206 244.196 12.3415Z" fill="black"/>
<path fill-rule="evenodd" clip-rule="evenodd" d="M233.787 16.1402C234.61 15.6917 234.922 14.6715 234.478 13.8537C234.046 13.027 231.358 11.8163 231.358 11.8163C231.358 11.8163 231.08 14.6188 231.527 15.4249C231.956 16.2486 232.966 16.5828 233.787 16.1402Z" fill="black"/>
<path fill-rule="evenodd" clip-rule="evenodd" d="M270.401 200.675L267.015 189.606C274.225 188.114 279.252 186.572 283.084 185.083V191.989L289.034 194.396C284.007 196.697 277.772 198.981 270.401 200.675ZM250.709 207.142C243.971 207.142 237.409 206.131 231.787 204.747L235.362 193.154C237.736 193.702 243.659 194.432 250.709 194.432C257.758 194.432 263.661 193.702 266.049 193.154L269.631 204.747C263.991 206.131 257.417 207.142 250.709 207.142ZM212.354 194.396L218.318 191.989V185.083C222.148 186.572 227.178 188.114 234.388 189.606L231.011 200.675C223.651 198.981 217.404 196.697 212.354 194.396ZM284.927 190.547V182.087C278.412 185.083 270.124 187.516 259.463 188.483L258.976 191.505C259.887 191.631 261.028 191.745 262.567 191.839C258.605 192.39 253.508 192.654 250.709 192.654C247.904 192.654 242.81 192.39 238.848 191.839C240.375 191.745 241.516 191.631 242.427 191.505L241.945 188.483C231.279 187.516 222.976 185.083 216.476 182.087V190.547L207.64 194.193C214.181 197.614 221.719 200.402 230.418 202.656L229.393 206.2C234.385 207.663 242.348 209.158 250.709 209.158C259.06 209.158 267.03 207.663 272.01 206.2L270.979 202.656C279.682 200.402 287.225 197.614 293.769 194.193L284.927 190.547Z" fill="black"/>
<path fill-rule="evenodd" clip-rule="evenodd" d="M141.108 80.0066C142.723 77.5356 144.97 75.317 148.111 72.705C146.059 72.4382 144.451 71.7724 142.446 70.2656C146.733 69.1253 155.76 65.8541 163.44 67.314C165.962 67.6482 167.39 68.6946 166.464 69.278C162.334 72.0276 157.234 78.3974 153.524 85.8345C150.284 81.7776 151.644 76.4483 152.33 74.9154C145.84 78.843 144.145 80.7632 141.108 80.0066ZM148.089 80.9805C148.089 80.9805 151.562 87.4204 153.589 88.8571C159.742 82.6654 164.264 73.6926 174.244 68.551C169.521 60.7418 163.178 62.0491 162.72 55.1047C165.741 55.9577 168.686 53.9497 168.748 50.3089C165.569 48.5647 164.441 52.0355 163.583 51.1473C162.871 50.4144 167.221 50.2796 166.804 45.7682C162.612 45.6392 163.388 48.6908 162.398 48.2979C161.613 48.0165 163.583 45.5072 159.78 43.2882C157.643 47.2573 160.565 48.4914 159.958 49.1568C159.316 49.8486 158.215 46.8615 154.584 48.1191C155.564 53.0233 160.265 51.1326 159.628 52.569C159.184 53.6096 155.973 50.5551 154.712 54.3337C156.513 57.6286 159.763 56.8488 161.669 55.4711C162.068 61.8264 166.211 62.3511 170.841 66.7745C158.51 61.6212 143.497 67.9413 137.836 68.7708C138.698 70.7264 140.414 72.8604 142.63 73.6341C139.141 76.8761 139.057 78.6553 136.759 80.9977C136.759 80.9977 141.433 86.157 148.089 80.9805Z" fill="black"/>
<path fill-rule="evenodd" clip-rule="evenodd" d="M245.294 76.2661V79.9915C246.582 78.4469 249.048 78.746 249.048 78.746V84.1104C249.048 84.1104 248.966 86.7574 248.033 87.9032H253.383C252.452 86.7574 252.364 84.1104 252.364 84.1104V78.746C252.364 78.746 254.831 78.4469 256.113 79.9915V76.2661H245.294Z" fill="black"/>
<path fill-rule="evenodd" clip-rule="evenodd" d="M186.455 166.38L183.837 170.853C182.894 167.904 181.195 164.852 180.106 162.68C178.004 167.036 174.679 167.124 171.468 167.147C172.181 156.715 159.12 146.22 164.865 134.315C166.01 131.935 165.265 129.016 162.798 127.767C154.044 123.308 158.093 141.826 149.347 142.392C151.02 140.281 151.644 135.887 151.898 135.506C150.036 135.993 145.584 138.845 143.581 135.195C148.693 132.402 150.158 128.195 150.964 123.971C151.983 118.627 152.453 116.15 153.483 113.957C154.563 111.615 156.289 109.58 159.987 104.764C159.111 104.89 149.265 106.98 147.05 105.94C164.08 95.4366 160.247 82.0925 186.207 70.2003C179.4 65.1201 172.44 61.0659 177.432 51.3659C184.546 59.9491 198.062 56.9825 205.36 52.9957C198.15 51.5447 188.852 45.1572 186.645 38.0544C189.36 37.6381 192.883 40.5988 194.909 41.9795C195.884 39.353 196.272 36.3043 199.437 35.6477C195.213 44.7174 203.556 49.4458 211.507 49.481C212.742 49.481 217.888 48.9592 217.888 48.9592C217.063 47.259 213.741 42.6215 216.155 40.7513C218.107 42.5805 220.423 44.0461 222.533 45.6761C237.996 57.6889 215.18 68.831 205.844 73.8851C191.208 81.8319 195.122 91.2889 201.241 93.7042C201.218 94.7709 200.563 95.2433 199.545 95.5858C195.265 97.0108 191.248 93.9504 187.839 91.9807C188.04 97.9166 187.638 103.615 194.168 106.88L189.666 108.526C193.534 111.483 194.714 113.045 199.366 113.653C197.195 114.714 194.495 114.693 192.186 114.91C192.766 116.554 193.248 118.776 194.469 120.254C184.94 121.388 181.125 115.924 178.168 116.141C171.88 116.616 172.277 128.503 187.751 128.521L186.146 131.182C186.146 131.182 189.077 132.9 191.766 133.228C190.738 134.064 189.751 135.195 188.881 136.054L191.354 138.197C185.034 139.331 183.247 132.578 179.152 135.831C172.896 140.812 186.68 151.306 199.892 149.747C198.783 151.175 195.68 153.273 194.343 154.364C205.103 164.576 199.796 174.194 204.224 181.242C194.938 180.617 188.067 173.778 186.455 166.38ZM198.56 154.888C201.552 152.507 204.028 151.317 203.902 145.557C199.413 147.861 186.688 147.738 181.372 140.389C179.866 138.296 181.477 137.247 182.926 138.891C186.563 143.036 193.309 141.16 195.767 139.964C195.378 138.533 194.284 136.681 193.364 135.886C194.284 134.978 196.891 133.624 197.419 131.293C196.026 130.536 190.629 129.991 190.629 129.991C191.496 129.15 192.576 127.984 191.931 124.879C186.414 126.582 179.603 124.269 178.05 122.22C176.529 120.203 178.082 118.315 179.364 119.652C182.108 122.546 195.659 125.869 200.697 120.828C198.829 120.309 196.759 118.626 196.391 117.586C201.053 117.117 204.773 114.352 205.082 110.908C202.501 110.908 197.626 110.72 195.968 109.466C198.204 108.636 199.617 107.824 200.324 105.309C191.797 104.79 191.12 98.4289 191.073 97.3767C196.625 100.593 206.407 99.1586 203.879 91.2414C199.258 90.9918 194.602 83.4845 207.309 76.59C218.866 70.3048 232 63.5335 230.838 52.3912C230.082 45.2562 218.387 40.3931 216.904 36.7845C212.024 39.1179 211.043 41.8265 213.247 46.3613C213.247 46.3613 202.37 47.446 201.512 40.7272C201.141 37.7137 203.143 34.8937 205.298 32.7421C204.075 32.7421 195.884 30.5406 193.414 37.2418C188.822 34.0934 184.896 34.2107 181.802 37.5319C186.735 40.4721 189.791 50.5679 197.953 53.5462C192.147 56.7063 182.759 55.3842 177.283 45.6754C172.098 53.5169 169.115 61.2851 180.231 69.5751C159.995 78.8237 160.144 96.4943 142.544 104.916C144.331 109.726 148.094 109.726 152.89 108.973C145.28 118.902 151.766 129.294 139.716 133.541C140.849 137.59 143.111 140.826 147.551 139.641C146.29 141.617 145.458 141.579 143.49 143.751C150.076 147.917 157.885 144.9 159.654 131.539C159.966 129.15 163.238 130.645 162.109 132.987C154.601 148.571 173.584 160.296 166.867 171.732C172.79 171.483 177.3 171.016 179.767 169.014C180.978 171.409 181.702 173.787 181.442 176.129C184.715 175.463 185.903 173.52 186.127 171.286C188.276 177.568 195.936 184.275 208.193 184.275C201.689 174.971 207.747 165.523 198.56 154.888Z" fill="black"/>
<path fill-rule="evenodd" clip-rule="evenodd" d="M169.475 129.1C171.714 131.445 174.423 131.685 179.558 131.362C173.915 130.674 170.745 129.293 168.768 125.532C168.483 123.583 168.292 121.504 168.214 119.288C168.036 113.32 169.991 106.214 174.099 98.4282C174.073 103.309 177.923 110.986 186.52 112.261C178.793 108.87 174.247 101.228 176.726 93.8287C178.335 91.249 180.15 88.5847 182.179 85.8703C183.198 84.5656 184.191 83.305 185.16 82.1359C184.126 85.9026 188.666 89.7986 191.701 90.4519C190.058 88.8364 186.52 83.5897 194.687 74.8156C192.408 75.9002 189.889 77.4338 187.976 78.9255C202.815 62.8294 215.017 62.375 220.622 54.2784C212.506 59.8511 191.015 62.8587 181.356 60.2263C186.683 63.7997 199.528 63.4742 202.666 62.8059C192.194 73.031 169.332 83.5897 165.373 92.9848C170.94 86.8496 174.548 85.7265 179.365 84.1468C175.57 89.8364 172.152 94.8403 169.793 100.648C163.712 113.915 155.579 114.085 155.04 125.028C157.816 116.547 163.444 114.395 167.35 108.829C166.661 112.382 166.339 116.327 166.462 120.877C166.6 125.825 167.589 130.175 169.154 134.069C168.757 139.473 169.235 148.719 175.412 154.814C171.215 149.481 170.316 140.81 170.689 137.427C175.52 146.794 189.308 159.735 195.969 168.43C189.308 157.244 172.975 144.182 169.475 129.1Z" fill="black"/>
<path fill-rule="evenodd" clip-rule="evenodd" d="M322.053 84.1468C326.846 85.7265 330.463 86.8496 336.031 92.9848C332.087 83.5897 309.198 73.031 298.729 62.8059C301.874 63.4684 314.72 63.7997 320.045 60.2263C310.397 62.8587 288.904 59.8511 280.779 54.2784C286.393 62.375 298.583 62.8294 313.428 78.9255C311.524 77.4338 309.002 75.9002 306.713 74.8156C314.872 83.5897 311.346 88.8364 309.691 90.4547C312.735 89.7986 317.274 85.9026 316.241 82.1359C317.217 83.305 318.212 84.5656 319.225 85.8703C321.268 88.5847 323.072 91.249 324.675 93.8287C327.15 101.228 322.599 108.87 314.89 112.261C323.486 110.99 327.343 103.309 327.299 98.4282C331.41 106.214 333.377 113.32 333.19 119.288C333.114 121.504 332.921 123.583 332.633 125.532C330.65 129.293 327.48 130.674 321.849 131.362C326.99 131.685 329.684 131.445 331.938 129.1C328.435 144.182 312.102 157.244 305.432 168.43C312.102 159.735 325.869 146.794 330.72 137.427C331.094 140.81 330.187 149.481 325.997 154.814C332.171 148.719 332.65 139.473 332.25 134.062C333.812 130.175 334.792 125.825 334.938 120.877C335.087 116.327 334.74 112.382 334.054 108.829C337.96 114.399 343.588 116.547 346.37 125.028C345.836 114.085 337.7 113.915 331.605 100.648C329.255 94.8403 325.845 89.8364 322.053 84.1468Z" fill="black"/>
<path fill-rule="evenodd" clip-rule="evenodd" d="M349.523 135.502C349.759 135.883 350.384 140.277 352.06 142.387C343.305 141.821 347.366 123.304 338.608 127.763C336.142 129.012 335.403 131.931 336.547 134.311C342.272 146.216 329.223 156.71 329.956 167.143C326.73 167.12 323.385 167.032 321.298 162.676C320.223 164.848 318.507 167.9 317.57 170.842L314.952 166.375C313.326 173.774 306.448 180.618 297.182 181.237C301.588 174.19 296.292 164.572 307.072 154.359C305.715 153.269 302.623 151.167 301.509 149.742C314.73 151.302 328.508 140.808 322.252 135.827C318.159 132.573 316.358 139.327 310.056 138.192L312.525 136.05C311.664 135.191 310.658 134.065 309.636 133.224C312.327 132.895 315.255 131.178 315.255 131.178L313.649 128.516C329.13 128.499 329.501 116.612 323.236 116.137C320.296 115.92 316.469 121.384 306.933 120.249C308.135 118.772 308.634 116.55 309.224 114.906C306.93 114.688 304.203 114.709 302.037 113.648C306.696 113.041 307.861 111.479 311.735 108.53L307.251 106.876C313.772 103.611 313.363 97.9125 313.562 91.976C310.158 93.9491 306.127 97.0067 301.868 95.5817C300.849 95.2386 300.186 94.7668 300.166 93.7001C306.287 91.2841 310.184 81.8278 295.56 73.8803C286.233 68.8269 263.399 57.6846 278.87 45.6717C280.987 44.0418 283.284 42.5761 285.232 40.7469C287.66 42.6171 284.344 47.2546 283.518 48.9549C283.518 48.9549 288.661 49.4766 289.879 49.4766C297.854 49.4414 306.205 44.7131 301.979 35.6346C305.143 36.2971 305.519 39.3516 306.486 41.9693C308.514 40.5945 312.038 37.6337 314.768 38.05C312.552 45.1528 303.269 51.5403 296.05 52.9914C303.339 56.9781 316.866 59.9447 323.977 51.3615C328.963 61.0616 322.013 65.1157 315.194 70.1955C341.156 82.0829 337.324 95.4325 354.357 105.936C352.153 106.976 342.287 104.886 341.405 104.76C345.124 109.576 346.855 111.611 347.923 113.953C348.956 116.146 349.415 118.619 350.437 123.967C351.251 128.191 352.719 132.397 357.822 135.191C355.817 138.84 351.374 135.988 349.523 135.502ZM348.513 108.968C353.303 109.722 357.072 109.722 358.858 104.914C341.253 96.4916 341.404 78.8217 321.172 69.5731C332.294 61.2828 329.293 53.5146 324.129 45.6731C318.659 55.3819 309.241 56.7039 303.462 53.5439C311.603 50.5656 314.677 40.4699 319.61 37.5267C316.524 34.2025 312.584 34.0912 307.986 37.2336C305.502 30.5383 297.325 32.7398 296.096 32.7398C298.245 34.8914 300.274 37.7085 299.888 40.7249C299.042 47.4437 288.162 46.3591 288.162 46.3591C290.357 41.8242 289.382 39.1155 284.498 36.7822C283.006 40.3907 271.33 45.2539 270.571 52.386C269.4 63.5312 282.548 70.3028 294.094 76.5879C306.798 83.4825 302.139 90.9897 297.538 91.2387C294.984 99.1621 304.766 100.59 310.333 97.374C310.307 98.4269 309.6 104.788 301.07 105.31C301.792 107.822 303.199 108.634 305.432 109.464C303.765 110.718 298.898 110.906 296.324 110.906C296.628 114.35 300.356 117.114 305.02 117.583C304.65 118.621 302.577 120.306 300.712 120.826C305.75 125.867 319.295 122.543 322.053 119.65C323.315 118.313 324.853 120.201 323.353 122.212C321.794 124.267 314.989 126.58 309.469 124.876C308.835 127.978 309.898 129.153 310.771 129.989C310.771 129.989 305.373 130.528 303.975 131.291C304.501 133.621 307.119 134.975 308.039 135.884C307.119 136.679 306.027 138.531 305.633 139.962C308.109 141.158 314.849 143.03 318.471 138.889C319.937 137.244 321.537 138.293 320.039 140.384C314.721 147.736 301.99 147.856 297.498 145.554C297.372 151.315 299.853 152.499 302.84 154.886C293.638 165.521 299.719 174.968 293.215 184.272C305.464 184.272 313.124 177.557 315.275 171.284C315.518 173.518 316.694 175.461 319.958 176.126C319.706 173.778 320.436 171.407 321.624 169.012C324.103 171.014 328.625 171.48 334.535 171.73C327.833 160.294 346.811 148.568 339.283 132.985C338.17 130.643 341.44 129.153 341.755 131.537C343.515 144.898 351.332 147.915 357.924 143.749C355.942 141.577 355.122 141.615 353.855 139.639C358.292 140.824 360.552 137.587 361.69 133.539C349.649 129.292 356.135 118.899 348.513 108.968Z" fill="black"/>
<path fill-rule="evenodd" clip-rule="evenodd" d="M241.695 59.3561C243.662 60.7222 247.156 62.1879 247.156 62.1879V59.8545L239.461 56.8938C239.461 56.8938 239.461 57.8435 241.695 59.3561Z" fill="black"/>
<path fill-rule="evenodd" clip-rule="evenodd" d="M247.157 56.5401V54.2096L238.426 51.0789C238.426 51.0789 239.462 52.1899 241.695 53.7172C243.662 55.0773 247.157 56.5401 247.157 56.5401Z" fill="black"/>
<path fill-rule="evenodd" clip-rule="evenodd" d="M247.156 51.2467V48.9074L237.593 45.3722C237.593 45.3722 239.461 46.8907 241.695 48.415C243.662 49.7869 247.156 51.2467 247.156 51.2467Z" fill="black"/>
<path fill-rule="evenodd" clip-rule="evenodd" d="M274.033 83.0856H283.812C283.409 81.6579 281.889 80.2192 279.031 80.2192C276.333 80.2192 274.707 81.79 274.033 83.0856Z" fill="black"/>
<path fill-rule="evenodd" clip-rule="evenodd" d="M263.798 45.3722L254.247 48.9074V51.2467C254.247 51.2467 257.746 49.7869 259.717 48.415C261.941 46.8907 263.798 45.3722 263.798 45.3722Z" fill="black"/>
<path fill-rule="evenodd" clip-rule="evenodd" d="M261.938 56.8938L254.247 59.8545V62.1879C254.247 62.1879 257.746 60.7222 259.717 59.3561C261.938 57.8435 261.938 56.8938 261.938 56.8938Z" fill="black"/>
<path fill-rule="evenodd" clip-rule="evenodd" d="M262.978 51.0789L254.247 54.2096V56.5401C254.247 56.5401 257.749 55.0832 259.717 53.7172C261.938 52.1899 262.978 51.0789 262.978 51.0789Z" fill="black"/>
<path fill-rule="evenodd" clip-rule="evenodd" d="M222.346 80.2192C219.494 80.2192 217.976 81.6579 217.568 83.0856H227.358C226.661 81.7872 225.061 80.2192 222.346 80.2192Z" fill="black"/>
<path fill-rule="evenodd" clip-rule="evenodd" d="M285.648 112.039L285.677 110.309C280.387 110.184 279.179 103.922 279.179 103.922C277.629 108.533 281.666 111.969 285.648 112.039Z" fill="black"/>
<path fill-rule="evenodd" clip-rule="evenodd" d="M278.969 122.645L278.441 121.009C273.931 122.167 271.598 114.991 271.598 114.991C270.156 120.203 275.189 123.896 278.969 122.645Z" fill="black"/>
<path fill-rule="evenodd" clip-rule="evenodd" d="M282.104 115.994C276.715 116.849 274.503 110.556 274.503 110.556C273.908 113.983 276.117 117.459 279.684 117.826C278.879 122.302 283.016 124.591 286.597 123L286.08 121.44C282.969 122.489 280.049 119.397 282.104 115.994Z" fill="black"/>
<path fill-rule="evenodd" clip-rule="evenodd" d="M278.879 98.0328L278.928 96.3004C271.818 94.8287 272.41 89.9128 272.41 89.9128C270.875 94.5419 274.912 97.9599 278.879 98.0328Z" fill="black"/>
<path fill-rule="evenodd" clip-rule="evenodd" d="M235.862 22.2897L238.893 15.8407L244.509 18.8366L250.71 12.6894L256.91 18.8366L262.52 15.8407L265.515 22.2897L269.249 21.7152C268.292 23.518 267.57 25.0834 266.908 27.2936C262.827 24.9016 256.766 23.0607 250.71 23.0607C244.631 23.0607 238.586 24.9016 234.502 27.2936C233.822 25.0834 233.112 23.518 232.146 21.7152L235.862 22.2897ZM250.71 25.1147C258.6 25.1147 264.917 27.7384 268.409 30.5613C268.409 30.5613 269.453 24.2705 272.989 18.7477L266.628 19.463L263.306 12.3573L256.91 15.6962L250.71 9.51675L244.509 15.6962L238.102 12.3573L234.774 19.463L228.419 18.7477C231.96 24.2705 232.993 30.5613 232.993 30.5613C236.476 27.7384 242.81 25.1147 250.71 25.1147Z" fill="black"/>
<path fill-rule="evenodd" clip-rule="evenodd" d="M257.195 12.401C258.118 12.4772 258.938 11.7766 259.016 10.862C259.107 9.93868 257.759 7.46161 257.759 7.46161C257.759 7.46161 255.738 9.64255 255.674 10.5748C255.587 11.4894 256.282 12.3072 257.195 12.401Z" fill="black"/>
<path fill-rule="evenodd" clip-rule="evenodd" d="M267.614 16.1919C268.434 16.6375 269.435 16.3091 269.879 15.4825C270.325 14.6705 270.034 11.868 270.034 11.868C270.034 11.868 267.351 13.0846 266.907 13.9112C266.486 14.7262 266.793 15.7434 267.614 16.1919Z" fill="black"/>
<path fill-rule="evenodd" clip-rule="evenodd" d="M244.196 12.401C245.136 12.3072 245.817 11.4894 245.735 10.5748C245.65 9.64255 243.651 7.46161 243.651 7.46161C243.651 7.46161 242.305 9.93868 242.392 10.862C242.465 11.7766 243.288 12.4772 244.196 12.401Z" fill="black"/>
<path fill-rule="evenodd" clip-rule="evenodd" d="M233.795 16.1919C234.612 15.7434 234.925 14.7262 234.487 13.9112C234.055 13.0846 231.366 11.868 231.366 11.868C231.366 11.868 231.08 14.6705 231.53 15.4825C231.959 16.3091 232.975 16.6375 233.795 16.1919Z" fill="black"/>
<path fill-rule="evenodd" clip-rule="evenodd" d="M270.393 200.673L267.006 189.616C274.222 188.118 279.244 186.579 283.077 185.093V191.991L289.026 194.397C283.999 196.698 277.764 198.982 270.393 200.673ZM250.709 207.143C243.98 207.143 237.41 206.131 231.796 204.748L235.369 193.148C237.737 193.702 243.662 194.432 250.709 194.432C257.759 194.432 263.661 193.702 266.041 193.148L269.625 204.748C263.986 206.131 257.418 207.143 250.709 207.143ZM212.371 194.397L218.326 191.991V185.093C222.16 186.579 227.181 188.118 234.397 189.616L231.013 200.673C223.66 198.982 217.407 196.698 212.371 194.397ZM284.919 190.557V182.094C278.406 185.093 270.116 187.523 259.458 188.484L258.973 191.509C259.878 191.639 261.028 191.75 262.557 191.85C258.608 192.392 253.506 192.656 250.709 192.656C247.907 192.656 242.81 192.392 238.855 191.85C240.381 191.75 241.522 191.639 242.427 191.509L241.945 188.484C231.285 187.523 222.985 185.093 216.49 182.094V190.557L207.654 194.198C214.196 197.616 221.728 200.403 230.433 202.655L229.402 206.199C234.388 207.664 242.354 209.168 250.709 209.168C259.06 209.168 267.022 207.664 272.007 206.199L270.979 202.655C279.673 200.403 287.222 197.616 293.764 194.198L284.919 190.557Z" fill="black"/>
<path fill-rule="evenodd" clip-rule="evenodd" d="M141.139 80.0445C142.753 77.5707 145.012 75.3514 148.147 72.7394C146.095 72.476 144.487 71.8013 142.475 70.3034C146.766 69.1577 155.789 65.8949 163.47 67.3576C165.992 67.6918 167.417 68.7266 166.492 69.3097C162.364 72.0626 157.264 78.4324 153.557 85.8661C150.314 81.8064 151.686 76.4834 152.357 74.9497C145.87 78.8808 144.18 80.792 141.139 80.0445ZM148.124 81.0197C148.124 81.0197 151.598 87.4486 153.615 88.8908C159.771 82.6936 164.293 73.7297 174.271 68.5879C169.547 60.7816 163.21 62.0919 162.74 55.1415C165.773 56.0033 168.707 53.9924 168.768 50.3516C165.595 48.6015 164.462 52.0811 163.607 51.19C162.897 50.4571 167.242 50.3311 166.83 45.8167C162.64 45.6848 163.408 48.7335 162.425 48.3495C161.639 48.0622 163.607 45.5559 159.806 43.3339C157.672 47.3 160.592 48.5371 159.987 49.1996C159.342 49.8914 158.245 46.9072 154.61 48.1619C155.597 53.0603 160.297 51.1724 159.657 52.6176C159.211 53.6524 156.002 50.6008 154.741 54.3706C156.548 57.6713 159.791 56.8915 161.692 55.5138C162.101 61.8662 166.237 62.3968 170.867 66.8114C158.537 61.661 143.532 67.9811 137.866 68.8104C138.738 70.769 140.449 72.8941 142.671 73.6678C139.17 76.907 139.089 78.6896 136.801 81.0403C136.801 81.0403 141.465 86.1907 148.124 81.0197Z" fill="black"/>
<path fill-rule="evenodd" clip-rule="evenodd" d="M245.303 76.2984V80.0273C246.582 78.4826 249.051 78.7873 249.051 78.7873V84.1489C249.051 84.1489 248.967 86.7987 248.033 87.9335H253.383C252.452 86.7987 252.364 84.1489 252.364 84.1489V78.7873C252.364 78.7873 254.831 78.4826 256.113 80.0273V76.2984H245.303Z" fill="black"/>
</g>
<g clip-path="url(#clip1_51_97)">
<path d="M21.692 53V40.4H27.596C29.108 40.4 30.26 40.7 31.052 41.3C31.844 41.888 32.24 42.68 32.24 43.676C32.24 44.348 32.084 44.924 31.772 45.404C31.46 45.872 31.04 46.238 30.512 46.502C29.996 46.754 29.432 46.88 28.82 46.88L29.144 46.232C29.852 46.232 30.488 46.364 31.052 46.628C31.616 46.88 32.06 47.252 32.384 47.744C32.72 48.236 32.888 48.848 32.888 49.58C32.888 50.66 32.474 51.5 31.646 52.1C30.818 52.7 29.588 53 27.956 53H21.692ZM24.032 51.164H27.812C28.688 51.164 29.36 51.02 29.828 50.732C30.296 50.444 30.53 49.982 30.53 49.346C30.53 48.722 30.296 48.266 29.828 47.978C29.36 47.678 28.688 47.528 27.812 47.528H23.852V45.71H27.344C28.16 45.71 28.784 45.566 29.216 45.278C29.66 44.99 29.882 44.558 29.882 43.982C29.882 43.394 29.66 42.956 29.216 42.668C28.784 42.38 28.16 42.236 27.344 42.236H24.032V51.164ZM35.1694 53V39.644H37.4194V53H35.1694ZM46.2945 53V51.056L46.1685 50.642V47.24C46.1685 46.58 45.9705 46.07 45.5745 45.71C45.1785 45.338 44.5785 45.152 43.7745 45.152C43.2345 45.152 42.7005 45.236 42.1725 45.404C41.6565 45.572 41.2185 45.806 40.8585 46.106L39.9765 44.468C40.4925 44.072 41.1045 43.778 41.8125 43.586C42.5325 43.382 43.2765 43.28 44.0445 43.28C45.4365 43.28 46.5105 43.616 47.2665 44.288C48.0345 44.948 48.4185 45.974 48.4185 47.366V53H46.2945ZM43.2705 53.126C42.5505 53.126 41.9205 53.006 41.3805 52.766C40.8405 52.514 40.4205 52.172 40.1205 51.74C39.8325 51.296 39.6885 50.798 39.6885 50.246C39.6885 49.706 39.8145 49.22 40.0665 48.788C40.3305 48.356 40.7565 48.014 41.3445 47.762C41.9325 47.51 42.7125 47.384 43.6845 47.384H46.4745V48.878H43.8465C43.0785 48.878 42.5625 49.004 42.2985 49.256C42.0345 49.496 41.9025 49.796 41.9025 50.156C41.9025 50.564 42.0645 50.888 42.3885 51.128C42.7125 51.368 43.1625 51.488 43.7385 51.488C44.2905 51.488 44.7825 51.362 45.2145 51.11C45.6585 50.858 45.9765 50.486 46.1685 49.994L46.5465 51.344C46.3305 51.908 45.9405 52.346 45.3765 52.658C44.8245 52.97 44.1225 53.126 43.2705 53.126ZM55.7337 53.126C54.7257 53.126 53.8257 52.916 53.0337 52.496C52.2537 52.064 51.6417 51.476 51.1977 50.732C50.7537 49.988 50.5317 49.142 50.5317 48.194C50.5317 47.234 50.7537 46.388 51.1977 45.656C51.6417 44.912 52.2537 44.33 53.0337 43.91C53.8257 43.49 54.7257 43.28 55.7337 43.28C56.6697 43.28 57.4917 43.472 58.1997 43.856C58.9197 44.228 59.4657 44.78 59.8377 45.512L58.1097 46.52C57.8217 46.064 57.4677 45.728 57.0477 45.512C56.6397 45.296 56.1957 45.188 55.7157 45.188C55.1637 45.188 54.6657 45.308 54.2217 45.548C53.7777 45.788 53.4297 46.136 53.1777 46.592C52.9257 47.036 52.7997 47.57 52.7997 48.194C52.7997 48.818 52.9257 49.358 53.1777 49.814C53.4297 50.258 53.7777 50.6 54.2217 50.84C54.6657 51.08 55.1637 51.2 55.7157 51.2C56.1957 51.2 56.6397 51.092 57.0477 50.876C57.4677 50.66 57.8217 50.324 58.1097 49.868L59.8377 50.876C59.4657 51.596 58.9197 52.154 58.1997 52.55C57.4917 52.934 56.6697 53.126 55.7337 53.126ZM63.5308 50.858L63.5848 48.032L68.6068 43.388H71.3068L67.0408 47.672L65.8528 48.662L63.5308 50.858ZM61.6948 53V39.644H63.9448V53H61.6948ZM68.9488 53L65.4388 48.662L66.8608 46.862L71.6848 53H68.9488Z" fill="white"/>
</g>
<path fill-rule="evenodd" clip-rule="evenodd" d="M28.4165 94.1533C27.9011 93.6726 27.9002 92.861 28.3654 92.3322C30.6496 89.7332 32.0345 86.3262 32.0345 82.5966C32.0345 78.8671 30.6496 75.46 28.3654 72.8611C27.9002 72.3322 27.9011 71.5207 28.4165 71.04C28.895 70.5943 29.6435 70.5991 30.0811 71.0847C32.8275 74.1355 34.4986 78.1711 34.4986 82.5966C34.4986 87.0222 32.8275 91.0578 30.0811 94.1086C29.6435 94.5948 28.895 94.5989 28.4165 94.1533ZM26.4593 90.771C26.0323 91.2504 25.2981 91.2469 24.8285 90.8088C24.3053 90.3212 24.3184 89.4946 24.7804 88.9485C26.2318 87.2347 27.1068 85.0181 27.1068 82.5973C27.1068 80.1765 26.2316 77.9593 24.78 76.2454C24.3179 75.6994 24.3049 74.8727 24.828 74.3851C25.2977 73.947 26.0318 73.9436 26.4588 74.4229C28.3948 76.5962 29.5709 79.4592 29.5709 82.5973C29.5709 85.7348 28.395 88.5978 26.4593 90.771ZM21.265 87.4878C21.7097 87.9018 22.404 87.9238 22.8055 87.4672C23.9491 86.1673 24.6425 84.4631 24.6425 82.5966C24.6425 80.7308 23.949 79.0259 22.8053 77.7261C22.4038 77.2701 21.7096 77.2915 21.2648 77.7062C20.7223 78.2117 20.7801 79.0837 21.2203 79.6807C21.8224 80.497 22.1784 81.5052 22.1784 82.5966C22.1784 83.6881 21.8225 84.697 21.2204 85.5133C20.7803 86.1096 20.7225 86.9816 21.265 87.4878Z" fill="white"/>
<path d="M239.191 176.707C250.173 176.707 259.075 167.796 259.075 156.803C259.075 145.81 250.173 136.899 239.191 136.899C228.21 136.899 219.308 145.81 219.308 156.803C219.308 167.796 228.21 176.707 239.191 176.707Z" fill="#FF0819"/>
<path d="M263.491 176.708C274.473 176.708 283.375 167.796 283.375 156.804C283.375 145.811 274.473 136.9 263.491 136.9C252.51 136.9 243.608 145.811 243.608 156.804C243.608 167.796 252.51 176.708 263.491 176.708Z" fill="#FFC600"/>
<path fill-rule="evenodd" clip-rule="evenodd" d="M251.341 172.556C256.045 168.916 259.073 163.212 259.073 156.8C259.073 150.388 256.045 144.685 251.341 141.045C246.638 144.685 243.609 150.388 243.609 156.8C243.609 163.212 246.638 168.916 251.341 172.556Z" fill="#FF700F"/>
<path d="M79.3607 99.0479H51.1619C47.4057 99.0479 44.3546 95.9937 44.3546 92.2338V75.0213C44.3546 71.2614 47.4057 68.2071 51.1619 68.2071H79.3607C83.1167 68.2071 86.1676 71.2614 86.1676 75.0213V92.2338C86.1676 96.0047 83.1167 99.0479 79.3607 99.0479Z" fill="#EBEFF2"/>
<path d="M79.537 98.6731H51.3388C47.5827 98.6731 44.5315 95.6189 44.5315 91.859V74.6465C44.5315 70.8866 47.5827 67.8323 51.3388 67.8323H79.537C83.2937 67.8323 86.3446 70.8866 86.3446 74.6465V91.859C86.3446 95.6189 83.2937 98.6731 79.537 98.6731Z" stroke="#B0B0B1" stroke-width="1.78903" stroke-miterlimit="10"/>
<path d="M64.302 67.8531C64.302 67.8531 58.2437 67.9634 56.4153 78.3279C58.2107 83.0698 57.2634 87.6563 56.9991 88.7257L56.9881 88.7594C56.955 88.8915 56.933 88.9685 56.933 88.9685C59.7638 99.1015 65.8001 98.6277 65.8001 98.6277" stroke="#B0B0B1" stroke-width="1.78903" stroke-miterlimit="10"/>
<path d="M56.4165 78.3602H44.4211" stroke="#B0B0B1" stroke-width="1.78903" stroke-miterlimit="10"/>
<path d="M56.9889 88.8241H44.3546" stroke="#B0B0B1" stroke-width="1.78903" stroke-miterlimit="10"/>
<path d="M66.1415 67.8531C66.1415 67.8531 70.1179 67.9303 72.6075 73.4766" stroke="#B0B0B1" stroke-width="1.78903" stroke-miterlimit="10"/>
<path d="M86.0243 78.3609L74.0289 78.3389C72.2335 83.0801 73.1811 87.6673 73.4566 88.7697C73.4897 88.9025 73.5117 88.9795 73.5117 88.9795C70.6805 99.1125 64.6444 98.6387 64.6444 98.6387" stroke="#B0B0B1" stroke-width="1.78903" stroke-miterlimit="10"/>
<path d="M73.4456 88.8241H86.0911" stroke="#B0B0B1" stroke-width="1.78903" stroke-miterlimit="10"/>
<path d="M65.4371 70.963C65.9786 70.963 66.4175 70.5235 66.4175 69.9816C66.4175 69.4396 65.9786 69.0002 65.4371 69.0002C64.8958 69.0002 64.4568 69.4396 64.4568 69.9816C64.4568 70.5235 64.8958 70.963 65.4371 70.963Z" fill="#B0B0B1"/>
<path d="M25.5744 151.068C22.7456 151.068 20.9517 152.997 20.9517 156.029C20.9517 159.061 22.7456 160.99 25.5744 160.99C28.4205 160.99 30.2144 159.061 30.2144 156.029C30.2144 152.997 28.4205 151.068 25.5744 151.068ZM25.5744 152.481C27.4201 152.481 28.5585 153.842 28.5585 156.029C28.5585 158.216 27.4201 159.577 25.5744 159.577C23.746 159.577 22.6076 158.216 22.6076 156.029C22.6076 153.842 23.746 152.481 25.5744 152.481ZM33.9273 159.371V151.309H32.3404V160.749H38.9123V159.371H33.9273ZM46.9657 152.67V151.309H40.3248V160.749H47.1036V159.388H41.9118V156.597H46.6725V155.254H41.9118V152.67H46.9657ZM52.9125 151.068C50.0837 151.068 48.307 152.963 48.307 156.046C48.307 159.095 49.9457 160.938 52.533 160.938C53.8267 160.938 54.9996 160.456 55.5516 159.663H55.5861V160.749H57.0005V155.615H52.8953V156.908H55.4999C55.4826 158.802 54.3959 159.612 52.8263 159.612C51.0668 159.612 49.963 158.269 49.963 156.046C49.963 153.824 51.1186 152.463 52.9125 152.463C54.2407 152.463 55.1031 153.032 55.3274 154.152H57.0178C56.7935 152.239 55.2066 151.068 52.9125 151.068ZM65.3258 160.749V151.309H63.7389V160.749H65.3258ZM72.1054 160.749L75.4173 151.309H73.761L72.33 155.461C71.8637 156.735 71.4498 158.027 71.0531 159.284H71.0187C70.622 158.027 70.2081 156.735 69.7598 155.461L68.3107 151.309H66.6548L69.9836 160.749H72.1054ZM82.112 158.234L83.0603 160.749H84.751L81.0252 151.309H78.9034L75.1777 160.749H76.8684L77.8167 158.234H82.112ZM81.612 156.873H78.3173L78.61 156.098C79.0763 154.857 79.4902 153.721 79.9385 152.446H79.9729C80.4213 153.721 80.8524 154.857 81.3186 156.098L81.612 156.873ZM94.4545 160.749V151.309H92.9194V154.961C92.9194 156.408 92.9366 157.855 92.9538 159.302H92.9194C92.2293 157.976 91.4876 156.615 90.7459 155.271L88.5552 151.309H86.2096V160.749H87.7447V157.097C87.7447 155.65 87.7447 154.203 87.7102 152.756H87.7447C88.4347 154.082 89.1764 155.426 89.9354 156.787L92.126 160.749H94.4545ZM101.224 151.068C98.3951 151.068 96.6011 152.997 96.6011 156.029C96.6011 159.061 98.3951 160.99 101.224 160.99C104.07 160.99 105.864 159.061 105.864 156.029C105.864 152.997 104.07 151.068 101.224 151.068ZM101.224 152.481C103.069 152.481 104.208 153.842 104.208 156.029C104.208 158.216 103.069 159.577 101.224 159.577C99.3957 159.577 98.2574 158.216 98.2574 156.029C98.2574 153.842 99.3957 152.481 101.224 152.481ZM111.842 160.749L115.154 151.309H113.498L112.066 155.461C111.601 156.735 111.187 158.027 110.79 159.284H110.756C110.359 158.027 109.945 156.735 109.496 155.461L108.048 151.309H106.391L109.72 160.749H111.842Z" fill="white"/>
<g clip-path="url(#clip2_51_97)">
<path d="M26.7359 28L20.9979 14.7H24.3229L29.3389 26.48H27.3819L32.4739 14.7H35.5329L29.7759 28H26.7359ZM39.4744 20.058H45.8774V22.452H39.4744V20.058ZM39.7024 25.53H46.9414V28H36.6434V14.7H46.6944V17.17H39.7024V25.53ZM52.1455 28V17.208H47.8895V14.7H59.4795V17.208H55.2235V28H52.1455ZM61.1356 28V14.7H66.8926C68.0833 14.7 69.1093 14.8963 69.9706 15.289C70.8319 15.669 71.4969 16.22 71.9656 16.942C72.4343 17.664 72.6686 18.5253 72.6686 19.526C72.6686 20.514 72.4343 21.369 71.9656 22.091C71.4969 22.8003 70.8319 23.345 69.9706 23.725C69.1093 24.105 68.0833 24.295 66.8926 24.295H62.8456L64.2136 22.946V28H61.1356ZM69.5906 28L66.2656 23.174H69.5526L72.9156 28H69.5906ZM64.2136 23.288L62.8456 21.844H66.7216C67.6716 21.844 68.3809 21.6413 68.8496 21.236C69.3183 20.818 69.5526 20.248 69.5526 19.526C69.5526 18.7913 69.3183 18.2213 68.8496 17.816C68.3809 17.4107 67.6716 17.208 66.7216 17.208H62.8456L64.2136 15.745V23.288ZM81.5673 28.228C80.5159 28.228 79.5406 28.057 78.6413 27.715C77.7546 27.373 76.9819 26.8917 76.3233 26.271C75.6773 25.6503 75.1706 24.922 74.8033 24.086C74.4486 23.25 74.2713 22.338 74.2713 21.35C74.2713 20.362 74.4486 19.45 74.8033 18.614C75.1706 17.778 75.6836 17.0497 76.3423 16.429C77.0009 15.8083 77.7736 15.327 78.6603 14.985C79.5469 14.643 80.5096 14.472 81.5483 14.472C82.5996 14.472 83.5623 14.643 84.4363 14.985C85.3229 15.327 86.0893 15.8083 86.7353 16.429C87.3939 17.0497 87.9069 17.778 88.2743 18.614C88.6416 19.4373 88.8253 20.3493 88.8253 21.35C88.8253 22.338 88.6416 23.2563 88.2743 24.105C87.9069 24.941 87.3939 25.6693 86.7353 26.29C86.0893 26.898 85.3229 27.373 84.4363 27.715C83.5623 28.057 82.6059 28.228 81.5673 28.228ZM81.5483 25.606C82.1436 25.606 82.6883 25.5047 83.1823 25.302C83.6889 25.0993 84.1323 24.808 84.5123 24.428C84.8923 24.048 85.1836 23.5983 85.3863 23.079C85.6016 22.5597 85.7093 21.9833 85.7093 21.35C85.7093 20.7167 85.6016 20.1403 85.3863 19.621C85.1836 19.1017 84.8923 18.652 84.5123 18.272C84.1449 17.892 83.7079 17.6007 83.2013 17.398C82.6946 17.1953 82.1436 17.094 81.5483 17.094C80.9529 17.094 80.4019 17.1953 79.8953 17.398C79.4013 17.6007 78.9643 17.892 78.5843 18.272C78.2043 18.652 77.9066 19.1017 77.6913 19.621C77.4886 20.1403 77.3873 20.7167 77.3873 21.35C77.3873 21.9707 77.4886 22.547 77.6913 23.079C77.9066 23.5983 78.1979 24.048 78.5653 24.428C78.9453 24.808 79.3886 25.0993 79.8953 25.302C80.4019 25.5047 80.9529 25.606 81.5483 25.606ZM93.9885 20.685H100.372V23.155H93.9885V20.685ZM94.2165 28H91.1385V14.7H101.189V17.17H94.2165V28ZM106.123 20.685H112.507V23.155H106.123V20.685ZM106.351 28H103.273V14.7H113.324V17.17H106.351V28Z" fill="white"/>
</g>
</g>
<defs>
<clipPath id="clip0_51_97">
<rect width="292" height="185" fill="white"/>
</clipPath>
<clipPath id="clip1_51_97">
<rect width="51" height="15" fill="white" transform="translate(21 39)"/>
</clipPath>
<clipPath id="clip2_51_97">
<rect width="94" height="15" fill="white" transform="translate(20 14)"/>
</clipPath>
</defs>
</svg>
