<svg width="24" height="24" viewBox="0 0 24 24" fill="none" xmlns="http://www.w3.org/2000/svg">
<g clip-path="url(#clip0_79_80)">
<path d="M12 0C5.3831 0 0 5.3831 0 12C0 18.6168 5.3831 23.9999 12 23.9999C18.6168 23.9999 23.9999 18.6168 23.9999 12C23.9999 5.3831 18.6168 0 12 0ZM12 22.4388C6.244 22.4388 1.56117 17.756 1.56117 12C1.56117 6.24391 6.244 1.56117 12 1.56117C17.7559 1.56117 22.4387 6.244 22.4387 12C22.4387 17.7559 17.756 22.4388 12 22.4388Z" fill="black"/>
<path d="M16.8952 13.9554C16.532 13.7232 16.0493 13.8293 15.8169 14.1924C15.0629 15.3713 13.7785 16.0751 12.3811 16.0751C10.1341 16.0751 8.30605 14.247 8.30605 12C8.30605 9.75291 10.1341 7.92477 12.3811 7.92477C13.737 7.92477 15.0004 8.59669 15.7609 9.72212C16.0022 10.0792 16.4873 10.1732 16.8447 9.93184C17.2019 9.69055 17.2958 9.20528 17.0544 8.84804C16.0034 7.29233 14.2563 6.3636 12.3811 6.3636C9.27328 6.3636 6.74487 8.89201 6.74487 12C6.74487 15.1079 9.27328 17.6363 12.3811 17.6363C14.3136 17.6363 16.0897 16.6634 17.1321 15.0336C17.3644 14.6704 17.2583 14.1878 16.8952 13.9554Z" fill="black"/>
</g>
<defs>
<clipPath id="clip0_79_80">
<rect width="24" height="24" fill="white"/>
</clipPath>
</defs>
</svg>
