<svg width="384" height="267" viewBox="0 0 384 267" fill="none" xmlns="http://www.w3.org/2000/svg">
<g clip-path="url(#clip0_463_2)">
<path d="M76.5095 267C118.764 267 153.019 264.4 153.019 261.193C153.019 257.986 118.764 255.386 76.5095 255.386C34.2545 255.386 0 257.986 0 261.193C0 264.4 34.2545 267 76.5095 267Z" fill="#E6E6E6"/>
<path d="M58.4824 59.2426C71.7974 53.5829 88.3814 57.1688 104.577 59.6576C104.728 56.6437 106.555 52.9756 104.641 50.8729C102.316 48.3183 102.53 45.6342 103.929 42.9346C107.507 36.0313 102.381 28.6859 97.2062 22.5782C96.0397 21.2047 94.5655 20.1254 92.9033 19.4282C91.2411 18.731 89.4378 18.4354 87.6399 18.5655L78.0532 19.2499C75.7204 19.4164 73.4941 20.2909 71.6722 21.7565C69.8503 23.222 68.5198 25.2087 67.8586 27.4506C65.5695 30.5619 64.3443 33.6646 65.1157 36.7511C61.6869 39.0927 61.1109 41.9194 62.6516 45.1059C63.9581 47.1122 63.9442 49.0652 62.5922 50.9641C60.8166 53.3851 59.4567 56.0846 58.5681 58.9519L58.4824 59.2426Z" fill="#2F2E41"/>
<path d="M374.9 230.817H103.525C101.112 230.817 98.7974 229.859 97.0909 228.154C95.3845 226.448 94.4258 224.135 94.4258 221.724C192.799 210.298 289.324 210.298 384 221.724C384 224.135 383.041 226.448 381.334 228.154C379.628 229.859 377.313 230.817 374.9 230.817Z" fill="#2F2E41"/>
<path d="M384 222.259L94.4258 221.724L127.986 165.29L128.147 165.022V40.6484C128.147 39.1388 128.444 37.6439 129.022 36.2492C129.6 34.8544 130.448 33.5872 131.516 32.5197C132.584 31.4522 133.852 30.6055 135.248 30.0278C136.643 29.4502 138.139 29.1529 139.65 29.153H337.17C338.681 29.1529 340.176 29.4502 341.572 30.0278C342.968 30.6055 344.236 31.4522 345.304 32.5197C346.372 33.5872 347.219 34.8544 347.797 36.2492C348.375 37.6439 348.673 39.1388 348.673 40.6484V165.878L384 222.259Z" fill="#3F3D56"/>
<path d="M139.387 37.1768C138.394 37.1779 137.442 37.5728 136.739 38.2748C136.037 38.9767 135.642 39.9285 135.641 40.9212V154.324C135.642 155.317 136.037 156.268 136.739 156.97C137.442 157.672 138.394 158.067 139.387 158.068H339.038C340.031 158.067 340.984 157.672 341.686 156.97C342.389 156.268 342.784 155.317 342.785 154.324V40.9212C342.784 39.9285 342.389 38.9768 341.686 38.2748C340.984 37.5729 340.031 37.178 339.038 37.1768H139.387Z" fill="white"/>
<path d="M140.224 173.046C139.917 173.047 139.617 173.135 139.358 173.3C139.1 173.466 138.894 173.702 138.765 173.98L128.424 196.447C128.312 196.691 128.263 196.96 128.281 197.228C128.3 197.497 128.386 197.756 128.531 197.983C128.676 198.21 128.876 198.396 129.112 198.525C129.349 198.654 129.614 198.722 129.883 198.722H347.35C347.624 198.722 347.893 198.652 348.132 198.519C348.371 198.386 348.572 198.194 348.716 197.961C348.86 197.728 348.942 197.463 348.954 197.189C348.966 196.916 348.908 196.644 348.786 196.4L337.546 173.933C337.413 173.666 337.208 173.441 336.954 173.285C336.701 173.128 336.408 173.045 336.11 173.046H140.224Z" fill="#2F2E41"/>
<path d="M238.411 35.3046C239.741 35.3046 240.819 34.2269 240.819 32.8975C240.819 31.568 239.741 30.4903 238.411 30.4903C237.08 30.4903 236.002 31.568 236.002 32.8975C236.002 34.2269 237.08 35.3046 238.411 35.3046Z" fill="white"/>
<path d="M217.035 203.001C216.682 203.002 216.339 203.118 216.058 203.333C215.778 203.548 215.576 203.848 215.484 204.189L212.89 213.817C212.826 214.055 212.818 214.305 212.865 214.546C212.913 214.788 213.016 215.015 213.166 215.211C213.316 215.406 213.509 215.565 213.73 215.674C213.951 215.783 214.194 215.839 214.441 215.839H263.772C264.028 215.839 264.28 215.778 264.508 215.661C264.735 215.544 264.931 215.374 265.08 215.165C265.228 214.957 265.325 214.716 265.361 214.463C265.397 214.21 265.373 213.951 265.289 213.71L261.954 204.081C261.844 203.766 261.64 203.493 261.368 203.299C261.096 203.106 260.77 203.002 260.436 203.001H217.035Z" fill="#2F2E41"/>
<path d="M348.673 163.15V165.29H127.986L128.152 165.022V163.15H348.673Z" fill="#2F2E41"/>
<path d="M342.518 74.8885C363.211 74.8885 379.986 58.1242 379.986 37.4443C379.986 16.7644 363.211 0 342.518 0C321.825 0 305.05 16.7644 305.05 37.4443C305.05 58.1242 321.825 74.8885 342.518 74.8885Z" fill="#1373E5"/>
<path d="M358.04 53.7593H326.996C326.428 53.7587 325.884 53.5331 325.482 53.132C325.081 52.7308 324.855 52.1869 324.854 51.6196V32.8975C324.855 32.3302 325.081 31.7863 325.482 31.3852C325.884 30.984 326.428 30.7584 326.996 30.7578H358.04C358.608 30.7584 359.152 30.984 359.554 31.3852C359.955 31.7863 360.181 32.3302 360.181 32.8975V51.6196C360.181 52.1869 359.955 52.7308 359.554 53.132C359.152 53.5331 358.608 53.7587 358.04 53.7593ZM326.996 32.8975V51.6196H358.042L358.04 32.8975L326.996 32.8975Z" fill="white"/>
<path d="M352.152 32.8975H332.883V24.3388C332.883 18.1397 336.935 13.6404 342.517 13.6404C348.1 13.6404 352.152 18.1397 352.152 24.3388L352.152 32.8975ZM335.024 30.7578H350.011V24.3388C350.011 19.2996 346.93 15.7801 342.517 15.7801C338.105 15.7801 335.024 19.2996 335.024 24.3388L335.024 30.7578Z" fill="white"/>
<path d="M342.518 43.8633C343.7 43.8633 344.659 42.9053 344.659 41.7236C344.659 40.5419 343.7 39.584 342.518 39.584C341.336 39.584 340.377 40.5419 340.377 41.7236C340.377 42.9053 341.336 43.8633 342.518 43.8633Z" fill="white"/>
<path d="M316.362 119.603H162.064C161.307 119.602 160.581 119.301 160.045 118.766C159.509 118.231 159.208 117.505 159.207 116.748V78.4974C159.208 77.7403 159.509 77.0145 160.045 76.4792C160.581 75.9439 161.307 75.6427 162.064 75.6418H316.362C317.119 75.6427 317.845 75.9439 318.381 76.4792C318.917 77.0145 319.218 77.7403 319.219 78.4974V116.748C319.218 117.505 318.917 118.231 318.381 118.766C317.845 119.301 317.119 119.602 316.362 119.603ZM162.064 76.7841C161.61 76.7846 161.174 76.9652 160.853 77.2864C160.531 77.6076 160.35 78.0431 160.35 78.4974V116.748C160.35 117.202 160.531 117.638 160.853 117.959C161.174 118.28 161.61 118.461 162.064 118.461H316.362C316.816 118.461 317.252 118.28 317.573 117.959C317.895 117.638 318.076 117.202 318.076 116.748V78.4974C318.076 78.0431 317.895 77.6076 317.573 77.2864C317.252 76.9652 316.816 76.7845 316.362 76.784L162.064 76.7841Z" fill="#E6E6E6"/>
<path d="M186.039 107.787C192.467 107.787 197.678 102.579 197.678 96.1549C197.678 89.7307 192.467 84.5229 186.039 84.5229C179.611 84.5229 174.399 89.7307 174.399 96.1549C174.399 102.579 179.611 107.787 186.039 107.787Z" fill="#E6E6E6"/>
<path d="M212.92 88.4003C212.665 88.3999 212.413 88.4497 212.177 88.5469C211.941 88.6442 211.727 88.7869 211.547 88.967C211.366 89.1471 211.223 89.3609 211.125 89.5963C211.028 89.8317 210.978 90.0841 210.978 90.3389C210.978 90.5938 211.028 90.8461 211.125 91.0815C211.223 91.3169 211.366 91.5308 211.547 91.7108C211.727 91.8909 211.941 92.0336 212.177 92.1309C212.413 92.2281 212.665 92.278 212.92 92.2776H304.372C304.887 92.2776 305.38 92.0733 305.744 91.7098C306.108 91.3462 306.312 90.8531 306.312 90.3389C306.312 89.8248 306.108 89.3316 305.744 88.9681C305.38 88.6045 304.887 88.4003 304.372 88.4003H212.92Z" fill="#E6E6E6"/>
<path d="M212.92 100.032C212.406 100.032 211.912 100.236 211.549 100.6C211.185 100.964 210.98 101.457 210.98 101.971C210.98 102.485 211.185 102.978 211.549 103.342C211.912 103.705 212.406 103.91 212.92 103.91H252.272C252.787 103.91 253.28 103.705 253.644 103.342C254.008 102.978 254.212 102.485 254.212 101.971C254.212 101.457 254.008 100.964 253.644 100.6C253.28 100.236 252.787 100.032 252.272 100.032H212.92Z" fill="#E6E6E6"/>
<path d="M127.607 100.816L99.0837 115.971L98.7227 103.342C108.032 101.789 116.89 99.0849 125.079 94.6825L128.063 87.317C128.388 86.5144 128.916 85.8101 129.596 85.2732C130.275 84.7363 131.083 84.3853 131.94 84.2546C132.796 84.1239 133.672 84.218 134.481 84.5277C135.29 84.8374 136.004 85.3521 136.554 86.0211C137.359 87 137.761 88.2479 137.679 89.5121C137.598 90.7763 137.038 91.9621 136.114 92.8295L127.607 100.816Z" fill="#FFB8B8"/>
<path d="M57.9142 188.313C57.7061 187.551 57.6619 186.753 57.7846 185.972C57.9072 185.191 58.1938 184.445 58.6257 183.782L64.8914 174.173C66.3733 171.9 68.6473 170.258 71.2721 169.566C73.8969 168.874 76.6854 169.181 79.0965 170.427C76.4632 174.907 76.8303 178.836 80.0059 182.251C75.0761 184.657 70.5198 187.761 66.4782 191.468C65.7404 191.971 64.893 192.29 64.0068 192.399C63.1205 192.508 62.221 192.404 61.3831 192.095C60.5452 191.787 59.7933 191.283 59.1899 190.625C58.5865 189.967 58.1491 189.174 57.9142 188.313Z" fill="#2F2E41"/>
<path d="M128.906 175.749C127.958 177.328 126.62 178.637 125.02 179.55C123.419 180.464 121.611 180.951 119.768 180.965L78.1431 181.28L76.3379 170.816L94.7515 165.404L79.2263 153.497L96.1957 133.651L127.017 162.36C128.819 164.038 129.989 166.283 130.333 168.72C130.677 171.157 130.173 173.638 128.906 175.749Z" fill="#2F2E41"/>
<path d="M71.6441 247.311H61.8957C53.1431 187.353 44.2338 127.227 70.561 104.786L101.611 109.837L97.6398 136.177L80.3093 156.022L71.6441 247.311Z" fill="#2F2E41"/>
<path d="M80.2133 260.893C79.4501 261.101 78.6516 261.145 77.8701 261.023C77.0887 260.9 76.342 260.614 75.6793 260.182L65.0945 258.76C62.8201 257.279 61.1771 255.007 60.4845 252.384C59.7919 249.761 60.0989 246.974 61.3461 244.564C65.8286 247.196 69.7607 246.829 73.1777 243.655C75.5921 248.527 79.5701 248.23 83.3692 252.334C83.8723 253.071 84.1917 253.918 84.301 254.804C84.4103 255.69 84.3062 256.589 83.9974 257.426C83.6886 258.263 83.1841 259.015 82.5259 259.618C81.8677 260.221 81.0748 260.658 80.2133 260.893Z" fill="#2F2E41"/>
<path d="M94.7518 64.7342L76.6992 60.4043C79.6975 54.271 79.9444 47.4465 78.5045 40.1982L90.7802 39.8374C91.1648 48.8508 92.3285 57.2716 94.7518 64.7342Z" fill="#FFB8B8"/>
<path d="M99.7132 120.701C86.5717 129.651 77.2862 121.007 70.2003 107.672C71.1849 99.5121 69.5906 89.747 66.6379 79.1365C65.3247 74.4565 65.815 69.4545 68.0119 65.1181C70.2088 60.7817 73.9527 57.426 78.5045 55.7136L94.0297 62.2084C107.212 72.947 109.807 84.5791 104.861 96.8474L99.7132 120.701Z" fill="#1373E5"/>
<path d="M61.8956 73.7547L47.4536 81.332L73.0882 96.4866L76.6551 105.279C76.8932 105.866 77.0091 106.495 76.996 107.129C76.9828 107.762 76.8407 108.385 76.5784 108.962C76.3161 109.538 75.939 110.055 75.4703 110.482C75.0015 110.908 74.4508 111.234 73.8517 111.44C73.1708 111.675 72.4447 111.749 71.7304 111.656C71.016 111.564 70.3328 111.307 69.7343 110.907C69.1358 110.506 68.6381 109.973 68.2804 109.348C67.9226 108.723 67.7144 108.024 67.6721 107.305L67.3114 101.177L34.7301 90.4322C33.6323 90.0702 32.6314 89.4633 31.8031 88.6574C30.9749 87.8516 30.3409 86.8679 29.9494 85.781C29.3786 84.1966 29.3496 82.4678 29.8668 80.8651C30.384 79.2625 31.4182 77.8764 32.8076 76.9238L59.0072 58.961L61.8956 73.7547Z" fill="#FFB8B8"/>
<path d="M76.3376 75.198C70.3143 72.5601 64.8373 75.4257 57.924 77.7238L56.8408 58.6002C63.7054 54.9437 70.2504 53.9579 76.3376 56.7961L76.3376 75.198Z" fill="#1373E5"/>
<path d="M83.5434 49.31C89.909 49.31 95.0693 44.1529 95.0693 37.7914C95.0693 31.4299 89.909 26.2728 83.5434 26.2728C77.1779 26.2728 72.0176 31.4299 72.0176 37.7914C72.0176 44.1529 77.1779 49.31 83.5434 49.31Z" fill="#FFB8B8"/>
<path d="M97.3316 36.338C85.9199 37.455 77.2244 35.5899 71.667 30.2792V26.0023H96.3631L97.3316 36.338Z" fill="#2F2E41"/>
</g>
<defs>
<clipPath id="clip0_463_2">
<rect width="384" height="267" fill="white"/>
</clipPath>
</defs>
</svg>
