<svg width="90" height="80" viewBox="0 0 90 80" fill="none" xmlns="http://www.w3.org/2000/svg">
<path fill-rule="evenodd" clip-rule="evenodd" d="M90 33.6165L88.8326 37.3279C88.2104 39.2528 86.1793 42.4241 82.3917 42.7511C82.8047 44.4871 83.7284 46.4339 85.7662 47.2737L88.6967 48.4682L87.1141 51.2041C86.7579 51.7864 84.9159 54.4693 81.0741 54.4693C80.4162 54.4672 79.7807 54.4019 79.1721 54.2738C79.015 54.9533 78.8225 55.6349 78.5944 56.3123C77.6972 58.9687 78.4708 60.8185 78.5042 60.8948L79.9176 63.8494L76.6722 64.7013C76.6466 64.7102 75.6595 64.9742 74.4587 64.9742C73.9054 64.9742 73.3746 64.9167 72.8803 64.8008C72.5042 64.7113 72.1402 64.5963 71.7918 64.456C71.3712 65.204 70.8648 65.8826 70.2748 66.4858C68.2082 68.5974 65.2732 69.667 61.5527 69.667L58.8882 69.6327L64.3517 71.8936L60.2671 73.8636C58.8181 74.5663 56.9582 75.4658 55.0819 76.1476L55.606 77.5609L54.1682 78.2118C54.04 78.2691 51.3033 79.4835 46.7491 79.7508C46.7491 79.7508 45.6549 79.8051 45.0462 79.8051C44.4363 79.8051 43.33 79.7541 43.33 79.7541C38.7457 79.4934 35.9867 78.2691 35.8586 78.2118L34.4252 77.5621L34.9449 76.1509C33.1186 75.489 31.3266 74.6238 29.8142 73.8925L25.6528 71.8957L31.1341 69.6327L28.4807 69.667H28.4687C24.7536 69.667 21.8186 68.5986 19.7485 66.4891C19.1564 65.8803 18.6489 65.2007 18.2304 64.456C17.8831 64.5963 17.5214 64.7113 17.1464 64.7984C16.6511 64.9167 16.1191 64.9742 15.566 64.9742C14.3439 64.9742 13.3678 64.7069 13.3278 64.6947L10.0968 63.8494L11.5448 60.8394L11.5459 60.8368C11.5787 60.7544 12.3107 58.9231 11.4291 56.3147C11.1998 55.6373 11.0061 54.9545 10.8514 54.2738C10.2437 54.4019 9.6138 54.4672 8.96161 54.4693C5.94658 54.4693 3.82749 52.7256 2.92599 51.2351L1.32665 48.4705L4.25932 47.2716C6.29159 46.4339 7.21648 44.4859 7.63382 42.749C3.79632 42.4075 1.79299 39.2394 1.19199 37.3269L0 33.6165L3.93433 33.739C4.22147 33.7378 6.59432 33.6695 8.89148 32.0131C8.83819 32.0176 8.7853 32.023 8.73249 32.0284C8.61215 32.0406 8.49214 32.0528 8.36839 32.0528C6.00333 32.0528 3.70729 30.6362 2.78687 28.6087L1.13411 24.948C3.57819 24.9933 5.15859 24.7105 5.15859 24.7105L5.16318 24.7095C5.25534 24.6938 6.7019 24.4476 8.37062 22.7568C9.61825 21.4949 11.1597 20.8264 12.8303 20.8264C13.5604 20.8264 14.2137 20.9568 14.7735 21.1347C14.6867 20.8375 14.6055 20.5391 14.5554 20.2308C14.0724 17.1402 15.8509 14.6839 16.2126 14.2209L19.1642 10.6254L20.9694 14.8474C20.9694 14.8474 21.4213 15.8165 22.2293 16.2916C22.4763 15.0574 23.0818 13.6684 24.3729 12.3436C26.7992 9.84635 29.7573 9.47176 31.3056 9.47176C32.0267 9.47176 32.5352 9.55023 32.7034 9.57675L32.818 9.59442L36.1658 10.2497C35.9654 9.47399 35.5358 8.1204 34.7469 6.90272L32.8081 3.90606L37.6773 4.45744L39.2253 1.18673L42.237 2.72485L45.0073 0L47.7862 2.72485L50.7903 1.18673L52.3428 4.45744L57.2132 3.90827L55.2778 6.90161C54.4898 8.1204 54.0578 9.4773 53.8553 10.2552L57.3634 9.57011C57.487 9.55023 58 9.47176 58.7179 9.47176C60.2659 9.47176 63.2255 9.84635 65.6571 12.3447C66.946 13.6706 67.5504 15.0574 67.7951 16.2916C68.6077 15.8121 69.0641 14.8275 69.0696 14.8143L70.8714 10.6165L73.7784 14.19C73.7796 14.1878 75.9988 16.7999 75.469 20.2264C75.4191 20.5369 75.3378 20.8375 75.2488 21.1347C75.812 20.9579 76.4652 20.8264 77.1966 20.8264C78.8658 20.8264 80.4074 21.4949 81.6527 22.7568C83.389 24.5192 84.8916 24.7126 84.9072 24.7138C84.9072 24.7138 86.8126 24.9755 88.8982 24.948L87.2365 28.6087C86.3183 30.6362 84.0233 32.0528 81.6539 32.0528C81.5303 32.0528 81.41 32.0406 81.2899 32.0281C81.238 32.0227 81.1862 32.0173 81.1341 32.0131C83.4369 33.6695 85.8098 33.7378 86.1357 33.7378L90 33.6165ZM5.15859 24.7105C5.15852 24.7105 5.15852 24.7105 5.15859 24.7105Z" fill="white"/>
<path fill-rule="evenodd" clip-rule="evenodd" d="M52.4316 48.2409H31.6612V36.3394C31.6612 35.1869 31.3207 34.0278 30.919 32.957H40.2802C41.1705 33.8344 42.0408 34.3825 42.87 34.682C42.7632 35.1061 42.6218 35.9802 43.0202 36.852C43.3475 37.5559 43.9372 38.0974 44.792 38.4586C44.8844 39.3283 45.4398 40.6355 46.9702 41.2122C46.2978 41.883 45.6468 42.5172 45.3832 42.7714L39.1694 42.6731C39.0292 42.6034 38.7899 42.4466 38.6819 42.2245C38.6756 42.2083 38.667 42.1959 38.6587 42.1834C38.6507 42.1717 38.6426 42.1597 38.6362 42.1449L39.6502 42.3074C39.6712 42.3095 39.6935 42.3095 39.7146 42.3095C39.9105 42.3095 40.0819 42.1757 40.1144 41.9769C40.1478 41.7525 39.9974 41.5483 39.7781 41.514L38.5306 41.3194L39.914 36.5736L38.6028 33.8344L36.5037 36.0399L36.3746 40.9725L34.9635 40.7514C34.7454 40.7096 34.5372 40.8664 34.4993 41.0863C34.4647 41.3028 34.6139 41.5084 34.8354 41.5471L35.4275 41.6377C35.216 41.756 35.0758 41.852 35.0592 41.8642L34.9401 41.9492L34.9067 42.0952C34.5628 43.4796 35.3396 44.7935 36.1788 45.3813L36.1487 45.5559C36.1143 45.7693 36.1643 45.9758 36.2913 46.1504C36.4147 46.3272 36.6006 46.4342 36.8133 46.4708C36.8554 46.4795 36.9011 46.483 36.9435 46.483C37.3064 46.483 37.6235 46.2342 37.7114 45.8674C38.0252 45.9052 38.3113 45.9127 38.5072 45.9127H38.6718L46.8232 47.3757L46.9624 47.283C47.6102 46.8344 50.0876 45.0433 50.8999 44.4487C51.1216 44.6388 51.3708 44.8111 51.6734 44.9548C51.4098 45.8298 51.3942 47.1769 52.4316 48.2409ZM31.6591 49.0436H58.3635L58.3692 59.016C58.3692 62.322 56.4136 64.6302 53.3342 65.3818L53.8484 62.7142C53.8773 62.5563 53.9107 62.3729 53.9317 62.2183C54.0786 62.28 54.2323 62.3297 54.3993 62.3607C54.5906 62.3971 54.7687 62.415 54.9312 62.415C55.718 62.415 56.1777 62.0028 56.4828 61.6523L56.879 61.1939L56.555 60.6923C56.5261 60.6435 55.8082 59.5187 55.2607 58.7498C55.1515 58.5993 55.047 58.4479 54.9423 58.2867L54.9402 58.2836C54.314 57.3527 53.5315 56.1895 51.9619 56.1895L51.8205 56.1927C51.5624 56.2094 51.3397 56.2592 51.1583 56.3277C50.6664 56.0989 50.1555 55.9784 49.6257 55.9784C48.9758 55.9784 48.4292 56.1575 48.063 56.2812C48.0301 56.2906 47.9986 56.3002 47.9685 56.3096C47.9027 56.3298 47.8435 56.3481 47.7916 56.3563L44.8555 56.0702C44.8176 56.0636 44.6975 55.9928 44.5516 55.8216V55.8062L45.1873 55.5541C45.008 53.4514 42.9757 52.1586 41.8426 51.7199C41.7926 51.5101 41.6903 51.3 41.5122 51.1298L40.881 50.5343L40.3268 51.1951L40.0518 51.531L35.9384 49.8536L38.6152 53.1895L37.56 54.7785C37.1728 55.1863 37.5989 55.594 37.5989 55.594L38.6907 56.342L39.8216 55.9221C39.847 55.9221 39.8704 55.9259 39.8943 55.9296C39.9074 55.9317 39.9204 55.9338 39.9339 55.9353C39.9022 56.0305 39.8662 56.2824 39.8325 56.5183C39.806 56.704 39.7809 56.8798 39.7603 56.9619L37.7971 56.5784L35.7347 57.7353C34.6753 58.5087 34.5306 59.7873 34.9235 60.6623L35.1516 61.1597L35.4765 61.8612L36.1989 61.5641C36.21 61.5629 36.2188 61.5585 36.2245 61.554C35.9651 62.3762 36.072 63.1585 36.5328 63.6712L36.9712 64.2171L37.5555 64.9497L38.1955 64.2678C38.3826 64.0801 38.9936 63.4017 39.1826 62.8203L39.3207 62.3762L39.009 62.0347L38.9567 61.973L39.3084 61.3972L41.8717 61.9962L42.4482 62.1286L42.7542 61.6258L42.9212 61.3519C42.9524 61.2944 42.96 61.2845 43.0792 61.2845C43.1694 61.2845 43.2606 61.2944 43.3574 61.3165C44.3268 61.4967 45.2171 61.5883 46.0087 61.5883C46.7777 61.5883 47.2362 61.5585 47.7814 61.3784C47.7814 61.3784 49.1582 62.9297 49.2051 62.9884L48.3636 65.5717L48.3257 65.7264C46.7298 65.8557 45.953 66.2026 45.0134 67.1331C43.6502 65.7905 42.6829 65.648 39.0192 65.648C34.6317 65.648 31.6591 63.0956 31.6591 59.016V49.0436Z" fill="#FFDD2D"/>
<path fill-rule="evenodd" clip-rule="evenodd" d="M38.5891 7.24876L39.2881 7.32168L39.591 6.68855L40.4713 4.81782L42.1072 5.65761L42.7405 5.97915L45.0099 3.74492L46.7784 5.48302L47.2848 5.97915L47.9193 5.65761L49.5452 4.81782L50.4391 6.68855L50.7351 7.32168L51.434 7.24876L52.1029 7.16921C51.7969 7.85319 51.5709 8.504 51.4094 9.04212C49.6442 8.06533 47.3504 7.50953 45.0099 7.50953C42.6806 7.50953 40.3889 8.06533 38.6171 9.04212C38.4534 8.504 38.2298 7.85319 37.9236 7.16921L38.5891 7.24876ZM45.0099 8.48522C48.1417 8.48522 50.647 9.51616 52.0316 10.6134C52.0316 10.6134 52.4423 8.15593 53.8458 5.988L51.3237 6.27307L50.0037 3.48966L47.4695 4.78689L45.0099 2.37476L42.5581 4.78689L40.0182 3.48966L38.7005 6.27307L36.1786 5.988C37.583 8.15593 37.9928 10.6134 37.9928 10.6134C39.3861 9.51616 41.8836 8.48522 45.0099 8.48522ZM52.5912 74.2856L51.3713 70.9543C52.8226 70.5156 55.318 69.572 56.4364 68.9443L55.6908 71.3685L58.2172 72.2027C56.6891 72.9642 54.836 73.6747 52.5912 74.2856ZM45.0175 77.2802C42.0769 77.2802 38.7225 76.6082 37.7329 76.2592L39.2355 72.2248C40.481 72.5863 43.073 72.9696 44.954 72.9576H45.0729C46.9539 72.9696 49.5426 72.5863 50.7948 72.2248L52.294 76.2592C51.3057 76.6082 47.9501 77.2802 45.0175 77.2802ZM31.8098 72.2027L34.3407 71.3685L33.5918 68.9443C34.708 69.572 37.2076 70.5156 38.6557 70.9543L37.4348 74.2856C35.1978 73.6747 33.3369 72.9642 31.8098 72.2027ZM58.3306 71.4624L56.7926 70.8768L57.2177 69.2978L57.6852 67.5785C57.6852 67.5785 54.9594 69.0471 51.1176 70.1487C50.0279 70.4581 49.2032 70.6005 49.2032 70.6005V71.7718C49.2032 71.7718 47.1486 72.1255 45.0729 72.1255H44.954C42.876 72.1255 40.8249 71.7718 40.8249 71.7718V70.6005C40.8249 70.6005 39.9979 70.4581 38.9093 70.1487C35.0685 69.0471 32.3453 67.5785 32.3453 67.5785L32.8059 69.2978L33.2401 70.8768L31.6963 71.4624L29.9847 72.0966C30.1696 72.1856 30.3615 72.2783 30.5595 72.3738C32.4571 73.2904 34.8994 74.4699 37.152 75.0823L36.5656 76.6746C36.5656 76.6746 39.7208 78.101 44.9772 78.1144V78.1177H45.0485V78.1144C50.3107 78.101 53.4638 76.6746 53.4638 76.6746L52.8738 75.0823C55.1541 74.4626 57.6315 73.2625 59.5319 72.3415L60.038 72.0966L58.3306 71.4624ZM81.1077 51.7053C83.6097 51.7053 84.6992 49.8214 84.6992 49.8214C78.7038 47.3507 79.2947 39.3773 79.2947 39.3773C79.2947 39.3773 80.0737 39.954 81.5907 40.0082C81.6454 40.0115 81.692 40.0115 81.7477 40.0115C85.0509 40.0115 86.1705 36.4989 86.1705 36.4989H86.1049C85.4995 36.4989 80.589 36.3573 77.1167 31.9761L76.8152 31.596C74.6614 28.8752 72.7948 26.5179 69.259 25.5663L68.8962 25.5022L68.8161 25.1342C68.7147 24.5739 69.1022 24.0469 69.9802 23.4801C75.0844 20.1619 71.6184 15.9288 71.6184 15.9288C71.6184 15.9288 70.1607 19.3133 66.8996 19.3133C66.8603 19.3133 66.82 19.3122 66.7797 19.3111C66.739 19.31 66.6983 19.3088 66.658 19.3088L66.5933 19.3056C66.2445 19.2882 65.907 19.2713 65.5685 19.2006L64.9674 19.0845C64.9674 19.0845 65.898 16.5729 63.6541 14.268C61.9636 12.5277 59.9068 12.2315 58.7193 12.2315C58.1206 12.2315 57.7409 12.3078 57.7409 12.3078C58.8673 13.7708 59.683 16.1995 58.382 17.6978C57.9465 18.1962 57.2674 18.5109 56.5991 18.8208C55.5409 19.3113 54.5089 19.7897 54.5089 20.9652C54.5089 21.7795 55.2747 22.7276 56.6481 23.5784C60.7772 26.1618 64.8774 29.5906 66.5846 34.1817C68.7147 39.9087 66.3129 43.7121 62.8884 45.8931C62.8884 45.8931 63.9634 46.8745 65.5207 47.0003C65.8378 47.0303 66.1471 47.0447 66.4366 47.0447C69.7253 47.0447 71.4271 45.5131 71.4271 45.5131C71.4271 45.5131 71.1454 47.6291 69.435 49.5937C67.8557 51.4069 65.7822 52.4766 62.6191 52.5207C62.6191 52.5207 62.5201 53.9771 63.9213 55.239C64.8173 56.0356 66.8851 56.2931 66.8851 56.2931C66.8851 56.2931 63.0109 57.0733 62.5834 62.755C62.3498 65.8333 61.5574 66.903 61.5574 66.903H61.6275C70.6192 66.903 70.3887 59.2468 70.3887 59.2468C70.3887 59.2468 71.0142 61.514 73.5229 62.1053C73.8267 62.1837 74.1493 62.2147 74.4577 62.2147C75.2646 62.2147 75.9668 62.0257 75.9668 62.0257C75.9668 62.0257 74.6526 59.2767 75.9557 55.4279C77.0364 52.2346 76.8628 49.8688 76.8628 49.8688C76.8628 49.8688 78.0738 51.6877 81.0765 51.7053H81.1077ZM87.2078 36.8214C87.1522 36.9972 85.7965 41.0865 81.7477 41.0865L81.5563 41.0811C81.1222 41.0689 80.7371 41.0105 80.401 40.9452C80.5656 43.176 81.3903 47.2977 85.1132 48.8325L86.2541 49.2987L85.6385 50.3629L85.634 50.3699C85.5279 50.5415 84.144 52.7772 81.0755 52.7772C79.6997 52.7728 78.6346 52.4336 77.84 52.0224C77.7188 53.0324 77.4694 54.3285 76.982 55.7772C75.8574 59.099 76.8863 61.437 76.9419 61.5635L76.9429 61.5661L77.5006 62.735L76.2385 63.0676L76.2328 63.069C76.1229 63.096 75.3627 63.2831 74.4577 63.2831C74.0271 63.2831 73.6309 63.2369 73.268 63.1528C72.3107 62.9284 71.5774 62.5064 71.0086 62.0257C70.6637 63.0744 70.0771 64.2588 69.0532 65.3076C67.3202 67.0809 64.8194 67.9749 61.5541 67.9749L59.5774 67.9484L60.6704 66.2908C60.678 66.281 61.3092 65.3076 61.5062 62.6778C61.7388 59.5273 62.9386 57.6876 64.1205 56.6314C63.7823 56.4699 63.4604 56.2722 63.1935 56.0312C61.4527 54.4778 61.5261 52.65 61.5363 52.4512L61.6118 51.4656L62.6014 51.4501C65.2647 51.4069 67.1165 50.6192 68.6214 48.8877C68.9731 48.4811 69.2557 48.0755 69.4828 47.68C68.6536 47.9307 67.6331 48.1176 66.4366 48.1176C66.1194 48.1176 65.781 48.0988 65.4271 48.0755C63.5603 47.9166 62.2982 46.8139 62.1556 46.6893L61.1199 45.7452L62.302 44.9916C64.9352 43.3142 67.6475 40.1331 65.5685 34.5552C64.2252 30.9287 61.1145 27.6436 56.0726 24.4955C54.3687 23.4259 53.4282 22.1674 53.4282 20.9652C53.4282 19.1077 54.9952 18.3751 56.1417 17.8525L56.2478 17.8021C56.7717 17.5537 57.2992 17.3037 57.5652 16.9984C58.4509 15.9774 57.7042 14.0216 56.8795 12.9619L55.8301 11.5873L57.5318 11.2514C57.5391 11.2508 57.555 11.2484 57.5791 11.2449C57.7193 11.2242 58.1357 11.163 58.7193 11.163C59.9971 11.163 62.441 11.4702 64.4343 13.5188C66.0927 15.2227 66.3075 17.037 66.2206 18.2094C66.3456 18.2198 66.4733 18.2261 66.6047 18.2326L66.7137 18.2381H66.8996C69.3618 18.2381 70.5462 15.6739 70.6213 15.5116L70.6234 15.5067L71.3281 13.8647L72.4554 15.2492C72.5279 15.3332 74.1863 17.3906 73.7877 19.9696C73.5162 21.6845 72.4332 23.1619 70.5702 24.3774C70.371 24.5065 70.2251 24.6171 70.1237 24.7089C73.6233 25.839 75.5841 28.3132 77.6472 30.9165L77.6664 30.9409L77.9658 31.312C81.1333 35.3089 85.6018 35.4269 86.1371 35.4269H86.1428L87.6609 35.3795L87.2078 36.8214ZM77.1944 23.5869C77.949 23.5869 78.8284 23.842 79.6597 24.6952C82.2697 27.3251 84.6971 27.472 84.6971 27.472C84.2563 28.4421 82.9774 29.293 81.6529 29.293C81.3469 29.293 81.0386 29.2465 80.7347 29.1416C79.9079 28.8648 79.3257 28.1492 78.6304 27.2948C77.8154 26.293 76.8451 25.1006 75.1433 24.2012C75.1433 24.2012 76.0225 23.5869 77.1944 23.5869ZM74.6292 25.1515C76.1393 25.9505 77.0198 27.0211 77.791 27.9703L77.8216 28.0076C78.5695 28.9212 79.2831 29.7929 80.3953 30.1593C80.7949 30.2952 81.22 30.3602 81.6529 30.3602C83.3414 30.3602 85.0398 29.3338 85.683 27.9116L86.3308 26.4873L84.7639 26.3946C84.6902 26.3935 82.6747 26.2101 80.4344 23.9371C79.5117 23.0035 78.3954 22.514 77.1944 22.514C75.7802 22.514 74.7182 23.1898 74.5349 23.3065L74.5178 23.3173L73.0788 24.3239L74.6292 25.1515ZM75.3411 39.4122V39.3568C76.7202 46.5071 79.7876 48.3424 79.7876 48.3424C77.3467 47.1479 75.8074 43.979 75.4347 42.8375C75.0297 49.1226 71.941 53.4828 68.3284 57.6817C66.4541 59.8585 65.8009 61.9745 65.8009 61.9745C65.8009 61.9745 66.1625 59.5766 67.7818 57.6254C71.1521 53.6053 74.3563 48.6011 74.5932 42.8155C74.7559 38.7757 73.7119 35.5018 72.0791 32.8023C72.9916 35.6133 72.8626 39.0552 69.7618 42.2686C69.7618 42.2686 75.9344 34.926 67.3067 27.3978C64.8554 25.3642 62.239 23.8826 60.2318 22.746C59.4111 22.2813 58.6923 21.8742 58.1281 21.5106C65.1564 23.7869 68.5887 21.2808 68.5887 21.2808C66.3451 23.2123 63.4391 23.1791 61.6362 22.9007C62.1258 23.1371 62.6333 23.3846 63.1809 23.6763C69.1074 26.8718 74.4331 32.1305 75.3411 39.4122ZM28.3969 66.903C19.404 66.903 19.6333 59.2468 19.6333 59.2468C19.6333 59.2468 19.0056 61.514 16.5003 62.1053C16.1998 62.1837 15.8793 62.2147 15.5665 62.2147C14.7596 62.2147 14.0607 62.0257 14.0607 62.0257C14.0607 62.0257 15.3684 59.2767 14.0652 55.4279C12.9878 52.2357 13.1625 49.8688 13.1625 49.8688C13.1625 49.8688 11.9538 51.6877 8.94773 51.7053H8.91768C6.41797 51.7053 5.32613 49.8214 5.32613 49.8214C11.3172 47.3507 10.7307 39.3773 10.7307 39.3773C10.7307 39.3773 9.95163 39.954 8.43243 40.0082C8.37677 40.0115 8.32782 40.0115 8.2755 40.0115C4.96999 40.0115 3.85034 36.4989 3.85034 36.4989H3.91713C4.52814 36.4989 9.433 36.3562 12.9032 31.9761L13.1979 31.6045C15.3559 28.8794 17.2244 26.5197 20.7585 25.5663L21.1291 25.501L21.2082 25.1342C21.3106 24.5739 20.9244 24.0469 20.0462 23.4801C14.9433 20.1619 18.409 15.9299 18.409 15.9299C18.409 15.9299 19.8581 19.3133 23.128 19.3133C23.1668 19.3133 23.2045 19.3125 23.2429 19.3116C23.2826 19.3108 23.3232 19.31 23.3662 19.31L23.454 19.3053C23.7912 19.2874 24.125 19.2697 24.4546 19.2006L25.0557 19.0845C25.0557 19.0845 24.1219 16.5729 26.3723 14.268C28.0629 12.5277 30.1175 12.2315 31.3051 12.2315C31.9071 12.2315 32.2811 12.3078 32.2811 12.3078C31.157 13.7708 30.3423 16.1995 31.6423 17.6978C32.0779 18.1961 32.7559 18.5108 33.4238 18.8206C34.4811 19.3112 35.5121 19.7895 35.5121 20.9652C35.5121 21.7795 34.7473 22.7276 33.3762 23.5784C29.2438 26.1618 25.1448 29.5906 23.4386 34.1817C21.3106 39.9098 23.7124 43.7121 27.1414 45.8931C27.1414 45.8931 26.063 46.8745 24.5037 47.0003C24.1865 47.0303 23.8793 47.0447 23.5844 47.0447C20.2989 47.0447 18.5983 45.5131 18.5983 45.5131C18.5983 45.5131 18.881 47.6291 20.5816 49.5949C22.1709 51.4069 24.241 52.4766 27.4052 52.5207C27.4052 52.5207 27.5054 53.9771 26.1064 55.2378C25.2083 56.0356 23.1392 56.2931 23.1392 56.2931C23.1392 56.2931 27.0168 57.0733 27.4431 62.7538C27.6745 65.8333 28.4613 66.903 28.4613 66.903H28.3969ZM29.3528 66.2908L29.3492 66.2847C29.2983 66.1976 28.7135 65.1989 28.5203 62.6778C28.2856 59.5264 27.0857 57.6876 25.9003 56.6314C26.2433 56.4699 26.5604 56.2722 26.8276 56.0312C28.5681 54.4778 28.4947 52.65 28.4826 52.4512L28.4158 51.4656L27.4185 51.4501C24.763 51.4069 22.9077 50.6192 21.4029 48.8877C21.0535 48.4811 20.7708 48.0755 20.5415 47.68C21.3696 47.9307 22.3835 48.1176 23.5844 48.1176C23.9061 48.1176 24.241 48.0988 24.5948 48.0755C26.4647 47.9164 27.7302 46.8113 27.8704 46.6888L28.9054 45.7452L27.7245 44.9916C25.0813 43.3142 22.3801 40.1331 24.4546 34.5552C25.7992 30.9287 28.9054 27.6436 33.9551 24.4955C35.6589 23.4259 36.5916 22.1674 36.5916 20.9652C36.5916 19.1077 35.0289 18.3751 33.8826 17.8525L33.7803 17.8041C33.254 17.555 32.7247 17.3045 32.4592 16.9984C31.571 15.9774 32.319 14.0216 33.1437 12.9619L34.2009 11.5873L32.4893 11.2514L32.4526 11.2461C32.3242 11.2266 31.9057 11.163 31.3051 11.163C30.0273 11.163 27.5876 11.4702 25.5955 13.5188C23.935 15.2238 23.7169 17.037 23.8024 18.2094C23.6757 18.2199 23.5483 18.2262 23.4163 18.2328L23.3106 18.2381H23.128C20.6283 18.2381 19.4475 15.6094 19.4018 15.5067L18.6995 13.8647L17.561 15.2492L17.5527 15.2599C17.4113 15.4421 15.8454 17.4586 16.2399 19.9696C16.5081 21.6845 17.5932 23.1619 19.4553 24.3774C19.6578 24.5065 19.7991 24.6171 19.9004 24.7089C16.3995 25.8381 14.4412 28.3092 12.38 30.91L12.3556 30.9409L12.0573 31.312C8.8943 35.3089 4.41573 35.4269 3.8804 35.4269L2.35452 35.3795L2.81864 36.8214C2.87316 36.9972 4.22318 41.0865 8.2755 41.0865L8.47028 41.0811C8.89986 41.0689 9.28386 41.0105 9.62552 40.9452C9.45857 43.175 8.63164 47.2977 4.90765 48.8325L3.77022 49.2987L4.38568 50.3629L4.38698 50.365C4.46246 50.4896 5.84704 52.7772 8.95664 52.7772C10.3245 52.7728 11.3885 52.4336 12.1842 52.0235C12.3044 53.0324 12.5549 54.3285 13.0434 55.7772C14.1597 59.0746 13.1521 61.4023 13.0837 61.5605L13.0813 61.5661L12.5215 62.735L13.7858 63.0676C13.8693 63.0888 14.6472 63.2831 15.5665 63.2831C15.9962 63.2831 16.3935 63.2369 16.753 63.1528C17.7112 62.9284 18.4525 62.5064 19.0156 62.0257C19.3584 63.0744 19.9472 64.2588 20.9689 65.3076C22.7062 67.0809 25.2047 67.9749 28.4691 67.9749L30.447 67.9484L29.3528 66.2908ZM12.8301 23.5892C12.0711 23.5892 11.1929 23.8456 10.3582 24.6976C7.75165 27.3286 5.3254 27.4755 5.3254 27.4755C5.7628 28.4456 7.0438 29.2953 8.36714 29.2953C8.6743 29.2953 8.98259 29.2512 9.27976 29.1463C10.1085 28.8686 10.6933 28.1515 11.3912 27.296C12.208 26.2944 13.1796 25.1032 14.878 24.2047C14.878 24.2047 13.9954 23.5892 12.8301 23.5892ZM9.6259 30.1638C9.22521 30.2997 8.8012 30.3638 8.36714 30.3638C6.67987 30.3638 4.98482 29.3373 4.33819 27.9163L3.69602 26.4909L5.26083 26.3993C5.33319 26.397 7.3432 26.2146 9.58694 23.9406C10.5085 23.007 11.6259 22.5186 12.8301 22.5186C14.2421 22.5186 15.2983 23.1912 15.4826 23.3086L15.5001 23.3197L16.9436 24.3274L15.3888 25.1551C13.889 25.9477 13.0204 27.0094 12.2491 27.952L12.2314 27.9738L12.2085 28.0018C11.4589 28.9198 10.7442 29.7953 9.6259 30.1638ZM15.4323 42.8155C15.2642 38.7757 16.3093 35.5018 17.9442 32.8023C17.0327 35.6133 17.1562 39.0552 20.2614 42.2695C20.2614 42.2695 14.0867 34.926 22.72 27.3978C25.1713 25.3628 27.787 23.8808 29.7938 22.7439C30.6123 22.2801 31.3297 21.8737 31.8929 21.5106C24.867 23.7869 21.4356 21.2808 21.4356 21.2808C23.6771 23.2123 26.5841 23.1791 28.386 22.9007L28.2995 22.9426C27.8382 23.1663 27.3545 23.4008 26.8425 23.6763C20.9136 26.8718 15.5914 32.1305 14.6788 39.4122V39.3568C13.302 46.5071 10.2369 48.3424 10.2369 48.3424C12.6754 47.1479 14.2113 43.979 14.5853 42.8375C14.9926 49.1226 18.0811 53.4828 21.6927 57.6817C23.5669 59.8585 24.2268 61.9745 24.2268 61.9745C24.2268 61.9745 23.8606 59.5766 22.2336 57.6254C18.8691 53.6065 15.6682 48.6011 15.4323 42.8155ZM39.0711 13.5688L45.0087 15.8981L50.9487 13.5688C50.4457 12.3821 48.1173 11.3722 45.0087 11.3688C41.9047 11.3722 39.5763 12.3821 39.0711 13.5688ZM45.445 25.2825L49.436 23.1942L50.8606 15.002L45.445 16.8274V25.2825ZM53.7333 26.4904L51.9079 25.4384L50.0326 24.372L45.0232 27.0802L45.0087 27.0692L44.9997 27.0802L39.9893 24.372L38.114 25.4384L36.2854 26.4904H36.2643L35.8013 26.7566C36.833 27.0394 37.6176 27.5455 38.2819 28.2184C38.2928 28.2287 38.3028 28.2398 38.3127 28.251C38.3274 28.2675 38.3426 28.2841 38.3611 28.2992C38.5079 28.4559 38.6526 28.6261 38.794 28.7986L38.7999 28.8057C38.831 28.8425 38.8594 28.8766 38.8909 28.9202C39.02 29.0904 39.149 29.2716 39.276 29.4561C39.2916 29.4767 39.307 29.4997 39.3229 29.5235C39.335 29.5418 39.3475 29.5605 39.3605 29.5786C39.5107 29.8051 39.6533 30.0384 39.7944 30.2793C41.0923 32.5025 43.1668 33.8306 45.0087 33.8339C46.853 33.8306 48.9263 32.5025 50.2264 30.2793C50.3699 30.0316 50.5158 29.7931 50.6659 29.5688C50.6882 29.5366 50.7126 29.5035 50.7339 29.4704C50.8606 29.2793 50.9954 29.0937 51.1356 28.9134C51.1536 28.8897 51.1714 28.8674 51.1879 28.8461L51.2202 28.8052C51.3649 28.6261 51.5153 28.4538 51.6666 28.2935C51.6773 28.2834 51.6872 28.2731 51.6969 28.2635C51.7109 28.2492 51.7244 28.2353 51.7388 28.2229C52.3999 27.5511 53.1869 27.0394 54.2174 26.7566L53.7589 26.4904H53.7333ZM58.3609 36.3421C58.3609 35.1896 58.6994 34.0306 59.1077 32.9598H49.7432C48.3087 34.3721 46.9331 34.8957 45.7032 35.0173C45.4805 35.0394 45.2548 35.0537 45.0265 35.0537H44.9955C44.7662 35.0537 44.5391 35.0394 44.3164 35.0173C44.1016 34.9986 43.8769 34.9643 43.6509 34.9124C43.5709 35.2316 43.4683 35.8935 43.7601 36.5256C44.0216 37.0958 44.5502 37.5211 45.3204 37.8042L45.5798 37.9035L45.5843 38.1809C45.5843 38.2638 45.6454 40.0636 47.6187 40.5631L47.6955 40.4842C47.9866 40.1856 48.2506 39.9143 48.4512 39.6859C48.0484 38.7421 48.2587 37.7809 48.8451 37.308C48.8195 37.4073 48.5626 39.7688 50.4668 40.6459L50.7818 40.7931L50.6882 41.1266C50.6581 41.225 50.0215 43.51 52.3298 44.3599L52.7371 44.5134L52.5569 44.9056C52.5157 44.9951 51.6131 47.0658 53.7432 48.2438H58.3643V44.6019C56.7215 44.4017 56.025 43.0903 55.8457 42.162C55.0821 42.0327 54.4912 41.7036 54.0838 41.1698C53.2184 40.0368 53.7927 38.9895 53.9322 38.7351C53.9488 38.7048 53.9592 38.6858 53.9604 38.6792C53.9592 38.6902 53.9604 39.9256 54.7283 40.6879C55.1089 41.0548 55.5608 41.34 56.2407 41.4053L56.578 41.4351L56.6069 41.7754C56.6135 41.8482 56.7985 43.5222 58.3643 43.783L58.3609 36.3421ZM53.8501 62.7167L53.3337 65.3862C56.4143 64.6337 58.3699 62.3254 58.3699 59.0194L58.3643 49.0471H31.6587V59.0194C31.6587 63.0989 34.6324 65.6526 39.0199 65.6526C42.6848 65.6526 43.6509 65.7939 45.0144 67.1365C45.9537 66.2061 46.7306 65.858 48.3264 65.7298L48.3631 65.574L49.2068 62.9928C49.1589 62.9331 47.7833 61.3819 47.7833 61.3819C47.2369 61.5619 46.7772 61.5908 46.0094 61.5908C45.2179 61.5908 44.3264 61.5011 43.3594 61.3199C43.2613 61.2978 43.1713 61.2889 43.0799 61.2889C42.961 61.2889 42.9541 61.2978 42.9219 61.3565L42.7549 61.6293L42.4489 62.132L41.8713 62.0006L39.3091 61.4006L38.9577 61.9762L39.0098 62.0381L39.3214 62.3797L39.1824 62.8238C38.9953 63.4049 38.3833 64.0847 38.1962 64.2701L37.5563 64.9531L36.9732 64.2215L36.5345 63.6746C36.0727 63.162 35.9671 62.3797 36.2264 61.5565C36.2198 61.5619 36.2096 61.5652 36.1996 61.5685L35.4773 61.8647L35.1523 61.1631L34.9242 60.6669C34.5301 59.7907 34.6748 58.5122 35.7354 57.7388L37.7978 56.583L39.761 56.9654C39.7819 56.8823 39.8075 56.7044 39.8345 56.517C39.8681 56.2826 39.9038 56.0333 39.9346 55.9387C39.9211 55.9373 39.9081 55.9352 39.8951 55.9331C39.8712 55.9293 39.8477 55.9256 39.8224 55.9256L38.6914 56.3443L37.5998 55.5983C37.5998 55.5983 37.1735 55.1885 37.5596 54.7818L38.6159 53.1929L35.9391 49.8571L40.0538 51.5344L40.3266 51.1985L40.8818 50.5378L41.513 51.1321C41.6911 51.3034 41.7934 51.5133 41.8424 51.7233C42.9754 52.162 45.0087 53.4549 45.188 55.5575L44.5523 55.8105V55.8249C44.6994 55.9962 44.8183 56.0659 44.8553 56.0737L47.7933 56.361C47.8414 56.3516 47.8977 56.3342 47.96 56.315C47.9932 56.3046 48.0285 56.2938 48.0649 56.2835C48.4299 56.1607 48.9754 55.9831 49.6264 55.9831C50.1563 55.9831 50.6659 56.1023 51.16 56.3309C51.3405 56.2635 51.5631 56.2128 51.8213 56.1962L51.9615 56.1929C53.5324 56.1929 54.3159 57.3564 54.9424 58.2861L54.9443 58.289C55.0487 58.4514 55.1513 58.6018 55.2602 58.753C55.8102 59.5222 56.5268 60.646 56.5557 60.6955L56.8786 61.1983L56.4835 61.6558C56.1784 62.0072 55.7187 62.4182 54.9308 62.4182C54.7695 62.4182 54.5926 62.3994 54.3988 62.363C54.2318 62.332 54.0793 62.2834 53.9325 62.2226C53.9159 62.3365 53.8934 62.4667 53.8718 62.5904L53.8501 62.7167ZM37.0243 60.0923L36.8853 59.7475C36.7861 59.5222 36.7996 59.279 36.9909 59.1464L38.114 58.3763L39.9903 58.7342C39.9903 58.7342 39.6509 58.3122 39.6843 57.7477L37.8923 57.3707L36.2029 58.3918C35.4773 58.93 35.4261 59.8095 35.6653 60.331L35.8903 60.8204C35.8903 60.8204 36.9319 60.3939 37.0243 60.0923ZM52.4757 65.5486L53.0509 62.5663C53.1156 62.2405 53.1758 61.8039 53.1758 61.8039C53.1417 61.7694 53.1002 61.729 53.0531 61.6835C52.794 61.4319 52.3679 61.0183 52.1116 60.531C51.8968 60.1219 51.857 59.8156 51.8118 59.4694C51.7715 59.1593 51.7268 58.8173 51.5484 58.3411C51.5484 58.3411 51.6642 58.1068 51.9302 58.1068C51.9726 58.1068 52.0171 58.111 52.0617 58.1232C52.4124 58.2223 52.6519 58.8124 52.9221 59.4788C53.288 60.3808 53.7108 61.4227 54.5435 61.5753C54.6859 61.6039 54.8161 61.6128 54.9308 61.6128C55.3504 61.6128 55.5998 61.4359 55.8679 61.1199C55.8679 61.1199 55.1401 59.9841 54.5959 59.2173C54.481 59.0579 54.3704 58.8934 54.26 58.7293C53.6738 57.8582 53.0967 57.0006 51.9615 57.0006C51.9302 57.0006 51.8914 57.0006 51.858 57.005C51.4151 57.0271 51.1401 57.2426 51.1401 57.2426C50.5958 56.9022 50.0862 56.7863 49.6264 56.7863C49.108 56.7863 48.6601 56.9318 48.3153 57.0438C48.0998 57.1139 47.9245 57.1707 47.7978 57.1707H47.7857L44.7773 56.8748C44.3065 56.8316 43.9337 56.361 43.8001 56.1762C43.7667 56.1267 43.749 56.0957 43.749 56.0957C43.749 56.0152 43.749 55.9321 43.7433 55.857C43.6419 53.415 41.7365 52.3698 41.0577 52.3531C41.0577 52.3531 41.1378 51.8891 40.9554 51.7111L40.2897 52.5111L38.114 51.425L39.6677 53.2284L38.3521 54.6935C38.1863 54.8613 38.2073 55.0869 38.2765 55.182L38.844 55.6812L39.5652 55.247C39.6009 55.2204 39.6677 55.2127 39.7466 55.2127C39.839 55.2127 39.9524 55.2237 40.0746 55.2355C40.2165 55.2488 40.3695 55.2636 40.5135 55.2636C40.8074 55.2636 41.0611 55.2017 41.0923 54.9278C41.0651 55.2014 40.9687 55.5357 40.8631 55.9033C40.6184 56.7529 40.3228 57.7798 40.7105 58.6436L41.1233 59.5785L38.4634 59.1973L37.2181 61.2847C36.833 61.9797 36.7728 62.731 37.1423 63.1409L37.6086 63.7199C37.6086 63.7199 38.2621 63.0327 38.4077 62.5785L38.1962 62.3487C38.0181 62.1541 38.0271 61.9797 38.1363 61.7708L38.9174 60.4869L42.0572 61.2204L42.2242 60.9399C42.4366 60.5873 42.7438 60.4836 43.0799 60.4836C43.2192 60.4836 43.3606 60.5 43.5086 60.5233C44.0917 60.6383 45.05 60.7897 46.0094 60.7897C47.0622 60.7897 48.1083 60.604 48.6637 59.9841C49.247 60.8425 50.1366 61.3305 50.841 61.7171C51.511 62.0851 52.0138 62.3609 51.9257 62.7763L51.3182 65.6425C51.7187 65.627 52.1062 65.6005 52.4757 65.5486ZM49.1691 65.6812C49.504 65.6679 49.8768 65.6625 50.282 65.6625C50.282 65.6625 51.2491 62.8569 51.3038 62.7686C50.7628 62.532 49.6376 61.9386 49.2034 61.668C49.297 61.806 49.4332 61.9501 49.5701 62.0949C49.8552 62.3968 50.143 62.701 50.0504 62.9564L49.1691 65.6812ZM37.3047 36.371L37.179 41.1079L37.7221 41.1907L39.0477 36.6439L38.3755 35.2459L37.3047 36.371ZM38.6604 43.321C38.439 43.183 38.124 42.9399 37.9492 42.5753C37.7488 42.1554 37.4618 41.9587 37.0421 41.9587C36.4957 41.9587 35.9126 42.2847 35.6611 42.4371C35.4607 43.6062 36.3287 44.666 36.9109 44.8791C37.4371 45.0692 38.0783 45.1089 38.4065 45.1089L38.4184 45.0723C38.4288 45.0397 38.4411 45.0021 38.4522 44.9587C38.4811 44.8627 38.5079 44.7665 38.5302 44.6615C38.6204 44.193 38.6526 43.6637 38.6604 43.321ZM46.6358 46.5222C47.4061 45.9886 49.5274 44.4505 50.3509 43.8482C49.7522 42.9798 49.6954 41.9498 49.8289 41.225C49.436 40.9764 49.1378 40.6924 48.8986 40.3941C48.0195 41.3461 46.4007 42.9126 45.9452 43.3532L45.8268 43.4682L45.7077 43.5886L39.4818 43.4891C39.4773 44.1024 39.3771 44.6228 39.2802 45.0052C39.2648 45.0692 39.2468 45.1354 39.2291 45.2007L46.6358 46.5222ZM42.8684 34.6847C42.0404 34.3843 41.1691 33.8383 40.2785 32.9598H30.9176C31.3193 34.0306 31.6587 35.1896 31.6587 36.3421V48.2438H52.4311C51.3928 47.1796 51.4082 45.8328 51.6721 44.9587C51.3706 44.815 51.1212 44.6428 50.8973 44.4515C50.0862 45.0448 47.6097 46.836 46.9608 47.2869L46.8218 47.3787L38.6716 45.9156H38.5046C38.3087 45.9156 38.0226 45.9079 37.7109 45.8715C37.6221 46.236 37.3047 46.4858 36.9409 46.4858C36.9007 46.4858 36.854 46.4825 36.8107 46.4747C36.5992 46.4372 36.4133 46.3311 36.2908 46.1532C36.1617 45.9797 36.1127 45.772 36.1473 45.5586L36.1774 45.384C35.3382 44.7963 34.5623 43.4825 34.9053 42.0979L34.9387 41.951L35.0578 41.8681C35.0744 41.8547 35.2146 41.7599 35.4261 41.6404L34.834 41.551C34.6126 41.5123 34.4633 41.3057 34.4967 41.0891C34.5358 40.8692 34.7438 40.7112 34.9619 40.7532L36.3732 40.9764L36.5023 36.0428L38.6024 33.8383L39.9124 36.5763L38.5302 41.3212L39.7767 41.5167C39.996 41.551 40.1452 41.7566 40.1118 41.9787C40.0793 42.1787 39.9091 42.3134 39.7132 42.3134C39.6921 42.3134 39.6698 42.3134 39.6488 42.3101L38.6348 42.1477C38.641 42.1622 38.6488 42.1737 38.6566 42.185C38.6654 42.1977 38.6739 42.2103 38.6803 42.2272C38.7874 42.4493 39.0287 42.6073 39.1689 42.677L45.3815 42.7741C45.6454 42.519 46.2976 41.8857 46.9686 41.214C45.4384 40.6382 44.8842 39.331 44.7906 38.4616C43.9358 38.1002 43.3449 37.5586 43.0188 36.8559C42.6204 35.9841 42.7616 35.1091 42.8684 34.6847ZM44.5758 16.8274L39.1557 15.002L40.5848 23.1942L44.5758 25.2825V16.8274ZM45.0211 10.0628C48.8818 10.0628 52.38 11.9191 52.38 13.9821L52.3054 14.4893L50.7628 23.2749L52.3054 24.1676L56.3177 26.4904H56.303C56.303 26.4904 57.2056 26.95 57.6163 27.2328C59.1513 28.2848 59.4717 29.8197 58.5857 30.4539C58.3643 29.2019 57.3693 27.8947 55.5051 27.8947C54.1606 27.8947 53.1391 28.5787 52.3054 29.6152C52.096 29.876 51.8959 30.1544 51.7043 30.4539C51.4729 30.8318 51.2403 31.1632 51.0098 31.4824H61.3338C60.5714 32.9964 59.8512 34.5998 59.8512 36.3421V59.0194C59.8512 64.5088 55.6053 67.1288 51.0032 67.1288C50.7339 67.1288 50.4824 67.1278 50.2465 67.1269C47.3656 67.1163 46.8187 67.1145 45.0144 68.9077C43.2019 67.1145 42.6557 67.1163 39.7764 67.1269C39.5405 67.1278 39.289 67.1288 39.0199 67.1288C34.4212 67.1288 30.1696 64.5088 30.1696 59.0194V36.3421C30.1696 34.5998 29.4485 32.9964 28.6894 31.4824H39.0098C38.7796 31.1632 38.5458 30.8318 38.3142 30.4539C38.1261 30.1544 37.9248 29.876 37.7109 29.6152C36.8853 28.5832 35.8602 27.8947 34.5169 27.8947C32.6503 27.8947 31.6542 29.2019 31.436 30.4539C30.5502 29.8197 30.874 28.2848 32.4 27.2328C32.8173 26.95 33.7187 26.4904 33.7187 26.4904H33.7043L37.7109 24.1676L39.2592 23.2749L37.7178 14.4893L37.6408 13.9821C37.6408 11.9191 41.139 10.0628 44.9997 10.0628H45.0211ZM42.0797 19.5177C42.6839 19.9933 43.0581 20.1123 43.1356 20.1369L43.1481 20.141L43.4129 20.2624V18.9033L40.9478 17.8746C40.9478 17.8746 40.9689 18.6624 42.0797 19.5177ZM42.9785 28.0795V29.5237C43.4816 28.9169 44.4486 29.0406 44.4486 29.0406V31.1226C44.4486 31.1226 44.4164 32.1469 44.0491 32.5898H46.147C45.7844 32.1469 45.7486 31.1226 45.7486 31.1226V29.0406C45.7486 29.0406 46.7192 28.9169 47.2178 29.5237V28.0795H42.9785ZM49.0751 17.8746C49.0751 17.8746 49.0538 18.6624 47.9397 19.5177C47.3336 19.9955 46.9598 20.1134 46.8841 20.1373C46.8762 20.1398 46.8715 20.1412 46.8701 20.142L46.6098 20.2624V18.9033L49.0751 17.8746ZM39.9214 53.6243C39.9337 53.4758 40.0594 53.3584 40.212 53.3727C40.3678 53.3784 40.4768 53.5145 40.4723 53.6598C40.4578 53.8117 40.3276 53.9248 40.1795 53.9126C40.0249 53.9093 39.9114 53.7783 39.9214 53.6243Z" fill="black"/>
</svg>
