<svg width="484" height="304" viewBox="0 0 484 304" fill="none" xmlns="http://www.w3.org/2000/svg">
<g clip-path="url(#clip0_112_155)">
<path d="M484 124.856H483.183V102.479C483.183 100.778 482.847 99.0939 482.196 97.5226C481.545 95.9512 480.59 94.5235 479.387 93.3209C478.183 92.1183 476.754 91.1643 475.182 90.5134C473.61 89.8626 471.924 89.5276 470.222 89.5276H422.781C421.079 89.5276 419.393 89.8626 417.821 90.5134C416.249 91.1643 414.82 92.1183 413.616 93.3209C412.413 94.5235 411.458 95.9512 410.807 97.5226C410.156 99.0939 409.82 100.778 409.82 102.479V225.241C409.82 226.941 410.156 228.626 410.807 230.197C411.458 231.768 412.413 233.196 413.616 234.399C414.82 235.601 416.249 236.555 417.821 237.206C419.393 237.857 421.079 238.192 422.781 238.192H470.222C471.924 238.192 473.61 237.857 475.182 237.206C476.754 236.555 478.183 235.601 479.387 234.399C480.59 233.196 481.545 231.768 482.196 230.197C482.847 228.626 483.183 226.941 483.183 225.241V140.784H484V124.856Z" fill="#3F3D56"/>
<path d="M480.425 103.24V225.823C480.425 228.389 479.405 230.849 477.59 232.663C475.774 234.477 473.312 235.496 470.745 235.496H423.075C421.804 235.496 420.546 235.246 419.371 234.76C418.197 234.273 417.131 233.561 416.232 232.662C415.334 231.764 414.621 230.698 414.135 229.524C413.649 228.351 413.399 227.093 413.399 225.823V103.24C413.399 100.675 414.419 98.2162 416.233 96.4029C418.048 94.5897 420.509 93.571 423.075 93.5709H428.858C428.575 94.2686 428.467 95.0252 428.544 95.7743C428.621 96.5234 428.882 97.242 429.302 97.867C429.723 98.492 430.29 99.0043 430.955 99.3587C431.62 99.7131 432.362 99.8989 433.116 99.8996H460.295C461.05 99.9011 461.793 99.7167 462.459 99.3629C463.125 99.0091 463.694 98.4967 464.115 97.871C464.535 97.2454 464.796 96.5257 464.872 95.7757C464.948 95.0257 464.839 94.2685 464.552 93.5709H470.745C473.311 93.5708 475.773 94.5893 477.588 96.4025C479.404 98.2156 480.424 100.675 480.425 103.24Z" fill="#D0CDE1"/>
<path d="M471.4 156.33H415.985V171.273H471.4V156.33Z" fill="#1373E5"/>
<path d="M473.599 168.636H419.943C419.594 168.636 419.258 168.497 419.011 168.25C418.764 168.003 418.624 167.667 418.624 167.318V154.133C418.624 153.783 418.764 153.448 419.011 153.201C419.258 152.954 419.594 152.815 419.943 152.815H473.599C473.949 152.815 474.284 152.954 474.532 153.201C474.779 153.448 474.918 153.783 474.918 154.133V167.318C474.918 167.667 474.779 168.003 474.532 168.25C474.284 168.497 473.949 168.636 473.599 168.636ZM419.943 153.694C419.827 153.694 419.715 153.74 419.633 153.822C419.55 153.905 419.504 154.017 419.504 154.133V167.318C419.504 167.434 419.55 167.546 419.633 167.629C419.715 167.711 419.827 167.757 419.943 167.757H473.599C473.716 167.757 473.827 167.711 473.91 167.629C473.992 167.546 474.039 167.434 474.039 167.318V154.133C474.039 154.017 473.992 153.905 473.91 153.822C473.827 153.74 473.716 153.694 473.599 153.694H419.943Z" fill="#3F3D56"/>
<path d="M429.179 164.681H422.143V165.56H429.179V164.681Z" fill="#3F3D56"/>
<path d="M438.855 164.681H431.818V165.56H438.855V164.681Z" fill="#3F3D56"/>
<path d="M448.53 164.681H441.494V165.56H448.53V164.681Z" fill="#3F3D56"/>
<path d="M458.206 164.681H451.169V165.56H458.206V164.681Z" fill="#3F3D56"/>
<path d="M467.882 164.681H460.845V165.56H467.882V164.681Z" fill="#3F3D56"/>
<path opacity="0.1" d="M480.425 213.359V225.823C480.425 228.388 479.405 230.849 477.59 232.663C475.774 234.477 473.312 235.496 470.745 235.496H423.075C421.804 235.496 420.546 235.246 419.371 234.76C418.197 234.273 417.131 233.561 416.232 232.662C415.334 231.764 414.621 230.698 414.135 229.524C413.649 228.351 413.399 227.093 413.399 225.823V168.487L480.425 213.359Z" fill="black"/>
<path d="M251.94 202.038H43.9146V304H251.94V202.038Z" fill="#D0CDE1"/>
<path opacity="0.1" d="M199.054 304H44.7942C44.5611 303.999 44.3377 303.906 44.1729 303.742C44.0081 303.577 43.9152 303.354 43.9146 303.121V202.917C43.9152 202.684 44.0081 202.461 44.1729 202.296C44.3377 202.131 44.5611 202.038 44.7942 202.038H46.7469L199.054 304Z" fill="black"/>
<path d="M462.604 215.662H140.231V216.541H462.604V215.662Z" fill="#3F3D56"/>
<path d="M242.151 1.89762H150.017V0H108.24V1.89762H15.7268C14.9084 1.89762 14.0979 2.05871 13.3418 2.37168C12.5857 2.68466 11.8987 3.14339 11.32 3.7217C10.7413 4.3 10.2822 4.98655 9.96902 5.74214C9.65583 6.49773 9.49463 7.30756 9.49463 8.12541V134.196C9.49463 135.848 10.1512 137.432 11.32 138.6C12.4887 139.768 14.0739 140.424 15.7268 140.424H242.151C243.803 140.424 245.389 139.768 246.557 138.6C247.726 137.432 248.383 135.848 248.383 134.196V8.12541C248.383 7.30756 248.222 6.49773 247.908 5.74214C247.595 4.98655 247.136 4.3 246.557 3.7217C245.979 3.14339 245.292 2.68466 244.535 2.37168C243.779 2.05871 242.969 1.89762 242.151 1.89762Z" fill="#3F3D56"/>
<path d="M240.026 12.9021H17.8521V138.149H240.026V12.9021Z" fill="#D0CDE1"/>
<path d="M128.749 9.48814C130.007 9.48814 131.028 8.46862 131.028 7.21099C131.028 5.95335 130.007 4.93384 128.749 4.93384C127.49 4.93384 126.47 5.95335 126.47 7.21099C126.47 8.46862 127.49 9.48814 128.749 9.48814Z" fill="#1373E5"/>
<path d="M83.9364 59.6422H78.6588C78.3089 59.6418 77.9736 59.5028 77.7262 59.2556C77.4789 59.0084 77.3397 58.6733 77.3394 58.3237V53.0498C77.3397 52.7002 77.4789 52.3651 77.7262 52.1179C77.9736 51.8707 78.3089 51.7317 78.6588 51.7313H83.9364C84.2862 51.7317 84.6215 51.8707 84.8689 52.1179C85.1162 52.3651 85.2554 52.7002 85.2558 53.0498V58.3237C85.2554 58.6733 85.1162 59.0084 84.8689 59.2556C84.6215 59.5028 84.2862 59.6418 83.9364 59.6422ZM78.6588 52.6103C78.5422 52.6105 78.4304 52.6568 78.3479 52.7392C78.2655 52.8216 78.2191 52.9333 78.219 53.0498V58.3237C78.2191 58.4402 78.2655 58.5519 78.3479 58.6343C78.4304 58.7167 78.5422 58.7631 78.6588 58.7632H83.9364C84.0529 58.7631 84.1647 58.7167 84.2472 58.6343C84.3296 58.5519 84.376 58.4402 84.3762 58.3237V53.0498C84.376 52.9333 84.3296 52.8216 84.2472 52.7392C84.1647 52.6568 84.0529 52.6105 83.9364 52.6103H78.6588Z" fill="#3F3D56"/>
<path d="M178.054 58.7632H77.7793V59.6422H178.054V58.7632Z" fill="#3F3D56"/>
<path d="M175.415 82.9353H152.105V89.9672H175.415V82.9353Z" fill="#1373E5"/>
<path d="M177.174 88.2092H155.624C155.274 88.2088 154.938 88.0698 154.691 87.8226C154.444 87.5754 154.305 87.2403 154.304 86.8907V81.6168C154.305 81.2673 154.444 80.9321 154.691 80.6849C154.938 80.4378 155.274 80.2987 155.624 80.2983H177.174C177.524 80.2987 177.859 80.4378 178.106 80.6849C178.354 80.9321 178.493 81.2673 178.493 81.6168V86.8907C178.493 87.2403 178.354 87.5754 178.106 87.8226C177.859 88.0698 177.524 88.2088 177.174 88.2092ZM155.624 81.1773C155.507 81.1775 155.395 81.2238 155.313 81.3062C155.23 81.3886 155.184 81.5003 155.184 81.6168V86.8907C155.184 87.0072 155.23 87.1189 155.313 87.2013C155.395 87.2837 155.507 87.3301 155.624 87.3302H177.174C177.29 87.3301 177.402 87.2837 177.485 87.2013C177.567 87.1189 177.613 87.0072 177.614 86.8907V81.6168C177.613 81.5003 177.567 81.3886 177.485 81.3062C177.402 81.2238 177.29 81.1775 177.174 81.1773H155.624Z" fill="#3F3D56"/>
<path d="M353.534 90.8461H309.554V121.611H353.534V90.8461Z" fill="#1373E5"/>
<path d="M357.932 119.193H315.711C315.244 119.193 314.797 119.007 314.467 118.678C314.138 118.348 313.952 117.901 313.952 117.435V88.4289C313.952 87.9628 314.138 87.5159 314.467 87.1863C314.797 86.8568 315.244 86.6714 315.711 86.6709H357.932C358.398 86.6714 358.845 86.8568 359.175 87.1863C359.505 87.5159 359.69 87.9628 359.691 88.4289V117.435C359.69 117.901 359.505 118.348 359.175 118.678C358.845 119.007 358.398 119.193 357.932 119.193ZM315.711 88.4289V117.435H357.933L357.932 88.4289H315.711Z" fill="#3F3D56"/>
<path d="M353.094 87.3302H351.335C351.335 83.4837 349.806 79.7947 347.084 77.0748C344.362 74.355 340.671 72.8269 336.821 72.8269C332.972 72.8269 329.281 74.355 326.559 77.0748C323.837 79.7947 322.308 83.4837 322.308 87.3302H320.549C320.549 83.0174 322.263 78.8813 325.315 75.8318C328.367 72.7822 332.506 71.069 336.821 71.069C341.137 71.069 345.276 72.7822 348.328 75.8318C351.38 78.8813 353.094 83.0174 353.094 87.3302Z" fill="#3F3D56"/>
<path d="M341.219 99.4162C341.22 98.6509 341.021 97.8986 340.641 97.2338C340.262 96.569 339.715 96.0147 339.056 95.6258C338.396 95.2369 337.646 95.0269 336.881 95.0165C336.115 95.0061 335.36 95.1958 334.69 95.5666C334.02 95.9375 333.458 96.4767 333.061 97.131C332.664 97.7853 332.444 98.5319 332.424 99.2969C332.404 100.062 332.585 100.819 332.948 101.493C333.31 102.167 333.843 102.735 334.493 103.14V107.857C334.493 108.163 334.553 108.465 334.67 108.747C334.787 109.03 334.958 109.286 335.175 109.502C335.391 109.718 335.648 109.89 335.93 110.007C336.213 110.124 336.515 110.184 336.821 110.184C337.439 110.184 338.031 109.939 338.467 109.502C338.904 109.066 339.149 108.474 339.149 107.857V103.14C339.782 102.746 340.305 102.197 340.667 101.546C341.029 100.894 341.219 100.161 341.219 99.4162Z" fill="#3F3D56"/>
<path d="M132.094 247.305H125.058V248.184H132.094V247.305Z" fill="#3F3D56"/>
<path d="M141.77 247.305H134.733V248.184H141.77V247.305Z" fill="#3F3D56"/>
<path d="M151.445 247.305H144.409V248.184H151.445V247.305Z" fill="#3F3D56"/>
<path d="M161.121 247.305H154.084V248.184H161.121V247.305Z" fill="#3F3D56"/>
<path d="M170.797 247.305H163.76V248.184H170.797V247.305Z" fill="#3F3D56"/>
<path d="M261.176 296.529H54.9096C54.4432 296.528 53.996 296.343 53.6662 296.013C53.3364 295.684 53.1509 295.237 53.1504 294.771V194.566C53.1509 194.1 53.3364 193.654 53.6662 193.324C53.996 192.994 54.4432 192.809 54.9096 192.808H261.176C261.642 192.809 262.089 192.994 262.419 193.324C262.749 193.653 262.934 194.1 262.935 194.566V294.771C262.934 295.237 262.749 295.684 262.419 296.013C262.089 296.343 261.642 296.528 261.176 296.529ZM54.9096 194.566V294.771H261.177L261.176 194.566H54.9096Z" fill="#3F3D56"/>
<path d="M64.1451 209.509C65.6025 209.509 66.7839 208.329 66.7839 206.872C66.7839 205.416 65.6025 204.235 64.1451 204.235C62.6878 204.235 61.5063 205.416 61.5063 206.872C61.5063 208.329 62.6878 209.509 64.1451 209.509Z" fill="#3F3D56"/>
<path d="M73.381 209.509C74.8384 209.509 76.0198 208.329 76.0198 206.872C76.0198 205.416 74.8384 204.235 73.381 204.235C71.9236 204.235 70.7422 205.416 70.7422 206.872C70.7422 208.329 71.9236 209.509 73.381 209.509Z" fill="#3F3D56"/>
<path d="M82.6168 209.509C84.0742 209.509 85.2556 208.329 85.2556 206.872C85.2556 205.416 84.0742 204.235 82.6168 204.235C81.1595 204.235 79.978 205.416 79.978 206.872C79.978 208.329 81.1595 209.509 82.6168 209.509Z" fill="#3F3D56"/>
<path d="M177.614 253.458H118.241C117.891 253.458 117.556 253.319 117.308 253.072C117.061 252.825 116.922 252.489 116.921 252.14V237.197C116.922 236.848 117.061 236.512 117.308 236.265C117.556 236.018 117.891 235.879 118.241 235.879H177.614C177.964 235.879 178.299 236.018 178.546 236.265C178.794 236.512 178.933 236.848 178.933 237.197V252.14C178.933 252.489 178.794 252.825 178.546 253.072C178.299 253.319 177.964 253.458 177.614 253.458ZM118.241 236.758C118.124 236.758 118.012 236.804 117.93 236.887C117.847 236.969 117.801 237.081 117.801 237.197V252.14C117.801 252.256 117.847 252.368 117.93 252.451C118.012 252.533 118.124 252.579 118.241 252.579H177.614C177.73 252.579 177.842 252.533 177.925 252.451C178.007 252.368 178.053 252.256 178.054 252.14V237.197C178.053 237.081 178.007 236.969 177.925 236.887C177.842 236.804 177.73 236.758 177.614 236.758H118.241Z" fill="#3F3D56"/>
<path d="M192.567 253.898C196.939 253.898 200.483 250.356 200.483 245.987C200.483 241.618 196.939 238.076 192.567 238.076C188.195 238.076 184.65 241.618 184.65 245.987C184.65 250.356 188.195 253.898 192.567 253.898Z" fill="#1373E5"/>
<path d="M195.206 253.019C193.553 253.019 191.938 252.529 190.563 251.612C189.189 250.694 188.118 249.39 187.486 247.864C186.853 246.338 186.688 244.659 187.01 243.039C187.333 241.42 188.128 239.932 189.297 238.764C190.466 237.596 191.955 236.801 193.576 236.479C195.197 236.156 196.877 236.322 198.404 236.954C199.93 237.586 201.236 238.656 202.154 240.029C203.072 241.402 203.562 243.017 203.562 244.668C203.559 246.882 202.678 249.005 201.112 250.57C199.545 252.136 197.421 253.016 195.206 253.019ZM195.206 237.197C193.727 237.197 192.282 237.635 191.052 238.456C189.823 239.277 188.864 240.444 188.298 241.809C187.732 243.175 187.584 244.677 187.873 246.126C188.161 247.575 188.873 248.907 189.919 249.952C190.965 250.996 192.297 251.708 193.747 251.996C195.198 252.285 196.701 252.137 198.067 251.571C199.433 251.006 200.601 250.048 201.422 248.819C202.244 247.591 202.682 246.146 202.682 244.668C202.68 242.688 201.892 240.789 200.49 239.388C199.088 237.987 197.188 237.199 195.206 237.197Z" fill="#3F3D56"/>
<path d="M195.323 247.787L191.065 243.532L192.309 242.289L195.088 245.066L202.843 234.054L204.281 235.066L195.323 247.787Z" fill="#3F3D56"/>
<path opacity="0.1" d="M190.768 138.149H17.8521V22.3909L190.768 138.149Z" fill="black"/>
<path d="M254.621 135.87H232.938V134.309C232.938 134.268 232.93 134.228 232.914 134.19C232.899 134.153 232.876 134.119 232.847 134.09C232.819 134.061 232.784 134.038 232.747 134.023C232.709 134.007 232.669 133.999 232.628 133.999H225.194C225.153 133.999 225.113 134.007 225.076 134.023C225.038 134.038 225.004 134.061 224.975 134.09C224.946 134.119 224.924 134.153 224.908 134.19C224.892 134.228 224.884 134.268 224.884 134.309V135.87H220.238V134.309C220.238 134.268 220.23 134.228 220.214 134.19C220.199 134.153 220.176 134.119 220.147 134.09C220.118 134.061 220.084 134.038 220.047 134.023C220.009 134.007 219.969 133.999 219.928 133.999H212.494C212.453 133.999 212.413 134.007 212.375 134.023C212.338 134.038 212.304 134.061 212.275 134.09C212.246 134.119 212.223 134.153 212.208 134.19C212.192 134.228 212.184 134.268 212.184 134.309V135.87H207.538V134.309C207.538 134.268 207.53 134.228 207.514 134.19C207.499 134.153 207.476 134.119 207.447 134.09C207.418 134.061 207.384 134.038 207.347 134.023C207.309 134.007 207.269 133.999 207.228 133.999H199.794C199.753 133.999 199.713 134.007 199.675 134.023C199.638 134.038 199.604 134.061 199.575 134.09C199.546 134.119 199.523 134.153 199.508 134.19C199.492 134.228 199.484 134.268 199.484 134.309V135.87H194.838V134.309C194.838 134.268 194.83 134.228 194.814 134.19C194.799 134.153 194.776 134.119 194.747 134.09C194.718 134.061 194.684 134.038 194.647 134.023C194.609 134.007 194.569 133.999 194.528 133.999H187.094C187.053 133.999 187.013 134.007 186.975 134.023C186.938 134.038 186.904 134.061 186.875 134.09C186.846 134.119 186.823 134.153 186.808 134.19C186.792 134.228 186.784 134.268 186.784 134.309V135.87H182.138V134.309C182.138 134.268 182.13 134.228 182.114 134.19C182.099 134.153 182.076 134.119 182.047 134.09C182.018 134.061 181.984 134.038 181.947 134.023C181.909 134.007 181.869 133.999 181.828 133.999H174.394C174.353 133.999 174.313 134.007 174.275 134.023C174.238 134.038 174.204 134.061 174.175 134.09C174.146 134.119 174.123 134.153 174.108 134.19C174.092 134.228 174.084 134.268 174.084 134.309V135.87H169.438V134.309C169.438 134.268 169.43 134.228 169.414 134.19C169.399 134.153 169.376 134.119 169.347 134.09C169.318 134.061 169.284 134.038 169.246 134.023C169.209 134.007 169.169 133.999 169.128 133.999H161.694C161.653 133.999 161.613 134.007 161.575 134.023C161.538 134.038 161.503 134.061 161.475 134.09C161.446 134.119 161.423 134.153 161.408 134.19C161.392 134.228 161.384 134.268 161.384 134.309V135.87H156.738V134.309C156.738 134.268 156.73 134.228 156.714 134.19C156.698 134.153 156.676 134.119 156.647 134.09C156.618 134.061 156.584 134.038 156.546 134.023C156.509 134.007 156.469 133.999 156.428 133.999H98.1933C98.1526 133.999 98.1123 134.007 98.0748 134.023C98.0372 134.038 98.003 134.061 97.9743 134.09C97.9455 134.119 97.9227 134.153 97.9071 134.19C97.8916 134.228 97.8835 134.268 97.8835 134.309V135.87H93.2372V134.309C93.2372 134.268 93.2292 134.228 93.2136 134.19C93.198 134.153 93.1752 134.119 93.1464 134.09C93.1177 134.061 93.0835 134.038 93.046 134.023C93.0084 134.007 92.9681 133.999 92.9274 133.999H85.4932C85.4525 133.999 85.4123 134.007 85.3747 134.023C85.3371 134.038 85.303 134.061 85.2742 134.09C85.2454 134.119 85.2226 134.153 85.207 134.19C85.1915 134.228 85.1835 134.268 85.1835 134.309V135.87H80.5371V134.309C80.5371 134.268 80.5291 134.228 80.5135 134.19C80.498 134.153 80.4751 134.119 80.4464 134.09C80.4176 134.061 80.3835 134.038 80.3459 134.023C80.3083 134.007 80.268 133.999 80.2273 133.999H72.7931C72.7525 133.999 72.7122 134.007 72.6746 134.023C72.637 134.038 72.6029 134.061 72.5741 134.09C72.5453 134.119 72.5225 134.153 72.507 134.19C72.4914 134.228 72.4834 134.268 72.4834 134.309V135.87H67.837V134.309C67.837 134.268 67.829 134.228 67.8134 134.19C67.7979 134.153 67.7751 134.119 67.7463 134.09C67.7175 134.061 67.6834 134.038 67.6458 134.023C67.6082 134.007 67.5679 133.999 67.5273 133.999H60.0931C60.0524 133.999 60.0121 134.007 59.9745 134.023C59.937 134.038 59.9028 134.061 59.874 134.09C59.8453 134.119 59.8225 134.153 59.8069 134.19C59.7913 134.228 59.7833 134.268 59.7833 134.309V135.87H55.1369V134.309C55.1369 134.268 55.1289 134.228 55.1134 134.19C55.0978 134.153 55.075 134.119 55.0462 134.09C55.0174 134.061 54.9833 134.038 54.9457 134.023C54.9081 134.007 54.8679 133.999 54.8272 133.999H47.393C47.3523 133.999 47.312 134.007 47.2744 134.023C47.2369 134.038 47.2027 134.061 47.1739 134.09C47.1452 134.119 47.1224 134.153 47.1068 134.19C47.0912 134.228 47.0832 134.268 47.0832 134.309V135.87H42.4369V134.309C42.4369 134.268 42.4289 134.228 42.4133 134.19C42.3977 134.153 42.3749 134.119 42.3461 134.09C42.3174 134.061 42.2832 134.038 42.2457 134.023C42.2081 134.007 42.1678 133.999 42.1271 133.999H34.6929C34.6522 133.999 34.6119 134.007 34.5744 134.023C34.5368 134.038 34.5026 134.061 34.4739 134.09C34.4451 134.119 34.4223 134.153 34.4067 134.19C34.3912 134.228 34.3831 134.268 34.3831 134.309V135.87H29.7368V134.309C29.7368 134.268 29.7288 134.228 29.7132 134.19C29.6976 134.153 29.6748 134.119 29.646 134.09C29.6173 134.061 29.5831 134.038 29.5456 134.023C29.508 134.007 29.4677 133.999 29.427 133.999H21.9928C21.9521 133.999 21.9119 134.007 21.8743 134.023C21.8367 134.038 21.8026 134.061 21.7738 134.09C21.745 134.119 21.7222 134.153 21.7066 134.19C21.6911 134.228 21.6831 134.268 21.6831 134.309V135.87H7.43419C6.45792 135.87 5.49121 136.062 4.58925 136.435C3.68729 136.809 2.86775 137.356 2.17742 138.046C1.48709 138.736 0.939496 139.555 0.565893 140.456C0.19229 141.357 -5.77552e-07 142.323 0 143.299V146.658C4.66568e-06 148.628 0.78325 150.518 2.17743 151.911C3.57161 153.304 5.46252 154.087 7.43419 154.087H254.621C255.597 154.087 256.564 153.895 257.466 153.522C258.368 153.148 259.188 152.601 259.878 151.911C260.568 151.221 261.116 150.402 261.489 149.501C261.863 148.6 262.055 147.634 262.055 146.658V143.299C262.055 142.323 261.863 141.357 261.489 140.456C261.116 139.555 260.568 138.736 259.878 138.046C259.188 137.356 258.368 136.809 257.466 136.435C256.564 136.062 255.597 135.87 254.621 135.87Z" fill="#3F3D56"/>
<path d="M186.849 95.6805H70.7423C70.3924 95.6801 70.0571 95.5411 69.8097 95.2939C69.5624 95.0467 69.4232 94.7116 69.4229 94.362V46.0178C69.4232 45.6683 69.5624 45.3331 69.8097 45.0859C70.0571 44.8388 70.3924 44.6997 70.7423 44.6993H186.849C187.199 44.6997 187.535 44.8388 187.782 45.0859C188.029 45.3331 188.168 45.6683 188.169 46.0178V94.362C188.168 94.7116 188.029 95.0467 187.782 95.2939C187.535 95.5411 187.199 95.6801 186.849 95.6805ZM70.7423 45.5783C70.6257 45.5785 70.5139 45.6248 70.4314 45.7072C70.349 45.7896 70.3026 45.9013 70.3025 46.0178V94.362C70.3026 94.4785 70.349 94.5902 70.4314 94.6726C70.5139 94.755 70.6257 94.8013 70.7423 94.8015H186.849C186.966 94.8013 187.078 94.755 187.16 94.6726C187.243 94.5902 187.289 94.4785 187.289 94.362V46.0178C187.289 45.9013 187.243 45.7896 187.16 45.7072C187.078 45.6248 186.966 45.5785 186.849 45.5783H70.7423Z" fill="#3F3D56"/>
<path d="M83.9364 72.8269H78.6588C78.3089 72.8265 77.9736 72.6875 77.7262 72.4403C77.4789 72.1931 77.3397 71.858 77.3394 71.5084V66.2345C77.3397 65.8849 77.4789 65.5498 77.7262 65.3026C77.9736 65.0554 78.3089 64.9164 78.6588 64.916H83.9364C84.2862 64.9164 84.6215 65.0554 84.8689 65.3026C85.1162 65.5498 85.2554 65.8849 85.2558 66.2345V71.5084C85.2554 71.858 85.1162 72.1931 84.8689 72.4403C84.6215 72.6875 84.2862 72.8265 83.9364 72.8269ZM78.6588 65.795C78.5422 65.7952 78.4304 65.8415 78.3479 65.9239C78.2655 66.0063 78.2191 66.118 78.219 66.2345V71.5084C78.2191 71.6249 78.2655 71.7366 78.3479 71.819C78.4304 71.9014 78.5422 71.9478 78.6588 71.9479H83.9364C84.0529 71.9478 84.1647 71.9014 84.2472 71.819C84.3296 71.7366 84.376 71.6249 84.3762 71.5084V66.2345C84.376 66.118 84.3296 66.0063 84.2472 65.9239C84.1647 65.8415 84.0529 65.7952 83.9364 65.795H78.6588Z" fill="#3F3D56"/>
<path d="M178.054 71.9479H77.7793V72.8269H178.054V71.9479Z" fill="#3F3D56"/>
<path d="M438.855 118.534H116.481V119.413H438.855V118.534Z" fill="#3F3D56"/>
<path d="M116.481 124.687C119.882 124.687 122.639 121.932 122.639 118.534C122.639 115.136 119.882 112.381 116.481 112.381C113.081 112.381 110.324 115.136 110.324 118.534C110.324 121.932 113.081 124.687 116.481 124.687Z" fill="#3F3D56"/>
<path d="M438.855 124.248C441.527 124.248 443.693 122.083 443.693 119.413C443.693 116.743 441.527 114.579 438.855 114.579C436.183 114.579 434.017 116.743 434.017 119.413C434.017 122.083 436.183 124.248 438.855 124.248Z" fill="#3F3D56"/>
<path d="M462.604 221.375C465.276 221.375 467.442 219.211 467.442 216.541C467.442 213.871 465.276 211.707 462.604 211.707C459.932 211.707 457.766 213.871 457.766 216.541C457.766 219.211 459.932 221.375 462.604 221.375Z" fill="#3F3D56"/>
<path d="M141.55 221.375C144.222 221.375 146.388 219.211 146.388 216.541C146.388 213.871 144.222 211.707 141.55 211.707C138.878 211.707 136.712 213.871 136.712 216.541C136.712 219.211 138.878 221.375 141.55 221.375Z" fill="#3F3D56"/>
</g>
<defs>
<clipPath id="clip0_112_155">
<rect width="484" height="304" fill="white"/>
</clipPath>
</defs>
</svg>
