<svg width="403" height="245" viewBox="0 0 403 245" fill="none" xmlns="http://www.w3.org/2000/svg">
<path d="M316.166 38.2668C316.166 38.2668 307.295 39.2636 306.723 52.9336C306.246 64.3253 305.272 70.6738 309.929 73.0503C311.593 73.8998 313.551 73.9744 315.328 73.393L334.337 67.1732C334.337 67.1732 334.623 46.6682 328.041 41.6843C321.46 36.7005 316.166 38.2668 316.166 38.2668Z" fill="#36344E"/>
<path d="M326.644 69.6902L317.024 72.8379V59.0566H325.752L326.644 69.6902Z" fill="#FAAFB2"/>
<path d="M297.237 147.926C296.716 151.084 294.6 153.348 292.511 152.983C290.422 152.618 289.152 149.763 289.674 146.605C289.865 145.34 290.367 144.144 291.14 143.118L293.525 129.77L300.013 131.121L296.974 144.136C297.373 145.367 297.464 146.667 297.237 147.926Z" fill="#FAAFB2"/>
<path d="M319.262 236.691H310.251L305.026 188.776H318.953L319.262 236.691Z" fill="#FAAFB2"/>
<path d="M301.477 244.393C300.529 244.393 299.686 244.369 299.05 244.311C296.656 244.093 294.373 242.335 293.225 241.306C292.71 240.845 292.545 240.108 292.813 239.473C293.005 239.017 293.39 238.678 293.867 238.542L300.192 236.744L310.432 229.867L310.546 230.071C310.589 230.147 311.595 231.95 311.931 233.169C312.059 233.633 312.026 234.019 311.831 234.317C311.696 234.524 311.509 234.644 311.357 234.712C311.543 234.906 312.123 235.297 313.912 235.581C316.526 235.993 317.073 233.301 317.095 233.186L317.112 233.095L317.19 233.046C318.434 232.249 319.198 231.886 319.463 231.964C319.628 232.013 319.904 232.094 320.644 239.432C320.719 239.662 321.24 241.351 320.886 242.965C320.5 244.723 312.791 244.118 311.249 243.979C311.205 243.985 305.432 244.393 301.477 244.393Z" fill="#36344E"/>
<path d="M339.618 236.691H330.607L325.382 188.776H339.309L339.618 236.691Z" fill="#FAAFB2"/>
<path d="M321.833 244.393C320.885 244.393 320.042 244.369 319.406 244.311C317.012 244.093 314.729 242.335 313.581 241.306C313.066 240.845 312.901 240.108 313.169 239.473C313.361 239.017 313.746 238.678 314.223 238.542L320.548 236.744L330.788 229.867L330.902 230.071C330.945 230.147 331.951 231.95 332.287 233.169C332.416 233.633 332.382 234.019 332.187 234.317C332.052 234.524 331.865 234.644 331.713 234.712C331.899 234.906 332.479 235.297 334.268 235.581C336.882 235.993 337.429 233.301 337.451 233.186L337.468 233.095L337.546 233.046C338.79 232.248 339.556 231.887 339.819 231.964C339.984 232.013 340.26 232.094 341 239.432C341.075 239.662 341.596 241.351 341.242 242.965C340.857 244.723 333.147 244.118 331.605 243.979C331.561 243.985 325.788 244.393 321.833 244.393Z" fill="#36344E"/>
<path d="M342.21 119.005H298.428L314.167 67.458H331.622L342.21 119.005Z" fill="#DFDFE0"/>
<path d="M316.921 67.4659C316.921 67.4659 306.047 67.1811 304.902 70.0291C303.758 72.877 290.308 140.658 290.308 140.658H299.179L316.921 67.4659Z" fill="#DFDFE0"/>
<path d="M318.215 62.8716C323.51 62.8716 327.802 58.6002 327.802 53.3311C327.802 48.062 323.51 43.7905 318.215 43.7905C312.921 43.7905 308.629 48.062 308.629 53.3311C308.629 58.6002 312.921 62.8716 318.215 62.8716Z" fill="#FAAFB2"/>
<path d="M315.594 41.8267C315.594 41.8267 310.318 63.1451 316.184 73.1128L307.921 71.3663C307.921 71.3663 304.72 48.0327 311.158 43.7905L315.594 41.8267Z" fill="#36344E"/>
<path d="M333.112 119.005H304.381L288.659 183.216C288.37 185.929 290.098 188.459 292.746 189.164C301.372 191.463 322.066 194.719 353.391 185.648C356.406 184.775 358.117 181.611 357.171 178.631L333.112 119.005Z" fill="#36344E"/>
<path d="M321.495 67.458L330.432 67.0666C334.301 67.3573 337.801 69.4537 339.876 72.7177C346.189 82.6506 358.007 103.591 347.456 106.46C333.553 110.24 326.816 89.1992 326.816 89.1992L321.495 67.458Z" fill="#DFDFE0"/>
<path d="M318.428 73.6961C316.592 71.0694 316.525 67.978 318.279 66.7915C320.032 65.6051 322.942 66.7728 324.778 69.4008C325.527 70.4403 326.003 71.6466 326.168 72.9188L333.8 84.1482L328.199 87.6776L321.27 76.2326C320.121 75.6262 319.146 74.7564 318.428 73.6961Z" fill="#FAAFB2"/>
<path d="M322.946 82.78L329.253 77.0026L341.723 88.5573L330.126 96.4474L322.946 82.78Z" fill="#DFDFE0"/>
<path d="M211.926 54.3191H13.9688C6.25402 54.3191 0 60.5433 0 68.2212C0 75.8991 6.25402 82.1233 13.9688 82.1233H211.926C219.641 82.1233 225.895 75.8991 225.895 68.2212C225.895 60.5433 219.641 54.3191 211.926 54.3191Z" fill="#1373E5"/>
<path d="M115.892 124.574C108.896 124.574 103.203 118.909 103.203 111.945C103.203 104.982 108.896 99.3166 115.892 99.3166C122.889 99.3166 128.582 104.982 128.582 111.945C128.582 118.909 122.889 124.574 115.892 124.574ZM115.892 102.748C110.797 102.748 106.651 106.874 106.651 111.945C106.651 117.016 110.797 121.142 115.892 121.142C120.988 121.142 125.133 117.016 125.133 111.945C125.133 106.874 120.988 102.748 115.892 102.748Z" fill="#484662"/>
<path d="M139.828 134.916C139.431 134.916 139.032 134.78 138.707 134.503L122.667 120.814C121.944 120.198 121.861 119.114 122.48 118.395C123.1 117.676 124.189 117.592 124.912 118.209L140.951 131.898C141.674 132.514 141.758 133.598 141.138 134.317C140.797 134.713 140.314 134.916 139.828 134.916Z" fill="#484662"/>
<path d="M87.6306 244.49C87.6306 244.773 87.8591 245 88.1436 245H402.487C402.772 245 403 244.773 403 244.49C403 244.206 402.772 243.979 402.487 243.979H88.1436C87.8591 243.979 87.6306 244.206 87.6306 244.49Z" fill="#484565"/>
<path d="M224.121 40.3029H183.02C182.04 40.3029 181.246 41.0932 181.246 42.0681C181.246 43.043 182.04 43.8333 183.02 43.8333H224.121C225.1 43.8333 225.895 43.043 225.895 42.0681C225.895 41.0932 225.1 40.3029 224.121 40.3029Z" fill="#DFDFE0"/>
<path d="M42.875 0H1.7737C0.794111 0 0 0.79033 0 1.76524C0 2.74015 0.794111 3.53047 1.7737 3.53047H42.875C43.8546 3.53047 44.6487 2.74015 44.6487 1.76523C44.6487 0.790321 43.8546 0 42.875 0Z" fill="#DFDFE0"/>
<path d="M122.409 15.4062H1.7737C0.794111 15.4062 0 16.1965 0 17.1714C0 18.1464 0.794111 18.9367 1.7737 18.9367H122.409C123.388 18.9367 124.182 18.1464 124.182 17.1714C124.182 16.1965 123.388 15.4062 122.409 15.4062Z" fill="#DFDFE0"/>
</svg>
