<svg width="148" height="44" viewBox="0 0 148 44" fill="none" xmlns="http://www.w3.org/2000/svg">
<path d="M142.519 44H5.48148C2.46667 44 0 41.525 0 38.5V5.5C0 2.475 2.46667 0 5.48148 0H142.519C145.533 0 148 2.475 148 5.5V38.5C148 41.525 145.533 44 142.519 44Z" fill="black"/>
<path d="M142.519 0.87978C145.057 0.87978 147.123 2.9524 147.123 5.5V38.5C147.123 41.0475 145.057 43.1202 142.519 43.1202H5.48148C2.94246 43.1202 0.877037 41.0475 0.877037 38.5V5.5C0.877037 2.9524 2.94246 0.87978 5.48148 0.87978H142.519ZM142.519 0H5.48148C2.46667 0 0 2.475 0 5.5V38.5C0 41.525 2.46667 44 5.48148 44H142.519C145.533 44 148 41.525 148 38.5V5.5C148 2.475 145.533 0 142.519 0Z" fill="#F5F5F6"/>
<path d="M11.44 8.29177C11.1212 8.63035 10.9326 9.15604 10.9326 9.83716V34.1649C10.9326 34.8465 11.1212 35.3717 11.44 35.7103L11.5211 35.7896L25.1031 22.1618V22.0011V21.8403L11.5211 8.21191L11.44 8.29177Z" fill="url(#paint0_linear_50_2599)"/>
<path d="M29.6296 26.7064L25.1025 22.1618V22.0011V21.8403L29.6307 17.2969L29.7327 17.3553L35.0967 20.4134C36.6289 21.2868 36.6289 22.7159 35.0967 23.5899L29.7327 26.648L29.6296 26.7064Z" fill="url(#paint1_linear_50_2599)"/>
<path d="M29.7333 26.6473L25.1031 22.001L11.4399 35.7102C11.9451 36.2466 12.7787 36.3131 13.7182 35.7777L29.7333 26.6473Z" fill="url(#paint2_linear_50_2599)"/>
<path d="M29.7333 17.3547L13.7182 8.22423C12.7787 7.68886 11.9451 7.7553 11.4399 8.29177L25.1031 22.0011L29.7333 17.3547Z" fill="url(#paint3_linear_50_2599)"/>
<path opacity="0.2" d="M29.6322 26.5452L13.7191 35.6172C12.8289 36.1246 12.0331 36.0909 11.5226 35.629L11.4409 35.7109L11.522 35.7902C12.0325 36.2521 12.8289 36.2859 13.7191 35.7779L29.7343 26.6475L29.6322 26.5452Z" fill="black"/>
<path opacity="0.12" d="M11.439 35.5505C11.1202 35.2118 10.9316 34.6861 10.9316 34.0051V34.1658C10.9316 34.847 11.1202 35.3725 11.439 35.7112L11.5207 35.6293L11.439 35.5505Z" fill="black"/>
<path opacity="0.12" d="M35.0983 23.4285L29.6323 26.545L29.7344 26.6473L35.0983 23.5892C35.8642 23.1525 36.2476 22.577 36.2476 22.0015C36.183 22.5219 35.7932 23.0325 35.0983 23.4285Z" fill="black"/>
<path opacity="0.25" d="M13.7187 8.38548L35.0978 20.5735C35.7926 20.9695 36.1825 21.4797 36.247 22.0011C36.2476 21.4255 35.8641 20.8495 35.0978 20.4128L13.7187 8.22477C12.1865 7.35126 10.9331 8.07682 10.9331 9.8377V9.99841C10.9331 8.23764 12.1865 7.51208 13.7187 8.38548Z" fill="white"/>
<path d="M74.6955 19.7248C72.1168 19.7248 70.015 21.6918 70.015 24.4032C70.015 27.0969 72.1168 29.0817 74.6955 29.0817C77.2741 29.0817 79.3759 27.0969 79.3759 24.4032C79.3759 21.6918 77.2741 19.7248 74.6955 19.7248ZM74.6955 27.2387C73.2826 27.2387 72.0638 26.069 72.0638 24.4032C72.0638 22.7196 73.2826 21.5678 74.6955 21.5678C76.1084 21.5678 77.327 22.7196 77.327 24.4032C77.327 26.069 76.1084 27.2387 74.6955 27.2387ZM64.4852 19.7248C61.9065 19.7248 59.8048 21.6918 59.8048 24.4032C59.8048 27.0969 61.9065 29.0817 64.4852 29.0817C67.0638 29.0817 69.1655 27.0969 69.1655 24.4032C69.1655 21.6918 67.0638 19.7248 64.4852 19.7248ZM64.4852 27.2387C63.0722 27.2387 61.8536 26.069 61.8536 24.4032C61.8536 22.7196 63.0722 21.5678 64.4852 21.5678C65.8981 21.5678 67.1168 22.7196 67.1168 24.4032C67.1168 26.069 65.8981 27.2387 64.4852 27.2387ZM52.3396 21.1603V23.145H57.073C56.9316 24.2615 56.5609 25.0766 55.9956 25.6438C55.3068 26.3349 54.2294 27.0969 52.3396 27.0969C49.4254 27.0969 47.1471 24.7399 47.1471 21.8159C47.1471 18.8919 49.4254 16.5349 52.3396 16.5349C53.9115 16.5349 55.0596 17.1552 55.9074 17.9526L57.3026 16.5526C56.1193 15.4185 54.5474 14.55 52.3396 14.55C48.348 14.55 44.9922 17.8109 44.9922 21.8159C44.9922 25.821 48.348 29.0817 52.3396 29.0817C54.4943 29.0817 56.1193 28.3729 57.3909 27.0437C58.6979 25.7323 59.1042 23.8894 59.1042 22.4007C59.1042 21.94 59.0689 21.5147 58.998 21.1603H52.3396ZM102.011 22.7019C101.622 21.6564 100.439 19.7248 98.0193 19.7248C95.6173 19.7248 93.6216 21.621 93.6216 24.4032C93.6216 27.026 95.5996 29.0817 98.2489 29.0817C100.386 29.0817 101.622 27.7703 102.134 27.0083L100.545 25.9451C100.015 26.7247 99.291 27.2387 98.2489 27.2387C97.2068 27.2387 96.4651 26.7602 95.9882 25.821L102.223 23.2337L102.011 22.7019ZM95.6527 24.2615C95.5996 22.4539 97.048 21.5324 98.0899 21.5324C98.9024 21.5324 99.5912 21.94 99.8208 22.5248L95.6527 24.2615ZM90.5836 28.7981H92.6324V15.0464H90.5836V28.7981ZM87.2279 20.7703H87.1573C86.698 20.221 85.815 19.7248 84.7022 19.7248C82.371 19.7248 80.2338 21.7805 80.2338 24.4209C80.2338 27.0437 82.371 29.0817 84.7022 29.0817C85.815 29.0817 86.698 28.5855 87.1573 28.0184H87.2279V28.6919C87.2279 30.4818 86.2742 31.4387 84.7375 31.4387C83.4837 31.4387 82.7064 30.5349 82.3886 29.7728L80.6047 30.5172C81.1169 31.7577 82.4769 33.2817 84.7375 33.2817C87.1396 33.2817 89.1707 31.864 89.1707 28.4083V20.0082H87.2279V20.7703ZM84.879 27.2387C83.4661 27.2387 82.2826 26.0513 82.2826 24.4209C82.2826 22.7729 83.4661 21.5678 84.879 21.5678C86.2742 21.5678 87.3692 22.7729 87.3692 24.4209C87.3692 26.0513 86.2742 27.2387 84.879 27.2387ZM111.608 15.0466H106.706V28.7981H108.751V23.5881H111.608C113.875 23.5881 116.104 21.9411 116.104 19.3173C116.104 16.6936 113.875 15.0466 111.608 15.0466ZM111.661 21.6743H108.751V16.9605H111.661C113.19 16.9605 114.059 18.2311 114.059 19.3173C114.059 20.3831 113.19 21.6743 111.661 21.6743ZM124.303 19.6995C122.822 19.6995 121.288 20.3541 120.653 21.8048L122.469 22.5655C122.857 21.8048 123.58 21.557 124.338 21.557C125.396 21.557 126.471 22.1939 126.489 23.3262V23.4677C126.119 23.2554 125.325 22.937 124.356 22.937C122.398 22.937 120.406 24.0162 120.406 26.0331C120.406 27.8729 122.011 29.0583 123.809 29.0583C125.184 29.0583 125.942 28.4391 126.419 27.7137H126.489V28.7752H128.464V23.5032C128.464 21.0617 126.648 19.6995 124.303 19.6995ZM124.056 27.236C123.386 27.236 122.451 26.9 122.451 26.0684C122.451 25.007 123.615 24.6 124.62 24.6C125.519 24.6 125.942 24.7947 126.489 25.06C126.33 26.3338 125.237 27.236 124.056 27.236ZM135.658 20.0002L133.313 25.9622H133.242L130.809 20.0002H128.605L132.255 28.3329L130.174 32.9683H132.308L137.932 20.0002H135.658ZM117.232 28.7981H119.278V15.0466H117.232V28.7981Z" fill="white"/>
<path d="M52.3395 23.145H52.2395V23.245H52.3395V23.145ZM57.0729 23.145L57.1722 23.1576L57.1864 23.045H57.0729V23.145ZM55.9073 17.9526L55.8387 18.0254L55.9095 18.092L55.9781 18.0232L55.9073 17.9526ZM57.3025 16.5526L57.3733 16.6232L57.4453 16.551L57.3717 16.4804L57.3025 16.5526ZM57.3908 27.0437L57.3199 26.9731L57.3185 26.9746L57.3908 27.0437ZM58.9979 21.1603L59.096 21.1407L59.0799 21.0603H58.9979V21.1603ZM102.011 22.7019L101.917 22.7368L101.918 22.739L102.011 22.7019ZM102.134 27.0083L102.217 27.0641L102.273 26.9809L102.19 26.9252L102.134 27.0083ZM100.545 25.9451L100.601 25.8619L100.518 25.8067L100.462 25.8889L100.545 25.9451ZM95.9881 25.821L95.9497 25.7286L95.85 25.77L95.8989 25.8663L95.9881 25.821ZM102.223 23.2337L102.261 23.326L102.352 23.2882L102.316 23.1966L102.223 23.2337ZM95.6526 24.2615L95.5526 24.2644L95.5569 24.4097L95.6911 24.3538L95.6526 24.2615ZM99.8207 22.5248L99.8592 22.6171L99.9496 22.5795L99.9138 22.4883L99.8207 22.5248ZM90.5835 28.7981H90.4835V28.8981H90.5835V28.7981ZM92.6323 28.7981V28.8981H92.7323V28.7981H92.6323ZM92.6323 15.0464H92.7323V14.9464H92.6323V15.0464ZM90.5835 15.0464V14.9464H90.4835V15.0464H90.5835ZM87.1572 20.7703L87.0805 20.8345L87.1104 20.8703H87.1572V20.7703ZM87.1572 28.0184V27.9184H87.1095L87.0795 27.9555L87.1572 28.0184ZM87.2278 28.0184H87.3278V27.9184H87.2278V28.0184ZM82.3885 29.7728L82.4808 29.7343L82.4423 29.642L82.35 29.6805L82.3885 29.7728ZM80.6046 30.5172L80.5661 30.4249L80.4742 30.4633L80.5122 30.5554L80.6046 30.5172ZM89.1706 20.0082H89.2706V19.9082H89.1706V20.0082ZM87.2278 20.0082V19.9082H87.1278V20.0082H87.2278ZM106.706 15.0466V14.9466H106.606V15.0466H106.706ZM106.706 28.7981H106.606V28.8981H106.706V28.7981ZM108.751 28.7981V28.8981H108.851V28.7981H108.751ZM108.751 23.5881V23.4881H108.651V23.5881H108.751ZM108.751 21.6743H108.651V21.7743H108.751V21.6743ZM108.751 16.9605V16.8605H108.651V16.9605H108.751ZM120.653 21.8048L120.561 21.7647L120.521 21.8578L120.614 21.897L120.653 21.8048ZM122.469 22.5655L122.43 22.6578L122.516 22.6936L122.558 22.6109L122.469 22.5655ZM126.489 23.3262H126.589V23.3246L126.489 23.3262ZM126.489 23.4677L126.439 23.5545L126.589 23.6403V23.4677H126.489ZM126.419 27.7137V27.6137H126.365L126.335 27.6589L126.419 27.7137ZM126.489 27.7137H126.589V27.6137H126.489V27.7137ZM126.489 28.7752H126.389V28.8752H126.489V28.7752ZM128.464 28.7752V28.8752H128.564V28.7752H128.464ZM126.489 25.06L126.588 25.0724L126.597 25.0013L126.533 24.97L126.489 25.06ZM133.313 25.9622V26.0622H133.381L133.406 25.9988L133.313 25.9622ZM133.242 25.9622L133.149 26L133.175 26.0622H133.242V25.9622ZM130.809 20.0002L130.902 19.9624L130.876 19.9002H130.809V20.0002ZM128.605 20.0002V19.9002H128.452L128.513 20.0403L128.605 20.0002ZM132.255 28.3329L132.346 28.3739L132.364 28.3334L132.346 28.2928L132.255 28.3329ZM130.174 32.9681L130.083 32.9272L130.02 33.0681H130.174V32.9681ZM132.308 32.9681V33.0681H132.373L132.399 33.0079L132.308 32.9681ZM137.932 20.0002L138.024 20.04L138.085 19.9002H137.932V20.0002ZM117.232 28.7981H117.132V28.8981H117.232V28.7981ZM119.278 28.7981V28.8981H119.378V28.7981H119.278ZM119.278 15.0466H119.378V14.9466H119.278V15.0466ZM117.232 15.0466V14.9466H117.132V15.0466H117.232ZM74.6954 19.6248C72.0634 19.6248 69.9149 21.6347 69.9149 24.4032H70.1149C70.1149 21.7489 72.17 19.8248 74.6954 19.8248V19.6248ZM69.9149 24.4032C69.9149 27.1538 72.0631 29.1817 74.6954 29.1817V28.9817C72.1702 28.9817 70.1149 27.04 70.1149 24.4032H69.9149ZM74.6954 29.1817C77.3275 29.1817 79.4758 27.1538 79.4758 24.4032H79.2758C79.2758 27.04 77.2204 28.9817 74.6954 28.9817V29.1817ZM79.4758 24.4032C79.4758 21.6347 77.3273 19.6248 74.6954 19.6248V19.8248C77.2207 19.8248 79.2758 21.7489 79.2758 24.4032H79.4758ZM74.6954 27.1387C73.3414 27.1387 72.1637 26.0175 72.1637 24.4032H71.9637C71.9637 26.1205 73.2235 27.3387 74.6954 27.3387V27.1387ZM72.1637 24.4032C72.1637 22.7715 73.3409 21.6678 74.6954 21.6678V21.4678C73.224 21.4678 71.9637 22.6677 71.9637 24.4032H72.1637ZM74.6954 21.6678C76.0498 21.6678 77.2269 22.7715 77.2269 24.4032H77.4269C77.4269 22.6677 76.1668 21.4678 74.6954 21.4678V21.6678ZM77.2269 24.4032C77.2269 26.0176 76.0494 27.1387 74.6954 27.1387V27.3387C76.1672 27.3387 77.4269 26.1205 77.4269 24.4032H77.2269ZM64.4851 19.6248C61.8531 19.6248 59.7047 21.6347 59.7047 24.4032H59.9047C59.9047 21.7489 61.9597 19.8248 64.4851 19.8248V19.6248ZM59.7047 24.4032C59.7047 27.1538 61.8528 29.1817 64.4851 29.1817V28.9817C61.96 28.9817 59.9047 27.04 59.9047 24.4032H59.7047ZM64.4851 29.1817C67.1173 29.1817 69.2654 27.1538 69.2654 24.4032H69.0654C69.0654 27.04 67.0102 28.9817 64.4851 28.9817V29.1817ZM69.2654 24.4032C69.2654 21.6347 67.117 19.6248 64.4851 19.6248V19.8248C67.0104 19.8248 69.0654 21.7489 69.0654 24.4032H69.2654ZM64.4851 27.1387C63.131 27.1387 61.9535 26.0176 61.9535 24.4032H61.7535C61.7535 26.1205 63.0132 27.3387 64.4851 27.3387V27.1387ZM61.9535 24.4032C61.9535 22.7715 63.1306 21.6678 64.4851 21.6678V21.4678C63.0136 21.4678 61.7535 22.6677 61.7535 24.4032H61.9535ZM64.4851 21.6678C65.8395 21.6678 67.0167 22.7715 67.0167 24.4032H67.2167C67.2167 22.6677 65.9565 21.4678 64.4851 21.4678V21.6678ZM67.0167 24.4032C67.0167 26.0176 65.8391 27.1387 64.4851 27.1387V27.3387C65.9569 27.3387 67.2167 26.1205 67.2167 24.4032H67.0167ZM52.2395 21.1603V23.145H52.4395V21.1603H52.2395ZM52.3395 23.245H57.0729V23.045H52.3395V23.245ZM56.9737 23.1324C56.8343 24.2334 56.4703 25.0257 55.9247 25.5732L56.0663 25.7144C56.6512 25.1275 57.0288 24.2897 57.1722 23.1576L56.9737 23.1324ZM55.9247 25.5732C55.2499 26.2502 54.1966 26.9969 52.3395 26.9969V27.1969C54.2619 27.1969 55.3635 26.4196 56.0663 25.7144L55.9247 25.5732ZM52.3395 26.9969C49.4826 26.9969 47.247 24.6868 47.247 21.8159H47.047C47.047 24.793 49.368 27.1969 52.3395 27.1969V26.9969ZM47.247 21.8159C47.247 18.945 49.4826 16.6349 52.3395 16.6349V16.4349C49.368 16.4349 47.047 18.8387 47.047 21.8159H47.247ZM52.3395 16.6349C53.8818 16.6349 55.0062 17.2424 55.8387 18.0254L55.9758 17.8797C55.1128 17.068 53.9411 16.4349 52.3395 16.4349V16.6349ZM55.9781 18.0232L57.3733 16.6232L57.2317 16.482L55.8364 17.882L55.9781 18.0232ZM57.3717 16.4804C56.1732 15.3318 54.5775 14.45 52.3395 14.45V14.65C54.5171 14.65 56.0652 15.5052 57.2333 16.6248L57.3717 16.4804ZM52.3395 14.45C48.2942 14.45 44.8921 17.7541 44.8921 21.8159H45.0921C45.0921 17.8677 48.4015 14.65 52.3395 14.65V14.45ZM44.8921 21.8159C44.8921 25.8778 48.2942 29.1817 52.3395 29.1817V28.9817C48.4015 28.9817 45.0921 25.7642 45.0921 21.8159H44.8921ZM52.3395 29.1817C54.5195 29.1817 56.1712 28.4631 57.463 27.1129L57.3185 26.9746C56.0671 28.2826 54.4689 28.9817 52.3395 28.9817V29.1817ZM57.4616 27.1143C58.7943 25.7771 59.2041 23.9039 59.2041 22.4007H59.0041C59.0041 23.8749 58.6012 25.6875 57.3199 26.9731L57.4616 27.1143ZM59.2041 22.4007C59.2041 21.9354 59.1684 21.5033 59.096 21.1407L58.8999 21.1799C58.9691 21.5261 59.0041 21.9445 59.0041 22.4007H59.2041ZM58.9979 21.0603H52.3395V21.2603H58.9979V21.0603ZM102.105 22.6671C101.711 21.6078 100.503 19.6248 98.0192 19.6248V19.8248C100.375 19.8248 101.534 21.7049 101.917 22.7368L102.105 22.6671ZM98.0192 19.6248C95.5593 19.6248 93.5215 21.5684 93.5215 24.4032H93.7215C93.7215 21.6735 95.675 19.8248 98.0192 19.8248V19.6248ZM93.5215 24.4032C93.5215 27.0794 95.5425 29.1817 98.2488 29.1817V28.9817C95.6566 28.9817 93.7215 26.9726 93.7215 24.4032H93.5215ZM98.2488 29.1817C100.432 29.1817 101.695 27.8408 102.217 27.0641L102.051 26.9525C101.549 27.6997 100.34 28.9817 98.2488 28.9817V29.1817ZM102.19 26.9252L100.601 25.8619L100.489 26.0282L102.079 27.0914L102.19 26.9252ZM100.462 25.8889C99.9462 26.648 99.2503 27.1387 98.2488 27.1387V27.3387C99.3315 27.3387 100.084 26.8015 100.628 26.0013L100.462 25.8889ZM98.2488 27.1387C97.7436 27.1387 97.3168 27.0229 96.9599 26.7975C96.6027 26.5719 96.3092 26.2326 96.0772 25.7757L95.8989 25.8663C96.1438 26.3486 96.4596 26.7181 96.8531 26.9666C97.2468 27.2152 97.712 27.3387 98.2488 27.3387V27.1387ZM96.0264 25.9133L102.261 23.326L102.185 23.1413L95.9497 25.7286L96.0264 25.9133ZM102.316 23.1966L102.104 22.6649L101.918 22.739L102.13 23.2707L102.316 23.1966ZM95.7526 24.2586C95.7014 22.5159 97.0953 21.6324 98.0898 21.6324V21.4324C97.0004 21.4324 95.4977 22.3919 95.5526 24.2644L95.7526 24.2586ZM98.0898 21.6324C98.8738 21.6324 99.5172 22.0253 99.7276 22.5614L99.9138 22.4883C99.6651 21.8547 98.9309 21.4324 98.0898 21.4324V21.6324ZM99.7823 22.4325L95.6141 24.1692L95.6911 24.3538L99.8592 22.6171L99.7823 22.4325ZM90.5835 28.8981H92.6323V28.6981H90.5835V28.8981ZM92.7323 28.7981V15.0464H92.5323V28.7981H92.7323ZM92.6323 14.9464H90.5835V15.1464H92.6323V14.9464ZM90.4835 15.0464V28.7981H90.6835V15.0464H90.4835ZM87.2278 20.6703H87.1572V20.8703H87.2278V20.6703ZM87.2339 20.7062C86.7552 20.1336 85.8438 19.6248 84.7021 19.6248V19.8248C85.7859 19.8248 86.6406 20.3084 87.0805 20.8345L87.2339 20.7062ZM84.7021 19.6248C82.3136 19.6248 80.1337 21.7273 80.1337 24.4209H80.3337C80.3337 21.8336 82.4281 19.8248 84.7021 19.8248V19.6248ZM80.1337 24.4209C80.1337 27.0976 82.3143 29.1817 84.7021 29.1817V28.9817C82.4274 28.9817 80.3337 26.9898 80.3337 24.4209H80.1337ZM84.7021 29.1817C85.8439 29.1817 86.7559 28.6728 87.2349 28.0814L87.0795 27.9555C86.64 28.4982 85.7859 28.9817 84.7021 28.9817V29.1817ZM87.1572 28.1184H87.2278V27.9184H87.1572V28.1184ZM87.1278 28.0184V28.6919H87.3278V28.0184H87.1278ZM87.1278 28.6919C87.1278 29.5698 86.894 30.2291 86.4856 30.6684C86.0781 31.1066 85.4846 31.3386 84.7374 31.3386V31.5387C85.527 31.5387 86.1786 31.2922 86.6321 30.8046C87.0847 30.3179 87.3278 29.6039 87.3278 28.6919H87.1278ZM84.7374 31.3386C83.5388 31.3386 82.7897 30.4751 82.4808 29.7343L82.2962 29.8113C82.6229 30.5948 83.4284 31.5387 84.7374 31.5387V31.3386ZM82.35 29.6805L80.5661 30.4249L80.6431 30.6095L82.427 29.8651L82.35 29.6805ZM80.5122 30.5554C81.0351 31.8218 82.4252 33.3815 84.7374 33.3815V33.1817C82.5284 33.1817 81.1985 31.6935 80.697 30.479L80.5122 30.5554ZM84.7374 33.3815C85.9576 33.3815 87.0934 33.0215 87.9246 32.2126C88.7565 31.4029 89.2706 30.156 89.2706 28.4083H89.0706C89.0706 30.1163 88.5692 31.3061 87.7851 32.0693C87.0002 32.8331 85.9194 33.1817 84.7374 33.1817V33.3815ZM89.2706 28.4083V20.0082H89.0706V28.4083H89.2706ZM89.1706 19.9082H87.2278V20.1082H89.1706V19.9082ZM87.1278 20.0082V20.7703H87.3278V20.0082H87.1278ZM84.8789 27.1387C83.5266 27.1387 82.3825 26.0016 82.3825 24.4209H82.1825C82.1825 26.101 83.4053 27.3387 84.8789 27.3387V27.1387ZM82.3825 24.4209C82.3825 22.8213 83.5278 21.6678 84.8789 21.6678V21.4678C83.4042 21.4678 82.1825 22.7245 82.1825 24.4209H82.3825ZM84.8789 21.6678C86.2076 21.6678 87.2691 22.8161 87.2691 24.4209H87.4691C87.4691 22.7297 86.3406 21.4678 84.8789 21.4678V21.6678ZM87.2691 24.4209C87.2691 26.0068 86.2088 27.1387 84.8789 27.1387V27.3387C86.3395 27.3387 87.4691 26.0958 87.4691 24.4209H87.2691ZM111.608 14.9466H106.706V15.1466H111.608V14.9466ZM106.606 15.0466V28.7981H106.806V15.0466H106.606ZM106.706 28.8981H108.751V28.6981H106.706V28.8981ZM108.851 28.7981V23.5881H108.651V28.7981H108.851ZM108.751 23.6881H111.608V23.4881H108.751V23.6881ZM111.608 23.6881C113.918 23.6881 116.204 22.0079 116.204 19.3173H116.004C116.004 21.8742 113.832 23.4881 111.608 23.4881V23.6881ZM116.204 19.3173C116.204 16.6268 113.918 14.9466 111.608 14.9466V15.1466C113.832 15.1466 116.004 16.7605 116.004 19.3173H116.204ZM111.661 21.5743H108.751V21.7743H111.661V21.5743ZM108.851 21.6743V16.9605H108.651V21.6743H108.851ZM108.751 17.0605H111.661V16.8605H108.751V17.0605ZM111.661 17.0605C113.125 17.0605 113.959 18.2762 113.959 19.3173H114.159C114.159 18.186 113.255 16.8605 111.661 16.8605V17.0605ZM113.959 19.3173C113.959 20.3386 113.125 21.5743 111.661 21.5743V21.7743C113.255 21.7743 114.159 20.4277 114.159 19.3173H113.959ZM124.303 19.5995C122.797 19.5995 121.217 20.2654 120.561 21.7647L120.744 21.8449C121.358 20.4428 122.846 19.7995 124.303 19.7995V19.5995ZM120.614 21.897L122.43 22.6578L122.508 22.4733L120.691 21.7125L120.614 21.897ZM122.558 22.6109C122.922 21.8963 123.601 21.657 124.338 21.657V21.457C123.559 21.457 122.791 21.7133 122.38 22.5201L122.558 22.6109ZM124.338 21.657C124.848 21.657 125.36 21.8109 125.744 22.0972C126.126 22.382 126.381 22.7967 126.389 23.3277L126.589 23.3246C126.58 22.7234 126.288 22.2536 125.863 21.9369C125.441 21.6216 124.886 21.457 124.338 21.457V21.657ZM126.389 23.3262V23.4677H126.589V23.3262H126.389ZM126.539 23.381C126.156 23.1616 125.346 22.837 124.356 22.837V23.037C125.305 23.037 126.081 23.3493 126.439 23.5545L126.539 23.381ZM124.356 22.837C123.36 22.837 122.352 23.1111 121.589 23.6469C120.825 24.1844 120.306 24.987 120.306 26.0331H120.506C120.506 25.0623 120.984 24.3168 121.704 23.8105C122.427 23.3025 123.394 23.037 124.356 23.037V22.837ZM120.306 26.0331C120.306 27.9437 121.972 29.1583 123.809 29.1583V28.9583C122.049 28.9583 120.506 27.8022 120.506 26.0331H120.306ZM123.809 29.1583C124.512 29.1583 125.063 28.9997 125.501 28.7444C125.939 28.4893 126.258 28.1408 126.502 27.7686L126.335 27.6589C126.103 28.012 125.805 28.3358 125.401 28.5716C124.997 28.8072 124.481 28.9583 123.809 28.9583V29.1583ZM126.419 27.8137H126.489V27.6137H126.419V27.8137ZM126.389 27.7137V28.7752H126.589V27.7137H126.389ZM126.489 28.8752H128.464V28.6752H126.489V28.8752ZM128.564 28.7752V23.5032H128.364V28.7752H128.564ZM128.564 23.5032C128.564 22.2557 128.099 21.2763 127.328 20.6101C126.559 19.9455 125.494 19.5995 124.303 19.5995V19.7995C125.457 19.7995 126.472 20.1346 127.197 20.7614C127.921 21.3868 128.364 22.3092 128.364 23.5032H128.564ZM124.056 27.136C123.735 27.136 123.352 27.055 123.053 26.878C122.757 26.7026 122.551 26.4393 122.551 26.0684H122.351C122.351 26.529 122.613 26.8496 122.951 27.0501C123.287 27.249 123.707 27.336 124.056 27.336V27.136ZM122.551 26.0684C122.551 25.5824 122.815 25.2446 123.208 25.0233C123.605 24.7999 124.129 24.7 124.62 24.7V24.5C124.107 24.5 123.546 24.6036 123.11 24.849C122.67 25.0965 122.351 25.493 122.351 26.0684H122.551ZM124.62 24.7C125.062 24.7 125.383 24.7478 125.659 24.8266C125.937 24.9058 126.172 25.0172 126.445 25.15L126.533 24.97C126.26 24.8375 126.01 24.7188 125.714 24.6343C125.417 24.5495 125.077 24.5 124.62 24.5V24.7ZM126.39 25.0476C126.237 26.2704 125.188 27.136 124.056 27.136V27.336C125.287 27.336 126.423 26.3972 126.588 25.0724L126.39 25.0476ZM135.565 19.9636L133.22 25.9256L133.406 25.9988L135.751 20.0368L135.565 19.9636ZM133.313 25.8622H133.242V26.0622H133.313V25.8622ZM133.335 25.9244L130.902 19.9624L130.716 20.038L133.149 26L133.335 25.9244ZM130.809 19.9002H128.605V20.1002H130.809V19.9002ZM128.513 20.0403L132.163 28.3731L132.346 28.2928L128.697 19.9601L128.513 20.0403ZM132.164 28.292L130.083 32.9272L130.265 33.0091L132.346 28.3739L132.164 28.292ZM130.174 33.0681H132.308V32.868H130.174V33.0681ZM132.399 33.0079L138.024 20.04L137.84 19.9604L132.216 32.9282L132.399 33.0079ZM137.932 19.9002H135.658V20.1002H137.932V19.9002ZM117.232 28.8981H119.278V28.6981H117.232V28.8981ZM119.378 28.7981V15.0466H119.178V28.7981H119.378ZM119.278 14.9466H117.232V15.1466H119.278V14.9466ZM117.132 15.0466V28.7981H117.332V15.0466H117.132Z" fill="white"/>
<defs>
<linearGradient id="paint0_linear_50_2599" x1="23.8987" y1="9.58066" x2="5.43817" y2="27.979" gradientUnits="userSpaceOnUse">
<stop stop-color="#00A0FF"/>
<stop offset="0.0065745" stop-color="#00A1FF"/>
<stop offset="0.2601" stop-color="#00BEFF"/>
<stop offset="0.5122" stop-color="#00D2FF"/>
<stop offset="0.7604" stop-color="#00DFFF"/>
<stop offset="1" stop-color="#00E3FF"/>
</linearGradient>
<linearGradient id="paint1_linear_50_2599" x1="37.0916" y1="22.0016" x2="10.5646" y2="22.0016" gradientUnits="userSpaceOnUse">
<stop stop-color="#FFE000"/>
<stop offset="0.4087" stop-color="#FFBD00"/>
<stop offset="0.7754" stop-color="#FFA500"/>
<stop offset="1" stop-color="#FF9C00"/>
</linearGradient>
<linearGradient id="paint2_linear_50_2599" x1="27.2173" y1="24.5256" x2="2.1834" y2="49.4753" gradientUnits="userSpaceOnUse">
<stop stop-color="#FF3A44"/>
<stop offset="1" stop-color="#C31162"/>
</linearGradient>
<linearGradient id="paint3_linear_50_2599" x1="7.99971" y1="0.193759" x2="19.1784" y2="11.3348" gradientUnits="userSpaceOnUse">
<stop stop-color="#32A071"/>
<stop offset="0.0685" stop-color="#2DA771"/>
<stop offset="0.4762" stop-color="#15CF74"/>
<stop offset="0.8009" stop-color="#06E775"/>
<stop offset="1" stop-color="#00F076"/>
</linearGradient>
</defs>
</svg>
