<svg width="90" height="90" viewBox="0 0 90 90" fill="none" xmlns="http://www.w3.org/2000/svg">
<g clip-path="url(#clip0_50_1343)">
<path d="M90 0H0V90H90V0Z" fill="white"/>
<path d="M1.83673 0H0V1.83673H1.83673V0Z" fill="black"/>
<path d="M3.67347 0H1.83673V1.83673H3.67347V0Z" fill="black"/>
<path d="M5.5102 0H3.67346V1.83673H5.5102V0Z" fill="black"/>
<path d="M7.34693 0H5.51019V1.83673H7.34693V0Z" fill="black"/>
<path d="M9.18366 0H7.34692V1.83673H9.18366V0Z" fill="black"/>
<path d="M11.0204 0H9.18365V1.83673H11.0204V0Z" fill="black"/>
<path d="M12.8571 0H11.0204V1.83673H12.8571V0Z" fill="black"/>
<path d="M22.0408 0H20.2041V1.83673H22.0408V0Z" fill="black"/>
<path d="M33.0612 0H31.2245V1.83673H33.0612V0Z" fill="black"/>
<path d="M34.898 0H33.0612V1.83673H34.898V0Z" fill="black"/>
<path d="M36.7347 0H34.8979V1.83673H36.7347V0Z" fill="black"/>
<path d="M45.9184 0H44.0817V1.83673H45.9184V0Z" fill="black"/>
<path d="M47.7551 0H45.9183V1.83673H47.7551V0Z" fill="black"/>
<path d="M56.9388 0H55.1021V1.83673H56.9388V0Z" fill="black"/>
<path d="M58.7755 0H56.9388V1.83673H58.7755V0Z" fill="black"/>
<path d="M60.6122 0H58.7755V1.83673H60.6122V0Z" fill="black"/>
<path d="M66.1224 0H64.2857V1.83673H66.1224V0Z" fill="black"/>
<path d="M69.7959 0H67.9592V1.83673H69.7959V0Z" fill="black"/>
<path d="M75.3061 0H73.4694V1.83673H75.3061V0Z" fill="black"/>
<path d="M78.9796 0H77.1428V1.83673H78.9796V0Z" fill="black"/>
<path d="M80.8163 0H78.9796V1.83673H80.8163V0Z" fill="black"/>
<path d="M82.6531 0H80.8163V1.83673H82.6531V0Z" fill="black"/>
<path d="M84.4898 0H82.6531V1.83673H84.4898V0Z" fill="black"/>
<path d="M86.3265 0H84.4898V1.83673H86.3265V0Z" fill="black"/>
<path d="M88.1633 0H86.3265V1.83673H88.1633V0Z" fill="black"/>
<path d="M90 0H88.1633V1.83673H90V0Z" fill="black"/>
<path d="M1.83673 1.83679H0V3.67353H1.83673V1.83679Z" fill="black"/>
<path d="M12.8571 1.83679H11.0204V3.67353H12.8571V1.83679Z" fill="black"/>
<path d="M16.5306 1.83679H14.6938V3.67353H16.5306V1.83679Z" fill="black"/>
<path d="M20.2041 1.83679H18.3674V3.67353H20.2041V1.83679Z" fill="black"/>
<path d="M23.8776 1.83679H22.0408V3.67353H23.8776V1.83679Z" fill="black"/>
<path d="M29.3878 1.83679H27.551V3.67353H29.3878V1.83679Z" fill="black"/>
<path d="M31.2245 1.83679H29.3878V3.67353H31.2245V1.83679Z" fill="black"/>
<path d="M34.898 1.83679H33.0612V3.67353H34.898V1.83679Z" fill="black"/>
<path d="M36.7347 1.83679H34.8979V3.67353H36.7347V1.83679Z" fill="black"/>
<path d="M44.0816 1.83679H42.2449V3.67353H44.0816V1.83679Z" fill="black"/>
<path d="M45.9184 1.83679H44.0817V3.67353H45.9184V1.83679Z" fill="black"/>
<path d="M55.1021 1.83679H53.2653V3.67353H55.1021V1.83679Z" fill="black"/>
<path d="M58.7755 1.83679H56.9388V3.67353H58.7755V1.83679Z" fill="black"/>
<path d="M69.7959 1.83679H67.9592V3.67353H69.7959V1.83679Z" fill="black"/>
<path d="M71.6326 1.83679H69.7959V3.67353H71.6326V1.83679Z" fill="black"/>
<path d="M73.4694 1.83679H71.6326V3.67353H73.4694V1.83679Z" fill="black"/>
<path d="M75.3061 1.83679H73.4694V3.67353H75.3061V1.83679Z" fill="black"/>
<path d="M78.9796 1.83679H77.1428V3.67353H78.9796V1.83679Z" fill="black"/>
<path d="M90 1.83679H88.1633V3.67353H90V1.83679Z" fill="black"/>
<path d="M1.83673 3.67346H0V5.5102H1.83673V3.67346Z" fill="black"/>
<path d="M5.5102 3.67346H3.67346V5.5102H5.5102V3.67346Z" fill="black"/>
<path d="M7.34693 3.67346H5.51019V5.5102H7.34693V3.67346Z" fill="black"/>
<path d="M9.18366 3.67346H7.34692V5.5102H9.18366V3.67346Z" fill="black"/>
<path d="M12.8571 3.67346H11.0204V5.5102H12.8571V3.67346Z" fill="black"/>
<path d="M20.2041 3.67346H18.3674V5.5102H20.2041V3.67346Z" fill="black"/>
<path d="M22.0408 3.67346H20.2041V5.5102H22.0408V3.67346Z" fill="black"/>
<path d="M23.8776 3.67346H22.0408V5.5102H23.8776V3.67346Z" fill="black"/>
<path d="M25.7143 3.67346H23.8776V5.5102H25.7143V3.67346Z" fill="black"/>
<path d="M33.0612 3.67346H31.2245V5.5102H33.0612V3.67346Z" fill="black"/>
<path d="M34.898 3.67346H33.0612V5.5102H34.898V3.67346Z" fill="black"/>
<path d="M36.7347 3.67346H34.8979V5.5102H36.7347V3.67346Z" fill="black"/>
<path d="M42.2449 3.67346H40.4081V5.5102H42.2449V3.67346Z" fill="black"/>
<path d="M45.9184 3.67346H44.0817V5.5102H45.9184V3.67346Z" fill="black"/>
<path d="M53.2653 3.67346H51.4286V5.5102H53.2653V3.67346Z" fill="black"/>
<path d="M56.9388 3.67346H55.1021V5.5102H56.9388V3.67346Z" fill="black"/>
<path d="M62.449 3.67346H60.6122V5.5102H62.449V3.67346Z" fill="black"/>
<path d="M66.1224 3.67346H64.2857V5.5102H66.1224V3.67346Z" fill="black"/>
<path d="M67.9592 3.67346H66.1224V5.5102H67.9592V3.67346Z" fill="black"/>
<path d="M73.4694 3.67346H71.6326V5.5102H73.4694V3.67346Z" fill="black"/>
<path d="M75.3061 3.67346H73.4694V5.5102H75.3061V3.67346Z" fill="black"/>
<path d="M78.9796 3.67346H77.1428V5.5102H78.9796V3.67346Z" fill="black"/>
<path d="M82.6531 3.67346H80.8163V5.5102H82.6531V3.67346Z" fill="black"/>
<path d="M84.4898 3.67346H82.6531V5.5102H84.4898V3.67346Z" fill="black"/>
<path d="M86.3265 3.67346H84.4898V5.5102H86.3265V3.67346Z" fill="black"/>
<path d="M90 3.67346H88.1633V5.5102H90V3.67346Z" fill="black"/>
<path d="M1.83673 5.51025H0V7.34699H1.83673V5.51025Z" fill="black"/>
<path d="M5.5102 5.51025H3.67346V7.34699H5.5102V5.51025Z" fill="black"/>
<path d="M7.34693 5.51025H5.51019V7.34699H7.34693V5.51025Z" fill="black"/>
<path d="M9.18366 5.51025H7.34692V7.34699H9.18366V5.51025Z" fill="black"/>
<path d="M12.8571 5.51025H11.0204V7.34699H12.8571V5.51025Z" fill="black"/>
<path d="M16.5306 5.51025H14.6938V7.34699H16.5306V5.51025Z" fill="black"/>
<path d="M18.3674 5.51025H16.5306V7.34699H18.3674V5.51025Z" fill="black"/>
<path d="M20.2041 5.51025H18.3674V7.34699H20.2041V5.51025Z" fill="black"/>
<path d="M29.3878 5.51025H27.551V7.34699H29.3878V5.51025Z" fill="black"/>
<path d="M34.898 5.51025H33.0612V7.34699H34.898V5.51025Z" fill="black"/>
<path d="M40.4081 5.51025H38.5714V7.34699H40.4081V5.51025Z" fill="black"/>
<path d="M42.2449 5.51025H40.4081V7.34699H42.2449V5.51025Z" fill="black"/>
<path d="M45.9184 5.51025H44.0817V7.34699H45.9184V5.51025Z" fill="black"/>
<path d="M49.5919 5.51025H47.7551V7.34699H49.5919V5.51025Z" fill="black"/>
<path d="M51.4286 5.51025H49.5919V7.34699H51.4286V5.51025Z" fill="black"/>
<path d="M53.2653 5.51025H51.4286V7.34699H53.2653V5.51025Z" fill="black"/>
<path d="M55.1021 5.51025H53.2653V7.34699H55.1021V5.51025Z" fill="black"/>
<path d="M56.9388 5.51025H55.1021V7.34699H56.9388V5.51025Z" fill="black"/>
<path d="M60.6122 5.51025H58.7755V7.34699H60.6122V5.51025Z" fill="black"/>
<path d="M62.449 5.51025H60.6122V7.34699H62.449V5.51025Z" fill="black"/>
<path d="M66.1224 5.51025H64.2857V7.34699H66.1224V5.51025Z" fill="black"/>
<path d="M73.4694 5.51025H71.6326V7.34699H73.4694V5.51025Z" fill="black"/>
<path d="M78.9796 5.51025H77.1428V7.34699H78.9796V5.51025Z" fill="black"/>
<path d="M82.6531 5.51025H80.8163V7.34699H82.6531V5.51025Z" fill="black"/>
<path d="M84.4898 5.51025H82.6531V7.34699H84.4898V5.51025Z" fill="black"/>
<path d="M86.3265 5.51025H84.4898V7.34699H86.3265V5.51025Z" fill="black"/>
<path d="M90 5.51025H88.1633V7.34699H90V5.51025Z" fill="black"/>
<path d="M1.83673 7.34692H0V9.18366H1.83673V7.34692Z" fill="black"/>
<path d="M5.5102 7.34692H3.67346V9.18366H5.5102V7.34692Z" fill="black"/>
<path d="M7.34693 7.34692H5.51019V9.18366H7.34693V7.34692Z" fill="black"/>
<path d="M9.18366 7.34692H7.34692V9.18366H9.18366V7.34692Z" fill="black"/>
<path d="M12.8571 7.34692H11.0204V9.18366H12.8571V7.34692Z" fill="black"/>
<path d="M18.3674 7.34692H16.5306V9.18366H18.3674V7.34692Z" fill="black"/>
<path d="M20.2041 7.34692H18.3674V9.18366H20.2041V7.34692Z" fill="black"/>
<path d="M23.8776 7.34692H22.0408V9.18366H23.8776V7.34692Z" fill="black"/>
<path d="M25.7143 7.34692H23.8776V9.18366H25.7143V7.34692Z" fill="black"/>
<path d="M31.2245 7.34692H29.3878V9.18366H31.2245V7.34692Z" fill="black"/>
<path d="M33.0612 7.34692H31.2245V9.18366H33.0612V7.34692Z" fill="black"/>
<path d="M34.898 7.34692H33.0612V9.18366H34.898V7.34692Z" fill="black"/>
<path d="M36.7347 7.34692H34.8979V9.18366H36.7347V7.34692Z" fill="black"/>
<path d="M38.5714 7.34692H36.7347V9.18366H38.5714V7.34692Z" fill="black"/>
<path d="M42.2449 7.34692H40.4081V9.18366H42.2449V7.34692Z" fill="black"/>
<path d="M44.0816 7.34692H42.2449V9.18366H44.0816V7.34692Z" fill="black"/>
<path d="M45.9184 7.34692H44.0817V9.18366H45.9184V7.34692Z" fill="black"/>
<path d="M47.7551 7.34692H45.9183V9.18366H47.7551V7.34692Z" fill="black"/>
<path d="M49.5919 7.34692H47.7551V9.18366H49.5919V7.34692Z" fill="black"/>
<path d="M51.4286 7.34692H49.5919V9.18366H51.4286V7.34692Z" fill="black"/>
<path d="M55.1021 7.34692H53.2653V9.18366H55.1021V7.34692Z" fill="black"/>
<path d="M58.7755 7.34692H56.9388V9.18366H58.7755V7.34692Z" fill="black"/>
<path d="M62.449 7.34692H60.6122V9.18366H62.449V7.34692Z" fill="black"/>
<path d="M64.2857 7.34692H62.449V9.18366H64.2857V7.34692Z" fill="black"/>
<path d="M66.1224 7.34692H64.2857V9.18366H66.1224V7.34692Z" fill="black"/>
<path d="M67.9592 7.34692H66.1224V9.18366H67.9592V7.34692Z" fill="black"/>
<path d="M69.7959 7.34692H67.9592V9.18366H69.7959V7.34692Z" fill="black"/>
<path d="M78.9796 7.34692H77.1428V9.18366H78.9796V7.34692Z" fill="black"/>
<path d="M82.6531 7.34692H80.8163V9.18366H82.6531V7.34692Z" fill="black"/>
<path d="M84.4898 7.34692H82.6531V9.18366H84.4898V7.34692Z" fill="black"/>
<path d="M86.3265 7.34692H84.4898V9.18366H86.3265V7.34692Z" fill="black"/>
<path d="M90 7.34692H88.1633V9.18366H90V7.34692Z" fill="black"/>
<path d="M1.83673 9.18372H0V11.0205H1.83673V9.18372Z" fill="black"/>
<path d="M12.8571 9.18372H11.0204V11.0205H12.8571V9.18372Z" fill="black"/>
<path d="M16.5306 9.18372H14.6938V11.0205H16.5306V9.18372Z" fill="black"/>
<path d="M18.3674 9.18372H16.5306V11.0205H18.3674V9.18372Z" fill="black"/>
<path d="M20.2041 9.18372H18.3674V11.0205H20.2041V9.18372Z" fill="black"/>
<path d="M22.0408 9.18372H20.2041V11.0205H22.0408V9.18372Z" fill="black"/>
<path d="M23.8776 9.18372H22.0408V11.0205H23.8776V9.18372Z" fill="black"/>
<path d="M29.3878 9.18372H27.551V11.0205H29.3878V9.18372Z" fill="black"/>
<path d="M31.2245 9.18372H29.3878V11.0205H31.2245V9.18372Z" fill="black"/>
<path d="M33.0612 9.18372H31.2245V11.0205H33.0612V9.18372Z" fill="black"/>
<path d="M34.898 9.18372H33.0612V11.0205H34.898V9.18372Z" fill="black"/>
<path d="M38.5714 9.18372H36.7347V11.0205H38.5714V9.18372Z" fill="black"/>
<path d="M42.2449 9.18372H40.4081V11.0205H42.2449V9.18372Z" fill="black"/>
<path d="M49.5919 9.18372H47.7551V11.0205H49.5919V9.18372Z" fill="black"/>
<path d="M51.4286 9.18372H49.5919V11.0205H51.4286V9.18372Z" fill="black"/>
<path d="M55.1021 9.18372H53.2653V11.0205H55.1021V9.18372Z" fill="black"/>
<path d="M56.9388 9.18372H55.1021V11.0205H56.9388V9.18372Z" fill="black"/>
<path d="M64.2857 9.18372H62.449V11.0205H64.2857V9.18372Z" fill="black"/>
<path d="M66.1224 9.18372H64.2857V11.0205H66.1224V9.18372Z" fill="black"/>
<path d="M67.9592 9.18372H66.1224V11.0205H67.9592V9.18372Z" fill="black"/>
<path d="M71.6326 9.18372H69.7959V11.0205H71.6326V9.18372Z" fill="black"/>
<path d="M78.9796 9.18372H77.1428V11.0205H78.9796V9.18372Z" fill="black"/>
<path d="M90 9.18372H88.1633V11.0205H90V9.18372Z" fill="black"/>
<path d="M1.83673 11.0204H0V12.8571H1.83673V11.0204Z" fill="black"/>
<path d="M3.67347 11.0204H1.83673V12.8571H3.67347V11.0204Z" fill="black"/>
<path d="M5.5102 11.0204H3.67346V12.8571H5.5102V11.0204Z" fill="black"/>
<path d="M7.34693 11.0204H5.51019V12.8571H7.34693V11.0204Z" fill="black"/>
<path d="M9.18366 11.0204H7.34692V12.8571H9.18366V11.0204Z" fill="black"/>
<path d="M11.0204 11.0204H9.18365V12.8571H11.0204V11.0204Z" fill="black"/>
<path d="M12.8571 11.0204H11.0204V12.8571H12.8571V11.0204Z" fill="black"/>
<path d="M16.5306 11.0204H14.6938V12.8571H16.5306V11.0204Z" fill="black"/>
<path d="M20.2041 11.0204H18.3674V12.8571H20.2041V11.0204Z" fill="black"/>
<path d="M23.8776 11.0204H22.0408V12.8571H23.8776V11.0204Z" fill="black"/>
<path d="M27.551 11.0204H25.7143V12.8571H27.551V11.0204Z" fill="black"/>
<path d="M31.2245 11.0204H29.3878V12.8571H31.2245V11.0204Z" fill="black"/>
<path d="M34.898 11.0204H33.0612V12.8571H34.898V11.0204Z" fill="black"/>
<path d="M38.5714 11.0204H36.7347V12.8571H38.5714V11.0204Z" fill="black"/>
<path d="M42.2449 11.0204H40.4081V12.8571H42.2449V11.0204Z" fill="black"/>
<path d="M45.9184 11.0204H44.0817V12.8571H45.9184V11.0204Z" fill="black"/>
<path d="M49.5919 11.0204H47.7551V12.8571H49.5919V11.0204Z" fill="black"/>
<path d="M53.2653 11.0204H51.4286V12.8571H53.2653V11.0204Z" fill="black"/>
<path d="M56.9388 11.0204H55.1021V12.8571H56.9388V11.0204Z" fill="black"/>
<path d="M60.6122 11.0204H58.7755V12.8571H60.6122V11.0204Z" fill="black"/>
<path d="M64.2857 11.0204H62.449V12.8571H64.2857V11.0204Z" fill="black"/>
<path d="M67.9592 11.0204H66.1224V12.8571H67.9592V11.0204Z" fill="black"/>
<path d="M71.6326 11.0204H69.7959V12.8571H71.6326V11.0204Z" fill="black"/>
<path d="M75.3061 11.0204H73.4694V12.8571H75.3061V11.0204Z" fill="black"/>
<path d="M78.9796 11.0204H77.1428V12.8571H78.9796V11.0204Z" fill="black"/>
<path d="M80.8163 11.0204H78.9796V12.8571H80.8163V11.0204Z" fill="black"/>
<path d="M82.6531 11.0204H80.8163V12.8571H82.6531V11.0204Z" fill="black"/>
<path d="M84.4898 11.0204H82.6531V12.8571H84.4898V11.0204Z" fill="black"/>
<path d="M86.3265 11.0204H84.4898V12.8571H86.3265V11.0204Z" fill="black"/>
<path d="M88.1633 11.0204H86.3265V12.8571H88.1633V11.0204Z" fill="black"/>
<path d="M90 11.0204H88.1633V12.8571H90V11.0204Z" fill="black"/>
<path d="M18.3674 12.8572H16.5306V14.6939H18.3674V12.8572Z" fill="black"/>
<path d="M20.2041 12.8572H18.3674V14.6939H20.2041V12.8572Z" fill="black"/>
<path d="M31.2245 12.8572H29.3878V14.6939H31.2245V12.8572Z" fill="black"/>
<path d="M34.898 12.8572H33.0612V14.6939H34.898V12.8572Z" fill="black"/>
<path d="M36.7347 12.8572H34.8979V14.6939H36.7347V12.8572Z" fill="black"/>
<path d="M38.5714 12.8572H36.7347V14.6939H38.5714V12.8572Z" fill="black"/>
<path d="M40.4081 12.8572H38.5714V14.6939H40.4081V12.8572Z" fill="black"/>
<path d="M42.2449 12.8572H40.4081V14.6939H42.2449V12.8572Z" fill="black"/>
<path d="M49.5919 12.8572H47.7551V14.6939H49.5919V12.8572Z" fill="black"/>
<path d="M51.4286 12.8572H49.5919V14.6939H51.4286V12.8572Z" fill="black"/>
<path d="M58.7755 12.8572H56.9388V14.6939H58.7755V12.8572Z" fill="black"/>
<path d="M60.6122 12.8572H58.7755V14.6939H60.6122V12.8572Z" fill="black"/>
<path d="M66.1224 12.8572H64.2857V14.6939H66.1224V12.8572Z" fill="black"/>
<path d="M69.7959 12.8572H67.9592V14.6939H69.7959V12.8572Z" fill="black"/>
<path d="M71.6326 12.8572H69.7959V14.6939H71.6326V12.8572Z" fill="black"/>
<path d="M73.4694 12.8572H71.6326V14.6939H73.4694V12.8572Z" fill="black"/>
<path d="M1.83673 14.6938H0V16.5306H1.83673V14.6938Z" fill="black"/>
<path d="M3.67347 14.6938H1.83673V16.5306H3.67347V14.6938Z" fill="black"/>
<path d="M5.5102 14.6938H3.67346V16.5306H5.5102V14.6938Z" fill="black"/>
<path d="M7.34693 14.6938H5.51019V16.5306H7.34693V14.6938Z" fill="black"/>
<path d="M9.18366 14.6938H7.34692V16.5306H9.18366V14.6938Z" fill="black"/>
<path d="M12.8571 14.6938H11.0204V16.5306H12.8571V14.6938Z" fill="black"/>
<path d="M14.6939 14.6938H12.8571V16.5306H14.6939V14.6938Z" fill="black"/>
<path d="M16.5306 14.6938H14.6938V16.5306H16.5306V14.6938Z" fill="black"/>
<path d="M22.0408 14.6938H20.2041V16.5306H22.0408V14.6938Z" fill="black"/>
<path d="M23.8776 14.6938H22.0408V16.5306H23.8776V14.6938Z" fill="black"/>
<path d="M25.7143 14.6938H23.8776V16.5306H25.7143V14.6938Z" fill="black"/>
<path d="M31.2245 14.6938H29.3878V16.5306H31.2245V14.6938Z" fill="black"/>
<path d="M34.898 14.6938H33.0612V16.5306H34.898V14.6938Z" fill="black"/>
<path d="M40.4081 14.6938H38.5714V16.5306H40.4081V14.6938Z" fill="black"/>
<path d="M42.2449 14.6938H40.4081V16.5306H42.2449V14.6938Z" fill="black"/>
<path d="M44.0816 14.6938H42.2449V16.5306H44.0816V14.6938Z" fill="black"/>
<path d="M45.9184 14.6938H44.0817V16.5306H45.9184V14.6938Z" fill="black"/>
<path d="M47.7551 14.6938H45.9183V16.5306H47.7551V14.6938Z" fill="black"/>
<path d="M49.5919 14.6938H47.7551V16.5306H49.5919V14.6938Z" fill="black"/>
<path d="M55.1021 14.6938H53.2653V16.5306H55.1021V14.6938Z" fill="black"/>
<path d="M56.9388 14.6938H55.1021V16.5306H56.9388V14.6938Z" fill="black"/>
<path d="M62.449 14.6938H60.6122V16.5306H62.449V14.6938Z" fill="black"/>
<path d="M67.9592 14.6938H66.1224V16.5306H67.9592V14.6938Z" fill="black"/>
<path d="M69.7959 14.6938H67.9592V16.5306H69.7959V14.6938Z" fill="black"/>
<path d="M73.4694 14.6938H71.6326V16.5306H73.4694V14.6938Z" fill="black"/>
<path d="M75.3061 14.6938H73.4694V16.5306H75.3061V14.6938Z" fill="black"/>
<path d="M77.1429 14.6938H75.3062V16.5306H77.1429V14.6938Z" fill="black"/>
<path d="M80.8163 14.6938H78.9796V16.5306H80.8163V14.6938Z" fill="black"/>
<path d="M84.4898 14.6938H82.6531V16.5306H84.4898V14.6938Z" fill="black"/>
<path d="M88.1633 14.6938H86.3265V16.5306H88.1633V14.6938Z" fill="black"/>
<path d="M1.83673 16.5306H0V18.3674H1.83673V16.5306Z" fill="black"/>
<path d="M5.5102 16.5306H3.67346V18.3674H5.5102V16.5306Z" fill="black"/>
<path d="M7.34693 16.5306H5.51019V18.3674H7.34693V16.5306Z" fill="black"/>
<path d="M9.18366 16.5306H7.34692V18.3674H9.18366V16.5306Z" fill="black"/>
<path d="M14.6939 16.5306H12.8571V18.3674H14.6939V16.5306Z" fill="black"/>
<path d="M16.5306 16.5306H14.6938V18.3674H16.5306V16.5306Z" fill="black"/>
<path d="M18.3674 16.5306H16.5306V18.3674H18.3674V16.5306Z" fill="black"/>
<path d="M20.2041 16.5306H18.3674V18.3674H20.2041V16.5306Z" fill="black"/>
<path d="M25.7143 16.5306H23.8776V18.3674H25.7143V16.5306Z" fill="black"/>
<path d="M27.551 16.5306H25.7143V18.3674H27.551V16.5306Z" fill="black"/>
<path d="M33.0612 16.5306H31.2245V18.3674H33.0612V16.5306Z" fill="black"/>
<path d="M36.7347 16.5306H34.8979V18.3674H36.7347V16.5306Z" fill="black"/>
<path d="M40.4081 16.5306H38.5714V18.3674H40.4081V16.5306Z" fill="black"/>
<path d="M42.2449 16.5306H40.4081V18.3674H42.2449V16.5306Z" fill="black"/>
<path d="M45.9184 16.5306H44.0817V18.3674H45.9184V16.5306Z" fill="black"/>
<path d="M51.4286 16.5306H49.5919V18.3674H51.4286V16.5306Z" fill="black"/>
<path d="M53.2653 16.5306H51.4286V18.3674H53.2653V16.5306Z" fill="black"/>
<path d="M56.9388 16.5306H55.1021V18.3674H56.9388V16.5306Z" fill="black"/>
<path d="M58.7755 16.5306H56.9388V18.3674H58.7755V16.5306Z" fill="black"/>
<path d="M60.6122 16.5306H58.7755V18.3674H60.6122V16.5306Z" fill="black"/>
<path d="M67.9592 16.5306H66.1224V18.3674H67.9592V16.5306Z" fill="black"/>
<path d="M69.7959 16.5306H67.9592V18.3674H69.7959V16.5306Z" fill="black"/>
<path d="M78.9796 16.5306H77.1428V18.3674H78.9796V16.5306Z" fill="black"/>
<path d="M80.8163 16.5306H78.9796V18.3674H80.8163V16.5306Z" fill="black"/>
<path d="M82.6531 16.5306H80.8163V18.3674H82.6531V16.5306Z" fill="black"/>
<path d="M84.4898 16.5306H82.6531V18.3674H84.4898V16.5306Z" fill="black"/>
<path d="M86.3265 16.5306H84.4898V18.3674H86.3265V16.5306Z" fill="black"/>
<path d="M88.1633 16.5306H86.3265V18.3674H88.1633V16.5306Z" fill="black"/>
<path d="M1.83673 18.3673H0V20.204H1.83673V18.3673Z" fill="black"/>
<path d="M3.67347 18.3673H1.83673V20.204H3.67347V18.3673Z" fill="black"/>
<path d="M11.0204 18.3673H9.18365V20.204H11.0204V18.3673Z" fill="black"/>
<path d="M12.8571 18.3673H11.0204V20.204H12.8571V18.3673Z" fill="black"/>
<path d="M14.6939 18.3673H12.8571V20.204H14.6939V18.3673Z" fill="black"/>
<path d="M16.5306 18.3673H14.6938V20.204H16.5306V18.3673Z" fill="black"/>
<path d="M22.0408 18.3673H20.2041V20.204H22.0408V18.3673Z" fill="black"/>
<path d="M25.7143 18.3673H23.8776V20.204H25.7143V18.3673Z" fill="black"/>
<path d="M27.551 18.3673H25.7143V20.204H27.551V18.3673Z" fill="black"/>
<path d="M31.2245 18.3673H29.3878V20.204H31.2245V18.3673Z" fill="black"/>
<path d="M33.0612 18.3673H31.2245V20.204H33.0612V18.3673Z" fill="black"/>
<path d="M38.5714 18.3673H36.7347V20.204H38.5714V18.3673Z" fill="black"/>
<path d="M44.0816 18.3673H42.2449V20.204H44.0816V18.3673Z" fill="black"/>
<path d="M45.9184 18.3673H44.0817V20.204H45.9184V18.3673Z" fill="black"/>
<path d="M51.4286 18.3673H49.5919V20.204H51.4286V18.3673Z" fill="black"/>
<path d="M53.2653 18.3673H51.4286V20.204H53.2653V18.3673Z" fill="black"/>
<path d="M55.1021 18.3673H53.2653V20.204H55.1021V18.3673Z" fill="black"/>
<path d="M60.6122 18.3673H58.7755V20.204H60.6122V18.3673Z" fill="black"/>
<path d="M66.1224 18.3673H64.2857V20.204H66.1224V18.3673Z" fill="black"/>
<path d="M71.6326 18.3673H69.7959V20.204H71.6326V18.3673Z" fill="black"/>
<path d="M80.8163 18.3673H78.9796V20.204H80.8163V18.3673Z" fill="black"/>
<path d="M88.1633 18.3673H86.3265V20.204H88.1633V18.3673Z" fill="black"/>
<path d="M90 18.3673H88.1633V20.204H90V18.3673Z" fill="black"/>
<path d="M1.83673 20.2041H0V22.0408H1.83673V20.2041Z" fill="black"/>
<path d="M11.0204 20.2041H9.18365V22.0408H11.0204V20.2041Z" fill="black"/>
<path d="M16.5306 20.2041H14.6938V22.0408H16.5306V20.2041Z" fill="black"/>
<path d="M20.2041 20.2041H18.3674V22.0408H20.2041V20.2041Z" fill="black"/>
<path d="M22.0408 20.2041H20.2041V22.0408H22.0408V20.2041Z" fill="black"/>
<path d="M23.8776 20.2041H22.0408V22.0408H23.8776V20.2041Z" fill="black"/>
<path d="M27.551 20.2041H25.7143V22.0408H27.551V20.2041Z" fill="black"/>
<path d="M31.2245 20.2041H29.3878V22.0408H31.2245V20.2041Z" fill="black"/>
<path d="M36.7347 20.2041H34.8979V22.0408H36.7347V20.2041Z" fill="black"/>
<path d="M38.5714 20.2041H36.7347V22.0408H38.5714V20.2041Z" fill="black"/>
<path d="M44.0816 20.2041H42.2449V22.0408H44.0816V20.2041Z" fill="black"/>
<path d="M45.9184 20.2041H44.0817V22.0408H45.9184V20.2041Z" fill="black"/>
<path d="M47.7551 20.2041H45.9183V22.0408H47.7551V20.2041Z" fill="black"/>
<path d="M49.5919 20.2041H47.7551V22.0408H49.5919V20.2041Z" fill="black"/>
<path d="M56.9388 20.2041H55.1021V22.0408H56.9388V20.2041Z" fill="black"/>
<path d="M58.7755 20.2041H56.9388V22.0408H58.7755V20.2041Z" fill="black"/>
<path d="M62.449 20.2041H60.6122V22.0408H62.449V20.2041Z" fill="black"/>
<path d="M67.9592 20.2041H66.1224V22.0408H67.9592V20.2041Z" fill="black"/>
<path d="M69.7959 20.2041H67.9592V22.0408H69.7959V20.2041Z" fill="black"/>
<path d="M71.6326 20.2041H69.7959V22.0408H71.6326V20.2041Z" fill="black"/>
<path d="M73.4694 20.2041H71.6326V22.0408H73.4694V20.2041Z" fill="black"/>
<path d="M77.1429 20.2041H75.3062V22.0408H77.1429V20.2041Z" fill="black"/>
<path d="M78.9796 20.2041H77.1428V22.0408H78.9796V20.2041Z" fill="black"/>
<path d="M80.8163 20.2041H78.9796V22.0408H80.8163V20.2041Z" fill="black"/>
<path d="M90 20.2041H88.1633V22.0408H90V20.2041Z" fill="black"/>
<path d="M3.67347 22.0408H1.83673V23.8775H3.67347V22.0408Z" fill="black"/>
<path d="M9.18366 22.0408H7.34692V23.8775H9.18366V22.0408Z" fill="black"/>
<path d="M11.0204 22.0408H9.18365V23.8775H11.0204V22.0408Z" fill="black"/>
<path d="M12.8571 22.0408H11.0204V23.8775H12.8571V22.0408Z" fill="black"/>
<path d="M14.6939 22.0408H12.8571V23.8775H14.6939V22.0408Z" fill="black"/>
<path d="M16.5306 22.0408H14.6938V23.8775H16.5306V22.0408Z" fill="black"/>
<path d="M20.2041 22.0408H18.3674V23.8775H20.2041V22.0408Z" fill="black"/>
<path d="M22.0408 22.0408H20.2041V23.8775H22.0408V22.0408Z" fill="black"/>
<path d="M23.8776 22.0408H22.0408V23.8775H23.8776V22.0408Z" fill="black"/>
<path d="M25.7143 22.0408H23.8776V23.8775H25.7143V22.0408Z" fill="black"/>
<path d="M27.551 22.0408H25.7143V23.8775H27.551V22.0408Z" fill="black"/>
<path d="M33.0612 22.0408H31.2245V23.8775H33.0612V22.0408Z" fill="black"/>
<path d="M36.7347 22.0408H34.8979V23.8775H36.7347V22.0408Z" fill="black"/>
<path d="M44.0816 22.0408H42.2449V23.8775H44.0816V22.0408Z" fill="black"/>
<path d="M45.9184 22.0408H44.0817V23.8775H45.9184V22.0408Z" fill="black"/>
<path d="M49.5919 22.0408H47.7551V23.8775H49.5919V22.0408Z" fill="black"/>
<path d="M53.2653 22.0408H51.4286V23.8775H53.2653V22.0408Z" fill="black"/>
<path d="M56.9388 22.0408H55.1021V23.8775H56.9388V22.0408Z" fill="black"/>
<path d="M58.7755 22.0408H56.9388V23.8775H58.7755V22.0408Z" fill="black"/>
<path d="M60.6122 22.0408H58.7755V23.8775H60.6122V22.0408Z" fill="black"/>
<path d="M62.449 22.0408H60.6122V23.8775H62.449V22.0408Z" fill="black"/>
<path d="M71.6326 22.0408H69.7959V23.8775H71.6326V22.0408Z" fill="black"/>
<path d="M75.3061 22.0408H73.4694V23.8775H75.3061V22.0408Z" fill="black"/>
<path d="M80.8163 22.0408H78.9796V23.8775H80.8163V22.0408Z" fill="black"/>
<path d="M84.4898 22.0408H82.6531V23.8775H84.4898V22.0408Z" fill="black"/>
<path d="M3.67347 23.8776H1.83673V25.7143H3.67347V23.8776Z" fill="black"/>
<path d="M7.34693 23.8776H5.51019V25.7143H7.34693V23.8776Z" fill="black"/>
<path d="M9.18366 23.8776H7.34692V25.7143H9.18366V23.8776Z" fill="black"/>
<path d="M11.0204 23.8776H9.18365V25.7143H11.0204V23.8776Z" fill="black"/>
<path d="M16.5306 23.8776H14.6938V25.7143H16.5306V23.8776Z" fill="black"/>
<path d="M23.8776 23.8776H22.0408V25.7143H23.8776V23.8776Z" fill="black"/>
<path d="M29.3878 23.8776H27.551V25.7143H29.3878V23.8776Z" fill="black"/>
<path d="M34.898 23.8776H33.0612V25.7143H34.898V23.8776Z" fill="black"/>
<path d="M40.4081 23.8776H38.5714V25.7143H40.4081V23.8776Z" fill="black"/>
<path d="M44.0816 23.8776H42.2449V25.7143H44.0816V23.8776Z" fill="black"/>
<path d="M47.7551 23.8776H45.9183V25.7143H47.7551V23.8776Z" fill="black"/>
<path d="M51.4286 23.8776H49.5919V25.7143H51.4286V23.8776Z" fill="black"/>
<path d="M53.2653 23.8776H51.4286V25.7143H53.2653V23.8776Z" fill="black"/>
<path d="M58.7755 23.8776H56.9388V25.7143H58.7755V23.8776Z" fill="black"/>
<path d="M60.6122 23.8776H58.7755V25.7143H60.6122V23.8776Z" fill="black"/>
<path d="M64.2857 23.8776H62.449V25.7143H64.2857V23.8776Z" fill="black"/>
<path d="M66.1224 23.8776H64.2857V25.7143H66.1224V23.8776Z" fill="black"/>
<path d="M67.9592 23.8776H66.1224V25.7143H67.9592V23.8776Z" fill="black"/>
<path d="M73.4694 23.8776H71.6326V25.7143H73.4694V23.8776Z" fill="black"/>
<path d="M77.1429 23.8776H75.3062V25.7143H77.1429V23.8776Z" fill="black"/>
<path d="M78.9796 23.8776H77.1428V25.7143H78.9796V23.8776Z" fill="black"/>
<path d="M82.6531 23.8776H80.8163V25.7143H82.6531V23.8776Z" fill="black"/>
<path d="M90 23.8776H88.1633V25.7143H90V23.8776Z" fill="black"/>
<path d="M5.5102 25.7142H3.67346V27.551H5.5102V25.7142Z" fill="black"/>
<path d="M7.34693 25.7142H5.51019V27.551H7.34693V25.7142Z" fill="black"/>
<path d="M9.18366 25.7142H7.34692V27.551H9.18366V25.7142Z" fill="black"/>
<path d="M12.8571 25.7142H11.0204V27.551H12.8571V25.7142Z" fill="black"/>
<path d="M16.5306 25.7142H14.6938V27.551H16.5306V25.7142Z" fill="black"/>
<path d="M18.3674 25.7142H16.5306V27.551H18.3674V25.7142Z" fill="black"/>
<path d="M20.2041 25.7142H18.3674V27.551H20.2041V25.7142Z" fill="black"/>
<path d="M22.0408 25.7142H20.2041V27.551H22.0408V25.7142Z" fill="black"/>
<path d="M23.8776 25.7142H22.0408V27.551H23.8776V25.7142Z" fill="black"/>
<path d="M27.551 25.7142H25.7143V27.551H27.551V25.7142Z" fill="black"/>
<path d="M36.7347 25.7142H34.8979V27.551H36.7347V25.7142Z" fill="black"/>
<path d="M53.2653 25.7142H51.4286V27.551H53.2653V25.7142Z" fill="black"/>
<path d="M55.1021 25.7142H53.2653V27.551H55.1021V25.7142Z" fill="black"/>
<path d="M58.7755 25.7142H56.9388V27.551H58.7755V25.7142Z" fill="black"/>
<path d="M60.6122 25.7142H58.7755V27.551H60.6122V25.7142Z" fill="black"/>
<path d="M67.9592 25.7142H66.1224V27.551H67.9592V25.7142Z" fill="black"/>
<path d="M69.7959 25.7142H67.9592V27.551H69.7959V25.7142Z" fill="black"/>
<path d="M71.6326 25.7142H69.7959V27.551H71.6326V25.7142Z" fill="black"/>
<path d="M73.4694 25.7142H71.6326V27.551H73.4694V25.7142Z" fill="black"/>
<path d="M75.3061 25.7142H73.4694V27.551H75.3061V25.7142Z" fill="black"/>
<path d="M78.9796 25.7142H77.1428V27.551H78.9796V25.7142Z" fill="black"/>
<path d="M82.6531 25.7142H80.8163V27.551H82.6531V25.7142Z" fill="black"/>
<path d="M84.4898 25.7142H82.6531V27.551H84.4898V25.7142Z" fill="black"/>
<path d="M88.1633 25.7142H86.3265V27.551H88.1633V25.7142Z" fill="black"/>
<path d="M90 25.7142H88.1633V27.551H90V25.7142Z" fill="black"/>
<path d="M1.83673 27.551H0V29.3878H1.83673V27.551Z" fill="black"/>
<path d="M3.67347 27.551H1.83673V29.3878H3.67347V27.551Z" fill="black"/>
<path d="M5.5102 27.551H3.67346V29.3878H5.5102V27.551Z" fill="black"/>
<path d="M11.0204 27.551H9.18365V29.3878H11.0204V27.551Z" fill="black"/>
<path d="M14.6939 27.551H12.8571V29.3878H14.6939V27.551Z" fill="black"/>
<path d="M16.5306 27.551H14.6938V29.3878H16.5306V27.551Z" fill="black"/>
<path d="M25.7143 27.551H23.8776V29.3878H25.7143V27.551Z" fill="black"/>
<path d="M29.3878 27.551H27.551V29.3878H29.3878V27.551Z" fill="black"/>
<path d="M40.4081 27.551H38.5714V29.3878H40.4081V27.551Z" fill="black"/>
<path d="M45.9184 27.551H44.0817V29.3878H45.9184V27.551Z" fill="black"/>
<path d="M49.5919 27.551H47.7551V29.3878H49.5919V27.551Z" fill="black"/>
<path d="M51.4286 27.551H49.5919V29.3878H51.4286V27.551Z" fill="black"/>
<path d="M55.1021 27.551H53.2653V29.3878H55.1021V27.551Z" fill="black"/>
<path d="M56.9388 27.551H55.1021V29.3878H56.9388V27.551Z" fill="black"/>
<path d="M60.6122 27.551H58.7755V29.3878H60.6122V27.551Z" fill="black"/>
<path d="M62.449 27.551H60.6122V29.3878H62.449V27.551Z" fill="black"/>
<path d="M64.2857 27.551H62.449V29.3878H64.2857V27.551Z" fill="black"/>
<path d="M67.9592 27.551H66.1224V29.3878H67.9592V27.551Z" fill="black"/>
<path d="M69.7959 27.551H67.9592V29.3878H69.7959V27.551Z" fill="black"/>
<path d="M71.6326 27.551H69.7959V29.3878H71.6326V27.551Z" fill="black"/>
<path d="M73.4694 27.551H71.6326V29.3878H73.4694V27.551Z" fill="black"/>
<path d="M75.3061 27.551H73.4694V29.3878H75.3061V27.551Z" fill="black"/>
<path d="M77.1429 27.551H75.3062V29.3878H77.1429V27.551Z" fill="black"/>
<path d="M80.8163 27.551H78.9796V29.3878H80.8163V27.551Z" fill="black"/>
<path d="M82.6531 27.551H80.8163V29.3878H82.6531V27.551Z" fill="black"/>
<path d="M88.1633 27.551H86.3265V29.3878H88.1633V27.551Z" fill="black"/>
<path d="M3.67347 29.3877H1.83673V31.2244H3.67347V29.3877Z" fill="black"/>
<path d="M7.34693 29.3877H5.51019V31.2244H7.34693V29.3877Z" fill="black"/>
<path d="M11.0204 29.3877H9.18365V31.2244H11.0204V29.3877Z" fill="black"/>
<path d="M12.8571 29.3877H11.0204V31.2244H12.8571V29.3877Z" fill="black"/>
<path d="M14.6939 29.3877H12.8571V31.2244H14.6939V29.3877Z" fill="black"/>
<path d="M20.2041 29.3877H18.3674V31.2244H20.2041V29.3877Z" fill="black"/>
<path d="M25.7143 29.3877H23.8776V31.2244H25.7143V29.3877Z" fill="black"/>
<path d="M29.3878 29.3877H27.551V31.2244H29.3878V29.3877Z" fill="black"/>
<path d="M31.2245 29.3877H29.3878V31.2244H31.2245V29.3877Z" fill="black"/>
<path d="M33.0612 29.3877H31.2245V31.2244H33.0612V29.3877Z" fill="black"/>
<path d="M34.898 29.3877H33.0612V31.2244H34.898V29.3877Z" fill="black"/>
<path d="M44.0816 29.3877H42.2449V31.2244H44.0816V29.3877Z" fill="black"/>
<path d="M45.9184 29.3877H44.0817V31.2244H45.9184V29.3877Z" fill="black"/>
<path d="M49.5919 29.3877H47.7551V31.2244H49.5919V29.3877Z" fill="black"/>
<path d="M51.4286 29.3877H49.5919V31.2244H51.4286V29.3877Z" fill="black"/>
<path d="M66.1224 29.3877H64.2857V31.2244H66.1224V29.3877Z" fill="black"/>
<path d="M67.9592 29.3877H66.1224V31.2244H67.9592V29.3877Z" fill="black"/>
<path d="M69.7959 29.3877H67.9592V31.2244H69.7959V29.3877Z" fill="black"/>
<path d="M71.6326 29.3877H69.7959V31.2244H71.6326V29.3877Z" fill="black"/>
<path d="M73.4694 29.3877H71.6326V31.2244H73.4694V29.3877Z" fill="black"/>
<path d="M75.3061 29.3877H73.4694V31.2244H75.3061V29.3877Z" fill="black"/>
<path d="M80.8163 29.3877H78.9796V31.2244H80.8163V29.3877Z" fill="black"/>
<path d="M86.3265 29.3877H84.4898V31.2244H86.3265V29.3877Z" fill="black"/>
<path d="M88.1633 29.3877H86.3265V31.2244H88.1633V29.3877Z" fill="black"/>
<path d="M90 29.3877H88.1633V31.2244H90V29.3877Z" fill="black"/>
<path d="M7.34693 31.2245H5.51019V33.0612H7.34693V31.2245Z" fill="black"/>
<path d="M9.18366 31.2245H7.34692V33.0612H9.18366V31.2245Z" fill="black"/>
<path d="M18.3674 31.2245H16.5306V33.0612H18.3674V31.2245Z" fill="black"/>
<path d="M20.2041 31.2245H18.3674V33.0612H20.2041V31.2245Z" fill="black"/>
<path d="M22.0408 31.2245H20.2041V33.0612H22.0408V31.2245Z" fill="black"/>
<path d="M23.8776 31.2245H22.0408V33.0612H23.8776V31.2245Z" fill="black"/>
<path d="M27.551 31.2245H25.7143V33.0612H27.551V31.2245Z" fill="black"/>
<path d="M36.7347 31.2245H34.8979V33.0612H36.7347V31.2245Z" fill="black"/>
<path d="M40.4081 31.2245H38.5714V33.0612H40.4081V31.2245Z" fill="black"/>
<path d="M47.7551 31.2245H45.9183V33.0612H47.7551V31.2245Z" fill="black"/>
<path d="M51.4286 31.2245H49.5919V33.0612H51.4286V31.2245Z" fill="black"/>
<path d="M56.9388 31.2245H55.1021V33.0612H56.9388V31.2245Z" fill="black"/>
<path d="M60.6122 31.2245H58.7755V33.0612H60.6122V31.2245Z" fill="black"/>
<path d="M66.1224 31.2245H64.2857V33.0612H66.1224V31.2245Z" fill="black"/>
<path d="M67.9592 31.2245H66.1224V33.0612H67.9592V31.2245Z" fill="black"/>
<path d="M69.7959 31.2245H67.9592V33.0612H69.7959V31.2245Z" fill="black"/>
<path d="M77.1429 31.2245H75.3062V33.0612H77.1429V31.2245Z" fill="black"/>
<path d="M78.9796 31.2245H77.1428V33.0612H78.9796V31.2245Z" fill="black"/>
<path d="M80.8163 31.2245H78.9796V33.0612H80.8163V31.2245Z" fill="black"/>
<path d="M82.6531 31.2245H80.8163V33.0612H82.6531V31.2245Z" fill="black"/>
<path d="M86.3265 31.2245H84.4898V33.0612H86.3265V31.2245Z" fill="black"/>
<path d="M1.83673 33.0613H0V34.898H1.83673V33.0613Z" fill="black"/>
<path d="M3.67347 33.0613H1.83673V34.898H3.67347V33.0613Z" fill="black"/>
<path d="M7.34693 33.0613H5.51019V34.898H7.34693V33.0613Z" fill="black"/>
<path d="M12.8571 33.0613H11.0204V34.898H12.8571V33.0613Z" fill="black"/>
<path d="M14.6939 33.0613H12.8571V34.898H14.6939V33.0613Z" fill="black"/>
<path d="M16.5306 33.0613H14.6938V34.898H16.5306V33.0613Z" fill="black"/>
<path d="M22.0408 33.0613H20.2041V34.898H22.0408V33.0613Z" fill="black"/>
<path d="M23.8776 33.0613H22.0408V34.898H23.8776V33.0613Z" fill="black"/>
<path d="M34.898 33.0613H33.0612V34.898H34.898V33.0613Z" fill="black"/>
<path d="M38.5714 33.0613H36.7347V34.898H38.5714V33.0613Z" fill="black"/>
<path d="M40.4081 33.0613H38.5714V34.898H40.4081V33.0613Z" fill="black"/>
<path d="M45.9184 33.0613H44.0817V34.898H45.9184V33.0613Z" fill="black"/>
<path d="M55.1021 33.0613H53.2653V34.898H55.1021V33.0613Z" fill="black"/>
<path d="M60.6122 33.0613H58.7755V34.898H60.6122V33.0613Z" fill="black"/>
<path d="M66.1224 33.0613H64.2857V34.898H66.1224V33.0613Z" fill="black"/>
<path d="M67.9592 33.0613H66.1224V34.898H67.9592V33.0613Z" fill="black"/>
<path d="M69.7959 33.0613H67.9592V34.898H69.7959V33.0613Z" fill="black"/>
<path d="M71.6326 33.0613H69.7959V34.898H71.6326V33.0613Z" fill="black"/>
<path d="M80.8163 33.0613H78.9796V34.898H80.8163V33.0613Z" fill="black"/>
<path d="M84.4898 33.0613H82.6531V34.898H84.4898V33.0613Z" fill="black"/>
<path d="M86.3265 33.0613H84.4898V34.898H86.3265V33.0613Z" fill="black"/>
<path d="M88.1633 33.0613H86.3265V34.898H88.1633V33.0613Z" fill="black"/>
<path d="M90 33.0613H88.1633V34.898H90V33.0613Z" fill="black"/>
<path d="M1.83673 34.8979H0V36.7347H1.83673V34.8979Z" fill="black"/>
<path d="M3.67347 34.8979H1.83673V36.7347H3.67347V34.8979Z" fill="black"/>
<path d="M5.5102 34.8979H3.67346V36.7347H5.5102V34.8979Z" fill="black"/>
<path d="M7.34693 34.8979H5.51019V36.7347H7.34693V34.8979Z" fill="black"/>
<path d="M16.5306 34.8979H14.6938V36.7347H16.5306V34.8979Z" fill="black"/>
<path d="M23.8776 34.8979H22.0408V36.7347H23.8776V34.8979Z" fill="black"/>
<path d="M25.7143 34.8979H23.8776V36.7347H25.7143V34.8979Z" fill="black"/>
<path d="M31.2245 34.8979H29.3878V36.7347H31.2245V34.8979Z" fill="black"/>
<path d="M33.0612 34.8979H31.2245V36.7347H33.0612V34.8979Z" fill="black"/>
<path d="M34.898 34.8979H33.0612V36.7347H34.898V34.8979Z" fill="black"/>
<path d="M44.0816 34.8979H42.2449V36.7347H44.0816V34.8979Z" fill="black"/>
<path d="M47.7551 34.8979H45.9183V36.7347H47.7551V34.8979Z" fill="black"/>
<path d="M53.2653 34.8979H51.4286V36.7347H53.2653V34.8979Z" fill="black"/>
<path d="M55.1021 34.8979H53.2653V36.7347H55.1021V34.8979Z" fill="black"/>
<path d="M58.7755 34.8979H56.9388V36.7347H58.7755V34.8979Z" fill="black"/>
<path d="M60.6122 34.8979H58.7755V36.7347H60.6122V34.8979Z" fill="black"/>
<path d="M62.449 34.8979H60.6122V36.7347H62.449V34.8979Z" fill="black"/>
<path d="M66.1224 34.8979H64.2857V36.7347H66.1224V34.8979Z" fill="black"/>
<path d="M67.9592 34.8979H66.1224V36.7347H67.9592V34.8979Z" fill="black"/>
<path d="M73.4694 34.8979H71.6326V36.7347H73.4694V34.8979Z" fill="black"/>
<path d="M75.3061 34.8979H73.4694V36.7347H75.3061V34.8979Z" fill="black"/>
<path d="M77.1429 34.8979H75.3062V36.7347H77.1429V34.8979Z" fill="black"/>
<path d="M78.9796 34.8979H77.1428V36.7347H78.9796V34.8979Z" fill="black"/>
<path d="M84.4898 34.8979H82.6531V36.7347H84.4898V34.8979Z" fill="black"/>
<path d="M3.67347 36.7347H1.83673V38.5715H3.67347V36.7347Z" fill="black"/>
<path d="M5.5102 36.7347H3.67346V38.5715H5.5102V36.7347Z" fill="black"/>
<path d="M12.8571 36.7347H11.0204V38.5715H12.8571V36.7347Z" fill="black"/>
<path d="M18.3674 36.7347H16.5306V38.5715H18.3674V36.7347Z" fill="black"/>
<path d="M22.0408 36.7347H20.2041V38.5715H22.0408V36.7347Z" fill="black"/>
<path d="M23.8776 36.7347H22.0408V38.5715H23.8776V36.7347Z" fill="black"/>
<path d="M29.3878 36.7347H27.551V38.5715H29.3878V36.7347Z" fill="black"/>
<path d="M34.898 36.7347H33.0612V38.5715H34.898V36.7347Z" fill="black"/>
<path d="M40.4081 36.7347H38.5714V38.5715H40.4081V36.7347Z" fill="black"/>
<path d="M45.9184 36.7347H44.0817V38.5715H45.9184V36.7347Z" fill="black"/>
<path d="M51.4286 36.7347H49.5919V38.5715H51.4286V36.7347Z" fill="black"/>
<path d="M53.2653 36.7347H51.4286V38.5715H53.2653V36.7347Z" fill="black"/>
<path d="M60.6122 36.7347H58.7755V38.5715H60.6122V36.7347Z" fill="black"/>
<path d="M62.449 36.7347H60.6122V38.5715H62.449V36.7347Z" fill="black"/>
<path d="M66.1224 36.7347H64.2857V38.5715H66.1224V36.7347Z" fill="black"/>
<path d="M75.3061 36.7347H73.4694V38.5715H75.3061V36.7347Z" fill="black"/>
<path d="M77.1429 36.7347H75.3062V38.5715H77.1429V36.7347Z" fill="black"/>
<path d="M78.9796 36.7347H77.1428V38.5715H78.9796V36.7347Z" fill="black"/>
<path d="M86.3265 36.7347H84.4898V38.5715H86.3265V36.7347Z" fill="black"/>
<path d="M5.5102 38.5714H3.67346V40.4081H5.5102V38.5714Z" fill="black"/>
<path d="M16.5306 38.5714H14.6938V40.4081H16.5306V38.5714Z" fill="black"/>
<path d="M18.3674 38.5714H16.5306V40.4081H18.3674V38.5714Z" fill="black"/>
<path d="M22.0408 38.5714H20.2041V40.4081H22.0408V38.5714Z" fill="black"/>
<path d="M23.8776 38.5714H22.0408V40.4081H23.8776V38.5714Z" fill="black"/>
<path d="M25.7143 38.5714H23.8776V40.4081H25.7143V38.5714Z" fill="black"/>
<path d="M31.2245 38.5714H29.3878V40.4081H31.2245V38.5714Z" fill="black"/>
<path d="M33.0612 38.5714H31.2245V40.4081H33.0612V38.5714Z" fill="black"/>
<path d="M34.898 38.5714H33.0612V40.4081H34.898V38.5714Z" fill="black"/>
<path d="M36.7347 38.5714H34.8979V40.4081H36.7347V38.5714Z" fill="black"/>
<path d="M38.5714 38.5714H36.7347V40.4081H38.5714V38.5714Z" fill="black"/>
<path d="M42.2449 38.5714H40.4081V40.4081H42.2449V38.5714Z" fill="black"/>
<path d="M45.9184 38.5714H44.0817V40.4081H45.9184V38.5714Z" fill="black"/>
<path d="M51.4286 38.5714H49.5919V40.4081H51.4286V38.5714Z" fill="black"/>
<path d="M55.1021 38.5714H53.2653V40.4081H55.1021V38.5714Z" fill="black"/>
<path d="M62.449 38.5714H60.6122V40.4081H62.449V38.5714Z" fill="black"/>
<path d="M64.2857 38.5714H62.449V40.4081H64.2857V38.5714Z" fill="black"/>
<path d="M67.9592 38.5714H66.1224V40.4081H67.9592V38.5714Z" fill="black"/>
<path d="M73.4694 38.5714H71.6326V40.4081H73.4694V38.5714Z" fill="black"/>
<path d="M77.1429 38.5714H75.3062V40.4081H77.1429V38.5714Z" fill="black"/>
<path d="M78.9796 38.5714H77.1428V40.4081H78.9796V38.5714Z" fill="black"/>
<path d="M90 38.5714H88.1633V40.4081H90V38.5714Z" fill="black"/>
<path d="M1.83673 40.4082H0V42.2449H1.83673V40.4082Z" fill="black"/>
<path d="M7.34693 40.4082H5.51019V42.2449H7.34693V40.4082Z" fill="black"/>
<path d="M9.18366 40.4082H7.34692V42.2449H9.18366V40.4082Z" fill="black"/>
<path d="M11.0204 40.4082H9.18365V42.2449H11.0204V40.4082Z" fill="black"/>
<path d="M12.8571 40.4082H11.0204V42.2449H12.8571V40.4082Z" fill="black"/>
<path d="M14.6939 40.4082H12.8571V42.2449H14.6939V40.4082Z" fill="black"/>
<path d="M16.5306 40.4082H14.6938V42.2449H16.5306V40.4082Z" fill="black"/>
<path d="M20.2041 40.4082H18.3674V42.2449H20.2041V40.4082Z" fill="black"/>
<path d="M22.0408 40.4082H20.2041V42.2449H22.0408V40.4082Z" fill="black"/>
<path d="M23.8776 40.4082H22.0408V42.2449H23.8776V40.4082Z" fill="black"/>
<path d="M29.3878 40.4082H27.551V42.2449H29.3878V40.4082Z" fill="black"/>
<path d="M31.2245 40.4082H29.3878V42.2449H31.2245V40.4082Z" fill="black"/>
<path d="M34.898 40.4082H33.0612V42.2449H34.898V40.4082Z" fill="black"/>
<path d="M38.5714 40.4082H36.7347V42.2449H38.5714V40.4082Z" fill="black"/>
<path d="M42.2449 40.4082H40.4081V42.2449H42.2449V40.4082Z" fill="black"/>
<path d="M44.0816 40.4082H42.2449V42.2449H44.0816V40.4082Z" fill="black"/>
<path d="M45.9184 40.4082H44.0817V42.2449H45.9184V40.4082Z" fill="black"/>
<path d="M47.7551 40.4082H45.9183V42.2449H47.7551V40.4082Z" fill="black"/>
<path d="M49.5919 40.4082H47.7551V42.2449H49.5919V40.4082Z" fill="black"/>
<path d="M51.4286 40.4082H49.5919V42.2449H51.4286V40.4082Z" fill="black"/>
<path d="M55.1021 40.4082H53.2653V42.2449H55.1021V40.4082Z" fill="black"/>
<path d="M56.9388 40.4082H55.1021V42.2449H56.9388V40.4082Z" fill="black"/>
<path d="M64.2857 40.4082H62.449V42.2449H64.2857V40.4082Z" fill="black"/>
<path d="M73.4694 40.4082H71.6326V42.2449H73.4694V40.4082Z" fill="black"/>
<path d="M75.3061 40.4082H73.4694V42.2449H75.3061V40.4082Z" fill="black"/>
<path d="M77.1429 40.4082H75.3062V42.2449H77.1429V40.4082Z" fill="black"/>
<path d="M78.9796 40.4082H77.1428V42.2449H78.9796V40.4082Z" fill="black"/>
<path d="M80.8163 40.4082H78.9796V42.2449H80.8163V40.4082Z" fill="black"/>
<path d="M82.6531 40.4082H80.8163V42.2449H82.6531V40.4082Z" fill="black"/>
<path d="M84.4898 40.4082H82.6531V42.2449H84.4898V40.4082Z" fill="black"/>
<path d="M88.1633 40.4082H86.3265V42.2449H88.1633V40.4082Z" fill="black"/>
<path d="M90 40.4082H88.1633V42.2449H90V40.4082Z" fill="black"/>
<path d="M1.83673 42.2449H0V44.0816H1.83673V42.2449Z" fill="black"/>
<path d="M3.67347 42.2449H1.83673V44.0816H3.67347V42.2449Z" fill="black"/>
<path d="M5.5102 42.2449H3.67346V44.0816H5.5102V42.2449Z" fill="black"/>
<path d="M9.18366 42.2449H7.34692V44.0816H9.18366V42.2449Z" fill="black"/>
<path d="M16.5306 42.2449H14.6938V44.0816H16.5306V42.2449Z" fill="black"/>
<path d="M18.3674 42.2449H16.5306V44.0816H18.3674V42.2449Z" fill="black"/>
<path d="M20.2041 42.2449H18.3674V44.0816H20.2041V42.2449Z" fill="black"/>
<path d="M22.0408 42.2449H20.2041V44.0816H22.0408V42.2449Z" fill="black"/>
<path d="M25.7143 42.2449H23.8776V44.0816H25.7143V42.2449Z" fill="black"/>
<path d="M31.2245 42.2449H29.3878V44.0816H31.2245V42.2449Z" fill="black"/>
<path d="M33.0612 42.2449H31.2245V44.0816H33.0612V42.2449Z" fill="black"/>
<path d="M34.898 42.2449H33.0612V44.0816H34.898V42.2449Z" fill="black"/>
<path d="M36.7347 42.2449H34.8979V44.0816H36.7347V42.2449Z" fill="black"/>
<path d="M38.5714 42.2449H36.7347V44.0816H38.5714V42.2449Z" fill="black"/>
<path d="M40.4081 42.2449H38.5714V44.0816H40.4081V42.2449Z" fill="black"/>
<path d="M42.2449 42.2449H40.4081V44.0816H42.2449V42.2449Z" fill="black"/>
<path d="M49.5919 42.2449H47.7551V44.0816H49.5919V42.2449Z" fill="black"/>
<path d="M53.2653 42.2449H51.4286V44.0816H53.2653V42.2449Z" fill="black"/>
<path d="M56.9388 42.2449H55.1021V44.0816H56.9388V42.2449Z" fill="black"/>
<path d="M58.7755 42.2449H56.9388V44.0816H58.7755V42.2449Z" fill="black"/>
<path d="M60.6122 42.2449H58.7755V44.0816H60.6122V42.2449Z" fill="black"/>
<path d="M62.449 42.2449H60.6122V44.0816H62.449V42.2449Z" fill="black"/>
<path d="M67.9592 42.2449H66.1224V44.0816H67.9592V42.2449Z" fill="black"/>
<path d="M69.7959 42.2449H67.9592V44.0816H69.7959V42.2449Z" fill="black"/>
<path d="M75.3061 42.2449H73.4694V44.0816H75.3061V42.2449Z" fill="black"/>
<path d="M82.6531 42.2449H80.8163V44.0816H82.6531V42.2449Z" fill="black"/>
<path d="M88.1633 42.2449H86.3265V44.0816H88.1633V42.2449Z" fill="black"/>
<path d="M90 42.2449H88.1633V44.0816H90V42.2449Z" fill="black"/>
<path d="M3.67347 44.0817H1.83673V45.9184H3.67347V44.0817Z" fill="black"/>
<path d="M7.34693 44.0817H5.51019V45.9184H7.34693V44.0817Z" fill="black"/>
<path d="M9.18366 44.0817H7.34692V45.9184H9.18366V44.0817Z" fill="black"/>
<path d="M12.8571 44.0817H11.0204V45.9184H12.8571V44.0817Z" fill="black"/>
<path d="M16.5306 44.0817H14.6938V45.9184H16.5306V44.0817Z" fill="black"/>
<path d="M22.0408 44.0817H20.2041V45.9184H22.0408V44.0817Z" fill="black"/>
<path d="M23.8776 44.0817H22.0408V45.9184H23.8776V44.0817Z" fill="black"/>
<path d="M29.3878 44.0817H27.551V45.9184H29.3878V44.0817Z" fill="black"/>
<path d="M31.2245 44.0817H29.3878V45.9184H31.2245V44.0817Z" fill="black"/>
<path d="M33.0612 44.0817H31.2245V45.9184H33.0612V44.0817Z" fill="black"/>
<path d="M34.898 44.0817H33.0612V45.9184H34.898V44.0817Z" fill="black"/>
<path d="M36.7347 44.0817H34.8979V45.9184H36.7347V44.0817Z" fill="black"/>
<path d="M42.2449 44.0817H40.4081V45.9184H42.2449V44.0817Z" fill="black"/>
<path d="M45.9184 44.0817H44.0817V45.9184H45.9184V44.0817Z" fill="black"/>
<path d="M49.5919 44.0817H47.7551V45.9184H49.5919V44.0817Z" fill="black"/>
<path d="M51.4286 44.0817H49.5919V45.9184H51.4286V44.0817Z" fill="black"/>
<path d="M55.1021 44.0817H53.2653V45.9184H55.1021V44.0817Z" fill="black"/>
<path d="M62.449 44.0817H60.6122V45.9184H62.449V44.0817Z" fill="black"/>
<path d="M66.1224 44.0817H64.2857V45.9184H66.1224V44.0817Z" fill="black"/>
<path d="M67.9592 44.0817H66.1224V45.9184H67.9592V44.0817Z" fill="black"/>
<path d="M71.6326 44.0817H69.7959V45.9184H71.6326V44.0817Z" fill="black"/>
<path d="M75.3061 44.0817H73.4694V45.9184H75.3061V44.0817Z" fill="black"/>
<path d="M78.9796 44.0817H77.1428V45.9184H78.9796V44.0817Z" fill="black"/>
<path d="M82.6531 44.0817H80.8163V45.9184H82.6531V44.0817Z" fill="black"/>
<path d="M86.3265 44.0817H84.4898V45.9184H86.3265V44.0817Z" fill="black"/>
<path d="M88.1633 44.0817H86.3265V45.9184H88.1633V44.0817Z" fill="black"/>
<path d="M90 44.0817H88.1633V45.9184H90V44.0817Z" fill="black"/>
<path d="M1.83673 45.9183H0V47.7551H1.83673V45.9183Z" fill="black"/>
<path d="M5.5102 45.9183H3.67346V47.7551H5.5102V45.9183Z" fill="black"/>
<path d="M7.34693 45.9183H5.51019V47.7551H7.34693V45.9183Z" fill="black"/>
<path d="M9.18366 45.9183H7.34692V47.7551H9.18366V45.9183Z" fill="black"/>
<path d="M16.5306 45.9183H14.6938V47.7551H16.5306V45.9183Z" fill="black"/>
<path d="M27.551 45.9183H25.7143V47.7551H27.551V45.9183Z" fill="black"/>
<path d="M33.0612 45.9183H31.2245V47.7551H33.0612V45.9183Z" fill="black"/>
<path d="M36.7347 45.9183H34.8979V47.7551H36.7347V45.9183Z" fill="black"/>
<path d="M42.2449 45.9183H40.4081V47.7551H42.2449V45.9183Z" fill="black"/>
<path d="M49.5919 45.9183H47.7551V47.7551H49.5919V45.9183Z" fill="black"/>
<path d="M51.4286 45.9183H49.5919V47.7551H51.4286V45.9183Z" fill="black"/>
<path d="M56.9388 45.9183H55.1021V47.7551H56.9388V45.9183Z" fill="black"/>
<path d="M67.9592 45.9183H66.1224V47.7551H67.9592V45.9183Z" fill="black"/>
<path d="M75.3061 45.9183H73.4694V47.7551H75.3061V45.9183Z" fill="black"/>
<path d="M82.6531 45.9183H80.8163V47.7551H82.6531V45.9183Z" fill="black"/>
<path d="M84.4898 45.9183H82.6531V47.7551H84.4898V45.9183Z" fill="black"/>
<path d="M86.3265 45.9183H84.4898V47.7551H86.3265V45.9183Z" fill="black"/>
<path d="M88.1633 45.9183H86.3265V47.7551H88.1633V45.9183Z" fill="black"/>
<path d="M7.34693 47.7551H5.51019V49.5919H7.34693V47.7551Z" fill="black"/>
<path d="M9.18366 47.7551H7.34692V49.5919H9.18366V47.7551Z" fill="black"/>
<path d="M11.0204 47.7551H9.18365V49.5919H11.0204V47.7551Z" fill="black"/>
<path d="M12.8571 47.7551H11.0204V49.5919H12.8571V47.7551Z" fill="black"/>
<path d="M14.6939 47.7551H12.8571V49.5919H14.6939V47.7551Z" fill="black"/>
<path d="M16.5306 47.7551H14.6938V49.5919H16.5306V47.7551Z" fill="black"/>
<path d="M18.3674 47.7551H16.5306V49.5919H18.3674V47.7551Z" fill="black"/>
<path d="M20.2041 47.7551H18.3674V49.5919H20.2041V47.7551Z" fill="black"/>
<path d="M22.0408 47.7551H20.2041V49.5919H22.0408V47.7551Z" fill="black"/>
<path d="M23.8776 47.7551H22.0408V49.5919H23.8776V47.7551Z" fill="black"/>
<path d="M25.7143 47.7551H23.8776V49.5919H25.7143V47.7551Z" fill="black"/>
<path d="M27.551 47.7551H25.7143V49.5919H27.551V47.7551Z" fill="black"/>
<path d="M33.0612 47.7551H31.2245V49.5919H33.0612V47.7551Z" fill="black"/>
<path d="M36.7347 47.7551H34.8979V49.5919H36.7347V47.7551Z" fill="black"/>
<path d="M40.4081 47.7551H38.5714V49.5919H40.4081V47.7551Z" fill="black"/>
<path d="M42.2449 47.7551H40.4081V49.5919H42.2449V47.7551Z" fill="black"/>
<path d="M44.0816 47.7551H42.2449V49.5919H44.0816V47.7551Z" fill="black"/>
<path d="M45.9184 47.7551H44.0817V49.5919H45.9184V47.7551Z" fill="black"/>
<path d="M47.7551 47.7551H45.9183V49.5919H47.7551V47.7551Z" fill="black"/>
<path d="M49.5919 47.7551H47.7551V49.5919H49.5919V47.7551Z" fill="black"/>
<path d="M51.4286 47.7551H49.5919V49.5919H51.4286V47.7551Z" fill="black"/>
<path d="M55.1021 47.7551H53.2653V49.5919H55.1021V47.7551Z" fill="black"/>
<path d="M58.7755 47.7551H56.9388V49.5919H58.7755V47.7551Z" fill="black"/>
<path d="M60.6122 47.7551H58.7755V49.5919H60.6122V47.7551Z" fill="black"/>
<path d="M62.449 47.7551H60.6122V49.5919H62.449V47.7551Z" fill="black"/>
<path d="M66.1224 47.7551H64.2857V49.5919H66.1224V47.7551Z" fill="black"/>
<path d="M67.9592 47.7551H66.1224V49.5919H67.9592V47.7551Z" fill="black"/>
<path d="M71.6326 47.7551H69.7959V49.5919H71.6326V47.7551Z" fill="black"/>
<path d="M75.3061 47.7551H73.4694V49.5919H75.3061V47.7551Z" fill="black"/>
<path d="M77.1429 47.7551H75.3062V49.5919H77.1429V47.7551Z" fill="black"/>
<path d="M78.9796 47.7551H77.1428V49.5919H78.9796V47.7551Z" fill="black"/>
<path d="M80.8163 47.7551H78.9796V49.5919H80.8163V47.7551Z" fill="black"/>
<path d="M82.6531 47.7551H80.8163V49.5919H82.6531V47.7551Z" fill="black"/>
<path d="M84.4898 47.7551H82.6531V49.5919H84.4898V47.7551Z" fill="black"/>
<path d="M86.3265 47.7551H84.4898V49.5919H86.3265V47.7551Z" fill="black"/>
<path d="M90 47.7551H88.1633V49.5919H90V47.7551Z" fill="black"/>
<path d="M1.83673 49.5918H0V51.4285H1.83673V49.5918Z" fill="black"/>
<path d="M9.18366 49.5918H7.34692V51.4285H9.18366V49.5918Z" fill="black"/>
<path d="M20.2041 49.5918H18.3674V51.4285H20.2041V49.5918Z" fill="black"/>
<path d="M22.0408 49.5918H20.2041V51.4285H22.0408V49.5918Z" fill="black"/>
<path d="M27.551 49.5918H25.7143V51.4285H27.551V49.5918Z" fill="black"/>
<path d="M29.3878 49.5918H27.551V51.4285H29.3878V49.5918Z" fill="black"/>
<path d="M36.7347 49.5918H34.8979V51.4285H36.7347V49.5918Z" fill="black"/>
<path d="M40.4081 49.5918H38.5714V51.4285H40.4081V49.5918Z" fill="black"/>
<path d="M44.0816 49.5918H42.2449V51.4285H44.0816V49.5918Z" fill="black"/>
<path d="M47.7551 49.5918H45.9183V51.4285H47.7551V49.5918Z" fill="black"/>
<path d="M49.5919 49.5918H47.7551V51.4285H49.5919V49.5918Z" fill="black"/>
<path d="M56.9388 49.5918H55.1021V51.4285H56.9388V49.5918Z" fill="black"/>
<path d="M58.7755 49.5918H56.9388V51.4285H58.7755V49.5918Z" fill="black"/>
<path d="M62.449 49.5918H60.6122V51.4285H62.449V49.5918Z" fill="black"/>
<path d="M64.2857 49.5918H62.449V51.4285H64.2857V49.5918Z" fill="black"/>
<path d="M66.1224 49.5918H64.2857V51.4285H66.1224V49.5918Z" fill="black"/>
<path d="M71.6326 49.5918H69.7959V51.4285H71.6326V49.5918Z" fill="black"/>
<path d="M75.3061 49.5918H73.4694V51.4285H75.3061V49.5918Z" fill="black"/>
<path d="M77.1429 49.5918H75.3062V51.4285H77.1429V49.5918Z" fill="black"/>
<path d="M78.9796 49.5918H77.1428V51.4285H78.9796V49.5918Z" fill="black"/>
<path d="M80.8163 49.5918H78.9796V51.4285H80.8163V49.5918Z" fill="black"/>
<path d="M90 49.5918H88.1633V51.4285H90V49.5918Z" fill="black"/>
<path d="M1.83673 51.4286H0V53.2653H1.83673V51.4286Z" fill="black"/>
<path d="M3.67347 51.4286H1.83673V53.2653H3.67347V51.4286Z" fill="black"/>
<path d="M5.5102 51.4286H3.67346V53.2653H5.5102V51.4286Z" fill="black"/>
<path d="M7.34693 51.4286H5.51019V53.2653H7.34693V51.4286Z" fill="black"/>
<path d="M11.0204 51.4286H9.18365V53.2653H11.0204V51.4286Z" fill="black"/>
<path d="M12.8571 51.4286H11.0204V53.2653H12.8571V51.4286Z" fill="black"/>
<path d="M20.2041 51.4286H18.3674V53.2653H20.2041V51.4286Z" fill="black"/>
<path d="M22.0408 51.4286H20.2041V53.2653H22.0408V51.4286Z" fill="black"/>
<path d="M25.7143 51.4286H23.8776V53.2653H25.7143V51.4286Z" fill="black"/>
<path d="M27.551 51.4286H25.7143V53.2653H27.551V51.4286Z" fill="black"/>
<path d="M33.0612 51.4286H31.2245V53.2653H33.0612V51.4286Z" fill="black"/>
<path d="M36.7347 51.4286H34.8979V53.2653H36.7347V51.4286Z" fill="black"/>
<path d="M40.4081 51.4286H38.5714V53.2653H40.4081V51.4286Z" fill="black"/>
<path d="M42.2449 51.4286H40.4081V53.2653H42.2449V51.4286Z" fill="black"/>
<path d="M44.0816 51.4286H42.2449V53.2653H44.0816V51.4286Z" fill="black"/>
<path d="M45.9184 51.4286H44.0817V53.2653H45.9184V51.4286Z" fill="black"/>
<path d="M47.7551 51.4286H45.9183V53.2653H47.7551V51.4286Z" fill="black"/>
<path d="M53.2653 51.4286H51.4286V53.2653H53.2653V51.4286Z" fill="black"/>
<path d="M56.9388 51.4286H55.1021V53.2653H56.9388V51.4286Z" fill="black"/>
<path d="M58.7755 51.4286H56.9388V53.2653H58.7755V51.4286Z" fill="black"/>
<path d="M60.6122 51.4286H58.7755V53.2653H60.6122V51.4286Z" fill="black"/>
<path d="M62.449 51.4286H60.6122V53.2653H62.449V51.4286Z" fill="black"/>
<path d="M71.6326 51.4286H69.7959V53.2653H71.6326V51.4286Z" fill="black"/>
<path d="M73.4694 51.4286H71.6326V53.2653H73.4694V51.4286Z" fill="black"/>
<path d="M78.9796 51.4286H77.1428V53.2653H78.9796V51.4286Z" fill="black"/>
<path d="M80.8163 51.4286H78.9796V53.2653H80.8163V51.4286Z" fill="black"/>
<path d="M82.6531 51.4286H80.8163V53.2653H82.6531V51.4286Z" fill="black"/>
<path d="M88.1633 51.4286H86.3265V53.2653H88.1633V51.4286Z" fill="black"/>
<path d="M1.83673 53.2653H0V55.102H1.83673V53.2653Z" fill="black"/>
<path d="M5.5102 53.2653H3.67346V55.102H5.5102V53.2653Z" fill="black"/>
<path d="M7.34693 53.2653H5.51019V55.102H7.34693V53.2653Z" fill="black"/>
<path d="M14.6939 53.2653H12.8571V55.102H14.6939V53.2653Z" fill="black"/>
<path d="M29.3878 53.2653H27.551V55.102H29.3878V53.2653Z" fill="black"/>
<path d="M34.898 53.2653H33.0612V55.102H34.898V53.2653Z" fill="black"/>
<path d="M40.4081 53.2653H38.5714V55.102H40.4081V53.2653Z" fill="black"/>
<path d="M42.2449 53.2653H40.4081V55.102H42.2449V53.2653Z" fill="black"/>
<path d="M44.0816 53.2653H42.2449V55.102H44.0816V53.2653Z" fill="black"/>
<path d="M45.9184 53.2653H44.0817V55.102H45.9184V53.2653Z" fill="black"/>
<path d="M47.7551 53.2653H45.9183V55.102H47.7551V53.2653Z" fill="black"/>
<path d="M51.4286 53.2653H49.5919V55.102H51.4286V53.2653Z" fill="black"/>
<path d="M64.2857 53.2653H62.449V55.102H64.2857V53.2653Z" fill="black"/>
<path d="M67.9592 53.2653H66.1224V55.102H67.9592V53.2653Z" fill="black"/>
<path d="M69.7959 53.2653H67.9592V55.102H69.7959V53.2653Z" fill="black"/>
<path d="M73.4694 53.2653H71.6326V55.102H73.4694V53.2653Z" fill="black"/>
<path d="M75.3061 53.2653H73.4694V55.102H75.3061V53.2653Z" fill="black"/>
<path d="M77.1429 53.2653H75.3062V55.102H77.1429V53.2653Z" fill="black"/>
<path d="M78.9796 53.2653H77.1428V55.102H78.9796V53.2653Z" fill="black"/>
<path d="M80.8163 53.2653H78.9796V55.102H80.8163V53.2653Z" fill="black"/>
<path d="M84.4898 53.2653H82.6531V55.102H84.4898V53.2653Z" fill="black"/>
<path d="M90 53.2653H88.1633V55.102H90V53.2653Z" fill="black"/>
<path d="M1.83673 55.1021H0V56.9388H1.83673V55.1021Z" fill="black"/>
<path d="M3.67347 55.1021H1.83673V56.9388H3.67347V55.1021Z" fill="black"/>
<path d="M5.5102 55.1021H3.67346V56.9388H5.5102V55.1021Z" fill="black"/>
<path d="M7.34693 55.1021H5.51019V56.9388H7.34693V55.1021Z" fill="black"/>
<path d="M12.8571 55.1021H11.0204V56.9388H12.8571V55.1021Z" fill="black"/>
<path d="M16.5306 55.1021H14.6938V56.9388H16.5306V55.1021Z" fill="black"/>
<path d="M20.2041 55.1021H18.3674V56.9388H20.2041V55.1021Z" fill="black"/>
<path d="M25.7143 55.1021H23.8776V56.9388H25.7143V55.1021Z" fill="black"/>
<path d="M27.551 55.1021H25.7143V56.9388H27.551V55.1021Z" fill="black"/>
<path d="M34.898 55.1021H33.0612V56.9388H34.898V55.1021Z" fill="black"/>
<path d="M36.7347 55.1021H34.8979V56.9388H36.7347V55.1021Z" fill="black"/>
<path d="M44.0816 55.1021H42.2449V56.9388H44.0816V55.1021Z" fill="black"/>
<path d="M45.9184 55.1021H44.0817V56.9388H45.9184V55.1021Z" fill="black"/>
<path d="M47.7551 55.1021H45.9183V56.9388H47.7551V55.1021Z" fill="black"/>
<path d="M53.2653 55.1021H51.4286V56.9388H53.2653V55.1021Z" fill="black"/>
<path d="M55.1021 55.1021H53.2653V56.9388H55.1021V55.1021Z" fill="black"/>
<path d="M67.9592 55.1021H66.1224V56.9388H67.9592V55.1021Z" fill="black"/>
<path d="M77.1429 55.1021H75.3062V56.9388H77.1429V55.1021Z" fill="black"/>
<path d="M78.9796 55.1021H77.1428V56.9388H78.9796V55.1021Z" fill="black"/>
<path d="M80.8163 55.1021H78.9796V56.9388H80.8163V55.1021Z" fill="black"/>
<path d="M82.6531 55.1021H80.8163V56.9388H82.6531V55.1021Z" fill="black"/>
<path d="M84.4898 55.1021H82.6531V56.9388H84.4898V55.1021Z" fill="black"/>
<path d="M88.1633 55.1021H86.3265V56.9388H88.1633V55.1021Z" fill="black"/>
<path d="M90 55.1021H88.1633V56.9388H90V55.1021Z" fill="black"/>
<path d="M1.83673 56.9387H0V58.7755H1.83673V56.9387Z" fill="black"/>
<path d="M3.67347 56.9387H1.83673V58.7755H3.67347V56.9387Z" fill="black"/>
<path d="M9.18366 56.9387H7.34692V58.7755H9.18366V56.9387Z" fill="black"/>
<path d="M18.3674 56.9387H16.5306V58.7755H18.3674V56.9387Z" fill="black"/>
<path d="M22.0408 56.9387H20.2041V58.7755H22.0408V56.9387Z" fill="black"/>
<path d="M27.551 56.9387H25.7143V58.7755H27.551V56.9387Z" fill="black"/>
<path d="M29.3878 56.9387H27.551V58.7755H29.3878V56.9387Z" fill="black"/>
<path d="M34.898 56.9387H33.0612V58.7755H34.898V56.9387Z" fill="black"/>
<path d="M40.4081 56.9387H38.5714V58.7755H40.4081V56.9387Z" fill="black"/>
<path d="M42.2449 56.9387H40.4081V58.7755H42.2449V56.9387Z" fill="black"/>
<path d="M45.9184 56.9387H44.0817V58.7755H45.9184V56.9387Z" fill="black"/>
<path d="M53.2653 56.9387H51.4286V58.7755H53.2653V56.9387Z" fill="black"/>
<path d="M55.1021 56.9387H53.2653V58.7755H55.1021V56.9387Z" fill="black"/>
<path d="M56.9388 56.9387H55.1021V58.7755H56.9388V56.9387Z" fill="black"/>
<path d="M66.1224 56.9387H64.2857V58.7755H66.1224V56.9387Z" fill="black"/>
<path d="M67.9592 56.9387H66.1224V58.7755H67.9592V56.9387Z" fill="black"/>
<path d="M69.7959 56.9387H67.9592V58.7755H69.7959V56.9387Z" fill="black"/>
<path d="M71.6326 56.9387H69.7959V58.7755H71.6326V56.9387Z" fill="black"/>
<path d="M73.4694 56.9387H71.6326V58.7755H73.4694V56.9387Z" fill="black"/>
<path d="M75.3061 56.9387H73.4694V58.7755H75.3061V56.9387Z" fill="black"/>
<path d="M77.1429 56.9387H75.3062V58.7755H77.1429V56.9387Z" fill="black"/>
<path d="M80.8163 56.9387H78.9796V58.7755H80.8163V56.9387Z" fill="black"/>
<path d="M84.4898 56.9387H82.6531V58.7755H84.4898V56.9387Z" fill="black"/>
<path d="M3.67347 58.7755H1.83673V60.6122H3.67347V58.7755Z" fill="black"/>
<path d="M7.34693 58.7755H5.51019V60.6122H7.34693V58.7755Z" fill="black"/>
<path d="M9.18366 58.7755H7.34692V60.6122H9.18366V58.7755Z" fill="black"/>
<path d="M11.0204 58.7755H9.18365V60.6122H11.0204V58.7755Z" fill="black"/>
<path d="M12.8571 58.7755H11.0204V60.6122H12.8571V58.7755Z" fill="black"/>
<path d="M14.6939 58.7755H12.8571V60.6122H14.6939V58.7755Z" fill="black"/>
<path d="M16.5306 58.7755H14.6938V60.6122H16.5306V58.7755Z" fill="black"/>
<path d="M18.3674 58.7755H16.5306V60.6122H18.3674V58.7755Z" fill="black"/>
<path d="M20.2041 58.7755H18.3674V60.6122H20.2041V58.7755Z" fill="black"/>
<path d="M22.0408 58.7755H20.2041V60.6122H22.0408V58.7755Z" fill="black"/>
<path d="M23.8776 58.7755H22.0408V60.6122H23.8776V58.7755Z" fill="black"/>
<path d="M25.7143 58.7755H23.8776V60.6122H25.7143V58.7755Z" fill="black"/>
<path d="M29.3878 58.7755H27.551V60.6122H29.3878V58.7755Z" fill="black"/>
<path d="M31.2245 58.7755H29.3878V60.6122H31.2245V58.7755Z" fill="black"/>
<path d="M33.0612 58.7755H31.2245V60.6122H33.0612V58.7755Z" fill="black"/>
<path d="M34.898 58.7755H33.0612V60.6122H34.898V58.7755Z" fill="black"/>
<path d="M40.4081 58.7755H38.5714V60.6122H40.4081V58.7755Z" fill="black"/>
<path d="M45.9184 58.7755H44.0817V60.6122H45.9184V58.7755Z" fill="black"/>
<path d="M49.5919 58.7755H47.7551V60.6122H49.5919V58.7755Z" fill="black"/>
<path d="M51.4286 58.7755H49.5919V60.6122H51.4286V58.7755Z" fill="black"/>
<path d="M55.1021 58.7755H53.2653V60.6122H55.1021V58.7755Z" fill="black"/>
<path d="M56.9388 58.7755H55.1021V60.6122H56.9388V58.7755Z" fill="black"/>
<path d="M58.7755 58.7755H56.9388V60.6122H58.7755V58.7755Z" fill="black"/>
<path d="M66.1224 58.7755H64.2857V60.6122H66.1224V58.7755Z" fill="black"/>
<path d="M67.9592 58.7755H66.1224V60.6122H67.9592V58.7755Z" fill="black"/>
<path d="M71.6326 58.7755H69.7959V60.6122H71.6326V58.7755Z" fill="black"/>
<path d="M73.4694 58.7755H71.6326V60.6122H73.4694V58.7755Z" fill="black"/>
<path d="M75.3061 58.7755H73.4694V60.6122H75.3061V58.7755Z" fill="black"/>
<path d="M78.9796 58.7755H77.1428V60.6122H78.9796V58.7755Z" fill="black"/>
<path d="M86.3265 58.7755H84.4898V60.6122H86.3265V58.7755Z" fill="black"/>
<path d="M90 58.7755H88.1633V60.6122H90V58.7755Z" fill="black"/>
<path d="M1.83673 60.6123H0V62.449H1.83673V60.6123Z" fill="black"/>
<path d="M5.5102 60.6123H3.67346V62.449H5.5102V60.6123Z" fill="black"/>
<path d="M14.6939 60.6123H12.8571V62.449H14.6939V60.6123Z" fill="black"/>
<path d="M18.3674 60.6123H16.5306V62.449H18.3674V60.6123Z" fill="black"/>
<path d="M20.2041 60.6123H18.3674V62.449H20.2041V60.6123Z" fill="black"/>
<path d="M25.7143 60.6123H23.8776V62.449H25.7143V60.6123Z" fill="black"/>
<path d="M27.551 60.6123H25.7143V62.449H27.551V60.6123Z" fill="black"/>
<path d="M33.0612 60.6123H31.2245V62.449H33.0612V60.6123Z" fill="black"/>
<path d="M36.7347 60.6123H34.8979V62.449H36.7347V60.6123Z" fill="black"/>
<path d="M40.4081 60.6123H38.5714V62.449H40.4081V60.6123Z" fill="black"/>
<path d="M42.2449 60.6123H40.4081V62.449H42.2449V60.6123Z" fill="black"/>
<path d="M44.0816 60.6123H42.2449V62.449H44.0816V60.6123Z" fill="black"/>
<path d="M45.9184 60.6123H44.0817V62.449H45.9184V60.6123Z" fill="black"/>
<path d="M49.5919 60.6123H47.7551V62.449H49.5919V60.6123Z" fill="black"/>
<path d="M51.4286 60.6123H49.5919V62.449H51.4286V60.6123Z" fill="black"/>
<path d="M56.9388 60.6123H55.1021V62.449H56.9388V60.6123Z" fill="black"/>
<path d="M62.449 60.6123H60.6122V62.449H62.449V60.6123Z" fill="black"/>
<path d="M69.7959 60.6123H67.9592V62.449H69.7959V60.6123Z" fill="black"/>
<path d="M75.3061 60.6123H73.4694V62.449H75.3061V60.6123Z" fill="black"/>
<path d="M80.8163 60.6123H78.9796V62.449H80.8163V60.6123Z" fill="black"/>
<path d="M90 60.6123H88.1633V62.449H90V60.6123Z" fill="black"/>
<path d="M1.83673 62.449H0V64.2857H1.83673V62.449Z" fill="black"/>
<path d="M3.67347 62.449H1.83673V64.2857H3.67347V62.449Z" fill="black"/>
<path d="M5.5102 62.449H3.67346V64.2857H5.5102V62.449Z" fill="black"/>
<path d="M11.0204 62.449H9.18365V64.2857H11.0204V62.449Z" fill="black"/>
<path d="M12.8571 62.449H11.0204V64.2857H12.8571V62.449Z" fill="black"/>
<path d="M14.6939 62.449H12.8571V64.2857H14.6939V62.449Z" fill="black"/>
<path d="M20.2041 62.449H18.3674V64.2857H20.2041V62.449Z" fill="black"/>
<path d="M22.0408 62.449H20.2041V64.2857H22.0408V62.449Z" fill="black"/>
<path d="M34.898 62.449H33.0612V64.2857H34.898V62.449Z" fill="black"/>
<path d="M40.4081 62.449H38.5714V64.2857H40.4081V62.449Z" fill="black"/>
<path d="M44.0816 62.449H42.2449V64.2857H44.0816V62.449Z" fill="black"/>
<path d="M45.9184 62.449H44.0817V64.2857H45.9184V62.449Z" fill="black"/>
<path d="M47.7551 62.449H45.9183V64.2857H47.7551V62.449Z" fill="black"/>
<path d="M51.4286 62.449H49.5919V64.2857H51.4286V62.449Z" fill="black"/>
<path d="M55.1021 62.449H53.2653V64.2857H55.1021V62.449Z" fill="black"/>
<path d="M58.7755 62.449H56.9388V64.2857H58.7755V62.449Z" fill="black"/>
<path d="M60.6122 62.449H58.7755V64.2857H60.6122V62.449Z" fill="black"/>
<path d="M64.2857 62.449H62.449V64.2857H64.2857V62.449Z" fill="black"/>
<path d="M69.7959 62.449H67.9592V64.2857H69.7959V62.449Z" fill="black"/>
<path d="M71.6326 62.449H69.7959V64.2857H71.6326V62.449Z" fill="black"/>
<path d="M77.1429 62.449H75.3062V64.2857H77.1429V62.449Z" fill="black"/>
<path d="M78.9796 62.449H77.1428V64.2857H78.9796V62.449Z" fill="black"/>
<path d="M82.6531 62.449H80.8163V64.2857H82.6531V62.449Z" fill="black"/>
<path d="M84.4898 62.449H82.6531V64.2857H84.4898V62.449Z" fill="black"/>
<path d="M86.3265 62.449H84.4898V64.2857H86.3265V62.449Z" fill="black"/>
<path d="M88.1633 62.449H86.3265V64.2857H88.1633V62.449Z" fill="black"/>
<path d="M90 62.449H88.1633V64.2857H90V62.449Z" fill="black"/>
<path d="M3.67347 64.2858H1.83673V66.1225H3.67347V64.2858Z" fill="black"/>
<path d="M11.0204 64.2858H9.18365V66.1225H11.0204V64.2858Z" fill="black"/>
<path d="M16.5306 64.2858H14.6938V66.1225H16.5306V64.2858Z" fill="black"/>
<path d="M18.3674 64.2858H16.5306V66.1225H18.3674V64.2858Z" fill="black"/>
<path d="M20.2041 64.2858H18.3674V66.1225H20.2041V64.2858Z" fill="black"/>
<path d="M23.8776 64.2858H22.0408V66.1225H23.8776V64.2858Z" fill="black"/>
<path d="M25.7143 64.2858H23.8776V66.1225H25.7143V64.2858Z" fill="black"/>
<path d="M29.3878 64.2858H27.551V66.1225H29.3878V64.2858Z" fill="black"/>
<path d="M31.2245 64.2858H29.3878V66.1225H31.2245V64.2858Z" fill="black"/>
<path d="M33.0612 64.2858H31.2245V66.1225H33.0612V64.2858Z" fill="black"/>
<path d="M34.898 64.2858H33.0612V66.1225H34.898V64.2858Z" fill="black"/>
<path d="M36.7347 64.2858H34.8979V66.1225H36.7347V64.2858Z" fill="black"/>
<path d="M42.2449 64.2858H40.4081V66.1225H42.2449V64.2858Z" fill="black"/>
<path d="M47.7551 64.2858H45.9183V66.1225H47.7551V64.2858Z" fill="black"/>
<path d="M53.2653 64.2858H51.4286V66.1225H53.2653V64.2858Z" fill="black"/>
<path d="M58.7755 64.2858H56.9388V66.1225H58.7755V64.2858Z" fill="black"/>
<path d="M62.449 64.2858H60.6122V66.1225H62.449V64.2858Z" fill="black"/>
<path d="M66.1224 64.2858H64.2857V66.1225H66.1224V64.2858Z" fill="black"/>
<path d="M67.9592 64.2858H66.1224V66.1225H67.9592V64.2858Z" fill="black"/>
<path d="M69.7959 64.2858H67.9592V66.1225H69.7959V64.2858Z" fill="black"/>
<path d="M71.6326 64.2858H69.7959V66.1225H71.6326V64.2858Z" fill="black"/>
<path d="M75.3061 64.2858H73.4694V66.1225H75.3061V64.2858Z" fill="black"/>
<path d="M77.1429 64.2858H75.3062V66.1225H77.1429V64.2858Z" fill="black"/>
<path d="M78.9796 64.2858H77.1428V66.1225H78.9796V64.2858Z" fill="black"/>
<path d="M1.83673 66.1224H0V67.9592H1.83673V66.1224Z" fill="black"/>
<path d="M5.5102 66.1224H3.67346V67.9592H5.5102V66.1224Z" fill="black"/>
<path d="M7.34693 66.1224H5.51019V67.9592H7.34693V66.1224Z" fill="black"/>
<path d="M9.18366 66.1224H7.34692V67.9592H9.18366V66.1224Z" fill="black"/>
<path d="M12.8571 66.1224H11.0204V67.9592H12.8571V66.1224Z" fill="black"/>
<path d="M18.3674 66.1224H16.5306V67.9592H18.3674V66.1224Z" fill="black"/>
<path d="M23.8776 66.1224H22.0408V67.9592H23.8776V66.1224Z" fill="black"/>
<path d="M29.3878 66.1224H27.551V67.9592H29.3878V66.1224Z" fill="black"/>
<path d="M34.898 66.1224H33.0612V67.9592H34.898V66.1224Z" fill="black"/>
<path d="M40.4081 66.1224H38.5714V67.9592H40.4081V66.1224Z" fill="black"/>
<path d="M42.2449 66.1224H40.4081V67.9592H42.2449V66.1224Z" fill="black"/>
<path d="M45.9184 66.1224H44.0817V67.9592H45.9184V66.1224Z" fill="black"/>
<path d="M47.7551 66.1224H45.9183V67.9592H47.7551V66.1224Z" fill="black"/>
<path d="M49.5919 66.1224H47.7551V67.9592H49.5919V66.1224Z" fill="black"/>
<path d="M51.4286 66.1224H49.5919V67.9592H51.4286V66.1224Z" fill="black"/>
<path d="M53.2653 66.1224H51.4286V67.9592H53.2653V66.1224Z" fill="black"/>
<path d="M55.1021 66.1224H53.2653V67.9592H55.1021V66.1224Z" fill="black"/>
<path d="M60.6122 66.1224H58.7755V67.9592H60.6122V66.1224Z" fill="black"/>
<path d="M62.449 66.1224H60.6122V67.9592H62.449V66.1224Z" fill="black"/>
<path d="M66.1224 66.1224H64.2857V67.9592H66.1224V66.1224Z" fill="black"/>
<path d="M71.6326 66.1224H69.7959V67.9592H71.6326V66.1224Z" fill="black"/>
<path d="M73.4694 66.1224H71.6326V67.9592H73.4694V66.1224Z" fill="black"/>
<path d="M75.3061 66.1224H73.4694V67.9592H75.3061V66.1224Z" fill="black"/>
<path d="M78.9796 66.1224H77.1428V67.9592H78.9796V66.1224Z" fill="black"/>
<path d="M80.8163 66.1224H78.9796V67.9592H80.8163V66.1224Z" fill="black"/>
<path d="M82.6531 66.1224H80.8163V67.9592H82.6531V66.1224Z" fill="black"/>
<path d="M84.4898 66.1224H82.6531V67.9592H84.4898V66.1224Z" fill="black"/>
<path d="M90 66.1224H88.1633V67.9592H90V66.1224Z" fill="black"/>
<path d="M5.5102 67.9592H3.67346V69.796H5.5102V67.9592Z" fill="black"/>
<path d="M7.34693 67.9592H5.51019V69.796H7.34693V67.9592Z" fill="black"/>
<path d="M18.3674 67.9592H16.5306V69.796H18.3674V67.9592Z" fill="black"/>
<path d="M22.0408 67.9592H20.2041V69.796H22.0408V67.9592Z" fill="black"/>
<path d="M25.7143 67.9592H23.8776V69.796H25.7143V67.9592Z" fill="black"/>
<path d="M31.2245 67.9592H29.3878V69.796H31.2245V67.9592Z" fill="black"/>
<path d="M33.0612 67.9592H31.2245V69.796H33.0612V67.9592Z" fill="black"/>
<path d="M34.898 67.9592H33.0612V69.796H34.898V67.9592Z" fill="black"/>
<path d="M36.7347 67.9592H34.8979V69.796H36.7347V67.9592Z" fill="black"/>
<path d="M38.5714 67.9592H36.7347V69.796H38.5714V67.9592Z" fill="black"/>
<path d="M40.4081 67.9592H38.5714V69.796H40.4081V67.9592Z" fill="black"/>
<path d="M42.2449 67.9592H40.4081V69.796H42.2449V67.9592Z" fill="black"/>
<path d="M44.0816 67.9592H42.2449V69.796H44.0816V67.9592Z" fill="black"/>
<path d="M45.9184 67.9592H44.0817V69.796H45.9184V67.9592Z" fill="black"/>
<path d="M47.7551 67.9592H45.9183V69.796H47.7551V67.9592Z" fill="black"/>
<path d="M51.4286 67.9592H49.5919V69.796H51.4286V67.9592Z" fill="black"/>
<path d="M55.1021 67.9592H53.2653V69.796H55.1021V67.9592Z" fill="black"/>
<path d="M62.449 67.9592H60.6122V69.796H62.449V67.9592Z" fill="black"/>
<path d="M64.2857 67.9592H62.449V69.796H64.2857V67.9592Z" fill="black"/>
<path d="M67.9592 67.9592H66.1224V69.796H67.9592V67.9592Z" fill="black"/>
<path d="M75.3061 67.9592H73.4694V69.796H75.3061V67.9592Z" fill="black"/>
<path d="M78.9796 67.9592H77.1428V69.796H78.9796V67.9592Z" fill="black"/>
<path d="M80.8163 67.9592H78.9796V69.796H80.8163V67.9592Z" fill="black"/>
<path d="M84.4898 67.9592H82.6531V69.796H84.4898V67.9592Z" fill="black"/>
<path d="M86.3265 67.9592H84.4898V69.796H86.3265V67.9592Z" fill="black"/>
<path d="M90 67.9592H88.1633V69.796H90V67.9592Z" fill="black"/>
<path d="M3.67347 69.7959H1.83673V71.6326H3.67347V69.7959Z" fill="black"/>
<path d="M11.0204 69.7959H9.18365V71.6326H11.0204V69.7959Z" fill="black"/>
<path d="M12.8571 69.7959H11.0204V71.6326H12.8571V69.7959Z" fill="black"/>
<path d="M14.6939 69.7959H12.8571V71.6326H14.6939V69.7959Z" fill="black"/>
<path d="M20.2041 69.7959H18.3674V71.6326H20.2041V69.7959Z" fill="black"/>
<path d="M29.3878 69.7959H27.551V71.6326H29.3878V69.7959Z" fill="black"/>
<path d="M31.2245 69.7959H29.3878V71.6326H31.2245V69.7959Z" fill="black"/>
<path d="M34.898 69.7959H33.0612V71.6326H34.898V69.7959Z" fill="black"/>
<path d="M38.5714 69.7959H36.7347V71.6326H38.5714V69.7959Z" fill="black"/>
<path d="M40.4081 69.7959H38.5714V71.6326H40.4081V69.7959Z" fill="black"/>
<path d="M42.2449 69.7959H40.4081V71.6326H42.2449V69.7959Z" fill="black"/>
<path d="M44.0816 69.7959H42.2449V71.6326H44.0816V69.7959Z" fill="black"/>
<path d="M47.7551 69.7959H45.9183V71.6326H47.7551V69.7959Z" fill="black"/>
<path d="M51.4286 69.7959H49.5919V71.6326H51.4286V69.7959Z" fill="black"/>
<path d="M55.1021 69.7959H53.2653V71.6326H55.1021V69.7959Z" fill="black"/>
<path d="M56.9388 69.7959H55.1021V71.6326H56.9388V69.7959Z" fill="black"/>
<path d="M64.2857 69.7959H62.449V71.6326H64.2857V69.7959Z" fill="black"/>
<path d="M66.1224 69.7959H64.2857V71.6326H66.1224V69.7959Z" fill="black"/>
<path d="M69.7959 69.7959H67.9592V71.6326H69.7959V69.7959Z" fill="black"/>
<path d="M71.6326 69.7959H69.7959V71.6326H71.6326V69.7959Z" fill="black"/>
<path d="M77.1429 69.7959H75.3062V71.6326H77.1429V69.7959Z" fill="black"/>
<path d="M78.9796 69.7959H77.1428V71.6326H78.9796V69.7959Z" fill="black"/>
<path d="M80.8163 69.7959H78.9796V71.6326H80.8163V69.7959Z" fill="black"/>
<path d="M82.6531 69.7959H80.8163V71.6326H82.6531V69.7959Z" fill="black"/>
<path d="M84.4898 69.7959H82.6531V71.6326H84.4898V69.7959Z" fill="black"/>
<path d="M86.3265 69.7959H84.4898V71.6326H86.3265V69.7959Z" fill="black"/>
<path d="M88.1633 69.7959H86.3265V71.6326H88.1633V69.7959Z" fill="black"/>
<path d="M90 69.7959H88.1633V71.6326H90V69.7959Z" fill="black"/>
<path d="M3.67347 71.6327H1.83673V73.4694H3.67347V71.6327Z" fill="black"/>
<path d="M5.5102 71.6327H3.67346V73.4694H5.5102V71.6327Z" fill="black"/>
<path d="M7.34693 71.6327H5.51019V73.4694H7.34693V71.6327Z" fill="black"/>
<path d="M16.5306 71.6327H14.6938V73.4694H16.5306V71.6327Z" fill="black"/>
<path d="M22.0408 71.6327H20.2041V73.4694H22.0408V71.6327Z" fill="black"/>
<path d="M27.551 71.6327H25.7143V73.4694H27.551V71.6327Z" fill="black"/>
<path d="M31.2245 71.6327H29.3878V73.4694H31.2245V71.6327Z" fill="black"/>
<path d="M33.0612 71.6327H31.2245V73.4694H33.0612V71.6327Z" fill="black"/>
<path d="M36.7347 71.6327H34.8979V73.4694H36.7347V71.6327Z" fill="black"/>
<path d="M38.5714 71.6327H36.7347V73.4694H38.5714V71.6327Z" fill="black"/>
<path d="M45.9184 71.6327H44.0817V73.4694H45.9184V71.6327Z" fill="black"/>
<path d="M53.2653 71.6327H51.4286V73.4694H53.2653V71.6327Z" fill="black"/>
<path d="M55.1021 71.6327H53.2653V73.4694H55.1021V71.6327Z" fill="black"/>
<path d="M56.9388 71.6327H55.1021V73.4694H56.9388V71.6327Z" fill="black"/>
<path d="M64.2857 71.6327H62.449V73.4694H64.2857V71.6327Z" fill="black"/>
<path d="M67.9592 71.6327H66.1224V73.4694H67.9592V71.6327Z" fill="black"/>
<path d="M73.4694 71.6327H71.6326V73.4694H73.4694V71.6327Z" fill="black"/>
<path d="M75.3061 71.6327H73.4694V73.4694H75.3061V71.6327Z" fill="black"/>
<path d="M77.1429 71.6327H75.3062V73.4694H77.1429V71.6327Z" fill="black"/>
<path d="M80.8163 71.6327H78.9796V73.4694H80.8163V71.6327Z" fill="black"/>
<path d="M82.6531 71.6327H80.8163V73.4694H82.6531V71.6327Z" fill="black"/>
<path d="M84.4898 71.6327H82.6531V73.4694H84.4898V71.6327Z" fill="black"/>
<path d="M88.1633 71.6327H86.3265V73.4694H88.1633V71.6327Z" fill="black"/>
<path d="M90 71.6327H88.1633V73.4694H90V71.6327Z" fill="black"/>
<path d="M1.83673 73.4694H0V75.3061H1.83673V73.4694Z" fill="black"/>
<path d="M3.67347 73.4694H1.83673V75.3061H3.67347V73.4694Z" fill="black"/>
<path d="M5.5102 73.4694H3.67346V75.3061H5.5102V73.4694Z" fill="black"/>
<path d="M12.8571 73.4694H11.0204V75.3061H12.8571V73.4694Z" fill="black"/>
<path d="M14.6939 73.4694H12.8571V75.3061H14.6939V73.4694Z" fill="black"/>
<path d="M16.5306 73.4694H14.6938V75.3061H16.5306V73.4694Z" fill="black"/>
<path d="M20.2041 73.4694H18.3674V75.3061H20.2041V73.4694Z" fill="black"/>
<path d="M22.0408 73.4694H20.2041V75.3061H22.0408V73.4694Z" fill="black"/>
<path d="M23.8776 73.4694H22.0408V75.3061H23.8776V73.4694Z" fill="black"/>
<path d="M25.7143 73.4694H23.8776V75.3061H25.7143V73.4694Z" fill="black"/>
<path d="M31.2245 73.4694H29.3878V75.3061H31.2245V73.4694Z" fill="black"/>
<path d="M33.0612 73.4694H31.2245V75.3061H33.0612V73.4694Z" fill="black"/>
<path d="M34.898 73.4694H33.0612V75.3061H34.898V73.4694Z" fill="black"/>
<path d="M36.7347 73.4694H34.8979V75.3061H36.7347V73.4694Z" fill="black"/>
<path d="M42.2449 73.4694H40.4081V75.3061H42.2449V73.4694Z" fill="black"/>
<path d="M44.0816 73.4694H42.2449V75.3061H44.0816V73.4694Z" fill="black"/>
<path d="M45.9184 73.4694H44.0817V75.3061H45.9184V73.4694Z" fill="black"/>
<path d="M47.7551 73.4694H45.9183V75.3061H47.7551V73.4694Z" fill="black"/>
<path d="M49.5919 73.4694H47.7551V75.3061H49.5919V73.4694Z" fill="black"/>
<path d="M51.4286 73.4694H49.5919V75.3061H51.4286V73.4694Z" fill="black"/>
<path d="M58.7755 73.4694H56.9388V75.3061H58.7755V73.4694Z" fill="black"/>
<path d="M67.9592 73.4694H66.1224V75.3061H67.9592V73.4694Z" fill="black"/>
<path d="M71.6326 73.4694H69.7959V75.3061H71.6326V73.4694Z" fill="black"/>
<path d="M73.4694 73.4694H71.6326V75.3061H73.4694V73.4694Z" fill="black"/>
<path d="M75.3061 73.4694H73.4694V75.3061H75.3061V73.4694Z" fill="black"/>
<path d="M77.1429 73.4694H75.3062V75.3061H77.1429V73.4694Z" fill="black"/>
<path d="M78.9796 73.4694H77.1428V75.3061H78.9796V73.4694Z" fill="black"/>
<path d="M80.8163 73.4694H78.9796V75.3061H80.8163V73.4694Z" fill="black"/>
<path d="M82.6531 73.4694H80.8163V75.3061H82.6531V73.4694Z" fill="black"/>
<path d="M84.4898 73.4694H82.6531V75.3061H84.4898V73.4694Z" fill="black"/>
<path d="M86.3265 73.4694H84.4898V75.3061H86.3265V73.4694Z" fill="black"/>
<path d="M90 73.4694H88.1633V75.3061H90V73.4694Z" fill="black"/>
<path d="M16.5306 75.3062H14.6938V77.1429H16.5306V75.3062Z" fill="black"/>
<path d="M20.2041 75.3062H18.3674V77.1429H20.2041V75.3062Z" fill="black"/>
<path d="M22.0408 75.3062H20.2041V77.1429H22.0408V75.3062Z" fill="black"/>
<path d="M23.8776 75.3062H22.0408V77.1429H23.8776V75.3062Z" fill="black"/>
<path d="M25.7143 75.3062H23.8776V77.1429H25.7143V75.3062Z" fill="black"/>
<path d="M27.551 75.3062H25.7143V77.1429H27.551V75.3062Z" fill="black"/>
<path d="M36.7347 75.3062H34.8979V77.1429H36.7347V75.3062Z" fill="black"/>
<path d="M42.2449 75.3062H40.4081V77.1429H42.2449V75.3062Z" fill="black"/>
<path d="M49.5919 75.3062H47.7551V77.1429H49.5919V75.3062Z" fill="black"/>
<path d="M53.2653 75.3062H51.4286V77.1429H53.2653V75.3062Z" fill="black"/>
<path d="M56.9388 75.3062H55.1021V77.1429H56.9388V75.3062Z" fill="black"/>
<path d="M58.7755 75.3062H56.9388V77.1429H58.7755V75.3062Z" fill="black"/>
<path d="M66.1224 75.3062H64.2857V77.1429H66.1224V75.3062Z" fill="black"/>
<path d="M69.7959 75.3062H67.9592V77.1429H69.7959V75.3062Z" fill="black"/>
<path d="M75.3061 75.3062H73.4694V77.1429H75.3061V75.3062Z" fill="black"/>
<path d="M82.6531 75.3062H80.8163V77.1429H82.6531V75.3062Z" fill="black"/>
<path d="M84.4898 75.3062H82.6531V77.1429H84.4898V75.3062Z" fill="black"/>
<path d="M88.1633 75.3062H86.3265V77.1429H88.1633V75.3062Z" fill="black"/>
<path d="M90 75.3062H88.1633V77.1429H90V75.3062Z" fill="black"/>
<path d="M1.83673 77.1428H0V78.9796H1.83673V77.1428Z" fill="black"/>
<path d="M3.67347 77.1428H1.83673V78.9796H3.67347V77.1428Z" fill="black"/>
<path d="M5.5102 77.1428H3.67346V78.9796H5.5102V77.1428Z" fill="black"/>
<path d="M7.34693 77.1428H5.51019V78.9796H7.34693V77.1428Z" fill="black"/>
<path d="M9.18366 77.1428H7.34692V78.9796H9.18366V77.1428Z" fill="black"/>
<path d="M11.0204 77.1428H9.18365V78.9796H11.0204V77.1428Z" fill="black"/>
<path d="M12.8571 77.1428H11.0204V78.9796H12.8571V77.1428Z" fill="black"/>
<path d="M16.5306 77.1428H14.6938V78.9796H16.5306V77.1428Z" fill="black"/>
<path d="M18.3674 77.1428H16.5306V78.9796H18.3674V77.1428Z" fill="black"/>
<path d="M25.7143 77.1428H23.8776V78.9796H25.7143V77.1428Z" fill="black"/>
<path d="M27.551 77.1428H25.7143V78.9796H27.551V77.1428Z" fill="black"/>
<path d="M29.3878 77.1428H27.551V78.9796H29.3878V77.1428Z" fill="black"/>
<path d="M33.0612 77.1428H31.2245V78.9796H33.0612V77.1428Z" fill="black"/>
<path d="M38.5714 77.1428H36.7347V78.9796H38.5714V77.1428Z" fill="black"/>
<path d="M40.4081 77.1428H38.5714V78.9796H40.4081V77.1428Z" fill="black"/>
<path d="M42.2449 77.1428H40.4081V78.9796H42.2449V77.1428Z" fill="black"/>
<path d="M45.9184 77.1428H44.0817V78.9796H45.9184V77.1428Z" fill="black"/>
<path d="M49.5919 77.1428H47.7551V78.9796H49.5919V77.1428Z" fill="black"/>
<path d="M55.1021 77.1428H53.2653V78.9796H55.1021V77.1428Z" fill="black"/>
<path d="M58.7755 77.1428H56.9388V78.9796H58.7755V77.1428Z" fill="black"/>
<path d="M62.449 77.1428H60.6122V78.9796H62.449V77.1428Z" fill="black"/>
<path d="M66.1224 77.1428H64.2857V78.9796H66.1224V77.1428Z" fill="black"/>
<path d="M69.7959 77.1428H67.9592V78.9796H69.7959V77.1428Z" fill="black"/>
<path d="M71.6326 77.1428H69.7959V78.9796H71.6326V77.1428Z" fill="black"/>
<path d="M73.4694 77.1428H71.6326V78.9796H73.4694V77.1428Z" fill="black"/>
<path d="M75.3061 77.1428H73.4694V78.9796H75.3061V77.1428Z" fill="black"/>
<path d="M78.9796 77.1428H77.1428V78.9796H78.9796V77.1428Z" fill="black"/>
<path d="M82.6531 77.1428H80.8163V78.9796H82.6531V77.1428Z" fill="black"/>
<path d="M86.3265 77.1428H84.4898V78.9796H86.3265V77.1428Z" fill="black"/>
<path d="M88.1633 77.1428H86.3265V78.9796H88.1633V77.1428Z" fill="black"/>
<path d="M90 77.1428H88.1633V78.9796H90V77.1428Z" fill="black"/>
<path d="M1.83673 78.9796H0V80.8163H1.83673V78.9796Z" fill="black"/>
<path d="M12.8571 78.9796H11.0204V80.8163H12.8571V78.9796Z" fill="black"/>
<path d="M18.3674 78.9796H16.5306V80.8163H18.3674V78.9796Z" fill="black"/>
<path d="M27.551 78.9796H25.7143V80.8163H27.551V78.9796Z" fill="black"/>
<path d="M31.2245 78.9796H29.3878V80.8163H31.2245V78.9796Z" fill="black"/>
<path d="M36.7347 78.9796H34.8979V80.8163H36.7347V78.9796Z" fill="black"/>
<path d="M38.5714 78.9796H36.7347V80.8163H38.5714V78.9796Z" fill="black"/>
<path d="M42.2449 78.9796H40.4081V80.8163H42.2449V78.9796Z" fill="black"/>
<path d="M49.5919 78.9796H47.7551V80.8163H49.5919V78.9796Z" fill="black"/>
<path d="M56.9388 78.9796H55.1021V80.8163H56.9388V78.9796Z" fill="black"/>
<path d="M58.7755 78.9796H56.9388V80.8163H58.7755V78.9796Z" fill="black"/>
<path d="M62.449 78.9796H60.6122V80.8163H62.449V78.9796Z" fill="black"/>
<path d="M64.2857 78.9796H62.449V80.8163H64.2857V78.9796Z" fill="black"/>
<path d="M66.1224 78.9796H64.2857V80.8163H66.1224V78.9796Z" fill="black"/>
<path d="M67.9592 78.9796H66.1224V80.8163H67.9592V78.9796Z" fill="black"/>
<path d="M71.6326 78.9796H69.7959V80.8163H71.6326V78.9796Z" fill="black"/>
<path d="M73.4694 78.9796H71.6326V80.8163H73.4694V78.9796Z" fill="black"/>
<path d="M75.3061 78.9796H73.4694V80.8163H75.3061V78.9796Z" fill="black"/>
<path d="M82.6531 78.9796H80.8163V80.8163H82.6531V78.9796Z" fill="black"/>
<path d="M88.1633 78.9796H86.3265V80.8163H88.1633V78.9796Z" fill="black"/>
<path d="M90 78.9796H88.1633V80.8163H90V78.9796Z" fill="black"/>
<path d="M1.83673 80.8163H0V82.653H1.83673V80.8163Z" fill="black"/>
<path d="M5.5102 80.8163H3.67346V82.653H5.5102V80.8163Z" fill="black"/>
<path d="M7.34693 80.8163H5.51019V82.653H7.34693V80.8163Z" fill="black"/>
<path d="M9.18366 80.8163H7.34692V82.653H9.18366V80.8163Z" fill="black"/>
<path d="M12.8571 80.8163H11.0204V82.653H12.8571V80.8163Z" fill="black"/>
<path d="M16.5306 80.8163H14.6938V82.653H16.5306V80.8163Z" fill="black"/>
<path d="M18.3674 80.8163H16.5306V82.653H18.3674V80.8163Z" fill="black"/>
<path d="M22.0408 80.8163H20.2041V82.653H22.0408V80.8163Z" fill="black"/>
<path d="M23.8776 80.8163H22.0408V82.653H23.8776V80.8163Z" fill="black"/>
<path d="M25.7143 80.8163H23.8776V82.653H25.7143V80.8163Z" fill="black"/>
<path d="M27.551 80.8163H25.7143V82.653H27.551V80.8163Z" fill="black"/>
<path d="M33.0612 80.8163H31.2245V82.653H33.0612V80.8163Z" fill="black"/>
<path d="M36.7347 80.8163H34.8979V82.653H36.7347V80.8163Z" fill="black"/>
<path d="M42.2449 80.8163H40.4081V82.653H42.2449V80.8163Z" fill="black"/>
<path d="M44.0816 80.8163H42.2449V82.653H44.0816V80.8163Z" fill="black"/>
<path d="M45.9184 80.8163H44.0817V82.653H45.9184V80.8163Z" fill="black"/>
<path d="M47.7551 80.8163H45.9183V82.653H47.7551V80.8163Z" fill="black"/>
<path d="M49.5919 80.8163H47.7551V82.653H49.5919V80.8163Z" fill="black"/>
<path d="M53.2653 80.8163H51.4286V82.653H53.2653V80.8163Z" fill="black"/>
<path d="M55.1021 80.8163H53.2653V82.653H55.1021V80.8163Z" fill="black"/>
<path d="M56.9388 80.8163H55.1021V82.653H56.9388V80.8163Z" fill="black"/>
<path d="M58.7755 80.8163H56.9388V82.653H58.7755V80.8163Z" fill="black"/>
<path d="M60.6122 80.8163H58.7755V82.653H60.6122V80.8163Z" fill="black"/>
<path d="M64.2857 80.8163H62.449V82.653H64.2857V80.8163Z" fill="black"/>
<path d="M71.6326 80.8163H69.7959V82.653H71.6326V80.8163Z" fill="black"/>
<path d="M75.3061 80.8163H73.4694V82.653H75.3061V80.8163Z" fill="black"/>
<path d="M77.1429 80.8163H75.3062V82.653H77.1429V80.8163Z" fill="black"/>
<path d="M78.9796 80.8163H77.1428V82.653H78.9796V80.8163Z" fill="black"/>
<path d="M80.8163 80.8163H78.9796V82.653H80.8163V80.8163Z" fill="black"/>
<path d="M82.6531 80.8163H80.8163V82.653H82.6531V80.8163Z" fill="black"/>
<path d="M84.4898 80.8163H82.6531V82.653H84.4898V80.8163Z" fill="black"/>
<path d="M88.1633 80.8163H86.3265V82.653H88.1633V80.8163Z" fill="black"/>
<path d="M90 80.8163H88.1633V82.653H90V80.8163Z" fill="black"/>
<path d="M1.83673 82.6531H0V84.4898H1.83673V82.6531Z" fill="black"/>
<path d="M5.5102 82.6531H3.67346V84.4898H5.5102V82.6531Z" fill="black"/>
<path d="M7.34693 82.6531H5.51019V84.4898H7.34693V82.6531Z" fill="black"/>
<path d="M9.18366 82.6531H7.34692V84.4898H9.18366V82.6531Z" fill="black"/>
<path d="M12.8571 82.6531H11.0204V84.4898H12.8571V82.6531Z" fill="black"/>
<path d="M16.5306 82.6531H14.6938V84.4898H16.5306V82.6531Z" fill="black"/>
<path d="M18.3674 82.6531H16.5306V84.4898H18.3674V82.6531Z" fill="black"/>
<path d="M23.8776 82.6531H22.0408V84.4898H23.8776V82.6531Z" fill="black"/>
<path d="M29.3878 82.6531H27.551V84.4898H29.3878V82.6531Z" fill="black"/>
<path d="M34.898 82.6531H33.0612V84.4898H34.898V82.6531Z" fill="black"/>
<path d="M40.4081 82.6531H38.5714V84.4898H40.4081V82.6531Z" fill="black"/>
<path d="M45.9184 82.6531H44.0817V84.4898H45.9184V82.6531Z" fill="black"/>
<path d="M47.7551 82.6531H45.9183V84.4898H47.7551V82.6531Z" fill="black"/>
<path d="M53.2653 82.6531H51.4286V84.4898H53.2653V82.6531Z" fill="black"/>
<path d="M58.7755 82.6531H56.9388V84.4898H58.7755V82.6531Z" fill="black"/>
<path d="M60.6122 82.6531H58.7755V84.4898H60.6122V82.6531Z" fill="black"/>
<path d="M62.449 82.6531H60.6122V84.4898H62.449V82.6531Z" fill="black"/>
<path d="M67.9592 82.6531H66.1224V84.4898H67.9592V82.6531Z" fill="black"/>
<path d="M69.7959 82.6531H67.9592V84.4898H69.7959V82.6531Z" fill="black"/>
<path d="M71.6326 82.6531H69.7959V84.4898H71.6326V82.6531Z" fill="black"/>
<path d="M73.4694 82.6531H71.6326V84.4898H73.4694V82.6531Z" fill="black"/>
<path d="M75.3061 82.6531H73.4694V84.4898H75.3061V82.6531Z" fill="black"/>
<path d="M78.9796 82.6531H77.1428V84.4898H78.9796V82.6531Z" fill="black"/>
<path d="M80.8163 82.6531H78.9796V84.4898H80.8163V82.6531Z" fill="black"/>
<path d="M86.3265 82.6531H84.4898V84.4898H86.3265V82.6531Z" fill="black"/>
<path d="M1.83673 84.4897H0V86.3265H1.83673V84.4897Z" fill="black"/>
<path d="M5.5102 84.4897H3.67346V86.3265H5.5102V84.4897Z" fill="black"/>
<path d="M7.34693 84.4897H5.51019V86.3265H7.34693V84.4897Z" fill="black"/>
<path d="M9.18366 84.4897H7.34692V86.3265H9.18366V84.4897Z" fill="black"/>
<path d="M12.8571 84.4897H11.0204V86.3265H12.8571V84.4897Z" fill="black"/>
<path d="M16.5306 84.4897H14.6938V86.3265H16.5306V84.4897Z" fill="black"/>
<path d="M22.0408 84.4897H20.2041V86.3265H22.0408V84.4897Z" fill="black"/>
<path d="M23.8776 84.4897H22.0408V86.3265H23.8776V84.4897Z" fill="black"/>
<path d="M25.7143 84.4897H23.8776V86.3265H25.7143V84.4897Z" fill="black"/>
<path d="M33.0612 84.4897H31.2245V86.3265H33.0612V84.4897Z" fill="black"/>
<path d="M36.7347 84.4897H34.8979V86.3265H36.7347V84.4897Z" fill="black"/>
<path d="M40.4081 84.4897H38.5714V86.3265H40.4081V84.4897Z" fill="black"/>
<path d="M42.2449 84.4897H40.4081V86.3265H42.2449V84.4897Z" fill="black"/>
<path d="M44.0816 84.4897H42.2449V86.3265H44.0816V84.4897Z" fill="black"/>
<path d="M45.9184 84.4897H44.0817V86.3265H45.9184V84.4897Z" fill="black"/>
<path d="M49.5919 84.4897H47.7551V86.3265H49.5919V84.4897Z" fill="black"/>
<path d="M53.2653 84.4897H51.4286V86.3265H53.2653V84.4897Z" fill="black"/>
<path d="M56.9388 84.4897H55.1021V86.3265H56.9388V84.4897Z" fill="black"/>
<path d="M60.6122 84.4897H58.7755V86.3265H60.6122V84.4897Z" fill="black"/>
<path d="M64.2857 84.4897H62.449V86.3265H64.2857V84.4897Z" fill="black"/>
<path d="M67.9592 84.4897H66.1224V86.3265H67.9592V84.4897Z" fill="black"/>
<path d="M69.7959 84.4897H67.9592V86.3265H69.7959V84.4897Z" fill="black"/>
<path d="M77.1429 84.4897H75.3062V86.3265H77.1429V84.4897Z" fill="black"/>
<path d="M80.8163 84.4897H78.9796V86.3265H80.8163V84.4897Z" fill="black"/>
<path d="M86.3265 84.4897H84.4898V86.3265H86.3265V84.4897Z" fill="black"/>
<path d="M1.83673 86.3265H0V88.1633H1.83673V86.3265Z" fill="black"/>
<path d="M12.8571 86.3265H11.0204V88.1633H12.8571V86.3265Z" fill="black"/>
<path d="M16.5306 86.3265H14.6938V88.1633H16.5306V86.3265Z" fill="black"/>
<path d="M23.8776 86.3265H22.0408V88.1633H23.8776V86.3265Z" fill="black"/>
<path d="M25.7143 86.3265H23.8776V88.1633H25.7143V86.3265Z" fill="black"/>
<path d="M29.3878 86.3265H27.551V88.1633H29.3878V86.3265Z" fill="black"/>
<path d="M33.0612 86.3265H31.2245V88.1633H33.0612V86.3265Z" fill="black"/>
<path d="M44.0816 86.3265H42.2449V88.1633H44.0816V86.3265Z" fill="black"/>
<path d="M45.9184 86.3265H44.0817V88.1633H45.9184V86.3265Z" fill="black"/>
<path d="M47.7551 86.3265H45.9183V88.1633H47.7551V86.3265Z" fill="black"/>
<path d="M53.2653 86.3265H51.4286V88.1633H53.2653V86.3265Z" fill="black"/>
<path d="M62.449 86.3265H60.6122V88.1633H62.449V86.3265Z" fill="black"/>
<path d="M69.7959 86.3265H67.9592V88.1633H69.7959V86.3265Z" fill="black"/>
<path d="M75.3061 86.3265H73.4694V88.1633H75.3061V86.3265Z" fill="black"/>
<path d="M77.1429 86.3265H75.3062V88.1633H77.1429V86.3265Z" fill="black"/>
<path d="M78.9796 86.3265H77.1428V88.1633H78.9796V86.3265Z" fill="black"/>
<path d="M80.8163 86.3265H78.9796V88.1633H80.8163V86.3265Z" fill="black"/>
<path d="M84.4898 86.3265H82.6531V88.1633H84.4898V86.3265Z" fill="black"/>
<path d="M90 86.3265H88.1633V88.1633H90V86.3265Z" fill="black"/>
<path d="M1.83673 88.1633H0V90.0001H1.83673V88.1633Z" fill="black"/>
<path d="M3.67347 88.1633H1.83673V90.0001H3.67347V88.1633Z" fill="black"/>
<path d="M5.5102 88.1633H3.67346V90.0001H5.5102V88.1633Z" fill="black"/>
<path d="M7.34693 88.1633H5.51019V90.0001H7.34693V88.1633Z" fill="black"/>
<path d="M9.18366 88.1633H7.34692V90.0001H9.18366V88.1633Z" fill="black"/>
<path d="M11.0204 88.1633H9.18365V90.0001H11.0204V88.1633Z" fill="black"/>
<path d="M12.8571 88.1633H11.0204V90.0001H12.8571V88.1633Z" fill="black"/>
<path d="M16.5306 88.1633H14.6938V90.0001H16.5306V88.1633Z" fill="black"/>
<path d="M20.2041 88.1633H18.3674V90.0001H20.2041V88.1633Z" fill="black"/>
<path d="M23.8776 88.1633H22.0408V90.0001H23.8776V88.1633Z" fill="black"/>
<path d="M29.3878 88.1633H27.551V90.0001H29.3878V88.1633Z" fill="black"/>
<path d="M31.2245 88.1633H29.3878V90.0001H31.2245V88.1633Z" fill="black"/>
<path d="M33.0612 88.1633H31.2245V90.0001H33.0612V88.1633Z" fill="black"/>
<path d="M34.898 88.1633H33.0612V90.0001H34.898V88.1633Z" fill="black"/>
<path d="M45.9184 88.1633H44.0817V90.0001H45.9184V88.1633Z" fill="black"/>
<path d="M51.4286 88.1633H49.5919V90.0001H51.4286V88.1633Z" fill="black"/>
<path d="M56.9388 88.1633H55.1021V90.0001H56.9388V88.1633Z" fill="black"/>
<path d="M58.7755 88.1633H56.9388V90.0001H58.7755V88.1633Z" fill="black"/>
<path d="M64.2857 88.1633H62.449V90.0001H64.2857V88.1633Z" fill="black"/>
<path d="M67.9592 88.1633H66.1224V90.0001H67.9592V88.1633Z" fill="black"/>
<path d="M69.7959 88.1633H67.9592V90.0001H69.7959V88.1633Z" fill="black"/>
<path d="M73.4694 88.1633H71.6326V90.0001H73.4694V88.1633Z" fill="black"/>
<path d="M78.9796 88.1633H77.1428V90.0001H78.9796V88.1633Z" fill="black"/>
<path d="M84.4898 88.1633H82.6531V90.0001H84.4898V88.1633Z" fill="black"/>
<path d="M86.3265 88.1633H84.4898V90.0001H86.3265V88.1633Z" fill="black"/>
<path d="M88.1633 88.1633H86.3265V90.0001H88.1633V88.1633Z" fill="black"/>
<path d="M90 88.1633H88.1633V90.0001H90V88.1633Z" fill="black"/>
</g>
<defs>
<clipPath id="clip0_50_1343">
<rect width="90" height="90" fill="white"/>
</clipPath>
</defs>
</svg>
