<svg width="302" height="200" viewBox="0 0 302 200" fill="none" xmlns="http://www.w3.org/2000/svg">
<g clip-path="url(#clip0_102_3)">
<path d="M108.328 115.102C118.677 96.9592 138.419 83.0287 159.318 84.3707C143.902 101.076 134.913 122.676 133.941 145.35C133.598 154.096 134.13 163.859 128.303 170.407C124.677 174.482 119.135 176.456 113.686 176.87C108.237 177.283 102.789 176.302 97.4122 175.325L96.108 175.724C95.6114 154.861 97.978 133.244 108.328 115.102Z" fill="#1373E5"/>
<path d="M159.349 84.8076C143.895 92.2213 130.717 104.603 122.628 119.704C120.879 122.968 119.39 126.432 118.74 130.094C118.091 133.757 118.544 137.245 119.8 140.724C120.948 143.905 122.492 147.027 122.844 150.431C123.215 154.018 121.89 157.373 119.506 160.035C116.588 163.293 112.67 165.312 108.77 167.153C104.439 169.197 99.9082 171.253 96.8408 175.068C96.4692 175.531 95.771 174.929 96.1421 174.467C101.479 167.829 110.614 166.581 116.949 161.233C119.905 158.738 122.124 155.339 121.984 151.358C121.861 147.876 120.272 144.656 119.082 141.445C117.832 138.073 117.208 134.683 117.657 131.089C118.115 127.412 119.471 123.883 121.129 120.588C124.867 113.157 129.982 106.335 135.843 100.438C142.578 93.6591 150.427 88.0784 159.05 83.9372C159.584 83.6811 159.879 84.5531 159.349 84.8076Z" fill="white"/>
<path d="M124.997 114.657C122.628 112.931 120.952 110.421 120.268 107.577C119.584 104.733 119.937 101.739 121.263 99.1301C121.534 98.6031 122.368 98.9968 122.098 99.5245C120.858 101.952 120.529 104.74 121.172 107.388C121.814 110.035 123.385 112.366 125.6 113.961C126.082 114.308 125.476 115.002 124.997 114.657Z" fill="white"/>
<path d="M119.005 139.188C124.942 138.323 130.333 135.261 134.105 130.611C134.478 130.15 135.176 130.752 134.803 131.212C130.87 136.044 125.252 139.219 119.072 140.105C118.483 140.189 118.419 139.271 119.005 139.188Z" fill="white"/>
<path d="M143.033 94.7909C143.81 95.6492 144.789 96.3017 145.882 96.6899C146.974 97.0781 148.147 97.1897 149.293 97.0149C149.881 96.9234 149.945 97.8413 149.361 97.9322C148.093 98.1195 146.799 97.9946 145.591 97.5684C144.382 97.1422 143.297 96.4276 142.43 95.4871C142.341 95.4053 142.287 95.2927 142.278 95.1722C142.269 95.0518 142.306 94.9324 142.382 94.8385C142.463 94.7467 142.576 94.6902 142.698 94.6813C142.82 94.6724 142.94 94.7118 143.033 94.7909Z" fill="white"/>
<path d="M200.899 141.604C200.534 141.671 200.169 141.739 199.8 141.813C194.893 142.746 190.07 144.075 185.379 145.786C185.014 145.912 184.646 146.046 184.286 146.183C173.027 150.426 162.657 156.714 153.703 164.729C150.142 167.922 146.831 171.38 143.797 175.073C139.608 180.174 135.473 186.037 129.998 189.363C129.431 189.716 128.842 190.034 128.235 190.315L96.6973 177.279C96.6405 177.214 96.5804 177.155 96.5233 177.089L95.2402 176.626C95.3834 176.425 95.5361 176.219 95.6793 176.018C95.7618 175.901 95.8513 175.786 95.9339 175.669C95.9911 175.592 96.0487 175.515 96.096 175.442C96.1149 175.416 96.1342 175.391 96.1502 175.372C96.1975 175.299 96.2491 175.236 96.2933 175.171C97.1441 174.018 98.0045 172.869 98.8746 171.725C98.8775 171.717 98.8775 171.717 98.8876 171.713C105.539 163.008 112.978 154.779 121.434 147.937C121.689 147.732 121.946 147.519 122.215 147.319C126.043 144.256 130.117 141.51 134.395 139.108C136.741 137.801 139.153 136.613 141.62 135.548C148 132.81 154.772 131.089 161.689 130.447C175.478 129.172 189.523 132.304 200.098 140.936C200.368 141.157 200.632 141.376 200.899 141.604Z" fill="#1373E5"/>
<path d="M200.662 141.973C183.844 138.621 165.842 140.601 150.259 147.804C146.891 149.362 143.609 151.234 140.878 153.768C138.146 156.303 136.401 159.36 135.301 162.892C134.296 166.121 133.643 169.539 131.867 172.468C129.996 175.555 126.912 177.439 123.399 178.134C119.101 178.985 114.753 178.246 110.527 177.376C105.834 176.41 100.974 175.332 96.2199 176.539C95.6438 176.685 95.4499 175.785 96.0251 175.639C104.297 173.541 112.345 178.025 120.634 177.556C124.502 177.337 128.326 175.955 130.62 172.692C132.626 169.839 133.303 166.314 134.292 163.036C135.331 159.594 136.882 156.514 139.411 153.912C141.999 151.252 145.214 149.248 148.528 147.611C156.002 143.921 164.209 141.543 172.451 140.35C181.924 138.979 191.562 139.232 200.95 141.099C201.531 141.215 201.24 142.089 200.662 141.973Z" fill="white"/>
<path d="M155.2 145.197C154.352 142.397 154.529 139.388 155.702 136.706C156.874 134.025 158.965 131.846 161.6 130.559C162.134 130.3 162.563 131.115 162.028 131.374C159.571 132.568 157.624 134.598 156.538 137.097C155.451 139.596 155.297 142.4 156.103 145.002C156.277 145.568 155.374 145.759 155.2 145.197Z" fill="white"/>
<path d="M135.595 161.188C140.857 164.059 147.012 164.849 152.833 163.399C153.41 163.255 153.604 164.154 153.028 164.298C146.968 165.796 140.564 164.961 135.095 161.961C134.574 161.674 135.077 160.903 135.595 161.188Z" fill="white"/>
<path d="M181.604 140.156C181.706 141.307 182.093 142.415 182.731 143.381C183.369 144.346 184.238 145.139 185.259 145.687C185.783 145.967 185.28 146.738 184.759 146.46C183.633 145.849 182.675 144.973 181.968 143.908C181.261 142.843 180.826 141.621 180.702 140.35C180.68 140.231 180.705 140.108 180.77 140.007C180.836 139.905 180.938 139.833 181.056 139.803C181.175 139.778 181.3 139.801 181.403 139.867C181.506 139.933 181.578 140.037 181.604 140.156Z" fill="white"/>
<path d="M140.822 163.11C136.405 141.829 130.884 134.734 130.884 134.734L128.775 133.104L126.239 131.14L126.251 130.888L125.649 130.684L125.508 130.575L125.276 130.398L125.239 130.437L125.16 130.519L113.683 126.631L99.1213 121.702L92.3784 112.968C91.2802 111.546 89.8664 110.396 88.2477 109.609C86.6291 108.822 84.8496 108.42 83.0487 108.433L61.5141 108.592C58.6024 108.613 55.8041 109.72 53.6692 111.693L39.5149 124.776L17.4598 135.273L17.4226 135.236L17.191 135.401L13.7832 137.024L13.9239 137.754L11.8147 139.27C11.8147 139.27 6.29368 145.873 1.87685 165.675C0.753263 170.713 0.20019 181.522 0.000561001 194.841C-0.00946637 195.514 0.115019 196.184 0.366775 196.809C0.618531 197.434 0.992538 198.004 1.46705 198.484C1.94156 198.964 2.5071 199.345 3.1308 199.605C3.7545 199.866 4.4239 200 5.1001 200H122.901L137.604 200C138.28 200 138.949 199.866 139.572 199.606C140.195 199.346 140.761 198.965 141.235 198.485C141.709 198.006 142.083 197.437 142.336 196.812C142.588 196.188 142.713 195.519 142.704 194.846C142.509 180.353 141.956 168.575 140.822 163.11Z" fill="#3F3D56"/>
<path d="M155.937 18.5592C151.353 18.5592 146.958 20.3735 143.717 23.603C140.476 26.8324 138.656 31.2125 138.656 35.7797C138.656 40.3469 140.476 44.727 143.717 47.9564C146.958 51.1859 151.353 53.0002 155.937 53.0002H284.719C289.303 53.0002 293.698 51.1859 296.939 47.9564C300.18 44.727 302 40.3469 302 35.7797C302 31.2125 300.18 26.8324 296.939 23.603C293.698 20.3735 289.303 18.5592 284.719 18.5592H155.937Z" fill="#EAF1F9"/>
<path d="M155.936 22.0443C152.281 22.0443 148.775 23.4914 146.19 26.0673C143.605 28.6432 142.153 32.1369 142.153 35.7797C142.153 39.4226 143.605 42.9162 146.19 45.4921C148.775 48.068 152.281 49.5151 155.936 49.5151H284.719C288.375 49.5151 291.881 48.068 294.466 45.4921C297.05 42.9162 298.503 39.4226 298.503 35.7797C298.503 32.1369 297.05 28.6432 294.466 26.0673C291.881 23.4914 288.375 22.0443 284.719 22.0443H155.936Z" fill="white"/>
<path d="M75.663 100.371C91.2443 100.371 103.875 87.7843 103.875 72.2574C103.875 56.7305 91.2443 44.1434 75.663 44.1434C60.0818 44.1434 47.4507 56.7305 47.4507 72.2574C47.4507 87.7843 60.0818 100.371 75.663 100.371Z" fill="#9E616A"/>
<path d="M68.446 98.9948C68.3255 98.7303 68.2053 98.465 68.0854 98.1987C68.1316 98.2002 68.1774 98.2068 68.2236 98.208L68.446 98.9948Z" fill="#2F2E41"/>
<path d="M46.6664 45.4219C48.0933 44.2876 49.761 43.2439 51.5853 43.3026C53.4096 43.3612 55.2596 45.0031 54.8817 46.7827C58.2326 40.8702 63.5663 36.3229 69.9465 33.9389C76.3267 31.5548 83.3456 31.4864 89.7714 33.7456C94.3057 35.3397 98.7522 38.5289 99.7937 43.2065C100.061 44.4072 100.119 45.7238 100.871 46.6989C101.819 47.9282 103.634 48.2063 105.129 47.7739C105.144 47.7695 105.159 47.7651 105.174 47.7607C105.426 47.6748 105.699 47.6664 105.956 47.7365C106.213 47.8066 106.444 47.952 106.617 48.154C106.791 48.356 106.899 48.6051 106.929 48.8693C106.959 49.1335 106.908 49.4005 106.784 49.6359L105.501 52.0202C107.119 52.3794 108.799 52.3438 110.399 51.9164C110.665 51.8469 110.946 51.8611 111.204 51.957C111.461 52.0529 111.683 52.2259 111.837 52.4521C111.992 52.6783 112.073 52.9468 112.069 53.2207C112.065 53.4945 111.976 53.7604 111.814 53.9818C107.583 59.7696 100.516 63.507 93.3035 63.4631C88.1775 63.4319 82.9986 61.6714 78.0098 62.8461C76.0799 63.3006 74.2765 64.1798 72.732 65.4194C71.1875 66.6589 69.9411 68.2274 69.0842 70.0096C68.2273 71.7918 67.7817 73.7425 67.78 75.7187C67.7784 77.6949 68.2208 79.6464 69.0747 81.43C67.5421 79.7595 64.5795 80.155 63.0117 81.7929C61.4441 83.4308 61.0382 85.8754 61.1962 88.1333C61.4377 91.5868 62.7955 94.8409 64.227 98.0081C52.2258 97.6316 40.8746 89.2423 37.0538 77.8955C33.2169 66.5013 37.2381 52.9169 46.6664 45.4219Z" fill="#2F2E41"/>
<path opacity="0.2" d="M27.7681 156.685L35.681 199.588L40.4289 200L27.7681 156.685Z" fill="black"/>
<path opacity="0.2" d="M114.931 153.45L107.018 199.557L102.27 200L114.931 153.45Z" fill="black"/>
<path d="M53.4152 30.9832C51.8981 31.6145 50.3149 30.9227 49.651 29.3382C48.9769 27.7295 49.6065 26.0965 51.148 25.455C52.6897 24.8136 54.2446 25.5071 54.9295 27.1418C55.6042 28.7519 54.9815 30.3315 53.4152 30.9832ZM50.509 22.2886L49.3026 22.7906C49.0012 22.9145 48.6642 22.9212 48.3581 22.8093C48.0521 22.6974 47.7993 22.4752 47.6498 22.1865L47.5901 22.0702C46.2921 19.7374 46.1435 16.9023 47.1507 13.648C48.0838 10.7287 48.4713 8.67559 47.692 6.81557C46.7908 4.66504 44.8666 3.99138 42.4127 4.96725C41.461 5.36327 41.1582 5.35696 40.4092 6.09734C40.2463 6.26035 40.0521 6.38899 39.8382 6.47561C39.6243 6.56222 39.3952 6.60502 39.1643 6.60146C38.9412 6.59885 38.7208 6.55147 38.5164 6.46217C38.312 6.37286 38.1278 6.24345 37.9747 6.08166C37.6797 5.76986 37.5144 5.35813 37.5122 4.92961C37.5101 4.50109 37.6712 4.08772 37.963 3.77297C39.2218 2.45977 40.7402 1.42087 42.4222 0.721815C47.6945 -1.47202 50.3486 1.76686 51.5631 4.66535C52.7511 7.50041 52.0828 10.1309 51.0091 13.5376C50.1093 16.3683 50.1617 18.4659 51.1838 20.5515C51.2576 20.7092 51.2987 20.8801 51.3045 21.054C51.3104 21.2279 51.2809 21.4011 51.2179 21.5634C51.1548 21.7256 51.0596 21.8735 50.9377 21.9981C50.8159 22.1228 50.6701 22.2216 50.509 22.2886Z" fill="#1373E5"/>
<path d="M184.383 43.9927H158.76C158.679 43.9933 158.598 43.9778 158.523 43.9471C158.447 43.9165 158.379 43.8713 158.321 43.8141C158.263 43.7569 158.217 43.6889 158.186 43.6141C158.155 43.5392 158.139 43.4588 158.139 43.3777C158.139 43.2966 158.155 43.2163 158.186 43.1414C158.217 43.0665 158.263 42.9985 158.321 42.9414C158.379 42.8842 158.447 42.839 158.523 42.8083C158.598 42.7777 158.679 42.7622 158.76 42.7627H184.383C184.546 42.7638 184.702 42.8291 184.817 42.9443C184.932 43.0595 184.996 43.2153 184.996 43.3777C184.996 43.5401 184.932 43.6959 184.817 43.8111C184.702 43.9264 184.546 43.9916 184.383 43.9927Z" fill="#1373E5"/>
<path d="M216.887 44.1977H191.264C191.183 44.1983 191.102 44.1828 191.026 44.1521C190.951 44.1214 190.883 44.0762 190.825 44.0191C190.767 43.9619 190.721 43.8939 190.69 43.819C190.659 43.7441 190.643 43.6638 190.643 43.5827C190.643 43.5016 190.659 43.4212 190.69 43.3464C190.721 43.2715 190.767 43.2035 190.825 43.1463C190.883 43.0891 190.951 43.0439 191.026 43.0133C191.102 42.9826 191.183 42.9671 191.264 42.9677H216.887C216.968 42.9671 217.049 42.9826 217.124 43.0133C217.2 43.0439 217.268 43.0891 217.326 43.1463C217.384 43.2035 217.43 43.2715 217.461 43.3464C217.492 43.4212 217.508 43.5016 217.508 43.5827C217.508 43.6638 217.492 43.7441 217.461 43.819C217.43 43.8939 217.384 43.9619 217.326 44.0191C217.268 44.0762 217.2 44.1214 217.124 44.1521C217.049 44.1828 216.968 44.1983 216.887 44.1977Z" fill="#1373E5"/>
<path d="M249.391 44.4028H223.768C223.605 44.4017 223.449 44.3364 223.335 44.2212C223.22 44.106 223.155 43.9501 223.155 43.7878C223.155 43.6254 223.22 43.4696 223.335 43.3543C223.449 43.2391 223.605 43.1738 223.768 43.1727H249.391C249.473 43.1722 249.553 43.1877 249.629 43.2184C249.704 43.249 249.773 43.2942 249.83 43.3514C249.888 43.4086 249.934 43.4765 249.965 43.5514C249.997 43.6263 250.013 43.7066 250.013 43.7878C250.013 43.8689 249.997 43.9492 249.965 44.0241C249.934 44.099 249.888 44.167 249.83 44.2241C249.773 44.2813 249.704 44.3265 249.629 44.3572C249.553 44.3878 249.473 44.4033 249.391 44.4028Z" fill="#1373E5"/>
<path d="M281.896 44.6077H256.273C256.11 44.6066 255.954 44.5413 255.839 44.4261C255.724 44.3109 255.66 44.1551 255.66 43.9927C255.66 43.8303 255.724 43.6745 255.839 43.5593C255.954 43.4441 256.11 43.3788 256.273 43.3777H281.896C282.059 43.3788 282.215 43.4441 282.329 43.5593C282.444 43.6745 282.509 43.8303 282.509 43.9927C282.509 44.1551 282.444 44.3109 282.329 44.4261C282.215 44.5413 282.059 44.6066 281.896 44.6077Z" fill="#1373E5"/>
<path d="M171.515 38.3327C174.145 38.3327 176.277 36.208 176.277 33.587C176.277 30.9661 174.145 28.8414 171.515 28.8414C168.885 28.8414 166.753 30.9661 166.753 33.587C166.753 36.208 168.885 38.3327 171.515 38.3327Z" fill="#1373E5"/>
<path d="M204.215 38.3327C206.845 38.3327 208.978 36.208 208.978 33.587C208.978 30.9661 206.845 28.8414 204.215 28.8414C201.585 28.8414 199.453 30.9661 199.453 33.587C199.453 36.208 201.585 38.3327 204.215 38.3327Z" fill="#1373E5"/>
<path d="M236.916 38.3327C239.546 38.3327 241.678 36.208 241.678 33.587C241.678 30.9661 239.546 28.8414 236.916 28.8414C234.286 28.8414 232.154 30.9661 232.154 33.587C232.154 36.208 234.286 38.3327 236.916 38.3327Z" fill="#1373E5"/>
<path d="M269.617 38.3327C272.247 38.3327 274.379 36.208 274.379 33.587C274.379 30.9661 272.247 28.8414 269.617 28.8414C266.987 28.8414 264.854 30.9661 264.854 33.587C264.854 36.208 266.987 38.3327 269.617 38.3327Z" fill="#1373E5"/>
</g>
<defs>
<clipPath id="clip0_102_3">
<rect width="302" height="200" fill="white"/>
</clipPath>
</defs>
</svg>
