<svg width="386" height="200" viewBox="0 0 386 200" fill="none" xmlns="http://www.w3.org/2000/svg">
<g clip-path="url(#clip0_1_612)">
<path d="M193 178.764C299.591 178.764 386 176.34 386 173.351C386 170.361 299.591 167.937 193 167.937C86.409 167.937 0 170.361 0 173.351C0 176.34 86.409 178.764 193 178.764Z" fill="#AADBF6"/>
<path d="M295.855 114.69C295.612 114.693 295.368 114.697 295.121 114.697C294.874 114.697 294.63 114.693 294.386 114.69C281.467 114.395 272.103 106.301 274.487 97.8078L280.299 77.089L281.767 71.8466L307.807 72.2918L309.389 77.4204L315.618 97.6069C318.256 106.147 308.892 114.395 295.855 114.69Z" fill="#3F3D56"/>
<path opacity="0.2" d="M309.389 77.4204C304.949 79.9655 299.913 81.2765 294.799 81.2182C289.685 81.1599 284.68 79.7345 280.299 77.089L281.768 71.8466L307.807 72.2918L309.389 77.4204Z" fill="black"/>
<path d="M308.29 98.4952C309.415 94.2913 313.112 88.2269 323.48 80.915C341.562 68.1612 330.775 58.5983 330.308 58.1976C329.327 57.3572 329.472 56.4135 330.644 56.0911C331.326 55.9545 332.028 55.9656 332.704 56.1235C333.381 56.2814 334.016 56.5825 334.567 57.0066C335.152 57.4922 348.659 69.0589 328.255 83.4484C309.893 96.4004 313.797 104.855 313.842 104.936C314.334 105.841 313.545 106.564 312.078 106.554C310.611 106.545 309.022 105.804 308.528 104.901C308.424 104.71 307.242 102.409 308.29 98.4952Z" fill="#3F3D56"/>
<path d="M283.103 117.71C282.708 117.71 282.317 117.632 281.953 117.48C281.588 117.329 281.257 117.107 280.978 116.827C280.699 116.547 280.478 116.215 280.327 115.85C280.176 115.484 280.098 115.092 280.098 114.697V101.641C280.098 100.842 280.415 100.075 280.978 99.5104C281.542 98.9454 282.306 98.6279 283.103 98.6279C283.9 98.6279 284.664 98.9454 285.227 99.5104C285.791 100.075 286.107 100.842 286.107 101.641V114.697C286.107 115.092 286.029 115.484 285.878 115.85C285.728 116.215 285.506 116.547 285.227 116.827C284.948 117.107 284.617 117.329 284.252 117.48C283.888 117.632 283.497 117.71 283.103 117.71Z" fill="#3F3D56"/>
<path d="M285.737 86.7143C285.572 87.0738 285.338 87.3971 285.049 87.6659C284.759 87.9347 284.42 88.1437 284.05 88.2809C283.68 88.4181 283.286 88.4809 282.892 88.4657C282.498 88.4505 282.11 88.3575 281.752 88.1921L269.924 82.7351C269.201 82.4006 268.64 81.7919 268.364 81.0428C268.088 80.2937 268.12 79.4655 268.453 78.74C268.786 78.0146 269.392 77.4514 270.139 77.174C270.886 76.8967 271.712 76.9279 272.436 77.2609L284.263 82.7179C284.622 82.8833 284.944 83.1178 285.212 83.4082C285.48 83.6985 285.689 84.0389 285.826 84.41C285.963 84.7811 286.025 85.1756 286.01 85.571C285.995 85.9664 285.902 86.3549 285.737 86.7143Z" fill="#3F3D56"/>
<path d="M304.505 86.7143C304.669 87.0738 304.903 87.3971 305.193 87.6659C305.482 87.9347 305.822 88.1437 306.192 88.2809C306.562 88.4182 306.955 88.4809 307.35 88.4657C307.744 88.4505 308.131 88.3575 308.49 88.1921L320.318 82.7351C321.042 82.4011 321.603 81.7925 321.88 81.043C322.156 80.2935 322.124 79.4646 321.791 78.7387C321.458 78.0128 320.851 77.4493 320.104 77.1721C319.356 76.895 318.53 76.9269 317.806 77.2609L305.978 82.7179C305.62 82.8833 305.297 83.1178 305.029 83.4082C304.761 83.6985 304.553 84.0389 304.416 84.41C304.279 84.7811 304.217 85.1756 304.232 85.571C304.247 85.9664 304.34 86.3549 304.505 86.7143Z" fill="#3F3D56"/>
<path d="M307.139 117.71C307.533 117.71 307.924 117.632 308.289 117.48C308.653 117.329 308.984 117.107 309.263 116.827C309.542 116.547 309.764 116.215 309.915 115.85C310.066 115.484 310.143 115.092 310.143 114.697V101.641C310.143 100.842 309.827 100.075 309.263 99.5104C308.7 98.9454 307.936 98.6279 307.139 98.6279C306.342 98.6279 305.578 98.9454 305.014 99.5104C304.451 100.075 304.134 100.842 304.134 101.641V114.697C304.134 115.092 304.212 115.484 304.363 115.85C304.514 116.215 304.735 116.547 305.014 116.827C305.293 117.107 305.624 117.329 305.989 117.48C306.354 117.632 306.744 117.71 307.139 117.71Z" fill="#3F3D56"/>
<path d="M319.695 33.1859C319.955 32.858 320.143 32.4786 320.245 32.0727C320.348 31.6668 320.364 31.2437 320.292 30.8313L318.657 21.1848L317.021 11.5383C316.933 11.0174 316.71 10.5291 316.373 10.1223C316.037 9.71549 315.6 9.4046 315.106 9.22086C314.612 9.03711 314.079 8.98699 313.559 9.07552C313.04 9.16406 312.553 9.38814 312.147 9.72524L304.634 15.9686L300.108 19.7299C297.089 19.1917 294.003 19.145 290.97 19.5918L286.61 15.9686L279.096 9.72524C278.691 9.38814 278.204 9.16407 277.684 9.07553C277.165 8.98699 276.631 9.03712 276.138 9.22086C275.644 9.40461 275.207 9.7155 274.87 10.1223C274.534 10.5291 274.311 11.0175 274.222 11.5383L272.587 21.1848L270.952 30.8313C270.865 31.3383 270.91 31.8593 271.083 32.3436C268.281 36.6517 266.68 41.634 266.449 46.7723C266.218 51.9106 267.364 57.0172 269.767 61.561C272.171 66.1047 275.745 69.9196 280.118 72.6087C284.49 75.2979 289.501 76.7631 294.63 76.852C299.758 76.9408 304.817 75.6501 309.279 73.114C313.741 70.5779 317.445 66.8891 320.004 62.4314C322.563 57.9736 323.884 52.9097 323.829 47.7665C323.775 42.6232 322.348 37.5885 319.695 33.1859Z" fill="#3F3D56"/>
<path d="M278.343 13.6783C278.165 13.6785 277.988 13.7107 277.821 13.7732C277.576 13.8628 277.359 14.0163 277.192 14.218C277.025 14.4196 276.915 14.6621 276.873 14.9206L274.89 26.6188C274.846 26.8766 274.871 27.1415 274.962 27.3867C275.053 27.632 275.206 27.8489 275.407 28.0158C275.608 28.1827 275.849 28.2936 276.106 28.3375C276.363 28.3813 276.627 28.3565 276.872 28.2655L287.966 24.1384C288.211 24.0474 288.427 23.8935 288.593 23.6922C288.76 23.4908 288.87 23.249 288.914 22.9912C288.958 22.7334 288.933 22.4686 288.842 22.2234C288.752 21.9782 288.598 21.7612 288.397 21.5943L279.286 14.023C279.022 13.8009 278.688 13.6789 278.343 13.6783Z" fill="#AADBF6"/>
<path d="M312.9 13.6783C312.555 13.6789 312.221 13.8009 311.957 14.023L302.846 21.5943C302.645 21.7612 302.492 21.9782 302.401 22.2234C302.31 22.4686 302.285 22.7334 302.329 22.9912C302.373 23.249 302.483 23.4908 302.65 23.6922C302.816 23.8935 303.033 24.0474 303.277 24.1384L314.371 28.2655C314.616 28.3565 314.88 28.3813 315.137 28.3375C315.394 28.2936 315.635 28.1827 315.836 28.0158C316.037 27.8489 316.191 27.632 316.281 27.3867C316.372 27.1415 316.397 26.8766 316.353 26.6188L314.37 14.9206C314.328 14.6621 314.218 14.4196 314.051 14.218C313.884 14.0163 313.667 13.8628 313.422 13.7732C313.255 13.7107 313.078 13.6785 312.9 13.6783Z" fill="#AADBF6"/>
<path d="M295.121 56.1126C297.333 56.1126 299.127 54.314 299.127 52.0954C299.127 49.8767 297.333 48.0782 295.121 48.0782C292.908 48.0782 291.115 49.8767 291.115 52.0954C291.115 54.314 292.908 56.1126 295.121 56.1126Z" fill="#AADBF6"/>
<path d="M295.121 51.0911C296.596 51.0911 297.792 50.6414 297.792 50.0868C297.792 49.5321 296.596 49.0825 295.121 49.0825C293.646 49.0825 292.45 49.5321 292.45 50.0868C292.45 50.6414 293.646 51.0911 295.121 51.0911Z" fill="#3F3D56"/>
<path d="M293.118 54.4387H296.79V58.9581C296.79 59.1999 296.742 59.4393 296.65 59.6627C296.558 59.8861 296.423 60.089 296.252 60.26C296.082 60.431 295.879 60.5666 295.656 60.6591C295.434 60.7517 295.195 60.7993 294.954 60.7993C294.467 60.7993 294 60.6053 293.655 60.26C293.311 59.9147 293.118 59.4464 293.118 58.9581L293.118 54.4387Z" fill="#FF6584"/>
<path d="M295.344 8.87263C295.151 9.27306 294.964 9.67784 294.789 10.0909C292.717 14.9362 292.018 20.2607 292.769 25.4785C293.145 24.9317 293.54 24.3619 293.942 23.7859C293.082 18.7781 293.565 13.6309 295.344 8.87263Z" fill="#3F3D56"/>
<path d="M298.348 12.5551C298.156 12.9555 297.969 13.3603 297.793 13.7733C295.721 18.6186 295.022 23.9431 295.774 29.161C296.15 28.6141 296.545 28.0444 296.946 27.4684C296.086 22.4606 296.57 17.3134 298.348 12.5551Z" fill="#3F3D56"/>
<path d="M307.611 84.8487L307.188 79.4509L306.765 74.0532C306.742 73.7618 306.643 73.4815 306.478 73.2405C306.313 72.9996 306.087 72.8065 305.824 72.6806C305.561 72.5547 305.27 72.5005 304.979 72.5234C304.688 72.5464 304.409 72.6456 304.169 72.8112L299.719 75.8776L296.469 78.1168C296.262 77.873 296.004 77.6772 295.713 77.5429C295.423 77.4087 295.107 77.3392 294.787 77.3392C294.467 77.3392 294.151 77.4087 293.861 77.5429C293.57 77.6772 293.313 77.873 293.105 78.1168L289.855 75.8776L285.405 72.8111C285.165 72.6456 284.886 72.5463 284.595 72.5234C284.304 72.5005 284.013 72.5547 283.75 72.6806C283.487 72.8064 283.261 72.9996 283.096 73.2405C282.931 73.4814 282.832 73.7617 282.809 74.0532L282.386 79.4509L281.963 84.8487C281.94 85.1401 281.994 85.4324 282.119 85.6963C282.245 85.9602 282.437 86.1862 282.678 86.3518C282.918 86.5174 283.197 86.6166 283.488 86.6395C283.779 86.6624 284.07 86.6082 284.333 86.4823L289.207 84.151L293.211 82.2355C293.417 82.4449 293.662 82.6111 293.933 82.7245C294.203 82.838 294.494 82.8964 294.787 82.8964C295.08 82.8964 295.371 82.838 295.641 82.7245C295.912 82.6111 296.157 82.4449 296.363 82.2355L300.367 84.151L305.241 86.4823C305.504 86.6082 305.795 86.6624 306.086 86.6395C306.377 86.6166 306.656 86.5174 306.896 86.3518C307.137 86.1862 307.329 85.9602 307.455 85.6963C307.58 85.4325 307.634 85.1401 307.611 84.8487Z" fill="#1373E5"/>
<path d="M289.779 48.7477C290.332 48.7477 290.781 48.2981 290.781 47.7434C290.781 47.1887 290.332 46.7391 289.779 46.7391C289.226 46.7391 288.778 47.1887 288.778 47.7434C288.778 48.2981 289.226 48.7477 289.779 48.7477Z" fill="#AADBF6"/>
<path d="M300.462 48.7477C301.016 48.7477 301.464 48.2981 301.464 47.7434C301.464 47.1887 301.016 46.7391 300.462 46.7391C299.909 46.7391 299.461 47.1887 299.461 47.7434C299.461 48.2981 299.909 48.7477 300.462 48.7477Z" fill="#AADBF6"/>
<path d="M101.344 105.817C101.587 105.821 101.831 105.824 102.078 105.824C102.325 105.824 102.569 105.821 102.813 105.817C115.732 105.523 125.096 97.4282 122.713 88.9351L116.9 68.2164L115.432 62.974L89.3924 63.4192L87.8101 68.5478L81.5807 88.7343C78.9434 97.2741 88.3075 105.523 101.344 105.817Z" fill="#3F3D56"/>
<path opacity="0.2" d="M87.8101 68.5478C92.2499 71.0928 97.2865 72.4038 102.4 72.3456C107.514 72.2873 112.519 70.8619 116.9 68.2164L115.432 62.974L89.3924 63.4192L87.8101 68.5478Z" fill="black"/>
<path d="M85.7461 87.167C82.9356 83.85 77.0064 79.9552 64.5156 77.7953C42.7306 74.0268 48.3992 60.7552 48.6507 60.1925C49.1783 59.0121 48.6448 58.2213 47.4475 58.433C46.7737 58.6018 46.1436 58.9132 45.5996 59.3462C45.0555 59.7791 44.6101 60.3237 44.2931 60.9435C43.9712 61.6336 36.6988 77.8836 61.2804 82.1341C83.404 85.9612 83.4829 95.2781 83.477 95.3706C83.4181 96.399 84.44 96.7144 85.7618 96.0761C87.0836 95.4378 88.204 94.0868 88.2647 93.0586C88.277 92.8413 88.3631 90.2546 85.7461 87.167Z" fill="#3F3D56"/>
<path d="M114.096 108.837C114.491 108.837 114.882 108.759 115.246 108.608C115.611 108.456 115.942 108.234 116.221 107.955C116.5 107.675 116.721 107.343 116.872 106.977C117.023 106.612 117.101 106.22 117.101 105.824V92.7682C117.1 91.9698 116.783 91.2044 116.22 90.6401C115.656 90.0759 114.893 89.7589 114.096 89.7589C113.3 89.7589 112.536 90.0759 111.973 90.6401C111.41 91.2044 111.093 91.9698 111.092 92.7682V105.824C111.092 106.22 111.169 106.612 111.32 106.977C111.471 107.343 111.693 107.675 111.972 107.955C112.251 108.234 112.582 108.456 112.947 108.608C113.311 108.759 113.702 108.837 114.096 108.837Z" fill="#3F3D56"/>
<path d="M111.462 77.8417C111.627 78.2011 111.861 78.5245 112.15 78.7933C112.44 79.0621 112.779 79.2711 113.15 79.4083C113.52 79.5455 113.913 79.6083 114.307 79.5931C114.702 79.5778 115.089 79.4849 115.447 79.3195L127.275 73.8625C127.634 73.6974 127.957 73.463 128.225 73.1726C128.494 72.8823 128.703 72.5418 128.84 72.1705C128.977 71.7992 129.04 71.4045 129.025 71.0088C129.009 70.6132 128.917 70.2244 128.752 69.8648C128.587 69.5051 128.353 69.1815 128.063 68.9126C127.773 68.6437 127.433 68.4347 127.063 68.2976C126.692 68.1605 126.299 68.0979 125.904 68.1135C125.51 68.129 125.122 68.2224 124.764 68.3883L112.936 73.8453C112.577 74.0107 112.255 74.2452 111.987 74.5355C111.719 74.8259 111.51 75.1663 111.374 75.5374C111.237 75.9085 111.174 76.303 111.189 76.6984C111.204 77.0938 111.297 77.4823 111.462 77.8417Z" fill="#3F3D56"/>
<path d="M92.6946 77.8417C92.5297 78.2011 92.2958 78.5245 92.0062 78.7933C91.7167 79.0621 91.3772 79.2711 91.0071 79.4083C90.6371 79.5455 90.2437 79.6083 89.8494 79.5931C89.4551 79.5778 89.0677 79.4849 88.7093 79.3195L76.8815 73.8625C76.5226 73.6974 76.1997 73.463 75.9313 73.1726C75.6628 72.8823 75.4541 72.5418 75.3169 72.1705C75.1798 71.7992 75.117 71.4045 75.1321 71.0088C75.1472 70.6132 75.2399 70.2244 75.4049 69.8648C75.5699 69.5051 75.804 69.1815 76.0938 68.9126C76.3836 68.6437 76.7234 68.4347 77.0938 68.2976C77.4642 68.1605 77.8579 68.0979 78.2525 68.1135C78.647 68.129 79.0346 68.2224 79.3931 68.3883L91.2209 73.8453C91.5793 74.0107 91.9018 74.2452 92.1698 74.5355C92.4379 74.8259 92.6463 75.1663 92.7831 75.5374C92.92 75.9085 92.9826 76.303 92.9674 76.6984C92.9522 77.0938 92.8595 77.4823 92.6946 77.8417Z" fill="#3F3D56"/>
<path d="M90.0602 108.837C89.6656 108.837 89.2749 108.759 88.9104 108.608C88.5459 108.456 88.2146 108.234 87.9356 107.955C87.6566 107.675 87.4353 107.343 87.2844 106.977C87.1334 106.612 87.0557 106.22 87.0557 105.824V92.7682C87.0566 91.9698 87.3736 91.2044 87.9369 90.6401C88.5003 90.0759 89.264 89.7589 90.0602 89.7589C90.8564 89.7589 91.6201 90.0759 92.1834 90.6401C92.7468 91.2044 93.0637 91.9698 93.0647 92.7682V105.824C93.0647 106.22 92.987 106.612 92.836 106.977C92.685 107.343 92.4637 107.675 92.1847 107.955C91.9057 108.234 91.5745 108.456 91.21 108.608C90.8454 108.759 90.4547 108.837 90.0602 108.837Z" fill="#3F3D56"/>
<path d="M126.117 23.471C126.29 22.9867 126.335 22.4656 126.247 21.9587L124.612 12.3122L122.977 2.66567C122.889 2.14482 122.665 1.65646 122.329 1.24967C121.993 0.842871 121.556 0.531981 121.062 0.348234C120.568 0.164488 120.035 0.114358 119.515 0.202894C118.996 0.29143 118.509 0.515511 118.103 0.852607L110.59 7.09594L106.23 10.7191C103.196 10.2724 100.11 10.319 97.0918 10.8573L92.5653 7.09592L85.052 0.852594C84.6464 0.515497 84.1594 0.291418 83.64 0.202881C83.1206 0.114344 82.5871 0.164468 82.0931 0.348215C81.5992 0.531962 81.1622 0.842857 80.826 1.24965C80.4898 1.65645 80.2664 2.14481 80.1781 2.66565L78.5429 12.3122L76.9077 21.9587C76.8355 22.3711 76.8513 22.7942 76.9541 23.2001C77.0569 23.6059 77.2443 23.9853 77.504 24.3133C74.8483 28.7168 73.4181 33.7536 73.3621 38.8995C73.3061 44.0454 74.6264 49.1123 77.1855 53.5729C79.7447 58.0335 83.4493 61.7248 87.9137 64.2627C92.3781 66.8006 97.4392 68.0923 102.57 68.0034C107.701 67.9145 112.715 66.4482 117.089 63.7572C121.464 61.0662 125.039 57.2487 127.443 52.7021C129.847 48.1555 130.992 43.0459 130.758 37.905C130.525 32.7642 128.922 27.7799 126.117 23.471Z" fill="#3F3D56"/>
<path d="M117.913 5.15037L108.802 12.7214C108.601 12.8882 108.448 13.1055 108.357 13.3507C108.266 13.5959 108.241 13.8608 108.285 14.1186C108.329 14.3764 108.44 14.6182 108.606 14.8195C108.772 15.0209 108.989 15.1748 109.233 15.2658L120.327 19.3928C120.572 19.4838 120.836 19.5086 121.093 19.4648C121.35 19.421 121.591 19.3101 121.792 19.1432C121.993 18.9763 122.147 18.7593 122.237 18.5141C122.328 18.2689 122.353 18.004 122.309 17.7461L120.326 6.04793C120.284 5.78948 120.174 5.54697 120.007 5.34534C119.84 5.1437 119.623 4.99019 119.378 4.9006C119.211 4.83805 119.034 4.80589 118.856 4.80563C118.511 4.80628 118.177 4.92828 117.913 5.15037Z" fill="#AADBF6"/>
<path d="M83.777 4.9006C83.5316 4.99019 83.3144 5.14369 83.1477 5.34533C82.9811 5.54697 82.8709 5.78948 82.8287 6.04793L80.8457 17.7461C80.802 18.004 80.8268 18.2689 80.9175 18.5141C81.0082 18.7593 81.1617 18.9763 81.3626 19.1432C81.5634 19.3101 81.8045 19.421 82.0617 19.4648C82.3188 19.5086 82.583 19.4838 82.8275 19.3928L93.9217 15.2658C94.1662 15.1748 94.3825 15.0209 94.5489 14.8195C94.7153 14.6182 94.826 14.3764 94.8697 14.1186C94.9134 13.8608 94.8887 13.5959 94.798 13.3507C94.7073 13.1055 94.5538 12.8886 94.353 12.7217L85.2418 5.15037C84.9774 4.92828 84.6437 4.80628 84.2988 4.80563C84.1206 4.80589 83.9439 4.83805 83.777 4.9006Z" fill="#AADBF6"/>
<path d="M102.078 47.2399C104.291 47.2399 106.084 45.4414 106.084 43.2227C106.084 41.0041 104.291 39.2055 102.078 39.2055C99.8658 39.2055 98.0723 41.0041 98.0723 43.2227C98.0723 45.4414 99.8658 47.2399 102.078 47.2399Z" fill="#AADBF6"/>
<path d="M102.078 42.2184C103.553 42.2184 104.749 41.7688 104.749 41.2141C104.749 40.6595 103.553 40.2098 102.078 40.2098C100.603 40.2098 99.4072 40.6595 99.4072 41.2141C99.4072 41.7688 100.603 42.2184 102.078 42.2184Z" fill="#3F3D56"/>
<path d="M102.245 51.9267C102.004 51.9267 101.765 51.879 101.542 51.7865C101.32 51.694 101.117 51.5584 100.947 51.3874C100.776 51.2164 100.641 51.0134 100.549 50.79C100.456 50.5667 100.409 50.3272 100.409 50.0854V45.5661H104.081V50.0854C104.081 50.3272 104.034 50.5667 103.941 50.79C103.849 51.0134 103.714 51.2164 103.543 51.3874C103.373 51.5584 103.17 51.694 102.948 51.7865C102.725 51.879 102.486 51.9267 102.245 51.9267Z" fill="#FF6584"/>
<path d="M101.855 0C102.048 0.400436 102.235 0.805202 102.411 1.21825C104.483 6.06354 105.181 11.3881 104.43 16.6059C104.054 16.059 103.659 15.4893 103.257 14.9133C104.118 9.90551 103.634 4.75831 101.855 0Z" fill="#3F3D56"/>
<path d="M98.8506 3.68243C99.0431 4.08287 99.2301 4.48764 99.406 4.90068C101.478 9.74598 102.176 15.0705 101.425 20.2883C101.049 19.7415 100.654 19.1717 100.252 18.5957C101.113 13.5879 100.629 8.44075 98.8506 3.68243Z" fill="#3F3D56"/>
<path d="M89.5876 17.3919L90.0109 11.9941L90.4341 6.59637C90.457 6.30492 90.556 6.02464 90.7211 5.7837C90.8862 5.54276 91.1116 5.34965 91.3747 5.22377C91.6379 5.09789 91.9294 5.04369 92.22 5.06661C92.5106 5.08953 92.7901 5.18876 93.0304 5.35434L97.4804 8.42079L100.73 10.66C100.938 10.4162 101.195 10.2204 101.486 10.0861C101.776 9.95186 102.092 9.88235 102.412 9.88235C102.732 9.88235 103.048 9.95186 103.338 10.0861C103.629 10.2204 103.887 10.4162 104.094 10.66L107.344 8.42079L111.794 5.35434C112.034 5.18876 112.313 5.08953 112.604 5.06661C112.895 5.04369 113.186 5.09789 113.449 5.22377C113.713 5.34965 113.938 5.54276 114.103 5.7837C114.268 6.02464 114.367 6.30492 114.39 6.59637L114.813 11.9941L115.236 17.3919C115.259 17.6833 115.205 17.9756 115.08 18.2395C114.954 18.5033 114.762 18.7294 114.521 18.895C114.281 19.0605 114.002 19.1598 113.711 19.1827C113.42 19.2056 113.129 19.1514 112.866 19.0255L107.992 16.6942L103.988 14.7787C103.782 14.9881 103.537 15.1543 103.266 15.2677C102.996 15.3812 102.705 15.4396 102.412 15.4396C102.119 15.4396 101.828 15.3812 101.558 15.2677C101.287 15.1543 101.042 14.9881 100.836 14.7787L96.8316 16.6942L91.9584 19.0256C91.6953 19.1514 91.4037 19.2056 91.1131 19.1827C90.8225 19.1598 90.543 19.0606 90.3027 18.895C90.0624 18.7294 89.8699 18.5034 89.7443 18.2395C89.6188 17.9756 89.5648 17.6833 89.5876 17.3919Z" fill="#1373E5"/>
<path d="M106.418 38.8708C106.418 39.4254 106.866 38.8708 107.419 38.8708C107.973 38.8708 108.421 39.4254 108.421 38.8708C108.42 38.6048 108.315 38.3498 108.127 38.162C107.939 37.9741 107.685 37.8686 107.419 37.8686C107.154 37.8686 106.9 37.9741 106.712 38.162C106.524 38.3498 106.419 38.6048 106.418 38.8708Z" fill="#AADBF6"/>
<path d="M97.7384 38.8708C97.7384 39.4254 97.29 38.8708 96.7369 38.8708C96.1837 38.8708 95.7354 39.4254 95.7354 38.8708C95.7359 38.6048 95.8417 38.3498 96.0294 38.162C96.2172 37.9741 96.4716 37.8686 96.7369 37.8686C97.0021 37.8686 97.2565 37.9741 97.4443 38.162C97.6321 38.3498 97.7378 38.6048 97.7384 38.8708Z" fill="#AADBF6"/>
<path d="M208.852 114.699V108.315H177.022V108.714V114.699V166.168V172.551H183.388H208.852V166.168H183.388V114.699H208.852Z" fill="#3F3D56"/>
<path d="M224.369 108.315V172.551H256.199V108.315H224.369ZM249.833 166.168H230.735V114.699H249.833V166.168Z" fill="#1373E5"/>
<path d="M136.041 166.168V108.714H129.675V166.168V172.551H136.041H161.505V166.168H136.041Z" fill="#1373E5"/>
<path d="M115.352 114.699V108.315H83.522V108.714V114.699V137.042V143.426V166.168V172.551H89.888H115.352V166.168H89.888V143.426H115.352V137.042H89.888V114.699H115.352Z" fill="#3F3D56"/>
<path d="M364.421 114.699V108.315H332.591V108.714V114.699V137.042V143.426V166.168V172.551H338.957H364.421V166.168H338.957V143.426H364.421V137.042H338.957V114.699H364.421Z" fill="#1373E5"/>
<path d="M62.0365 108.714V161.474L45.2515 144.643L45.2133 144.682L45.1777 144.646L28.0184 161.853V108.515H21.6523V172.352H28.0184V170.881L45.2163 153.635L62.0365 170.503V172.551H68.4026V108.714H62.0365Z" fill="#3F3D56"/>
<path d="M311.504 108.714V110.185L294.306 127.431L277.485 110.563V108.515H271.119V172.352H277.485V119.591L294.27 136.423L294.309 136.384L294.344 136.42L311.504 119.213V172.551H317.869V108.714H311.504Z" fill="#3F3D56"/>
<path d="M145.476 69.389C147.634 69.389 149.383 67.6347 149.383 65.4707C149.383 63.3067 147.634 61.5524 145.476 61.5524C143.318 61.5524 141.568 63.3067 141.568 65.4707C141.568 67.6347 143.318 69.389 145.476 69.389Z" fill="#1373E5"/>
<path d="M49.093 112.926C51.251 112.926 53.0004 111.172 53.0004 109.008C53.0004 106.844 51.251 105.089 49.093 105.089C46.935 105.089 45.1855 106.844 45.1855 109.008C45.1855 111.172 46.935 112.926 49.093 112.926Z" fill="#1373E5"/>
<path d="M126.373 200C128.531 200 130.281 198.246 130.281 196.082C130.281 193.918 128.531 192.163 126.373 192.163C124.215 192.163 122.466 193.918 122.466 196.082C122.466 198.246 124.215 200 126.373 200Z" fill="#1373E5"/>
<path d="M224.493 81.144C226.651 81.144 228.4 79.3897 228.4 77.2257C228.4 75.0617 226.651 73.3074 224.493 73.3074C222.335 73.3074 220.585 75.0617 220.585 77.2257C220.585 79.3897 222.335 81.144 224.493 81.144Z" fill="#1373E5"/>
<path d="M339.545 196.517C341.703 196.517 343.453 194.763 343.453 192.599C343.453 190.435 341.703 188.68 339.545 188.68C337.387 188.68 335.638 190.435 335.638 192.599C335.638 194.763 337.387 196.517 339.545 196.517Z" fill="#1373E5"/>
<path d="M343.452 93.7698C345.61 93.7698 347.36 92.0155 347.36 89.8514C347.36 87.6874 345.61 85.9331 343.452 85.9331C341.294 85.9331 339.545 87.6874 339.545 89.8514C339.545 92.0155 341.294 93.7698 343.452 93.7698Z" fill="#1373E5"/>
<path d="M293.958 164.3C296.116 164.3 297.866 162.545 297.866 160.381C297.866 158.217 296.116 156.463 293.958 156.463C291.8 156.463 290.051 158.217 290.051 160.381C290.051 162.545 291.8 164.3 293.958 164.3Z" fill="#1373E5"/>
</g>
<defs>
<clipPath id="clip0_1_612">
<rect width="386" height="200" fill="white"/>
</clipPath>
</defs>
</svg>
