<svg width="24" height="24" viewBox="0 0 24 24" fill="none" xmlns="http://www.w3.org/2000/svg">
<g clip-path="url(#clip0_717_119)">
<path d="M2.40039 5.22412L5.30678 10.4191V13.5879L2.40379 18.7727L2.40039 5.22412Z" fill="#5B57A2"/>
<path d="M13.5605 8.52867L16.2839 6.85947L21.8575 6.85425L13.5605 11.9371V8.52867Z" fill="#D90751"/>
<path d="M13.5443 5.1934L13.5597 12.0714L10.6465 10.2814V0L13.5443 5.1934Z" fill="#FAB718"/>
<path d="M21.8567 6.85422L16.2829 6.85938L13.5443 5.1934L10.6465 0L21.8567 6.85422Z" fill="#ED6F26"/>
<path d="M13.5597 18.8017V15.4647L10.6465 13.7087L10.6481 24.0003L13.5597 18.8017Z" fill="#63B22F"/>
<path d="M16.2764 17.1475L5.30659 10.4191L2.40039 5.22412L21.845 17.1407L16.2764 17.1475Z" fill="#1487C9"/>
<path d="M10.6484 23.9998L13.5596 18.8012L16.2763 17.1472L21.8449 17.1404L10.6484 23.9998Z" fill="#017F36"/>
<path d="M2.4043 18.7726L10.6709 13.7086L7.89169 12.0034L5.30729 13.5878L2.4043 18.7726Z" fill="#984995"/>
</g>
<defs>
<clipPath id="clip0_717_119">
<rect width="24" height="24" fill="white"/>
</clipPath>
</defs>
</svg>
