<svg width="470" height="294" viewBox="0 0 470 294" fill="none" xmlns="http://www.w3.org/2000/svg">
<g clip-path="url(#clip0_451_883)">
<path d="M122.834 179.176C172.217 179.176 212.249 139.066 212.249 89.588C212.249 40.1099 172.217 0 122.834 0C73.4515 0 33.4189 40.1099 33.4189 89.588C33.4189 139.066 73.4515 179.176 122.834 179.176Z" fill="#E7F1FC"/>
<path d="M0 21.5107C0 54.1064 20.4094 80.4824 45.6314 80.4824Z" fill="#2F2E41"/>
<path d="M45.6318 80.4824C45.6318 47.5205 68.4075 20.8481 96.5539 20.8481Z" fill="#1373E5"/>
<path d="M16.5332 24.4653C16.5332 55.4278 29.5479 80.4822 45.6315 80.4822Z" fill="#1373E5"/>
<path d="M45.6318 80.4821C45.6318 38.3641 71.957 4.28271 104.49 4.28271Z" fill="#2F2E41"/>
<path d="M36.0312 80.898C36.0312 80.898 42.5025 80.6983 44.4528 79.3069C46.4031 77.9155 54.4073 76.254 54.8911 78.4856C55.3749 80.7172 64.6162 89.5845 57.3102 89.6435C50.0041 89.7026 40.3342 88.5033 38.3877 87.3153C36.4411 86.1273 36.0312 80.898 36.0312 80.898Z" fill="#A8A8A8"/>
<path opacity="0.2" d="M57.4415 88.8667C50.1355 88.9258 40.4655 87.7265 38.519 86.5385C37.0366 85.6338 36.4459 82.3874 36.2483 80.8896C36.1114 80.8955 36.0322 80.8981 36.0322 80.8981C36.0322 80.8981 36.4421 86.1273 38.3886 87.3153C40.3352 88.5033 50.0051 89.7026 57.3112 89.6435C59.4201 89.6265 60.1486 88.8747 60.1086 87.7612C59.8156 88.434 59.0113 88.854 57.4415 88.8667Z" fill="black"/>
<path d="M83.3741 189.245C126.729 189.245 161.875 184.455 161.875 178.545C161.875 172.636 126.729 167.845 83.3741 167.845C40.0195 167.845 4.87354 172.636 4.87354 178.545C4.87354 184.455 40.0195 189.245 83.3741 189.245Z" fill="#3F3D56"/>
<path opacity="0.1" d="M83.3742 187.528C119.774 187.528 149.281 183.506 149.281 178.545C149.281 173.584 119.774 169.562 83.3742 169.562C46.9748 169.562 17.4673 173.584 17.4673 178.545C17.4673 183.506 46.9748 187.528 83.3742 187.528Z" fill="black"/>
<path d="M351.2 294C416.811 294 470 286.75 470 277.807C470 268.864 416.811 261.614 351.2 261.614C285.588 261.614 232.399 268.864 232.399 277.807C232.399 286.75 285.588 294 351.2 294Z" fill="#3F3D56"/>
<path d="M130.391 281.225C169.804 281.225 201.755 276.87 201.755 271.498C201.755 266.126 169.804 261.771 130.391 261.771C90.9772 261.771 59.0264 266.126 59.0264 271.498C59.0264 276.87 90.9772 281.225 130.391 281.225Z" fill="#3F3D56"/>
<path d="M194.198 263.296C231.979 272.97 304.603 250.678 312.579 225.442" stroke="#2F2E41" stroke-width="2" stroke-miterlimit="10"/>
<path d="M129.971 108.936C129.971 108.936 184.543 93.7941 187.902 142.584C191.26 191.373 142.984 205.253 180.765 214.927" stroke="#2F2E41" stroke-width="2" stroke-miterlimit="10"/>
<path d="M77.2461 225.982C77.2461 225.982 93.6482 221.431 94.6576 236.095C95.667 250.759 81.1574 254.931 92.5127 257.838" stroke="#2F2E41" stroke-width="2" stroke-miterlimit="10"/>
<path d="M326.892 236.899L323.585 258.054C323.585 258.054 307.305 266.719 318.752 266.974C330.199 267.229 384.127 266.974 384.127 266.974C384.127 266.974 394.557 266.974 378.022 257.799L374.715 235.625L326.892 236.899Z" fill="#2F2E41"/>
<path opacity="0.1" d="M316.449 266.744C319.048 264.427 323.585 262.012 323.585 262.012L326.891 240.858L374.715 240.903L378.021 261.757C381.877 263.897 384.266 265.537 385.663 266.795C387.787 266.31 390.108 264.505 378.021 257.799L374.715 235.625L326.891 236.899L323.585 258.054C323.585 258.054 309.904 265.336 316.449 266.744Z" fill="black"/>
<path d="M450.703 89.457H250.396C246.212 89.457 242.82 92.8552 242.82 97.0471V232.24C242.82 236.432 246.212 239.83 250.396 239.83H450.703C454.887 239.83 458.279 236.432 458.279 232.24V97.0471C458.279 92.8552 454.887 89.457 450.703 89.457Z" fill="#2F2E41"/>
<path d="M451.028 97.4854H250.069V210.138H451.028V97.4854Z" fill="#3F3D56"/>
<path d="M350.549 95.1918C351.252 95.1918 351.821 94.6212 351.821 93.9174C351.821 93.2136 351.252 92.6431 350.549 92.6431C349.847 92.6431 349.277 93.2136 349.277 93.9174C349.277 94.6212 349.847 95.1918 350.549 95.1918Z" fill="#F2F2F2"/>
<path d="M458.279 219.058V232.24C458.279 233.237 458.083 234.224 457.702 235.145C457.321 236.066 456.763 236.902 456.06 237.607C455.357 238.312 454.521 238.871 453.602 239.252C452.683 239.634 451.698 239.83 450.703 239.83H250.396C249.401 239.83 248.416 239.634 247.497 239.252C246.577 238.871 245.742 238.312 245.039 237.607C244.335 236.902 243.777 236.066 243.397 235.145C243.016 234.224 242.82 233.237 242.82 232.24V219.058H458.279Z" fill="#2F2E41"/>
<path d="M406.767 280.737V283.286H269.911V281.247L270.1 280.737L273.473 271.562H403.968L406.767 280.737Z" fill="#2F2E41"/>
<path d="M459.433 278.242C459.184 279.31 458.242 280.436 456.116 281.501C448.485 285.324 432.967 280.482 432.967 280.482C432.967 280.482 421.012 278.443 421.012 273.091C421.347 272.86 421.697 272.652 422.06 272.466C425.268 270.766 435.906 266.569 454.769 272.644C456.158 273.081 457.4 273.896 458.354 274.998C459.119 275.895 459.718 277.032 459.433 278.242Z" fill="#2F2E41"/>
<path opacity="0.1" d="M459.433 278.242C450.092 281.828 441.766 282.095 433.222 276.149C428.912 273.152 424.998 272.41 422.06 272.466C425.268 270.766 435.906 266.569 454.769 272.644C456.158 273.081 457.399 273.896 458.354 274.998C459.118 275.895 459.718 277.032 459.433 278.242Z" fill="black"/>
<path d="M447.722 276.149C449.548 276.149 451.029 275.693 451.029 275.13C451.029 274.567 449.548 274.11 447.722 274.11C445.896 274.11 444.415 274.567 444.415 275.13C444.415 275.693 445.896 276.149 447.722 276.149Z" fill="#F2F2F2"/>
<path d="M350.549 234.351C353.218 234.351 355.382 232.183 355.382 229.508C355.382 226.834 353.218 224.666 350.549 224.666C347.88 224.666 345.716 226.834 345.716 229.508C345.716 232.183 347.88 234.351 350.549 234.351Z" fill="#F2F2F2"/>
<path opacity="0.1" d="M406.767 280.737V283.286H269.911V281.247L270.1 280.737H406.767Z" fill="black"/>
<path d="M132.909 66.8755H45.5928V168.661H132.909V66.8755Z" fill="#2F2E41"/>
<path d="M141.725 56.7812H36.7773V92.9529H141.725V56.7812Z" fill="#3F3D56"/>
<path d="M141.725 99.6826H36.7773V135.854H141.725V99.6826Z" fill="#3F3D56"/>
<path d="M141.725 142.583H36.7773V178.755H141.725V142.583Z" fill="#3F3D56"/>
<path opacity="0.4" d="M120.735 63.0903H114.019V69.8199H120.735V63.0903Z" fill="#1373E5"/>
<path opacity="0.8" d="M130.39 63.0903H123.674V69.8199H130.39V63.0903Z" fill="#1373E5"/>
<path d="M140.046 63.0903H133.329V69.8199H140.046V63.0903Z" fill="#1373E5"/>
<path opacity="0.4" d="M120.735 105.571H114.019V112.3H120.735V105.571Z" fill="#1373E5"/>
<path opacity="0.8" d="M130.39 105.571H123.674V112.3H130.39V105.571Z" fill="#1373E5"/>
<path d="M140.046 105.571H133.329V112.3H140.046V105.571Z" fill="#1373E5"/>
<path opacity="0.4" d="M120.735 148.052H114.019V154.781H120.735V148.052Z" fill="#1373E5"/>
<path opacity="0.8" d="M130.39 148.052H123.674V154.781H130.39V148.052Z" fill="#1373E5"/>
<path d="M140.046 148.052H133.329V154.781H140.046V148.052Z" fill="#1373E5"/>
<path d="M132.909 259.511C151.225 259.511 166.073 244.634 166.073 226.283C166.073 207.932 151.225 193.056 132.909 193.056C114.594 193.056 99.7461 207.932 99.7461 226.283C99.7461 244.634 114.594 259.511 132.909 259.511Z" fill="#2F2E41"/>
<path d="M127.872 252.36H117.797V270.446H127.872V252.36Z" fill="#2F2E41"/>
<path d="M148.021 252.36H137.946V270.446H148.021V252.36Z" fill="#2F2E41"/>
<path d="M126.193 273.811C130.83 273.811 134.588 272.399 134.588 270.656C134.588 268.914 130.83 267.502 126.193 267.502C121.556 267.502 117.797 268.914 117.797 270.656C117.797 272.399 121.556 273.811 126.193 273.811Z" fill="#2F2E41"/>
<path d="M146.342 273.391C150.979 273.391 154.738 271.978 154.738 270.236C154.738 268.494 150.979 267.082 146.342 267.082C141.705 267.082 137.946 268.494 137.946 270.236C137.946 271.978 141.705 273.391 146.342 273.391Z" fill="#2F2E41"/>
<path d="M133.748 229.228C140.008 229.228 145.083 224.143 145.083 217.871C145.083 211.599 140.008 206.515 133.748 206.515C127.489 206.515 122.414 211.599 122.414 217.871C122.414 224.143 127.489 229.228 133.748 229.228Z" fill="white"/>
<path d="M133.749 221.657C135.835 221.657 137.527 219.962 137.527 217.871C137.527 215.781 135.835 214.086 133.749 214.086C131.662 214.086 129.971 215.781 129.971 217.871C129.971 219.962 131.662 221.657 133.749 221.657Z" fill="#3F3D56"/>
<path d="M100.739 195.383C98.0615 183.367 106.621 171.226 119.858 168.265C133.095 165.303 145.996 172.643 148.674 184.659C151.352 196.674 142.579 201.106 129.343 204.067C116.106 207.029 103.417 207.398 100.739 195.383Z" fill="#1373E5"/>
<path d="M164.013 219.656C172.433 216.046 178.341 210.972 177.209 208.324C176.078 205.676 168.336 206.456 159.917 210.066C151.498 213.677 145.59 218.75 146.721 221.398C147.852 224.046 155.594 223.266 164.013 219.656Z" fill="#2F2E41"/>
<path d="M101.885 241.948C110.304 238.338 116.212 233.264 115.08 230.616C113.949 227.968 106.207 228.748 97.788 232.358C89.369 235.969 83.461 241.042 84.5922 243.69C85.7234 246.338 93.4655 245.558 101.885 241.948Z" fill="#2F2E41"/>
<path d="M152.219 235.957C152.219 239.209 143.862 245.631 134.588 245.631C125.314 245.631 116.537 239.63 116.537 236.378C116.537 233.126 125.314 233.854 134.588 233.854C143.862 233.854 152.219 232.705 152.219 235.957Z" fill="white"/>
</g>
<defs>
<clipPath id="clip0_451_883">
<rect width="470" height="294" fill="white"/>
</clipPath>
</defs>
</svg>
