<svg width="348" height="290" viewBox="0 0 348 290" fill="none" xmlns="http://www.w3.org/2000/svg">
<g clip-path="url(#clip0_115_713)">
<path d="M86.8394 223.179H336.606C338.036 223.179 339.453 222.897 340.774 222.35C342.096 221.802 343.296 220.998 344.308 219.986C345.319 218.974 346.122 217.772 346.669 216.449C347.216 215.126 347.498 213.708 347.498 212.276V67.6929C347.5 66.7266 347.372 65.7644 347.116 64.8326C346.49 62.5227 345.121 60.4836 343.221 59.0299C341.322 57.5763 338.997 56.789 336.606 56.7896H239.05C236.775 60.627 235.372 64.9197 234.943 69.3618C233.733 82.2758 241.129 94.2147 247.748 105.369C254.366 116.524 260.679 129.493 257.174 141.985C254.803 150.41 248.381 156.508 240.411 160.162C232.754 163.554 224.33 164.839 216.011 163.882C211.015 163.25 206.093 162.126 201.318 160.524C195.056 158.488 188.939 155.849 182.833 153.18C182.828 153.18 182.828 153.18 182.823 153.175C182.718 153.13 182.607 153.079 182.502 153.034C177.776 150.968 173.056 148.897 168.265 147.072C162.652 144.875 156.826 143.268 150.88 142.277C141.846 140.859 132.737 141.372 124.677 145.474C111.541 152.155 104.5 166.592 98.9917 180.275C93.4278 194.109 88.4413 208.405 86.8394 223.179Z" fill="#1373E5"/>
<path d="M0.501953 167.869V212.276C0.501876 213.708 0.783545 215.126 1.33089 216.449C1.87823 217.772 2.68053 218.974 3.69196 219.986C4.70338 220.999 5.90413 221.802 7.22564 222.35C8.54714 222.898 9.96353 223.179 11.3939 223.179H52.9129C53.631 216.479 53.0284 209.803 50.392 203.575C44.6472 189.992 30.7473 181.959 17.4952 175.51C11.9262 172.8 6.26178 170.186 0.501953 167.869Z" fill="#1373E5"/>
<path d="M44.0132 212.925C44.0132 215.817 45.1607 218.59 47.2034 220.635C49.246 222.68 52.0164 223.828 54.9051 223.828H96.4241C97.1422 217.127 96.5396 210.452 93.9032 204.223C92.5526 201.03 89.3977 197.493 85.2868 193.919C69.1581 179.9 44.0132 191.542 44.0132 212.925Z" fill="#1373E5"/>
<path d="M0 212.276V67.6931C0.00342376 64.6691 1.20497 61.7699 3.34103 59.6316C5.47709 57.4933 8.37323 56.2905 11.3941 56.2871H336.606C339.627 56.2905 342.523 57.4933 344.659 59.6316C346.795 61.7699 347.997 64.6691 348 67.6931V212.276C347.997 215.3 346.795 218.199 344.659 220.338C342.523 222.476 339.627 223.679 336.606 223.682H11.3941C8.3732 223.679 5.47702 222.476 3.34095 220.338C1.20489 218.199 0.0033719 215.3 0 212.276ZM11.3941 57.2925C8.63949 57.2956 5.99861 58.3923 4.05082 60.3422C2.10303 62.292 1.00741 64.9356 1.00433 67.6931V212.276C1.00736 215.034 2.10295 217.677 4.05074 219.627C5.99853 221.577 8.63945 222.674 11.3941 222.677H336.606C339.361 222.674 342.001 221.577 343.949 219.627C345.897 217.677 346.993 215.034 346.996 212.276V67.6931C346.993 64.9356 345.897 62.292 343.949 60.3422C342.001 58.3923 339.361 57.2956 336.606 57.2925H11.3941Z" fill="#3F3D56"/>
<path d="M107.619 222.823H122.387C124.913 214.309 128.559 205.285 131.888 197.061C138.276 181.292 146.436 164.654 161.667 156.955C168.17 153.668 175.26 152.383 182.501 152.453C192.505 152.548 202.789 155.236 212.204 158.799C216.056 160.253 219.872 161.851 223.674 163.485C237.996 169.646 252.162 176.356 267.563 178.17C287.052 180.463 309.966 171.734 315.289 152.933C319.351 138.539 312.035 123.595 304.362 110.739C296.689 97.8836 288.112 84.1287 289.513 69.2447C289.518 69.1947 289.523 69.1397 289.533 69.0898C290.06 63.7437 293.249 59.9016 297.703 57.4385H278.309C278.053 71.3232 286.078 83.5791 293.299 95.6802C300.972 108.531 308.289 123.48 304.226 137.874C298.903 156.67 254.827 134.637 235.338 132.339C229.834 131.694 238.577 133.988 233.329 132.339C225.099 129.756 224.186 153.448 216.177 149.97C211.19 147.802 206.199 145.648 201.142 143.735C199.048 142.94 196.909 142.196 194.744 141.507C194.739 141.507 194.739 141.507 194.734 141.501C180.201 136.895 164.308 135.101 150.88 141.761C150.79 141.806 150.694 141.851 150.604 141.896C135.373 149.591 127.213 166.228 120.826 181.997C115.548 195.032 110.22 209.073 107.619 222.823Z" fill="#3F3D56"/>
<path d="M107.78 119.192H11.7197C10.9326 119.192 10.1778 119.505 9.62119 120.063C9.06462 120.62 8.75195 121.375 8.75195 122.163C8.75195 122.951 9.06462 123.707 9.62119 124.264C10.1778 124.821 10.9326 125.134 11.7197 125.134H107.78C108.567 125.134 109.322 124.821 109.878 124.264C110.435 123.707 110.747 122.951 110.747 122.163C110.747 121.375 110.435 120.62 109.878 120.063C109.322 119.505 108.567 119.192 107.78 119.192Z" fill="#3F3D56"/>
<path d="M41.5697 102.534H11.7862C10.9991 102.534 10.2442 102.847 9.68762 103.404C9.13104 103.961 8.81836 104.717 8.81836 105.505C8.81836 106.293 9.13104 107.049 9.68762 107.606C10.2442 108.163 10.9991 108.476 11.7862 108.476H41.5698C42.3569 108.476 43.1117 108.163 43.6683 107.606C44.2249 107.049 44.5376 106.293 44.5376 105.505C44.5376 104.717 44.2249 103.961 43.6683 103.404C43.1117 102.847 42.3569 102.534 41.5697 102.534Z" fill="#3F3D56"/>
<path d="M156.423 276.441L150.335 276.39L147.641 252.335L156.625 252.411L156.423 276.441Z" fill="#FFB6B6"/>
<path d="M136.923 286.132C136.918 286.854 137.199 287.549 137.704 288.064C138.21 288.58 138.9 288.873 139.621 288.88L151.725 288.981L153.844 284.682L154.623 289.003L159.19 289.045L158.036 273.631L156.447 273.525L149.966 273.078L147.875 272.938L147.839 277.299L138.116 283.901C137.751 284.148 137.453 284.481 137.245 284.869C137.037 285.258 136.927 285.691 136.923 286.132Z" fill="#2F2E41"/>
<path d="M218.19 276.441L212.101 276.39L209.407 252.335L218.391 252.411L218.19 276.441Z" fill="#FFB6B6"/>
<path d="M198.689 286.132C198.684 286.854 198.965 287.549 199.471 288.064C199.976 288.58 200.666 288.873 201.388 288.88L213.492 288.981L215.61 284.682L216.389 289.003L220.956 289.045L219.803 273.631L218.214 273.525L211.733 273.078L209.642 272.938L209.605 277.299L199.882 283.901C199.518 284.148 199.219 284.481 199.011 284.869C198.803 285.258 198.693 285.691 198.689 286.132Z" fill="#2F2E41"/>
<path d="M148.913 83.8087L176.312 62.7002C177.47 61.8025 178.23 60.4849 178.426 59.0318C178.622 57.5787 178.24 56.1066 177.361 54.9332C176.907 54.3262 176.334 53.8181 175.677 53.44C175.02 53.062 174.293 52.8218 173.54 52.7342C172.788 52.6465 172.025 52.7133 171.299 52.9303C170.573 53.1474 169.898 53.5102 169.317 53.9966L141.527 76.7966L124.058 89.9381C123.193 89.435 122.195 89.2105 121.199 89.2951C120.202 89.3796 119.256 89.7692 118.488 90.4109C117.721 91.0526 117.169 91.9152 116.909 92.8816C116.648 93.848 116.691 94.8713 117.031 95.8125C117.372 96.7537 117.993 97.5672 118.812 98.1423C119.63 98.7175 120.606 99.0266 121.606 99.0275C122.606 99.0284 123.582 98.7211 124.401 98.1474C125.221 97.5737 125.844 96.7614 126.186 95.8208L148.913 83.8087Z" fill="#FFB6B6"/>
<path d="M171.245 88.6607L170.037 115.662L211.057 120.631C207.829 109.781 202.536 94.7114 204.962 87.1606L171.245 88.6607Z" fill="#A0616A"/>
<path d="M194.562 39.1597H181.926L176.5 48.4549L173.914 48.312C168.875 50.2548 166.866 52.2655 164.085 57.6228L154.312 65.8381L161.844 74.8865C167.047 74.0332 168.923 69.9905 167.271 62.5657C167.271 62.5657 161.573 72.5055 169.781 77.3955C169.781 77.3955 168.317 86.6089 169.781 86.5098C171.244 86.4108 174.616 84.5357 171.244 86.4108C167.873 88.2859 168.45 88.3668 168.561 88.9743C170.381 99.0156 171.888 106.556 171.888 106.556L207.541 110.075C207.541 110.075 205.487 88.4902 205.599 87.263C205.71 86.0358 204.961 89.0359 205.71 86.0358C206.46 83.0356 207.584 84.1607 206.46 83.0356C205.336 81.9105 214.185 80.9416 210.732 75.5351L222.281 72.519L215.825 57.1591C215.825 51.973 207.505 47.7688 202.324 47.7688H201.66L194.562 39.1597Z" fill="#E6E6E6"/>
<path d="M208.008 105.996C194.059 110.799 181.502 109.744 170.883 100.523C170.883 100.523 167.895 111.583 164.87 110.074C161.845 108.566 163.34 112.786 162.509 114.333C161.626 115.976 162.651 118.747 159.737 119.689C156.823 120.631 157.917 123.4 156.974 125.437C150.373 139.696 142.834 159.879 137.741 185.478C132.507 211.783 145.273 255.854 145.273 255.854L157.325 254.849L160.338 197.542L174.119 173.32C174.119 173.32 180.889 169.374 176.639 167.372C172.39 165.37 175.237 162.89 178.333 163.376C181.429 163.862 184.944 147.776 184.944 147.776C180.53 158.881 208.044 256.859 208.044 256.859L219.593 255.854L213.065 119.123L208.008 105.996Z" fill="#2F2E41"/>
<path d="M202.061 15.8238C203.43 19.2387 207.295 25.9543 207.818 29.6177L207.582 29.3858C207.133 30.1543 206.622 30.8852 206.055 31.5714C205.039 30.5031 203.812 29.6583 202.452 29.0909C203.194 30.6166 203.625 32.2757 203.717 33.9704C201.201 36.1633 194.777 34.8403 191.567 36.0089C186.401 37.885 180.917 38.5529 175.502 39.1076C173.58 39.3056 171.428 39.4259 170.082 38.289C168.735 37.1521 169.537 35.0467 168.812 33.4542C163.651 22.1113 168.414 18.0189 172.461 12.8755C173.352 11.7437 173.348 10.0546 174.432 8.97469C175.935 7.47779 178.24 7.01737 180.365 6.64855C179.813 6.67766 179.263 6.56403 178.768 6.3186C178.272 6.07316 177.848 5.70419 177.537 5.24719C177.263 4.78676 177.122 4.25967 177.129 3.72405C177.136 3.18843 177.29 2.66511 177.575 2.21178C178.335 0.95045 179.914 0.216974 181.438 0.0337387C182.939 -0.0683008 184.447 0.0614507 185.909 0.418441C186.855 0.543102 187.772 0.836465 188.616 1.28465C189.014 1.49722 189.338 1.82634 189.544 2.22802C189.75 2.6297 189.829 3.08479 189.769 3.53245C189.642 3.94585 189.424 4.32522 189.13 4.64227C188.836 4.95932 188.475 5.20586 188.072 5.36352C187.459 5.62314 186.814 5.79995 186.154 5.88929C189.185 5.4955 192.264 6.03505 194.982 7.43616C198.388 9.2548 200.686 12.4107 202.061 15.8238Z" fill="#2F2E41"/>
<path d="M183.619 34.9692C190.343 34.9692 195.793 29.5128 195.793 22.7819C195.793 16.0511 190.343 10.5947 183.619 10.5947C176.895 10.5947 171.444 16.0511 171.444 22.7819C171.444 29.5128 176.895 34.9692 183.619 34.9692Z" fill="#FFB6B6"/>
<path d="M195.334 16.2471C194.628 18.3827 192.61 19.0708 190.746 19.5C190.158 19.6372 189.567 19.765 188.97 19.8788C188.749 19.6031 188.515 19.3329 188.27 19.0776C187.254 18.0093 186.027 17.1645 184.667 16.5971C185.255 17.8023 185.646 19.0942 185.825 20.4235C184.697 20.5872 183.564 20.721 182.424 20.8249C181.46 21.0303 180.454 20.8571 179.614 20.341C178.773 19.8249 178.163 19.0054 177.91 18.0518C176.872 19.7502 175.645 21.3496 173.968 22.0242C173.008 22.3693 171.964 22.3977 170.987 22.1052C170.011 21.8127 169.153 21.2148 168.541 20.3991C167.536 19.1721 166.977 17.5237 166.574 15.9329C166.098 14.0417 165.834 11.8631 166.769 10.6632C167.517 9.69208 168.809 9.67464 170.001 9.7608C172.632 9.96281 175.235 10.4352 177.769 11.1705L177.983 11.6533C177.548 9.03436 178.492 6.51456 180.24 5.61842C181.419 5.01926 182.837 5.11973 184.215 5.24128C185.985 5.32034 187.734 5.65894 189.406 6.24624C191.324 6.98482 192.968 8.29861 194.111 10.0079C195.335 11.867 195.943 14.4027 195.334 16.2471Z" fill="#2F2E41"/>
<path d="M177.978 4.85658C178.098 4.82108 177.787 4.86668 177.895 4.86957C177.841 4.86646 177.788 4.85899 177.735 4.84724C177.727 4.84546 177.605 4.80674 177.686 4.83518C177.505 4.78105 177.344 4.67569 177.221 4.53179C176.935 4.17777 176.711 3.77806 176.558 3.34942C176.364 2.78298 176.053 2.26391 175.645 1.82627C175.529 1.70982 175.388 1.62236 175.232 1.57097C175.076 1.51959 174.91 1.50573 174.748 1.53052C174.586 1.55531 174.432 1.61807 174.298 1.71367C174.165 1.80928 174.055 1.93505 173.98 2.08078C173.743 2.60582 173.959 3.25273 174.128 3.7684C174.303 4.3042 174.562 4.8083 174.897 5.26128C175.459 6.00202 176.223 6.56336 177.097 6.87687C178.109 7.2448 179.213 7.27637 180.244 6.96689C180.38 6.91031 180.497 6.81528 180.58 6.69337C180.664 6.57147 180.71 6.42797 180.713 6.28033C180.716 6.1327 180.676 5.98731 180.598 5.86189C180.521 5.73646 180.408 5.63642 180.274 5.57394L178.554 4.86915C178.464 4.82927 178.366 4.80763 178.267 4.80547C178.168 4.80331 178.07 4.82069 177.978 4.85658C177.886 4.89247 177.801 4.94617 177.73 5.01464C177.659 5.08312 177.601 5.16502 177.561 5.25566C177.522 5.34629 177.5 5.4439 177.498 5.5429C177.496 5.6419 177.513 5.74035 177.549 5.83264C177.585 5.92493 177.638 6.00925 177.707 6.08078C177.775 6.15231 177.857 6.20965 177.948 6.24953L179.668 6.9543L179.698 5.56135C179.483 5.62337 179.263 5.66116 179.04 5.67405C178.802 5.6979 178.561 5.68776 178.326 5.64394C178.101 5.61439 177.88 5.56038 177.666 5.48286C177.53 5.43288 177.396 5.37598 177.265 5.31239C177.217 5.28926 177.17 5.26525 177.123 5.24037C177.127 5.24216 176.927 5.1255 177.014 5.18032C176.792 5.03801 176.583 4.87525 176.391 4.69416C176.323 4.62994 176.26 4.56028 176.204 4.48586C176.106 4.36535 176.015 4.23922 175.932 4.1081C175.762 3.83045 175.628 3.53274 175.532 3.22186C175.489 3.0912 175.452 2.95836 175.422 2.82386C175.413 2.75003 175.4 2.67686 175.382 2.60485C175.318 2.43327 175.394 2.70504 175.32 2.77938L175.003 3.01326C174.944 3.03101 174.881 3.03513 174.82 3.0253C174.758 3.01547 174.7 2.99194 174.649 2.95646C174.611 2.90354 174.62 2.91232 174.674 2.98279C174.736 3.06572 174.794 3.15256 174.846 3.24278C174.959 3.45517 175.062 3.67321 175.154 3.89604C175.343 4.36995 175.582 4.82227 175.867 5.24532C176.147 5.67321 176.554 6.00187 177.031 6.18445C177.508 6.36703 178.031 6.39422 178.524 6.26213C178.709 6.18834 178.858 6.04465 178.938 5.86205C179.018 5.67945 179.024 5.47258 178.953 5.28608C178.877 5.10228 178.734 4.9549 178.552 4.87484C178.37 4.79477 178.164 4.78823 177.978 4.85658Z" fill="#2F2E41"/>
<path d="M158.99 137.267C178.871 137.267 194.988 121.134 194.988 101.232C194.988 81.3303 178.871 65.1968 158.99 65.1968C139.109 65.1968 122.992 81.3303 122.992 101.232C122.992 121.134 139.109 137.267 158.99 137.267Z" fill="white"/>
<path d="M158.99 137.77C151.771 137.77 144.714 135.627 138.711 131.612C132.709 127.598 128.031 121.891 125.268 115.215C122.506 108.538 121.783 101.192 123.191 94.1042C124.599 87.0165 128.076 80.5061 133.18 75.3962C138.285 70.2862 144.788 66.8063 151.869 65.3964C158.949 63.9866 166.288 64.7101 172.957 67.4756C179.627 70.241 185.327 74.9241 189.338 80.9327C193.349 86.9413 195.489 94.0055 195.489 101.232C195.479 110.919 191.63 120.206 184.787 127.056C177.944 133.906 168.667 137.759 158.99 137.77ZM158.99 65.6997C151.969 65.6997 145.107 67.7837 139.269 71.6881C133.432 75.5924 128.883 81.1419 126.196 87.6346C123.509 94.1274 122.807 101.272 124.176 108.164C125.546 115.057 128.926 121.388 133.891 126.358C138.855 131.327 145.179 134.711 152.065 136.082C158.95 137.453 166.087 136.749 172.573 134.06C179.059 131.371 184.603 126.816 188.503 120.973C192.403 115.13 194.485 108.26 194.485 101.232C194.474 91.8115 190.731 82.7799 184.077 76.1186C177.423 69.4573 168.4 65.7103 158.99 65.6997Z" fill="#3F3D56"/>
<path d="M154.079 119.987C153.457 119.987 152.844 119.842 152.288 119.563C151.732 119.285 151.249 118.881 150.876 118.383L141.055 105.275C140.74 104.854 140.51 104.374 140.38 103.864C140.249 103.355 140.22 102.824 140.295 102.303C140.369 101.782 140.545 101.28 140.813 100.827C141.081 100.375 141.435 99.9788 141.856 99.663C142.277 99.3472 142.756 99.1174 143.265 98.9868C143.774 98.8562 144.304 98.8273 144.825 98.9018C145.345 98.9762 145.846 99.1526 146.299 99.4208C146.751 99.689 147.146 100.044 147.462 100.465L153.887 109.04L170.389 84.2615C170.681 83.8235 171.056 83.4474 171.493 83.1544C171.929 82.8615 172.42 82.6576 172.935 82.5544C173.451 82.4512 173.982 82.4506 174.498 82.5528C175.014 82.6549 175.504 82.8578 175.942 83.1498C176.379 83.4418 176.755 83.8172 177.048 84.2546C177.34 84.692 177.544 85.1828 177.647 85.6989C177.75 86.2151 177.751 86.7466 177.649 87.263C177.547 87.7794 177.344 88.2706 177.052 88.7086L157.411 118.201C157.056 118.735 156.578 119.175 156.017 119.486C155.457 119.796 154.831 119.967 154.19 119.985C154.153 119.986 154.116 119.987 154.079 119.987Z" fill="#1373E5"/>
<path d="M119.338 289.402C119.338 289.481 119.353 289.558 119.383 289.631C119.413 289.704 119.457 289.77 119.513 289.825C119.568 289.881 119.634 289.925 119.707 289.955C119.78 289.985 119.857 290 119.936 290H247.129C247.288 290 247.44 289.937 247.552 289.825C247.664 289.713 247.727 289.561 247.727 289.402C247.727 289.243 247.664 289.091 247.552 288.979C247.44 288.867 247.288 288.804 247.129 288.804H119.936C119.857 288.803 119.78 288.819 119.707 288.849C119.634 288.879 119.568 288.923 119.513 288.978C119.457 289.034 119.413 289.1 119.383 289.173C119.353 289.245 119.338 289.323 119.338 289.402Z" fill="#CCCCCC"/>
<path d="M231.955 102.465L220.188 69.921C219.685 68.5437 218.662 67.4194 217.339 66.7908C216.015 66.1622 214.498 66.0797 213.114 66.561C212.399 66.81 211.741 67.2023 211.182 67.7141C210.622 68.2258 210.173 68.8462 209.861 69.5374C209.549 70.2287 209.381 70.9763 209.367 71.7348C209.353 72.4932 209.493 73.2466 209.779 73.9489L223.038 107.379L230.239 128.032C229.498 128.704 228.981 129.588 228.759 130.564C228.537 131.54 228.62 132.56 228.997 133.487C229.375 134.414 230.028 135.202 230.869 135.745C231.71 136.287 232.697 136.557 233.696 136.518C234.695 136.479 235.658 136.133 236.454 135.527C237.25 134.922 237.841 134.085 238.145 133.132C238.45 132.178 238.454 131.154 238.157 130.198C237.86 129.242 237.276 128.401 236.485 127.789L231.955 102.465Z" fill="#FFB6B6"/>
<path d="M214.247 55.4277L223.788 72.5191C223.788 72.5191 201.8 80.0555 201.746 78.8008C201.693 77.546 202.839 60.134 202.839 60.134L214.247 55.4277Z" fill="#E6E6E6"/>
</g>
<defs>
<clipPath id="clip0_115_713">
<rect width="348" height="290" fill="white"/>
</clipPath>
</defs>
</svg>
