<svg width="400" height="261" viewBox="0 0 400 261" fill="none" xmlns="http://www.w3.org/2000/svg">
<g clip-path="url(#clip0_115_601)">
<path d="M236.189 17.2261H191.982V18.0665H236.189V17.2261Z" fill="#CCCCCC"/>
<path d="M157.459 17.2261H17.2612V18.0665H157.459V17.2261Z" fill="#CCCCCC"/>
<path d="M17.2614 34.8719C26.7946 34.8719 34.5228 27.1595 34.5228 17.6459C34.5228 8.13226 26.7946 0.419922 17.2614 0.419922C7.72819 0.419922 0 8.13226 0 17.6459C0 27.1595 7.72819 34.8719 17.2614 34.8719Z" fill="#1373E5"/>
<path d="M95.9909 34.8719C105.524 34.8719 113.252 27.1595 113.252 17.6459C113.252 8.13226 105.524 0.419922 95.9909 0.419922C86.4577 0.419922 78.7295 8.13226 78.7295 17.6459C78.7295 27.1595 86.4577 34.8719 95.9909 34.8719Z" fill="#3F3D56"/>
<path d="M174.719 35.2928C171.222 35.2928 167.803 34.2579 164.895 32.3189C161.987 30.3799 159.721 27.6239 158.382 24.3994C157.044 21.175 156.694 17.6269 157.376 14.2038C158.058 10.7807 159.742 7.63642 162.215 5.16852C164.688 2.70063 167.839 1.01997 171.269 0.33908C174.699 -0.341811 178.255 0.00764233 181.486 1.34326C184.717 2.67887 187.478 4.94066 189.421 7.8426C191.364 10.7445 192.402 14.1563 192.402 17.6464C192.402 22.3265 190.539 26.815 187.222 30.1243C183.906 33.4337 179.409 35.2928 174.719 35.2928ZM174.719 0.840423C171.388 0.840423 168.132 1.82608 165.363 3.67275C162.593 5.51942 160.435 8.14416 159.16 11.2151C157.886 14.2859 157.552 17.6651 158.202 20.9251C158.852 24.1852 160.456 27.1797 162.811 29.5301C165.166 31.8804 168.167 33.481 171.433 34.1295C174.7 34.778 178.086 34.4452 181.163 33.1732C184.241 31.9011 186.871 29.7471 188.721 26.9833C190.572 24.2196 191.559 20.9703 191.559 17.6464C191.559 13.1892 189.785 8.91453 186.627 5.76279C183.469 2.61105 179.185 0.840423 174.719 0.840423Z" fill="#CCCCCC"/>
<path d="M253.448 35.2928C249.951 35.2928 246.532 34.2579 243.624 32.3189C240.716 30.3799 238.45 27.6239 237.112 24.3994C235.773 21.175 235.423 17.6269 236.105 14.2038C236.788 10.7807 238.472 7.63642 240.945 5.16852C243.418 2.70063 246.568 1.01997 249.999 0.33908C253.429 -0.341811 256.984 0.00764233 260.215 1.34326C263.446 2.67887 266.208 4.94066 268.151 7.8426C270.094 10.7445 271.131 14.1563 271.131 17.6464C271.131 22.3265 269.268 26.815 265.952 30.1243C262.636 33.4337 258.138 35.2928 253.448 35.2928ZM253.448 0.840423C250.118 0.840423 246.862 1.82608 244.092 3.67275C241.323 5.51942 239.164 8.14416 237.89 11.2151C236.615 14.2859 236.282 17.6651 236.931 20.9251C237.581 24.1852 239.185 27.1797 241.54 29.5301C243.895 31.8804 246.896 33.481 250.163 34.1295C253.43 34.778 256.816 34.4452 259.893 33.1732C262.97 31.9011 265.6 29.7471 267.451 26.9833C269.301 24.2196 270.289 20.9703 270.289 17.6464C270.289 15.4394 269.853 13.2541 269.007 11.2151C268.161 9.17605 266.92 7.32337 265.356 5.76279C263.793 4.20221 261.936 2.96428 259.893 2.1197C257.85 1.27512 255.66 0.840423 253.448 0.840423Z" fill="#CCCCCC"/>
<path d="M15.9325 22.782C15.6293 22.7822 15.3342 22.6841 15.0918 22.5023L15.0769 22.4911L11.9087 20.0729C11.6123 19.8462 11.4184 19.5112 11.3695 19.1418C11.3207 18.7724 11.4208 18.3988 11.648 18.103C11.8752 17.8073 12.2108 17.6138 12.581 17.565C12.9512 17.5163 13.3256 17.6162 13.6219 17.843L15.6738 19.4133L20.5225 13.1002C20.7496 12.8046 21.0851 12.6112 21.455 12.5624C21.825 12.5136 22.1993 12.6135 22.4955 12.8401L22.4656 12.8816L22.4964 12.8401C22.7923 13.067 22.9859 13.4018 23.0347 13.771C23.0835 14.1403 22.9834 14.5137 22.7566 14.8094L17.0531 22.2315C16.921 22.4026 16.7511 22.541 16.5567 22.636C16.3623 22.731 16.1485 22.78 15.9321 22.7792L15.9325 22.782Z" fill="white"/>
<path d="M306.675 91.3413C306.998 91.4884 307.308 91.6611 307.603 91.8578L337.101 79.2939L338.154 71.5395L349.94 71.4673L349.244 89.2536L310.31 99.5301C310.228 99.8 310.129 100.065 310.015 100.323C309.452 101.521 308.547 102.527 307.413 103.214C306.279 103.901 304.967 104.238 303.641 104.183C302.316 104.128 301.036 103.684 299.963 102.906C298.89 102.128 298.071 101.05 297.61 99.8092C297.148 98.5682 297.064 97.2187 297.369 95.9302C297.673 94.6418 298.352 93.4718 299.321 92.5672C300.289 91.6627 301.504 91.0639 302.812 90.846C304.121 90.6281 305.464 90.8009 306.675 91.3427L306.675 91.3413Z" fill="#FEB8B8"/>
<path d="M354.227 252.508H346.164L342.328 221.472H354.228L354.227 252.508Z" fill="#FEB8B8"/>
<path d="M340.405 250.209H355.955V259.976H330.614C330.614 257.385 331.645 254.9 333.481 253.067C335.318 251.235 337.808 250.206 340.405 250.206V250.209Z" fill="#2F2E41"/>
<path d="M385.584 250.234L377.561 251.022L370.695 220.511L382.538 219.35L385.584 250.234Z" fill="#FEB8B8"/>
<path d="M371.598 249.3L387.071 247.779L388.03 257.501L362.817 259.98C362.562 257.401 363.344 254.828 364.991 252.825C366.638 250.822 369.014 249.555 371.598 249.3H371.598Z" fill="#2F2E41"/>
<path d="M356.471 38.6201C365.392 38.6201 372.624 31.403 372.624 22.5002C372.624 13.5975 365.392 6.38037 356.471 6.38037C347.55 6.38037 340.318 13.5975 340.318 22.5002C340.318 31.403 347.55 38.6201 356.471 38.6201Z" fill="#FEB8B8"/>
<path d="M344.362 246.231C343.669 246.232 342.997 245.989 342.466 245.545C341.935 245.101 341.578 244.484 341.458 243.802C337.287 220.688 323.643 145.091 323.316 142.995C323.309 142.947 323.305 142.899 323.306 142.85V137.213C323.305 137.007 323.369 136.807 323.489 136.64L325.291 134.123C325.377 134.002 325.489 133.902 325.62 133.831C325.75 133.76 325.895 133.719 326.044 133.713C336.319 133.232 369.966 131.823 371.591 133.85C373.224 135.885 372.644 142.059 372.512 143.275L372.519 143.402L387.636 239.881C387.754 240.65 387.564 241.435 387.107 242.066C386.649 242.697 385.961 243.122 385.192 243.251L375.75 244.803C375.047 244.915 374.327 244.773 373.72 244.4C373.114 244.028 372.661 243.45 372.445 242.773C369.525 233.461 359.733 202.134 356.339 190.012C356.321 189.933 356.273 189.863 356.206 189.816C356.138 189.77 356.055 189.751 355.974 189.762C355.893 189.774 355.819 189.816 355.767 189.88C355.715 189.943 355.689 190.024 355.694 190.106C355.864 201.661 356.274 231.141 356.418 241.324L356.433 242.42C356.439 243.163 356.166 243.881 355.668 244.432C355.169 244.983 354.482 245.328 353.741 245.398L344.637 246.221C344.545 246.229 344.453 246.232 344.362 246.231Z" fill="#2F2E41"/>
<path d="M346.22 44.9586C343.401 46.6311 341.714 49.7038 340.746 52.8361C338.954 58.6257 337.875 64.6116 337.534 70.6615L336.511 88.7745L323.847 136.798C334.823 146.066 341.153 143.959 355.929 136.379C370.704 128.798 372.392 138.906 372.392 138.906L375.346 98.0443L379.567 53.3931C378.619 52.2546 377.547 51.2256 376.369 50.3256C372.468 47.2973 367.928 45.1922 363.093 44.169C358.258 43.1457 353.253 43.231 348.456 44.4184L346.22 44.9586Z" fill="#E6E6E6"/>
<path d="M342.106 101.04C342.447 101.167 342.777 101.32 343.093 101.499L372.261 86.9287L372.744 79.0358L384.776 78.208L385.421 96.2003L346.443 109.065C346.125 110.428 345.398 111.662 344.36 112.603C343.322 113.544 342.022 114.148 340.632 114.333C339.242 114.518 337.828 114.277 336.579 113.641C335.33 113.005 334.304 112.004 333.639 110.772C332.973 109.54 332.7 108.135 332.854 106.744C333.008 105.353 333.583 104.042 334.503 102.985C335.422 101.928 336.642 101.176 338 100.828C339.359 100.48 340.791 100.553 342.107 101.037L342.106 101.04Z" fill="#FEB8B8"/>
<path d="M379.357 53.5946C386.532 56.1219 387.797 83.506 387.797 83.506C379.355 78.8723 369.224 86.4547 369.224 86.4547C369.224 86.4547 367.114 79.2928 364.581 70.0258C363.816 67.419 363.724 64.6615 364.315 62.0099C364.905 59.3583 366.158 56.8989 367.957 54.8606C367.957 54.8606 372.18 51.0659 379.357 53.5946Z" fill="#E6E6E6"/>
<path d="M370.952 26.7618C368.94 25.1551 366.194 28.0744 366.194 28.0744L364.584 13.6172C364.584 13.6172 354.522 14.8203 348.08 13.2154C341.639 11.6106 340.634 19.0419 340.634 19.0419C340.301 16.0408 340.234 13.0163 340.432 10.0034C340.835 6.38813 346.067 2.77291 355.325 0.362591C364.583 -2.04772 369.413 8.39666 369.413 8.39666C375.857 11.6078 372.967 28.3704 370.952 26.7618Z" fill="#2F2E41"/>
<path d="M400 259.979H55.5825V261H400V259.979Z" fill="#1373E5"/>
<path d="M88.8084 241.952C90.2822 242.469 91.8646 242.599 93.403 242.328C94.9415 242.058 96.3843 241.397 97.5923 240.408C100.669 237.831 101.633 233.586 102.418 229.655L104.74 218.027L99.8796 221.367C96.3844 223.769 92.8108 226.247 90.3904 229.726C87.97 233.205 86.9139 237.954 88.8584 241.717" fill="#1373E5"/>
<path d="M89.5586 256.839C88.9467 252.391 88.3175 247.886 88.7468 243.391C89.1279 239.399 90.3484 235.5 92.8332 232.303C94.1521 230.609 95.7569 229.158 97.5755 228.014C98.0496 227.716 98.4863 228.466 98.0141 228.763C94.8668 230.747 92.4322 233.678 91.0616 237.132C89.5483 240.973 89.3054 245.161 89.567 249.241C89.7248 251.708 90.0588 254.16 90.3956 256.608C90.4221 256.718 90.4054 256.835 90.3491 256.934C90.2927 257.033 90.2008 257.107 90.092 257.141C89.9809 257.171 89.8625 257.156 89.7624 257.099C89.6624 257.042 89.5888 256.948 89.5576 256.838L89.5586 256.839Z" fill="#F2F2F2"/>
<path d="M93.9619 249.703C94.594 250.661 95.4628 251.441 96.4847 251.968C97.5065 252.494 98.647 252.749 99.7962 252.708C102.75 252.568 105.212 250.511 107.428 248.559L113.984 242.783L109.646 242.576C106.525 242.427 103.325 242.288 100.351 243.248C97.3767 244.208 94.6378 246.519 94.0946 249.587" fill="#1373E5"/>
<path d="M87.8297 259.395C90.7723 254.195 94.1904 248.416 100.294 246.569C101.991 246.057 103.77 245.873 105.536 246.028C106.093 246.075 105.954 246.933 105.396 246.885C102.436 246.64 99.4812 247.42 97.0298 249.094C94.6705 250.696 92.834 252.924 91.2795 255.287C90.3272 256.732 89.4743 258.242 88.6214 259.749C88.3496 260.23 87.5555 259.883 87.8297 259.395Z" fill="#F2F2F2"/>
<path d="M295.39 109.351H147.938C147.214 109.35 146.52 109.063 146.008 108.552C145.496 108.041 145.208 107.348 145.208 106.626V70.1244C145.208 69.4019 145.496 68.7093 146.008 68.1985C146.52 67.6876 147.214 67.4003 147.938 67.3994H295.39C296.114 67.4003 296.808 67.6876 297.32 68.1985C297.832 68.7093 298.12 69.4019 298.121 70.1244V106.626C298.12 107.348 297.832 108.041 297.32 108.552C296.808 109.063 296.114 109.35 295.39 109.351ZM147.938 68.4897C147.504 68.4902 147.087 68.6626 146.78 68.9691C146.473 69.2757 146.3 69.6913 146.3 70.1248V106.626C146.3 107.06 146.473 107.476 146.78 107.782C147.087 108.089 147.504 108.261 147.938 108.261H295.39C295.824 108.261 296.241 108.089 296.548 107.782C296.855 107.476 297.028 107.06 297.028 106.626V70.1244C297.028 69.6908 296.855 69.2751 296.548 68.9685C296.241 68.662 295.824 68.4896 295.39 68.4892L147.938 68.4897Z" fill="#1373E5"/>
<path d="M196.538 79.5742C196.047 79.5742 195.575 79.7692 195.228 80.1161C194.88 80.4631 194.685 80.9336 194.685 81.4243C194.685 81.9149 194.88 82.3855 195.228 82.7324C195.575 83.0794 196.047 83.2743 196.538 83.2743H283.933C284.424 83.2743 284.896 83.0794 285.244 82.7324C285.591 82.3855 285.787 81.9149 285.787 81.4243C285.787 80.9336 285.591 80.4631 285.244 80.1161C284.896 79.7692 284.424 79.5742 283.933 79.5742H196.538Z" fill="#1373E5"/>
<path d="M196.538 90.6748C196.047 90.6748 195.575 90.8697 195.228 91.2167C194.88 91.5636 194.685 92.0342 194.685 92.5248C194.685 93.0155 194.88 93.4861 195.228 93.833C195.575 94.18 196.047 94.3749 196.538 94.3749H234.144C234.636 94.3749 235.108 94.18 235.455 93.833C235.803 93.4861 235.998 93.0155 235.998 92.5248C235.998 92.0342 235.803 91.5636 235.455 91.2167C235.108 90.8697 234.636 90.6748 234.144 90.6748H196.538Z" fill="#1373E5"/>
<path d="M170.954 97.9905C177.097 97.9905 182.077 93.0207 182.077 86.8903C182.077 80.7598 177.097 75.79 170.954 75.79C164.811 75.79 159.831 80.7598 159.831 86.8903C159.831 93.0207 164.811 97.9905 170.954 97.9905Z" fill="#E7F1FC"/>
<path d="M169.206 93.0596C168.832 93.0601 168.469 92.9394 168.17 92.7156L168.151 92.7016L164.247 89.7212C163.882 89.4418 163.642 89.029 163.582 88.5736C163.521 88.1181 163.645 87.6574 163.925 87.2927C164.205 86.928 164.618 86.6893 165.075 86.6289C165.531 86.5686 165.993 86.6917 166.358 86.9711L168.887 88.906L174.862 81.1264C175.142 80.7622 175.555 80.5238 176.011 80.4637C176.467 80.4035 176.928 80.5265 177.294 80.8057L177.257 80.857L177.295 80.8057C177.66 81.0853 177.898 81.4979 177.958 81.9528C178.018 82.4077 177.895 82.8679 177.616 83.2323L170.588 92.3842C170.425 92.5948 170.216 92.7653 169.977 92.8823C169.737 92.9994 169.474 93.0599 169.208 93.0591L169.206 93.0596Z" fill="#1373E5"/>
</g>
<defs>
<clipPath id="clip0_115_601">
<rect width="400" height="261" fill="white"/>
</clipPath>
</defs>
</svg>
