<?xml version="1.0" standalone="no"?>
<!DOCTYPE svg PUBLIC "-//W3C//DTD SVG 20010904//EN"
 "http://www.w3.org/TR/2001/REC-SVG-20010904/DTD/svg10.dtd">
<svg version="1.0" xmlns="http://www.w3.org/2000/svg"
 width="624.000000pt" height="624.000000pt" viewBox="0 0 624.000000 624.000000"
 preserveAspectRatio="xMidYMid meet">
<metadata>
Created by potrace 1.14, written by Peter Selinger 2001-2017
</metadata>
<g transform="translate(0.000000,624.000000) scale(0.100000,-0.100000)"
fill="#000000" stroke="none">
<path d="M3035 5836 c-109 -114 -104 -112 -165 -76 -27 16 -50 27 -50 23 0 -3
-8 1 -17 9 -20 16 -82 43 -87 37 -2 -2 -19 -40 -39 -84 -20 -44 -42 -93 -49
-108 -13 -28 -14 -28 -73 -22 -33 3 -87 8 -120 11 -33 3 -79 10 -103 14 -23 4
-44 5 -46 1 -2 -3 27 -56 66 -116 77 -120 120 -204 142 -277 14 -47 14 -48 -7
-43 -12 2 -58 12 -102 21 -44 8 -91 18 -105 21 -35 7 -189 7 -222 -1 -16 -3
-38 -8 -50 -11 -200 -42 -420 -243 -454 -413 -4 -18 -10 -35 -15 -37 -21 -13
-84 88 -141 225 -33 80 -63 148 -67 152 -12 13 -229 -265 -265 -338 -55 -112
-75 -247 -52 -352 8 -32 7 -33 -21 -26 -38 9 -175 13 -188 5 -5 -3 -19 -7 -29
-8 -24 -4 -104 -43 -130 -63 -10 -8 -43 -37 -72 -64 -119 -110 -181 -134 -362
-143 -70 -3 -128 -6 -129 -7 -5 -4 128 -289 148 -318 13 -18 39 -46 58 -63 33
-30 151 -100 151 -90 0 3 10 1 21 -6 12 -6 49 -13 83 -16 33 -3 62 -6 64 -7 7
-8 -152 -78 -213 -94 -56 -15 -96 -18 -200 -15 -72 2 -137 3 -145 3 -49 -1
-48 -1 -40 -28 81 -267 106 -329 165 -407 68 -90 189 -174 272 -190 58 -10 76
-14 80 -18 7 -7 -44 -132 -70 -173 -52 -83 -108 -121 -282 -192 -61 -25 -70
-31 -67 -52 1 -13 9 -31 16 -39 8 -9 28 -43 45 -75 55 -105 108 -164 189 -212
108 -66 228 -88 358 -68 36 6 35 7 66 -101 58 -205 54 -279 -25 -445 -30 -63
-53 -117 -52 -118 4 -4 98 -30 210 -59 80 -21 209 -24 279 -8 32 8 60 16 63
19 3 3 20 -17 38 -44 93 -138 232 -237 401 -283 92 -26 117 -28 284 -32 85 -2
157 -4 160 -5 4 -1 -34 -20 -50 -25 -3 -1 -22 -9 -44 -18 -21 -9 -40 -17 -41
-17 -1 0 -24 -10 -51 -22 -27 -12 -52 -22 -55 -23 -13 -1 -109 -49 -109 -54 0
-3 20 -14 43 -25 23 -10 105 -49 182 -86 156 -76 244 -117 337 -156 35 -14 65
-28 67 -29 2 -2 -5 -24 -14 -50 -10 -25 -16 -46 -14 -48 87 -50 201 -88 359
-121 121 -24 195 -30 375 -30 212 0 274 7 455 51 58 14 125 34 150 45 137 58
130 51 105 111 -8 20 -15 38 -15 40 0 2 21 12 48 22 56 21 195 86 425 198 149
72 166 83 145 91 -28 12 -102 43 -143 62 -40 17 -89 37 -95 39 -12 3 -100 44
-100 47 0 2 64 3 143 3 164 1 217 7 329 40 151 44 289 143 369 268 30 45 62
61 83 40 17 -17 173 -24 251 -11 95 16 260 66 257 78 -1 6 -26 62 -54 124 -49
105 -52 116 -54 201 -2 64 3 111 17 160 10 39 21 77 22 85 2 8 7 22 10 30 3 8
7 24 9 35 3 15 10 20 33 18 112 -8 185 -3 250 17 133 41 223 117 302 255 25
44 54 94 64 111 l19 32 -77 32 c-191 79 -237 111 -295 205 -22 35 -70 156 -64
162 1 1 17 5 35 8 96 17 185 64 264 140 42 40 115 147 123 182 4 13 9 23 13
23 4 0 8 6 9 13 1 20 10 56 17 67 3 5 8 20 11 32 3 13 6 28 8 33 3 15 27 88
33 105 15 38 15 38 -161 37 -152 -2 -179 1 -244 21 -72 23 -174 73 -179 89 -2
4 16 7 38 6 126 -4 288 94 352 212 28 52 128 277 125 281 -2 1 -55 5 -118 8
-146 7 -174 12 -235 43 -50 25 -90 55 -174 132 -38 35 -113 80 -146 88 -5 1
-28 7 -49 12 -38 9 -148 8 -194 -3 -22 -5 -23 -3 -16 27 13 56 12 149 -2 215
-25 119 -86 217 -277 445 l-33 39 -33 -79 c-19 -43 -45 -101 -58 -129 -12 -28
-23 -55 -23 -59 0 -16 -63 -106 -80 -115 -16 -8 -21 -2 -36 48 -10 31 -20 59
-24 62 -3 3 -11 17 -17 32 -17 38 -38 64 -121 146 -41 39 -80 72 -88 72 -8 0
-14 4 -14 9 0 5 -8 11 -17 14 -10 3 -50 19 -88 35 -71 29 -136 42 -230 46 -58
2 -119 -6 -269 -38 -67 -14 -76 -12 -76 11 0 17 73 186 89 204 18 21 122 190
124 203 1 6 -3 10 -9 9 -24 -5 -171 -20 -259 -28 l-60 -5 -24 52 c-14 29 -25
55 -26 58 -6 27 -50 110 -59 110 -6 0 -22 -6 -36 -14 -62 -33 -163 -86 -165
-86 -2 0 -46 43 -99 95 -52 52 -97 95 -98 94 -2 0 -39 -38 -83 -83z"/>
</g>
</svg>
